<svg width="74" height="74" viewBox="0 0 74 74" fill="none" xmlns="http://www.w3.org/2000/svg">
<g filter="url(#filter0_d_664_1812)">
<circle cx="37" cy="33" r="31.5" fill="#747474" stroke="#E5E5E5" stroke-width="3"/>
<path d="M29.1997 27.2916C42.3843 23.459 48.6857 26.0192 50.26 38.4976C50.3031 38.8391 49.8762 39.0348 49.6279 38.791C44.2037 33.466 40.6534 32.3957 34.2526 34.7073C34.036 34.7855 33.9453 35.0387 34.065 35.2318L35.6948 37.8609C35.86 38.1275 35.627 38.4602 35.3133 38.4057L23.3057 36.3193C23.0924 36.2822 22.957 36.0747 23.0125 35.8697L26.1512 24.2698C26.2336 23.9652 26.6465 23.9015 26.8207 24.1665L28.7768 27.1414C28.8663 27.2775 29.0412 27.3377 29.1997 27.2916Z" fill="#E5E5E5"/>
</g>
<defs>
<filter id="filter0_d_664_1812" x="0" y="0" width="74" height="74" filterUnits="userSpaceOnUse" color-interpolation-filters="sRGB">
<feFlood flood-opacity="0" result="BackgroundImageFix"/>
<feColorMatrix in="SourceAlpha" type="matrix" values="0 0 0 0 0 0 0 0 0 0 0 0 0 0 0 0 0 0 127 0" result="hardAlpha"/>
<feOffset dy="4"/>
<feGaussianBlur stdDeviation="2"/>
<feComposite in2="hardAlpha" operator="out"/>
<feColorMatrix type="matrix" values="0 0 0 0 0 0 0 0 0 0 0 0 0 0 0 0 0 0 0.25 0"/>
<feBlend mode="normal" in2="BackgroundImageFix" result="effect1_dropShadow_664_1812"/>
<feBlend mode="normal" in="SourceGraphic" in2="effect1_dropShadow_664_1812" result="shape"/>
</filter>
</defs>
</svg>
