<svg width="21" height="23" viewBox="0 0 21 23" fill="none" xmlns="http://www.w3.org/2000/svg">
<path d="M4.69672 2.49364C14.6851 -0.409849 19.4589 1.52972 20.6515 10.983C20.6842 11.2418 20.3608 11.39 20.1727 11.2053C16.0634 7.17119 13.3738 6.36037 8.52466 8.11157C8.36064 8.1708 8.29192 8.36263 8.3826 8.50891L9.61725 10.5007C9.74241 10.7026 9.56592 10.9547 9.32829 10.9134L0.231617 9.33281C0.0699985 9.30473 -0.0325772 9.14748 0.00943715 8.99221L2.38728 0.204386C2.44971 -0.0263345 2.76251 -0.0746142 2.89448 0.1261L4.37639 2.37987C4.44415 2.48292 4.57668 2.52854 4.69672 2.49364Z" fill="#B0B5E9"/>
<path d="M16.3033 20.5064C6.31491 23.4098 1.54112 21.4703 0.348487 12.017C0.315844 11.7582 0.639247 11.61 0.827331 11.7947C4.9366 15.8288 7.6262 16.6396 12.4753 14.8884C12.6394 14.8292 12.7081 14.6374 12.6174 14.4911L11.3828 12.4993C11.2576 12.2974 11.4341 12.0453 11.6717 12.0866L20.7684 13.6672C20.93 13.6953 21.0326 13.8525 20.9906 14.0078L18.6127 22.7956C18.5503 23.0263 18.2375 23.0746 18.1055 22.8739L16.6236 20.6201C16.5558 20.5171 16.4233 20.4715 16.3033 20.5064Z" fill="#F1AEEE"/>
</svg>
