<svg width="127" height="20" viewBox="0 0 127 20" fill="none" xmlns="http://www.w3.org/2000/svg">
<path d="M7.44 15H4L0.38 1.52H3.62L4.86 6.48C5.12667 7.54667 5.34667 8.51333 5.52 9.38C5.69333 10.2333 5.8 10.8267 5.84 11.16L5.92 11.64C6.14667 10.6 6.6 8.88 7.28 6.48L8.62 1.72H10.9L12.22 6.48C12.5 7.48 12.7467 8.41333 12.96 9.28C13.1867 10.1333 13.34 10.74 13.42 11.1L13.54 11.64C13.7133 10.4533 14.0867 8.72667 14.66 6.46L15.9 1.52H19.04L15.44 15H12L10.82 10.74C10.54 9.71333 10.3067 8.84667 10.12 8.14C9.94667 7.43333 9.84 6.98 9.8 6.78L9.76 6.48C9.72 7.02667 9.36 8.44667 8.68 10.74L7.44 15ZM26.2941 14.7C25.2407 17.54 23.6341 18.96 21.4741 18.96C21.0607 18.96 20.6874 18.9267 20.3541 18.86V16.54C20.5674 16.5933 20.7941 16.62 21.0341 16.62C22.1407 16.62 22.9407 16.0267 23.4341 14.84L19.5141 4.86H22.6941L23.7941 8.02C24.0741 8.83333 24.3007 9.53333 24.4741 10.12C24.6607 10.7067 24.7741 11.0933 24.8141 11.28L24.8741 11.56C25.0207 11.0267 25.3807 9.84667 25.9541 8.02L26.9541 4.86H29.9541L26.2941 14.7ZM34.1786 15H31.2586V0.86H34.1786V6.42C34.8719 5.3 35.8786 4.74 37.1986 4.74C38.4653 4.74 39.5119 5.2 40.3386 6.12C41.1653 7.04 41.5786 8.3 41.5786 9.9C41.5786 11.3267 41.1786 12.5533 40.3786 13.58C39.5919 14.6067 38.5386 15.12 37.2186 15.12C35.8719 15.12 34.8586 14.5533 34.1786 13.42V15ZM34.1786 9.82C34.1786 10.6867 34.3853 11.38 34.7986 11.9C35.2119 12.42 35.7519 12.68 36.4186 12.68C37.0319 12.68 37.5519 12.4333 37.9786 11.94C38.4053 11.4333 38.6186 10.7733 38.6186 9.96C38.6186 9.08 38.4053 8.39333 37.9786 7.9C37.5653 7.40667 37.0519 7.16 36.4386 7.16C35.8253 7.16 35.2919 7.39333 34.8386 7.86C34.3986 8.32667 34.1786 8.98 34.1786 9.82ZM46.5052 15H43.5852V4.86H46.5052V15ZM46.2452 0.719999C46.5785 1.05333 46.7452 1.45333 46.7452 1.92C46.7452 2.38667 46.5785 2.78667 46.2452 3.12C45.9118 3.45333 45.5118 3.62 45.0452 3.62C44.5785 3.62 44.1785 3.45333 43.8452 3.12C43.5118 2.78667 43.3452 2.38667 43.3452 1.92C43.3452 1.45333 43.5118 1.05333 43.8452 0.719999C44.1785 0.386666 44.5785 0.22 45.0452 0.22C45.5118 0.22 45.9118 0.386666 46.2452 0.719999ZM56.9725 14.42C56.2792 14.8733 55.2192 15.1 53.7925 15.1C52.1258 15.1 50.8258 14.62 49.8925 13.66C48.9725 12.6867 48.5125 11.44 48.5125 9.92C48.5125 8.30667 48.9592 7.04667 49.8525 6.14C50.7592 5.22 51.8725 4.76 53.1925 4.76C54.5525 4.76 55.6258 5.16 56.4125 5.96C57.1992 6.74667 57.5925 7.92667 57.5925 9.5C57.5925 9.80667 57.5392 10.3333 57.4325 11.08H51.4725C51.6725 11.64 52.0192 12.0733 52.5125 12.38C53.0058 12.6867 53.5992 12.84 54.2925 12.84C55.3192 12.84 56.2125 12.5533 56.9725 11.98V14.42ZM53.3125 6.98C52.8458 6.98 52.4325 7.15333 52.0725 7.5C51.7125 7.83333 51.4725 8.33333 51.3525 9H54.8725V8.76C54.7792 7.57333 54.2592 6.98 53.3125 6.98ZM62.5766 15H59.6566L59.6766 4.86H62.5766V6.74C62.7632 6.15333 63.0699 5.68667 63.4966 5.34C63.9366 4.98 64.4432 4.8 65.0166 4.8C65.3366 4.8 65.5899 4.82667 65.7766 4.88V7.64C65.4566 7.49333 65.0899 7.42 64.6766 7.42C64.0499 7.42 63.5432 7.65333 63.1566 8.12C62.7699 8.57333 62.5766 9.18 62.5766 9.94V15ZM74.6589 15H66.6789V12.9L71.1189 7.1H66.8589V4.86H74.4189V6.88L69.9789 12.74H74.6589V15ZM84.5692 15H81.6492V1.2H84.5692V9.4L87.7692 4.86H91.1292L87.6092 9.72L91.1892 15H87.8092L84.5692 10.02V15ZM96.3263 13C96.7396 13 97.0596 12.8733 97.2862 12.62C97.5129 12.3667 97.6263 12.02 97.6263 11.58V10.84H96.6862C96.1929 10.84 95.8129 10.9467 95.5463 11.16C95.2796 11.3733 95.1463 11.6467 95.1463 11.98C95.1463 12.66 95.5396 13 96.3263 13ZM97.7663 13.76C97.3396 14.6267 96.4996 15.06 95.2463 15.06C94.2596 15.06 93.4863 14.78 92.9263 14.22C92.3796 13.66 92.1063 12.96 92.1063 12.12C92.1063 11.1467 92.4596 10.3933 93.1663 9.86C93.8863 9.31333 94.9463 9.04 96.3463 9.04H97.6263V8.34C97.6263 7.48667 97.0596 7.06 95.9263 7.06C94.8329 7.06 93.8196 7.36667 92.8863 7.98V5.36C93.6863 4.90667 94.8396 4.68 96.3463 4.68C97.7863 4.68 98.8596 4.99333 99.5663 5.62C100.273 6.23333 100.626 7.19333 100.626 8.5V15H97.7663V13.76ZM105.819 15H102.899L102.919 4.86H105.819V6.74C106.005 6.15333 106.312 5.68667 106.739 5.34C107.179 4.98 107.685 4.8 108.259 4.8C108.579 4.8 108.832 4.82667 109.019 4.88V7.64C108.699 7.49333 108.332 7.42 107.919 7.42C107.292 7.42 106.785 7.65333 106.399 8.12C106.012 8.57333 105.819 9.18 105.819 9.94V15ZM116.241 14.78C115.748 14.9933 115.081 15.1 114.241 15.1C111.934 15.1 110.781 13.9467 110.781 11.64V7H109.321V4.86H110.781V2.46H113.701V4.86H116.061V7H113.701V11.66C113.701 12.02 113.801 12.2933 114.001 12.48C114.214 12.6667 114.488 12.76 114.821 12.76C115.354 12.76 115.828 12.6267 116.241 12.36V14.78ZM122.336 6.98C121.869 6.98 121.456 7.15333 121.096 7.5C120.736 7.83333 120.496 8.33333 120.376 9H123.896V8.76C123.803 7.57333 123.283 6.98 122.336 6.98ZM125.976 19.26C125.336 19.5933 124.609 19.76 123.796 19.76C122.863 19.76 122.169 19.54 121.716 19.1C121.276 18.66 121.056 18.1 121.056 17.42C121.056 16.58 121.403 15.7933 122.096 15.06C120.643 14.9267 119.516 14.3867 118.716 13.44C117.929 12.4933 117.536 11.32 117.536 9.92C117.536 8.30667 117.983 7.04667 118.876 6.14C119.783 5.22 120.896 4.76 122.216 4.76C123.576 4.76 124.649 5.16 125.436 5.96C126.223 6.74667 126.616 7.92667 126.616 9.5C126.616 9.80667 126.563 10.3333 126.456 11.08H120.496C120.696 11.64 121.043 12.0733 121.536 12.38C122.029 12.6867 122.623 12.84 123.316 12.84C124.343 12.84 125.236 12.5533 125.996 11.98V14.42C125.969 14.4467 125.923 14.48 125.856 14.52C125.789 14.5467 125.743 14.5667 125.716 14.58C124.156 15.5533 123.376 16.4133 123.376 17.16C123.376 17.6133 123.663 17.84 124.236 17.84C124.823 17.84 125.403 17.64 125.976 17.24V19.26Z" fill="white"/>
</svg>
