<svg width="36" height="34" viewBox="0 0 36 34" fill="none" xmlns="http://www.w3.org/2000/svg">
<path d="M0.602343 22.0006C0.602343 21.3312 1.1417 20.7885 1.80703 20.7885H9.78808C10.4534 20.7885 10.9928 21.3312 10.9928 22.0006V30.0309C10.9928 30.7004 10.4534 31.243 9.78808 31.243H1.80703C1.1417 31.243 0.602343 30.7004 0.602343 30.0309V22.0006Z" fill="#FFC344"/>
<path d="M5.53403 28.5158H3.80229V23.4097H5.54909C6.31205 23.4097 6.93699 23.6471 7.42388 24.1218C7.91077 24.5915 8.15422 25.1774 8.15422 25.8794C8.15422 26.6976 7.91328 27.3415 7.43141 27.8112C6.95455 28.2809 6.32209 28.5158 5.53403 28.5158ZM5.51144 24.3718H4.99192V27.5612H5.51897C5.98579 27.5612 6.34468 27.4148 6.59566 27.1218C6.85165 26.8289 6.97965 26.4148 6.97965 25.8794C6.97965 25.4249 6.85165 25.0612 6.59566 24.7885C6.33966 24.5107 5.97826 24.3718 5.51144 24.3718Z" fill="white"/>
<path d="M13.369 15.6749C13.6501 15.0682 14.3669 14.8057 14.9699 15.0886L22.2032 18.4824C22.8062 18.7653 23.0671 19.4865 22.7859 20.0932L19.4129 27.3711C19.1318 27.9779 18.415 28.2403 17.812 27.9574L10.5787 24.5637C9.97573 24.2808 9.71485 23.5596 9.99603 22.9529L13.369 15.6749Z" fill="#0CACBA"/>
<path d="M16.5032 24.3979L13.644 23.0564L15.7887 18.4287L18.6206 19.7574L18.2292 20.6019L16.455 19.7695L15.9682 20.82L17.5513 21.5628L17.1631 22.4004L15.5799 21.6576L15.0931 22.7081L16.8946 23.5534L16.5032 24.3979Z" fill="white"/>
<path d="M22.1361 23.8188C22.1361 23.1494 22.6755 22.6067 23.3408 22.6067H31.3218C31.9872 22.6067 32.5265 23.1494 32.5265 23.8188V31.8491C32.5265 32.5185 31.9872 33.0612 31.3218 33.0612H23.3408C22.6755 33.0612 22.1361 32.5185 22.1361 31.8491V23.8188Z" fill="#4F66D0"/>
<path d="M28.7845 28.8643H27.1054V30.7885H25.9384V25.6824H29.0329V26.6143H27.1054V27.9324H28.7845V28.8643Z" fill="white"/>
<path d="M0 8.06122C0 7.39178 0.539356 6.8491 1.20469 6.8491H9.18573C9.85106 6.8491 10.3904 7.39178 10.3904 8.06122V16.0915C10.3904 16.761 9.85106 17.3036 9.18573 17.3036H1.20469C0.539356 17.3036 0 16.761 0 16.0915V8.06122Z" fill="#4F66D0"/>
<path d="M4.58534 12.7127L4.53263 12.8946H5.75238L5.69967 12.7127C5.55411 12.2178 5.43364 11.7961 5.33827 11.4476C5.24791 11.0991 5.1927 10.8744 5.17262 10.7733L5.1425 10.6218C5.10235 10.8996 4.91663 11.5966 4.58534 12.7127ZM3.94535 14.8794H2.73313L4.42722 9.77334H5.8879L7.58199 14.8794H6.33966L6.03096 13.8339H4.25405L3.94535 14.8794Z" fill="white"/>
<path d="M10.401 3.60454C10.2288 2.95791 10.6102 2.29326 11.2529 2.12L18.962 0.0416029C19.6046 -0.13166 20.2652 0.252077 20.4374 0.898702L22.5031 8.65538C22.6753 9.30201 22.2939 9.96666 21.6512 10.1399L13.9421 12.2183C13.2995 12.3916 12.6389 12.0078 12.4667 11.3612L10.401 3.60454Z" fill="#05E39C"/>
<path d="M17.3288 8.19838L15.2124 8.76896L13.899 3.83688L15.8044 3.32317C16.3426 3.17807 16.7867 3.19689 17.1368 3.37963C17.4856 3.5575 17.7126 3.844 17.8178 4.23915C17.8867 4.49771 17.8792 4.74286 17.7954 4.97459C17.7116 5.20633 17.5697 5.38576 17.3697 5.51288C17.9825 5.53069 18.3687 5.83961 18.5285 6.43966C18.6325 6.82993 18.5776 7.18981 18.3639 7.51931C18.1538 7.84261 17.8088 8.06897 17.3288 8.19838ZM15.855 4.27421L15.2587 4.435L15.5529 5.53996L15.9675 5.42819C16.2584 5.34976 16.4623 5.23728 16.5791 5.09074C16.7009 4.94289 16.7383 4.78116 16.6916 4.60553C16.5993 4.25917 16.3205 4.14873 15.855 4.27421ZM16.3851 6.26461L15.7887 6.42539L16.0927 7.56694L16.6818 7.40812C17.2345 7.2591 17.4602 6.99433 17.3589 6.61382C17.2576 6.2333 16.933 6.1169 16.3851 6.26461Z" fill="white"/>
<path d="M23.097 12.2144C22.8158 11.6077 23.0767 10.8865 23.6797 10.6036L30.913 7.20985C31.516 6.92693 32.2327 7.18942 32.5139 7.79614L35.8868 15.0741C36.168 15.6808 35.9071 16.402 35.3041 16.6849L28.0709 20.0786C27.4679 20.3616 26.7511 20.0991 26.4699 19.4923L23.097 12.2144Z" fill="#FE76A8"/>
<path d="M32.1076 14.946C31.9107 15.2502 31.5507 15.525 31.0275 15.7704C30.3542 16.0863 29.6893 16.1336 29.0329 15.9122C28.3789 15.684 27.8906 15.2221 27.5682 14.5264C27.2415 13.8215 27.1936 13.1446 27.4246 12.4956C27.6601 11.8446 28.1304 11.3537 28.8356 11.0228C29.3542 10.7795 29.7925 10.6797 30.1506 10.7234L30.6216 11.7396C30.1828 11.6891 29.7542 11.7621 29.3356 11.9585C28.9671 12.1313 28.7183 12.4069 28.589 12.7852C28.4575 13.159 28.4926 13.5632 28.6941 13.9981C28.8914 14.4238 29.1735 14.7038 29.5404 14.8382C29.9051 14.9679 30.2854 14.94 30.6812 14.7543C31.1088 14.5537 31.4241 14.272 31.6271 13.9093L32.1076 14.946Z" fill="white"/>
</svg>
