<svg width="34" height="36" viewBox="0 0 34 36" fill="none" xmlns="http://www.w3.org/2000/svg">
<path d="M24.1357 4.14441C20.3429 3.0808 19.5905 0.860222 16.5677 0.0484641C13.5448 -0.763294 11.8921 8.81024 12.9949 14.6823C14.0976 20.5544 19.7309 23.1087 19.7309 23.1087C19.7309 23.1087 24.3625 23.5548 27.8844 19.4439C31.4063 15.3329 35.4475 5.81564 32.9037 4.43885C30.3598 3.06206 27.9284 5.20802 24.1357 4.14441Z" fill="#B0B5E9"/>
<path d="M24.7112 9.67432C26.239 12.181 27.4647 12.5811 30.202 11.7945C30.202 11.7945 27.9472 13.9465 26.2245 12.7553C24.5017 11.564 24.7112 9.67432 24.7112 9.67432Z" fill="black"/>
<path d="M16.1436 7.37983C17.6713 9.88655 18.8971 10.2866 21.6343 9.50002C21.6343 9.50002 19.3796 11.6521 17.6568 10.4608C15.934 9.26952 16.1436 7.37983 16.1436 7.37983Z" fill="black"/>
<path d="M15.8447 16.3082C20.5963 14.559 22.6439 15.6423 25.0772 19.7127C25.8234 19.6688 24.7288 15.0944 21.458 14.2837C18.4199 13.5308 15.4703 16.1146 15.8447 16.3082Z" fill="black"/>
<path d="M9.8528 17.4182C6.00461 18.2787 4.26205 16.7012 1.21253 17.4182C-1.83699 18.1353 1.37656 27.2415 5.20593 31.8305C9.0353 36.4195 15.2258 35.9893 15.2258 35.9893C15.2258 35.9893 19.5096 34.1967 20.5987 28.9624C21.6878 23.7281 20.5987 13.5463 17.6944 13.5463C14.7901 13.5463 13.701 16.5578 9.8528 17.4182Z" fill="#F1EFDE"/>
<path d="M18.9505 23.3696C16.2399 22.1911 15.002 22.5547 13.2145 24.7319C13.2145 24.7319 13.7228 21.577 15.8284 21.577C17.934 21.577 18.9505 23.3696 18.9505 23.3696Z" fill="black"/>
<path d="M10.0924 24.947C7.38183 23.7685 6.14391 24.1322 4.35644 26.3094C4.35644 26.3094 4.8647 23.1545 6.97031 23.1545C9.07593 23.1545 10.0924 24.947 10.0924 24.947Z" fill="black"/>
<path d="M17.4916 27.8873C14.5555 31.9399 12.2427 32.1796 7.90739 30.1818C7.31477 30.6289 10.8366 34.1871 14.0064 33.0499C16.9508 31.9935 17.9118 27.8397 17.4916 27.8873Z" fill="black"/>
</svg>
