<svg width="34" height="36" viewBox="0 0 34 36" fill="none" xmlns="http://www.w3.org/2000/svg">
<path d="M9.37008 6.947C6.03776 10.4325 3.93568 11.5286 0 12.7973C3.67089 15.3685 4.88583 17.4138 8.29921 20.0689C11.9469 22.5809 13.4957 22.4709 17 22.5809V15.6729C11.5955 15.1693 8.57065 14.5149 3.17913 13.0617C8.73375 13.4626 11.7353 13.3257 17 12.7973V9.55816C16.7104 5.83578 11.9289 4.21439 9.37008 6.947Z" fill="#FE76A8"/>
<path d="M24.6299 6.947C27.9622 10.4325 30.0643 11.5286 34 12.7973C30.3291 15.3685 29.1142 17.4138 25.7008 20.0689C22.0531 22.5809 20.6476 22.4709 17 22.5809V15.6729C22.4045 15.1693 25.4293 14.5149 30.8209 13.0617C25.2663 13.4626 22.2647 13.3257 17 12.7973V9.55816C17.2896 5.83578 22.0711 4.21439 24.6299 6.947Z" fill="#FE76A8"/>
<g filter="url(#filter0_d_693_1530)">
<rect x="20.2939" width="7.39419" height="28.9616" rx="3.6971" transform="rotate(27 20.2939 0)" fill="#E4E7CC"/>
<circle cx="14.3186" cy="21.4693" r="0.279911" transform="rotate(27 14.3186 21.4693)" fill="#787465"/>
<circle cx="19.458" cy="7.84331" r="0.298358" transform="rotate(27 19.458 7.84331)" fill="#787465"/>
<circle cx="12.739" cy="20.6646" r="0.279911" transform="rotate(27 12.739 20.6646)" fill="#787465"/>
<circle cx="13.4734" cy="22.9236" r="0.279911" transform="rotate(27 13.4734 22.9236)" fill="#787465"/>
<circle cx="13.8406" cy="24.0529" r="0.279911" transform="rotate(27 13.8406 24.0529)" fill="#787465"/>
<circle cx="11.7359" cy="20.9909" r="0.373215" transform="rotate(27 11.7359 20.9909)" fill="#787465"/>
<circle cx="12.0615" cy="21.9948" r="0.373215" transform="rotate(27 12.0615 21.9948)" fill="#787465"/>
<circle cx="12.4693" cy="23.2497" r="0.373215" transform="rotate(27 12.4693 23.2497)" fill="#787465"/>
<circle cx="12.8364" cy="24.3792" r="0.373215" transform="rotate(27 12.8364 24.3792)" fill="#787465"/>
<circle cx="20.9932" cy="4.83046" r="0.397811" transform="rotate(27 20.9932 4.83046)" fill="#787465"/>
<circle cx="21.3413" cy="5.90078" r="0.397811" transform="rotate(27 21.3413 5.90078)" fill="#787465"/>
<circle cx="21.8189" cy="7.37191" r="0.397811" transform="rotate(27 21.8189 7.37191)" fill="#787465"/>
<circle cx="23.0235" cy="6.98092" r="0.397811" transform="rotate(27 23.0235 6.98092)" fill="#787465"/>
<circle cx="22.6338" cy="5.55471" r="0.397811" transform="rotate(27 22.6338 5.55471)" fill="#787465"/>
<circle cx="22.1973" cy="4.43935" r="0.397811" transform="rotate(27 22.1973 4.43935)" fill="#787465"/>
<circle cx="22.167" cy="8.4421" r="0.397811" transform="rotate(27 22.167 8.4421)" fill="#787465"/>
<circle cx="11.707" cy="24.7461" r="0.373215" transform="rotate(27 11.707 24.7461)" fill="#787465"/>
<circle cx="11.3394" cy="23.6165" r="0.373215" transform="rotate(27 11.3394 23.6165)" fill="#787465"/>
<circle cx="10.9317" cy="22.3617" r="0.373215" transform="rotate(27 10.9317 22.3617)" fill="#787465"/>
<circle cx="14.6455" cy="22.4735" r="0.373215" transform="rotate(27 14.6455 22.4735)" fill="#787465"/>
<circle cx="19.0655" cy="6.86178" r="0.397811" transform="rotate(27 19.0655 6.86178)" fill="#787465"/>
<circle cx="13.0662" cy="21.6687" r="0.279911" transform="rotate(27 13.0662 21.6687)" fill="#787465"/>
<circle cx="19.8779" cy="5.26689" r="0.298358" transform="rotate(27 19.8779 5.26689)" fill="#787465"/>
<circle cx="20.6611" cy="7.67479" r="0.298358" transform="rotate(27 20.6611 7.67479)" fill="#787465"/>
<circle cx="21.0518" cy="8.8784" r="0.298358" transform="rotate(27 21.0518 8.8784)" fill="#787465"/>
<circle cx="20.2256" cy="6.3369" r="0.298358" transform="rotate(27 20.2256 6.3369)" fill="#787465"/>
<rect x="17.4009" y="9.21198" width="4.18546" height="9.91837" rx="2.09273" transform="rotate(27 17.4009 9.21198)" fill="#E4BE59"/>
</g>
<defs>
<filter id="filter0_d_693_1530" x="4.42041" y="1.27472" width="25.187" height="34.6125" filterUnits="userSpaceOnUse" color-interpolation-filters="sRGB">
<feFlood flood-opacity="0" result="BackgroundImageFix"/>
<feColorMatrix in="SourceAlpha" type="matrix" values="0 0 0 0 0 0 0 0 0 0 0 0 0 0 0 0 0 0 127 0" result="hardAlpha"/>
<feOffset dy="4"/>
<feGaussianBlur stdDeviation="2"/>
<feComposite in2="hardAlpha" operator="out"/>
<feColorMatrix type="matrix" values="0 0 0 0 0 0 0 0 0 0 0 0 0 0 0 0 0 0 0.25 0"/>
<feBlend mode="normal" in2="BackgroundImageFix" result="effect1_dropShadow_693_1530"/>
<feBlend mode="normal" in="SourceGraphic" in2="effect1_dropShadow_693_1530" result="shape"/>
</filter>
</defs>
</svg>
