<svg width="25" height="25" viewBox="0 0 25 25" fill="none" xmlns="http://www.w3.org/2000/svg">
<g clip-path="url(#clip0_162_2885)">
<path d="M0.777588 16.8478C2.54375 21.6077 7.12554 25 12.5001 25C17.8747 25 22.4564 21.6077 24.2226 16.8478L12.5001 15.7609L0.777588 16.8478Z" fill="#FFDA44"/>
<path d="M12.5001 0C7.12554 0 2.54375 3.39219 0.777588 8.1522L12.5001 9.23911L24.2226 8.15215C22.4564 3.39219 17.8747 0 12.5001 0Z" fill="black"/>
<path d="M0.77749 8.15222C0.275049 9.50637 0 10.971 0 12.5C0 14.029 0.275049 15.4937 0.77749 16.8478H24.2226C24.725 15.4937 25 14.029 25 12.5C25 10.971 24.725 9.50637 24.2225 8.15222H0.77749Z" fill="#D80027"/>
</g>
<defs>
<clipPath id="clip0_162_2885">
<rect width="25" height="25" fill="white"/>
</clipPath>
</defs>
</svg>
