<svg width="25" height="25" viewBox="0 0 25 25" fill="none" xmlns="http://www.w3.org/2000/svg">
<g clip-path="url(#clip0_162_2889)">
<path d="M0 12.5C0 14.029 0.275049 15.4937 0.77749 16.8478L12.5 17.9348L24.2225 16.8478C24.725 15.4937 25 14.029 25 12.5C25 10.971 24.725 9.50636 24.2225 8.15221L12.5 7.06525L0.77749 8.15221C0.275049 9.50636 0 10.971 0 12.5H0Z" fill="#FFDA44"/>
<path d="M24.2226 8.1522C22.4564 3.39224 17.8747 0 12.5001 0C7.12554 0 2.54375 3.39224 0.777588 8.1522H24.2226Z" fill="#D80027"/>
<path d="M0.777588 16.8478C2.54375 21.6077 7.12554 25 12.5001 25C17.8747 25 22.4564 21.6077 24.2226 16.8478H0.777588Z" fill="#D80027"/>
</g>
<defs>
<clipPath id="clip0_162_2889">
<rect width="25" height="25" fill="white"/>
</clipPath>
</defs>
</svg>
