<svg width="53" height="53" viewBox="0 0 53 53" fill="none" xmlns="http://www.w3.org/2000/svg">
<mask id="mask0_374_2517" style="mask-type:alpha" maskUnits="userSpaceOnUse" x="0" y="0" width="50" height="50">
<circle cx="25" cy="25" r="25" fill="url(#paint0_linear_374_2517)"/>
</mask>
<g mask="url(#mask0_374_2517)">
<path d="M-3 -3H4V4H-3V-3Z" fill="white"/>
<path d="M11 -3H18V4H11V-3Z" fill="white"/>
<path d="M4 -3H11V4H4V-3Z" fill="black"/>
<path d="M18 -3H25V4H18V-3Z" fill="black"/>
<path d="M-3 11H4V18H-3V11Z" fill="white"/>
<path d="M11 11H18V18H11V11Z" fill="white"/>
<path d="M4 11H11V18H4V11Z" fill="black"/>
<path d="M18 11H25V18H18V11Z" fill="black"/>
<path d="M4 4H11V11H4V4Z" fill="white"/>
<path d="M18 4H25V11H18V4Z" fill="white"/>
<path d="M-3 4H4V11H-3V4Z" fill="black"/>
<path d="M11 4H18V11H11V4Z" fill="black"/>
<path d="M4 18H11V25H4V18Z" fill="white"/>
<path d="M18 18H25V25H18V18Z" fill="white"/>
<path d="M-3 18H4V25H-3V18Z" fill="black"/>
<path d="M11 18H18V25H11V18Z" fill="black"/>
<path d="M25 -3H32V4H25V-3Z" fill="white"/>
<path d="M39 -3H46V4H39V-3Z" fill="white"/>
<path d="M32 -3H39V4H32V-3Z" fill="black"/>
<path d="M46 -3H53V4H46V-3Z" fill="black"/>
<path d="M25 11H32V18H25V11Z" fill="white"/>
<path d="M39 11H46V18H39V11Z" fill="white"/>
<path d="M32 11H39V18H32V11Z" fill="black"/>
<path d="M46 11H53V18H46V11Z" fill="black"/>
<path d="M32 4H39V11H32V4Z" fill="white"/>
<path d="M46 4H53V11H46V4Z" fill="white"/>
<path d="M25 4H32V11H25V4Z" fill="black"/>
<path d="M39 4H46V11H39V4Z" fill="black"/>
<path d="M32 18H39V25H32V18Z" fill="white"/>
<path d="M46 18H53V25H46V18Z" fill="white"/>
<path d="M25 18H32V25H25V18Z" fill="black"/>
<path d="M39 18H46V25H39V18Z" fill="black"/>
<path d="M-3 25H4V32H-3V25Z" fill="white"/>
<path d="M11 25H18V32H11V25Z" fill="white"/>
<path d="M4 25H11V32H4V25Z" fill="black"/>
<path d="M18 25H25V32H18V25Z" fill="black"/>
<path d="M-3 39H4V46H-3V39Z" fill="white"/>
<path d="M11 39H18V46H11V39Z" fill="white"/>
<path d="M4 39H11V46H4V39Z" fill="black"/>
<path d="M18 39H25V46H18V39Z" fill="black"/>
<path d="M4 32H11V39H4V32Z" fill="white"/>
<path d="M18 32H25V39H18V32Z" fill="white"/>
<path d="M-3 32H4V39H-3V32Z" fill="black"/>
<path d="M11 32H18V39H11V32Z" fill="black"/>
<path d="M4 46H11V53H4V46Z" fill="white"/>
<path d="M18 46H25V53H18V46Z" fill="white"/>
<path d="M-3 46H4V53H-3V46Z" fill="black"/>
<path d="M11 46H18V53H11V46Z" fill="black"/>
<path d="M25 25H32V32H25V25Z" fill="white"/>
<path d="M39 25H46V32H39V25Z" fill="white"/>
<path d="M32 25H39V32H32V25Z" fill="black"/>
<path d="M46 25H53V32H46V25Z" fill="black"/>
<path d="M25 39H32V46H25V39Z" fill="white"/>
<path d="M39 39H46V46H39V39Z" fill="white"/>
<path d="M32 39H39V46H32V39Z" fill="black"/>
<path d="M46 39H53V46H46V39Z" fill="black"/>
<path d="M32 32H39V39H32V32Z" fill="white"/>
<path d="M46 32H53V39H46V32Z" fill="white"/>
<path d="M25 32H32V39H25V32Z" fill="black"/>
<path d="M39 32H46V39H39V32Z" fill="black"/>
<path d="M32 46H39V53H32V46Z" fill="white"/>
<path d="M46 46H53V53H46V46Z" fill="white"/>
<path d="M25 46H32V53H25V46Z" fill="black"/>
<path d="M39 46H46V53H39V46Z" fill="black"/>
<circle cx="25" cy="25" r="23.5" stroke="url(#paint1_linear_374_2517)" stroke-width="3"/>
</g>
<defs>
<linearGradient id="paint0_linear_374_2517" x1="25" y1="0" x2="25" y2="50" gradientUnits="userSpaceOnUse">
<stop stop-color="#0E0F11"/>
<stop offset="0.818393" stop-color="#2A2B2D"/>
<stop offset="1" stop-color="#0E0F11"/>
</linearGradient>
<linearGradient id="paint1_linear_374_2517" x1="25" y1="0" x2="25" y2="50" gradientUnits="userSpaceOnUse">
<stop stop-color="#F699F0"/>
<stop offset="0.5" stop-color="#CB48EF"/>
<stop offset="1" stop-color="#F699F0"/>
</linearGradient>
</defs>
</svg>
