<svg width="50" height="50" viewBox="0 0 50 50" fill="none" xmlns="http://www.w3.org/2000/svg">
<circle cx="25" cy="25" r="23.5" fill="url(#paint0_linear_374_2562)" stroke="url(#paint1_linear_374_2562)" stroke-width="3"/>
<path d="M27.6899 32.2097C27.5741 29.7741 28.882 26.5477 30.8637 23.6301C34.4437 18.3594 40.2226 14.0965 43.7794 17.3232C47.9878 21.1409 40.507 27.602 33.6138 30.5998C31.4561 31.5382 29.3559 32.1373 27.6899 32.2097Z" fill="#4FD5AA"/>
<path d="M14.0479 15.096C12.4654 15.1688 11.8534 14.1086 11.61 12.1338H15.5918C15.5918 12.1338 16.0161 9.24435 13.8853 9.0198C12.738 9.0198 12.4874 8.98169 11.61 9.32361C10.3035 10.1327 9.81217 10.6714 9.65937 11.906C9.41559 16.1593 10.472 17.4505 13.308 23.6785L13.3196 23.7026C13.7801 24.6583 15.8599 28.975 16.3401 33.0206C16.4818 34.2146 16.4841 35.385 16.2644 36.4384C15.9747 37.827 15.2081 39.3161 13.9569 39.9322C13.9569 39.9322 29.4869 40.1601 31.1934 39.7803C32.8998 39.4005 35.9877 36.4384 33.7937 31.0458C33.7937 31.0458 33.7297 30.8879 33.6138 30.5998C31.4561 31.5382 29.3559 32.1373 27.6899 32.2097C27.5741 29.7741 28.882 26.5477 30.8637 23.6301C29.7575 20.7704 28.5596 17.5939 27.6992 15.096H14.0479Z" fill="#E4E7CC"/>
<path d="M11.7722 39.8012C12.724 39.9282 13.063 39.9322 13.9569 39.9322C15.2081 39.3161 15.9747 37.827 16.2644 36.4384H12.7477C14.2099 34.8434 12.9098 33.1082 11.5284 33.0206C10.1469 32.933 8.87839 34.5129 9.00932 36.4384C9.27299 38.6015 10.0293 39.4018 11.7722 39.8012Z" fill="#E4E7CC"/>
<path d="M11.5284 33.0206C12.9098 33.1082 14.2099 34.8434 12.7477 36.4384H16.2644C16.4841 35.385 16.4818 34.2146 16.3401 33.0206H11.5284Z" fill="#E4E7CC"/>
<path d="M15.5918 12.1338C15.5918 12.1338 15.1897 14.9912 14.0479 15.096H27.6992H32.1685C35.3281 13.4763 34.003 9.76319 31.0308 9.32361C28.0586 8.88402 13.8853 9.0198 13.8853 9.0198C16.0161 9.24435 15.5918 12.1338 15.5918 12.1338Z" fill="#E4E7CC"/>
<path d="M11.61 12.1338C11.8534 14.1086 12.4654 15.1688 14.0479 15.096C15.1897 14.9912 15.5918 12.1338 15.5918 12.1338H11.61Z" fill="#E4E7CC"/>
<path d="M14.0479 15.096C12.4654 15.1688 11.8534 14.1086 11.61 12.1338H15.5918M14.0479 15.096C15.1897 14.9912 15.5918 12.1338 15.5918 12.1338M14.0479 15.096H27.6992M15.5918 12.1338C15.5918 12.1338 16.0161 9.24435 13.8853 9.0198M13.8853 9.0198C12.738 9.0198 12.4874 8.98169 11.61 9.32361C10.3035 10.1327 9.81217 10.6714 9.65937 11.906C9.41559 16.1593 10.472 17.4505 13.308 23.6785L13.3196 23.7026C13.7801 24.6583 15.8599 28.975 16.3401 33.0206M13.8853 9.0198C13.8853 9.0198 28.0586 8.88402 31.0308 9.32361C34.003 9.76319 35.3281 13.4763 32.1685 15.096H27.6992M13.9569 39.9322C13.063 39.9322 12.724 39.9282 11.7722 39.8012C10.0293 39.4018 9.27299 38.6015 9.00932 36.4384C8.87839 34.5129 10.1469 32.933 11.5284 33.0206M13.9569 39.9322C13.9569 39.9322 29.4869 40.1601 31.1934 39.7803C32.8998 39.4005 35.9877 36.4384 33.7937 31.0458C33.7937 31.0458 33.7297 30.8879 33.6138 30.5998M13.9569 39.9322C15.2081 39.3161 15.9747 37.827 16.2644 36.4384M11.5284 33.0206C12.9098 33.1082 14.2099 34.8434 12.7477 36.4384H16.2644M11.5284 33.0206H16.3401M27.6992 15.096C28.5596 17.5939 29.7575 20.7704 30.8637 23.6301M16.2644 36.4384C16.4841 35.385 16.4818 34.2146 16.3401 33.0206M14.535 18.7416H25.6677M16.2415 22.2354H27.1303M17.7041 25.6533H28.7555M18.7605 29.0711H26.8866M19.8169 32.4889H25.3426M19.4919 35.9068H22.8235M24.1144 35.5516L27.6899 32.2097M27.6899 32.2097L41.0166 19.7536M27.6899 32.2097C29.3559 32.1373 31.4561 31.5382 33.6138 30.5998M27.6899 32.2097C27.5741 29.7741 28.882 26.5477 30.8637 23.6301M33.6138 30.5998C40.507 27.602 47.9878 21.1409 43.7794 17.3232C40.2226 14.0965 34.4437 18.3594 30.8637 23.6301" stroke="black" stroke-linecap="round"/>
<defs>
<linearGradient id="paint0_linear_374_2562" x1="25" y1="0" x2="25" y2="50" gradientUnits="userSpaceOnUse">
<stop stop-color="#0E0F11"/>
<stop offset="0.818393" stop-color="#2A2B2D"/>
<stop offset="1" stop-color="#0E0F11"/>
</linearGradient>
<linearGradient id="paint1_linear_374_2562" x1="25" y1="0" x2="25" y2="50" gradientUnits="userSpaceOnUse">
<stop stop-color="#F699F0"/>
<stop offset="0.5" stop-color="#CB48EF"/>
<stop offset="1" stop-color="#F699F0"/>
</linearGradient>
</defs>
</svg>
