<svg width="50" height="50" viewBox="0 0 50 50" fill="none" xmlns="http://www.w3.org/2000/svg">
<circle cx="25" cy="25" r="23.5" fill="url(#paint0_linear_374_2553)" stroke="url(#paint1_linear_374_2553)" stroke-width="3"/>
<path d="M18.6967 15.4936C28.6851 12.5902 33.4589 14.5297 34.6515 23.983C34.6842 24.2418 34.3608 24.39 34.1727 24.2053C30.0634 20.1712 27.3738 19.3604 22.5247 21.1116C22.3606 21.1708 22.2919 21.3626 22.3826 21.5089L23.6172 23.5007C23.7424 23.7026 23.5659 23.9547 23.3283 23.9134L14.2316 22.3328C14.07 22.3047 13.9674 22.1475 14.0094 21.9922L16.3873 13.2044C16.4497 12.9737 16.7625 12.9254 16.8945 13.1261L18.3764 15.3799C18.4442 15.4829 18.5767 15.5285 18.6967 15.4936Z" fill="#B0B5E9"/>
<path d="M30.3033 33.5064C20.3149 36.4098 15.5411 34.4703 14.3485 25.017C14.3158 24.7582 14.6392 24.61 14.8273 24.7947C18.9366 28.8288 21.6262 29.6396 26.4753 27.8884C26.6394 27.8292 26.7081 27.6374 26.6174 27.4911L25.3828 25.4993C25.2576 25.2974 25.4341 25.0453 25.6717 25.0866L34.7684 26.6672C34.93 26.6953 35.0326 26.8525 34.9906 27.0078L32.6127 35.7956C32.5503 36.0263 32.2375 36.0746 32.1055 35.8739L30.6236 33.6201C30.5558 33.5171 30.4233 33.4715 30.3033 33.5064Z" fill="#F1AEEE"/>
<defs>
<linearGradient id="paint0_linear_374_2553" x1="25" y1="0" x2="25" y2="50" gradientUnits="userSpaceOnUse">
<stop stop-color="#0E0F11"/>
<stop offset="0.818393" stop-color="#2A2B2D"/>
<stop offset="1" stop-color="#0E0F11"/>
</linearGradient>
<linearGradient id="paint1_linear_374_2553" x1="25" y1="0" x2="25" y2="50" gradientUnits="userSpaceOnUse">
<stop stop-color="#F699F0"/>
<stop offset="0.5" stop-color="#CB48EF"/>
<stop offset="1" stop-color="#F699F0"/>
</linearGradient>
</defs>
</svg>
