<svg width="190" height="31" viewBox="0 0 190 31" fill="none" xmlns="http://www.w3.org/2000/svg">
<path d="M15 0L18.897 9.95742L29.2658 10.7102L21.3055 17.6171L23.8168 28.0398L15 22.351L6.18322 28.0398L8.6945 17.6171L0.734152 10.7102L11.103 9.95742L15 0Z" fill="#FCC106"/>
<path d="M55 0L58.897 9.95742L69.2658 10.7102L61.3055 17.6171L63.8168 28.0398L55 22.351L46.1832 28.0398L48.6945 17.6171L40.7342 10.7102L51.103 9.95742L55 0Z" fill="#FCC106"/>
<path d="M95 0L98.897 9.95742L109.266 10.7102L101.306 17.6171L103.817 28.0398L95 22.351L86.1832 28.0398L88.6945 17.6171L80.7342 10.7102L91.103 9.95742L95 0Z" fill="#FCC106"/>
<path d="M135 0L138.897 9.95742L149.266 10.7102L141.306 17.6171L143.817 28.0398L135 22.351L126.183 28.0398L128.694 17.6171L120.734 10.7102L131.103 9.95742L135 0Z" fill="#FCC106"/>
<path d="M175 0L178.897 9.95742L189.266 10.7102L181.306 17.6171L183.817 28.0398L175 22.351L166.183 28.0398L168.694 17.6171L160.734 10.7102L171.103 9.95742L175 0Z" fill="#FCC106"/>
</svg>
