<svg width="262" height="92" viewBox="0 0 262 92" fill="none" xmlns="http://www.w3.org/2000/svg">
<path d="M247.036 23.1303L247.85 33.2163L256.896 37.7492L247.556 41.64L246.04 51.6446L239.453 43.9633L229.47 45.6136L234.74 36.9755L230.085 27.9908L239.929 30.3334L247.036 23.1303Z" fill="url(#paint0_diamond_379_2192)"/>
<g filter="url(#filter0_f_379_2192)">
<rect x="233.753" y="40" width="12" height="30" rx="6" transform="rotate(12.5 233.753 40)" fill="url(#paint1_linear_379_2192)"/>
</g>
<path d="M14.2525 42.8604L21.296 50.1253L31.1599 47.8686L26.4272 56.8123L31.6215 65.4961L21.653 63.7588L14.9994 71.3823L13.5713 61.3648L4.26478 57.3927L13.3507 52.9389L14.2525 42.8604Z" fill="#B0B5E9"/>
<g filter="url(#filter1_f_379_2192)">
<rect x="14.2596" y="61.398" width="12" height="30" rx="6" transform="rotate(-21.5 14.2596 61.398)" fill="url(#paint2_linear_379_2192)"/>
</g>
<path d="M65.1137 16.0876L70.5674 24.6109L80.6832 24.366L74.2623 32.1867L77.6211 41.7317L68.1991 38.0418L60.1592 44.1858L60.7569 34.0847L52.4291 28.3369L62.2206 25.7839L65.1137 16.0876Z" fill="url(#paint3_diamond_379_2192)"/>
<g filter="url(#filter2_f_379_2192)">
<rect x="62.3407" y="35.8311" width="12" height="30" rx="6" transform="rotate(-7.5 62.3407 35.8311)" fill="url(#paint4_linear_379_2192)"/>
</g>
<path d="M129.336 25.5227L130.851 35.5273L140.192 39.4181L131.145 43.951L130.332 54.037L123.225 46.8339L113.381 49.1765L118.036 40.1918L112.766 31.5537L122.749 33.204L129.336 25.5227Z" fill="url(#paint5_diamond_379_2192)"/>
<g filter="url(#filter3_f_379_2192)">
<rect x="119.031" y="42" width="12" height="30" rx="6" transform="rotate(17 119.031 42)" fill="url(#paint6_linear_379_2192)"/>
</g>
<path d="M177.054 2.4757L182.729 10.8533L192.835 10.3438L186.621 18.3298L190.228 27.7836L180.713 24.3417L172.837 30.694L173.17 20.5807L164.694 15.0528L174.416 12.2445L177.054 2.4757Z" fill="url(#paint7_diamond_379_2192)"/>
<g filter="url(#filter4_f_379_2192)">
<rect x="175.26" y="23.4624" width="12" height="30" rx="6" transform="rotate(-7 175.26 23.4624)" fill="url(#paint8_linear_379_2192)"/>
</g>
<defs>
<filter id="filter0_f_379_2192" x="224.415" y="37.1552" width="23.8984" height="37.5759" filterUnits="userSpaceOnUse" color-interpolation-filters="sRGB">
<feFlood flood-opacity="0" result="BackgroundImageFix"/>
<feBlend mode="normal" in="SourceGraphic" in2="BackgroundImageFix" result="shape"/>
<feGaussianBlur stdDeviation="2" result="effect1_foregroundBlur_379_2192"/>
</filter>
<filter id="filter1_f_379_2192" x="12.0396" y="54.7799" width="26.6002" height="36.7507" filterUnits="userSpaceOnUse" color-interpolation-filters="sRGB">
<feFlood flood-opacity="0" result="BackgroundImageFix"/>
<feBlend mode="normal" in="SourceGraphic" in2="BackgroundImageFix" result="shape"/>
<feGaussianBlur stdDeviation="2" result="effect1_foregroundBlur_379_2192"/>
</filter>
<filter id="filter2_f_379_2192" x="59.0719" y="30.996" width="22.3508" height="37.8474" filterUnits="userSpaceOnUse" color-interpolation-filters="sRGB">
<feFlood flood-opacity="0" result="BackgroundImageFix"/>
<feBlend mode="normal" in="SourceGraphic" in2="BackgroundImageFix" result="shape"/>
<feGaussianBlur stdDeviation="2" result="effect1_foregroundBlur_379_2192"/>
</filter>
<filter id="filter3_f_379_2192" x="107.75" y="39.4905" width="25.2659" height="37.2167" filterUnits="userSpaceOnUse" color-interpolation-filters="sRGB">
<feFlood flood-opacity="0" result="BackgroundImageFix"/>
<feBlend mode="normal" in="SourceGraphic" in2="BackgroundImageFix" result="shape"/>
<feGaussianBlur stdDeviation="2" result="effect1_foregroundBlur_379_2192"/>
</filter>
<filter id="filter4_f_379_2192" x="171.946" y="18.6859" width="22.1948" height="37.8671" filterUnits="userSpaceOnUse" color-interpolation-filters="sRGB">
<feFlood flood-opacity="0" result="BackgroundImageFix"/>
<feBlend mode="normal" in="SourceGraphic" in2="BackgroundImageFix" result="shape"/>
<feGaussianBlur stdDeviation="2" result="effect1_foregroundBlur_379_2192"/>
</filter>
<radialGradient id="paint0_diamond_379_2192" cx="0" cy="0" r="1" gradientUnits="userSpaceOnUse" gradientTransform="translate(248.57 30.4814) rotate(154.571) scale(24.1923 23.4439)">
<stop offset="0.358888" stop-color="#F699F0"/>
<stop offset="0.942951" stop-color="#CB48EF"/>
</radialGradient>
<linearGradient id="paint1_linear_379_2192" x1="241.253" y1="70" x2="240.717" y2="37.4437" gradientUnits="userSpaceOnUse">
<stop stop-color="#D9D9D9" stop-opacity="0"/>
<stop offset="1" stop-color="#CB48EF"/>
</linearGradient>
<linearGradient id="paint2_linear_379_2192" x1="21.7596" y1="91.398" x2="21.2243" y2="58.8417" gradientUnits="userSpaceOnUse">
<stop stop-color="#D9D9D9" stop-opacity="0"/>
<stop offset="1" stop-color="#B0B5E9"/>
</linearGradient>
<radialGradient id="paint3_diamond_379_2192" cx="0" cy="0" r="1" gradientUnits="userSpaceOnUse" gradientTransform="translate(64.2596 25.5) rotate(67.5206) scale(15.6924)">
<stop stop-color="#FCFBEC"/>
<stop offset="1" stop-color="#CBC4AC"/>
</radialGradient>
<linearGradient id="paint4_linear_379_2192" x1="69.8407" y1="65.8311" x2="69.3054" y2="33.2748" gradientUnits="userSpaceOnUse">
<stop stop-color="#D9D9D9" stop-opacity="0"/>
<stop offset="1" stop-color="#CBC4AC"/>
</linearGradient>
<radialGradient id="paint5_diamond_379_2192" cx="0" cy="0" r="1" gradientUnits="userSpaceOnUse" gradientTransform="translate(125.26 30.5) rotate(86.6981) scale(26.0432)">
<stop stop-color="#FFFDFF"/>
<stop offset="1" stop-color="#727488"/>
</radialGradient>
<linearGradient id="paint6_linear_379_2192" x1="126.531" y1="72" x2="125.995" y2="39.4437" gradientUnits="userSpaceOnUse">
<stop stop-color="#D9D9D9" stop-opacity="0"/>
<stop offset="1" stop-color="#9192A1"/>
</linearGradient>
<radialGradient id="paint7_diamond_379_2192" cx="0" cy="0" r="1" gradientUnits="userSpaceOnUse" gradientTransform="translate(182.009 8.11821) rotate(125.071) scale(24.1923 23.4439)">
<stop offset="0.358888" stop-color="#5A5C60"/>
<stop offset="0.942951" stop-color="#2A292D"/>
</radialGradient>
<linearGradient id="paint8_linear_379_2192" x1="182.76" y1="53.4624" x2="182.224" y2="20.9061" gradientUnits="userSpaceOnUse">
<stop stop-color="#D9D9D9" stop-opacity="0"/>
<stop offset="0.922496" stop-color="#242326"/>
</linearGradient>
</defs>
</svg>
