<svg width="23" height="22" viewBox="0 0 23 22" fill="none" xmlns="http://www.w3.org/2000/svg">
<path d="M22.4204 5.393L17.2543 10.0635V0.722525L22.4204 5.393Z" fill="white"/>
<path d="M22.4204 16.607L17.2543 21.2775V11.9365L22.4204 16.607Z" fill="#CB48EF"/>
<path d="M9.79199 5.35019C10.8379 4.17497 11.5714 3.78793 13.101 3.50973H17.2879V6.84825H13.3374C12.2922 7.12309 11.7703 7.5241 10.94 8.68872C10.6454 7.2177 10.4066 6.47365 9.79199 5.35019Z" fill="white"/>
<path d="M8.67773 16.6498C7.63185 17.825 6.662 18.7685 5.13237 19.0467H0.945454C0.742861 18.9183 0.52277 18.713 0.371442 18.4903C-0.0886679 17.8132 -0.115964 17.0481 0.337676 16.3502C0.486334 16.1215 0.641565 15.8794 0.945454 15.7082L4.89601 15.7082C5.94113 15.4333 6.0778 15.1518 7.19206 13.5253C7.48671 14.9963 8.06317 15.5264 8.67773 16.6498Z" fill="white"/>
<path d="M13.2698 15.0661H17.2541V18.4475H13.2698C9.51934 17.4536 8.38866 15.8379 7.63098 11.3852C7.34048 8.13033 6.77664 6.94953 4.89599 6.24902L0.81037 6.12063C0.303889 5.86381 0.0337654 5.4358 0 4.53696C0.0337654 3.63813 0.236358 3.12451 0.81037 2.86771C0.81037 2.86771 2.19475 2.69652 4.92975 2.86771C7.66475 3.03891 9.94647 5.91587 10.3322 11.2568C11.0737 13.9354 11.7888 14.5582 13.2698 15.0661Z" fill="#CB48EF"/>
</svg>
