<svg width="260" height="214" viewBox="0 0 260 214" fill="none" xmlns="http://www.w3.org/2000/svg">
<rect x="24.5972" y="78.8071" width="93" height="146.143" rx="15" transform="rotate(-42.5098 24.5972 78.8071)" fill="url(#paint0_linear_347_2192)"/>
<path d="M159.08 116.285L164.71 118.661L169.661 115.078L169.141 121.166L174.078 124.767L168.127 126.154L166.228 131.963L163.07 126.732L156.959 126.72L160.958 122.1L159.08 116.285Z" fill="#B0B5E9"/>
<path d="M145.533 128.519L151.163 130.894L156.113 127.311L155.593 133.4L160.53 137.001L154.579 138.388L152.68 144.196L149.522 138.965L143.411 138.954L147.41 134.334L145.533 128.519Z" fill="#B0B5E9"/>
<path d="M145.533 128.519L151.163 130.894L156.113 127.311L155.593 133.4L160.53 137.001L154.579 138.388L152.68 144.196L149.522 138.965L143.411 138.954L147.41 134.334L145.533 128.519Z" fill="#B0B5E9"/>
<path d="M132.178 140.76L137.808 143.136L142.758 139.553L142.238 145.642L147.175 149.242L141.224 150.63L139.325 156.438L136.167 151.207L130.056 151.196L134.055 146.575L132.178 140.76Z" fill="#B0B5E9"/>
<path d="M118.823 153.002L124.453 155.378L129.403 151.795L128.883 157.884L133.82 161.484L127.869 162.872L125.97 168.68L122.812 163.449L116.701 163.438L120.7 158.817L118.823 153.002Z" fill="#B0B5E9"/>
<path d="M146.839 102.93L152.469 105.305L157.419 101.723L156.899 107.811L161.837 111.412L155.885 112.799L153.987 118.608L150.828 113.376L144.717 113.365L148.716 108.745L146.839 102.93Z" fill="#B0B5E9"/>
<path d="M133.291 115.163L138.921 117.539L143.871 113.956L143.352 120.045L148.289 123.645L142.338 125.033L140.439 130.841L137.28 125.61L131.17 125.599L135.169 120.978L133.291 115.163Z" fill="#B0B5E9"/>
<path d="M119.936 127.405L125.566 129.781L130.516 126.198L129.997 132.287L134.934 135.887L128.983 137.275L127.084 143.083L123.925 137.852L117.815 137.841L121.814 133.22L119.936 127.405Z" fill="#B0B5E9"/>
<path d="M106.581 139.647L112.211 142.023L117.161 138.44L116.642 144.528L121.579 148.129L115.628 149.517L113.729 155.325L110.57 150.094L104.46 150.083L108.459 145.462L106.581 139.647Z" fill="#B0B5E9"/>
<path d="M134.596 89.5749L140.227 91.9504L145.177 88.3676L144.657 94.4562L149.594 98.0569L143.643 99.4443L141.744 105.252L138.586 100.021L132.475 100.01L136.474 95.3899L134.596 89.5749Z" fill="#B0B5E9"/>
<path d="M121.049 101.808L126.679 104.184L131.629 100.601L131.11 106.69L136.047 110.29L130.096 111.678L128.197 117.486L125.039 112.255L118.928 112.244L122.927 107.623L121.049 101.808Z" fill="#B0B5E9"/>
<path d="M107.694 114.05L113.324 116.426L118.274 112.843L117.755 118.932L122.692 122.532L116.741 123.92L114.842 129.728L111.684 124.497L105.573 124.486L109.572 119.865L107.694 114.05Z" fill="#B0B5E9"/>
<path d="M94.3387 126.292L99.9687 128.668L104.919 125.085L104.399 131.173L109.337 134.774L103.385 136.162L101.487 141.97L98.3281 136.739L92.2174 136.728L96.2164 132.107L94.3387 126.292Z" fill="#B0B5E9"/>
<path d="M122.355 76.2198L127.985 78.5953L132.935 75.0125L132.415 81.1011L137.353 84.7018L131.402 86.0892L129.503 91.8974L126.344 86.6663L120.234 86.6552L124.233 82.0348L122.355 76.2198Z" fill="#B0B5E9"/>
<path d="M108.807 88.4533L114.437 90.8288L119.387 87.246L118.868 93.3346L123.805 96.9353L117.854 98.3227L115.955 104.131L112.796 98.8998L106.686 98.8887L110.685 94.2683L108.807 88.4533Z" fill="#B0B5E9"/>
<path d="M95.452 100.695L101.082 103.071L106.032 99.4879L105.513 105.576L110.45 109.177L104.499 110.565L102.6 116.373L99.4414 111.142L93.3307 111.131L97.3297 106.51L95.452 100.695Z" fill="#B0B5E9"/>
<path d="M82.097 112.937L87.727 115.313L92.6772 111.73L92.1577 117.818L97.0948 121.419L91.1437 122.806L89.2449 128.615L86.0864 123.384L79.9757 123.372L83.9747 118.752L82.097 112.937Z" fill="#B0B5E9"/>
<path d="M110.113 62.8647L115.743 65.2402L120.693 61.6574L120.174 67.746L125.111 71.3467L119.16 72.7341L117.261 78.5423L114.103 73.3112L107.992 73.3001L111.991 68.6797L110.113 62.8647Z" fill="#B0B5E9"/>
<path d="M96.5652 75.0982L102.195 77.4737L107.145 73.8909L106.626 79.9795L111.563 83.5802L105.612 84.9676L103.713 90.7758L100.555 85.5447L94.444 85.5336L98.443 80.9132L96.5652 75.0982Z" fill="#B0B5E9"/>
<path d="M83.2103 87.3401L88.8403 89.7156L93.7904 86.1328L93.271 92.2214L98.2081 95.8221L92.257 97.2095L90.3582 103.018L87.1997 97.7866L81.089 97.7755L85.088 93.1551L83.2103 87.3401Z" fill="#B0B5E9"/>
<path d="M69.8553 99.5819L75.4853 101.957L80.4355 98.3747L79.916 104.463L84.8531 108.064L78.902 109.451L77.0032 115.26L73.8447 110.028L67.734 110.017L71.7331 105.397L69.8553 99.5819Z" fill="#B0B5E9"/>
<path d="M97.8709 49.5096L103.501 51.8852L108.451 48.3024L107.932 54.3909L112.869 57.9916L106.918 59.379L105.019 65.1872L101.86 59.9561L95.7496 59.9451L99.7487 55.3246L97.8709 49.5096Z" fill="#B0B5E9"/>
<path d="M84.3235 61.7431L89.9536 64.1186L94.9037 60.5358L94.3842 66.6244L99.3214 70.2251L93.3703 71.6125L91.4714 77.4207L88.3129 72.1896L82.2023 72.1785L86.2013 67.5581L84.3235 61.7431Z" fill="#B0B5E9"/>
<path d="M70.9686 73.985L76.5986 76.3605L81.5487 72.7777L81.0293 78.8663L85.9664 82.467L80.0153 83.8544L78.1165 89.6626L74.958 84.4315L68.8473 84.4204L72.8463 79.8L70.9686 73.985Z" fill="#B0B5E9"/>
<path d="M57.6131 86.2269L63.2431 88.6024L68.1933 85.0196L67.6738 91.1081L72.6109 94.7089L66.6598 96.0963L64.761 101.904L61.6025 96.6733L55.4918 96.6623L59.4909 92.0419L57.6131 86.2269Z" fill="#B0B5E9"/>
<path d="M85.6292 36.1546L91.2592 38.5301L96.2094 34.9473L95.6899 41.0358L100.627 44.6366L94.6759 46.024L92.7771 51.8321L89.6186 46.6011L83.5079 46.59L87.507 41.9696L85.6292 36.1546Z" fill="#B0B5E9"/>
<path d="M72.0813 48.3881L77.7114 50.7636L82.6615 47.1808L82.142 53.2693L87.0792 56.87L81.1281 58.2575L79.2293 64.0656L76.0708 58.8345L69.9601 58.8235L73.9591 54.2031L72.0813 48.3881Z" fill="#B0B5E9"/>
<path d="M58.7264 60.6299L64.3564 63.0054L69.3065 59.4226L68.7871 65.5112L73.7242 69.1119L67.7731 70.4993L65.8743 76.3075L62.7158 71.0764L56.6051 71.0653L60.6041 66.4449L58.7264 60.6299Z" fill="#B0B5E9"/>
<path d="M45.3714 72.8718L51.0014 75.2473L55.9516 71.6645L55.4321 77.753L60.3692 81.3538L54.4181 82.7412L52.5193 88.5494L49.3608 83.3183L43.2501 83.3072L47.2492 78.6868L45.3714 72.8718Z" fill="#B0B5E9"/>
<path fill-rule="evenodd" clip-rule="evenodd" d="M133.644 60.1382L94.0094 145.033L78.7897 137.928L47.3561 103.636L84.3525 24.3914C86.4028 23.123 88.6839 22.3984 90.9962 22.2089L104.771 28.6401L133.644 60.1382Z" fill="url(#paint1_linear_347_2192)"/>
<path fill-rule="evenodd" clip-rule="evenodd" d="M167.7 97.2911L128.121 182.067L112.614 174.828L81.4121 140.789L118.613 61.1064C121.501 59.4398 124.809 58.8216 128.003 59.2285L136.287 63.0958C136.586 63.3734 136.877 63.6655 137.158 63.9719L167.7 97.2911Z" fill="url(#paint2_linear_347_2192)"/>
<rect x="28.8358" y="78.9914" width="87" height="140.143" rx="12" transform="rotate(-42.5098 28.8358 78.9914)" stroke="#E5E5E5" stroke-width="6"/>
<rect x="63.4136" y="48.3156" width="93" height="146" rx="15" transform="rotate(-21.0993 63.4136 48.3156)" fill="url(#paint3_linear_347_2192)"/>
<path d="M174.893 132.192L179.265 136.454L185.182 134.925L182.474 140.4L185.754 145.549L179.708 144.671L175.819 149.382L174.79 143.364L169.107 141.127L174.517 138.286L174.893 132.192Z" fill="#434347"/>
<path d="M157.815 138.636L162.187 142.898L168.103 141.368L165.396 146.843L168.676 151.992L162.63 151.114L158.741 155.826L157.712 149.808L152.028 147.571L157.438 144.73L157.815 138.636Z" fill="#434347"/>
<path d="M157.815 138.636L162.187 142.898L168.103 141.368L165.396 146.843L168.676 151.992L162.63 151.114L158.741 155.826L157.712 149.808L152.028 147.571L157.438 144.73L157.815 138.636Z" fill="#434347"/>
<path d="M140.913 145.158L145.285 149.419L151.201 147.89L148.493 153.365L151.773 158.514L145.727 157.636L141.838 162.348L140.81 156.33L135.126 154.093L140.536 151.252L140.913 145.158Z" fill="#434347"/>
<path d="M124.01 151.679L128.383 155.941L134.299 154.412L131.591 159.887L134.871 165.036L128.825 164.158L124.936 168.869L123.907 162.852L118.224 160.615L123.634 157.774L124.01 151.679Z" fill="#434347"/>
<path d="M168.378 115.306L172.75 119.568L178.666 118.039L175.959 123.514L179.239 128.663L173.193 127.785L169.304 132.496L168.275 126.479L162.591 124.241L168.001 121.4L168.378 115.306Z" fill="#434347"/>
<path d="M151.299 121.75L155.672 126.012L161.588 124.483L158.88 129.958L162.16 135.107L156.114 134.229L152.225 138.94L151.196 132.922L145.513 130.685L150.923 127.844L151.299 121.75Z" fill="#434347"/>
<path d="M134.397 128.272L138.769 132.534L144.685 131.004L141.978 136.479L145.258 141.628L139.212 140.75L135.323 145.462L134.294 139.444L128.61 137.207L134.02 134.366L134.397 128.272Z" fill="#434347"/>
<path d="M117.495 134.794L121.867 139.055L127.783 137.526L125.075 143.001L128.355 148.15L122.31 147.272L118.42 151.984L117.392 145.966L111.708 143.729L117.118 140.888L117.495 134.794Z" fill="#434347"/>
<path d="M161.862 98.4204L166.235 102.682L172.151 101.153L169.443 106.628L172.723 111.777L166.677 110.899L162.788 115.61L161.759 109.593L156.076 107.356L161.486 104.515L161.862 98.4204Z" fill="#434347"/>
<path d="M144.784 104.864L149.156 109.126L155.072 107.597L152.365 113.072L155.644 118.221L149.599 117.343L145.709 122.054L144.681 116.037L138.997 113.799L144.407 110.958L144.784 104.864Z" fill="#434347"/>
<path d="M127.881 111.386L132.254 115.648L138.17 114.119L135.462 119.594L138.742 124.743L132.696 123.865L128.807 128.576L127.778 122.558L122.095 120.321L127.505 117.48L127.881 111.386Z" fill="#434347"/>
<path d="M110.979 117.908L115.351 122.17L121.268 120.64L118.56 126.115L121.84 131.265L115.794 130.386L111.905 135.098L110.876 129.08L105.192 126.843L110.602 124.002L110.979 117.908Z" fill="#434347"/>
<path d="M155.347 81.5347L159.719 85.7964L165.635 84.2673L162.927 89.7422L166.207 94.8913L160.162 94.0132L156.272 98.7247L155.244 92.7071L149.56 90.4699L154.97 87.6288L155.347 81.5347Z" fill="#434347"/>
<path d="M138.269 87.9785L142.641 92.2402L148.557 90.7111L145.849 96.1861L149.129 101.335L143.083 100.457L139.194 105.169L138.166 99.1509L132.482 96.9137L137.892 94.0726L138.269 87.9785Z" fill="#434347"/>
<path d="M121.366 94.5003L125.739 98.7621L131.655 97.2329L128.947 102.708L132.227 107.857L126.181 106.979L122.292 111.69L121.263 105.673L115.58 103.436L120.99 100.594L121.366 94.5003Z" fill="#434347"/>
<path d="M104.464 101.022L108.836 105.284L114.752 103.755L112.045 109.23L115.325 114.379L109.279 113.501L105.39 118.212L104.361 112.195L98.6773 109.957L104.087 107.116L104.464 101.022Z" fill="#434347"/>
<path d="M148.832 64.6489L153.204 68.9106L159.12 67.3815L156.412 72.8565L159.692 78.0055L153.646 77.1275L149.757 81.8389L148.728 75.8213L143.045 73.5841L148.455 70.743L148.832 64.6489Z" fill="#434347"/>
<path d="M131.753 71.0927L136.125 75.3545L142.041 73.8253L139.334 79.3003L142.614 84.4493L136.568 83.5713L132.679 88.2828L131.65 82.2651L125.966 80.0279L131.376 77.1868L131.753 71.0927Z" fill="#434347"/>
<path d="M114.851 77.6145L119.223 81.8763L125.139 80.3471L122.431 85.8221L125.711 90.9712L119.665 90.0931L115.776 94.8046L114.748 88.7869L109.064 86.5497L114.474 83.7087L114.851 77.6145Z" fill="#434347"/>
<path d="M97.9482 84.1364L102.321 88.3981L108.237 86.869L105.529 92.3439L108.809 97.493L102.763 96.6149L98.874 101.326L97.8452 95.3088L92.1617 93.0716L97.5717 90.2305L97.9482 84.1364Z" fill="#434347"/>
<path d="M142.316 47.7631L146.688 52.0249L152.604 50.4957L149.897 55.9707L153.177 61.1197L147.131 60.2417L143.242 64.9531L142.213 58.9355L136.529 56.6983L141.939 53.8572L142.316 47.7631Z" fill="#434347"/>
<path d="M125.238 54.2069L129.61 58.4687L135.526 56.9395L132.819 62.4145L136.098 67.5636L130.053 66.6855L126.164 71.397L125.135 65.3794L119.451 63.1421L124.861 60.3011L125.238 54.2069Z" fill="#434347"/>
<path d="M108.335 60.7288L112.708 64.9905L118.624 63.4614L115.916 68.9363L119.196 74.0854L113.15 73.2074L109.261 77.9188L108.232 71.9012L102.549 69.664L107.959 66.8229L108.335 60.7288Z" fill="#434347"/>
<path d="M91.4331 67.2506L95.8054 71.5124L101.722 69.9832L99.0139 75.4582L102.294 80.6072L96.248 79.7292L92.3589 84.4406L91.3301 78.423L85.6466 76.1858L91.0566 73.3447L91.4331 67.2506Z" fill="#434347"/>
<path d="M135.801 30.8775L140.173 35.1393L146.089 33.6101L143.382 39.0851L146.661 44.2341L140.616 43.3561L136.727 48.0676L135.698 42.0499L130.014 39.8127L135.424 36.9717L135.801 30.8775Z" fill="#434347"/>
<path d="M118.722 37.3212L123.095 41.583L129.011 40.0538L126.303 45.5288L129.583 50.6778L123.537 49.7998L119.648 54.5113L118.619 48.4936L112.936 46.2564L118.346 43.4153L118.722 37.3212Z" fill="#434347"/>
<path d="M101.82 43.843L106.192 48.1048L112.108 46.5756L109.401 52.0506L112.681 57.1996L106.635 56.3216L102.746 61.0331L101.717 55.0154L96.0333 52.7782L101.443 49.9372L101.82 43.843Z" fill="#434347"/>
<path d="M84.9175 50.3648L89.2898 54.6266L95.206 53.0974L92.4983 58.5724L95.7782 63.7214L89.7324 62.8434L85.8433 67.5548L84.8144 61.5372L79.131 59.3L84.5409 56.4589L84.9175 50.3648Z" fill="#434347"/>
<path fill-rule="evenodd" clip-rule="evenodd" d="M171.729 70.6877L103.826 135.223L92.2563 123.066L75.5266 79.7081L138.909 19.4685C141.282 19.0359 143.671 19.1943 145.893 19.8625L156.362 30.8625L171.729 70.6877Z" fill="url(#paint4_linear_347_2192)"/>
<path fill-rule="evenodd" clip-rule="evenodd" d="M189.854 117.663L122.047 182.107L110.258 169.721L93.652 126.683L157.385 66.1108C160.684 65.6129 163.992 66.2464 166.819 67.7936L173.106 74.3995C173.286 74.7722 173.453 75.1552 173.604 75.5483L189.854 117.663Z" fill="url(#paint5_linear_347_2192)"/>
<rect x="67.2924" y="50.0345" width="87" height="140" rx="12" transform="rotate(-21.0993 67.2924 50.0345)" stroke="#E5E5E5" stroke-width="6"/>
<rect x="109.33" y="37.0904" width="93" height="146" rx="15" transform="rotate(-2.25573 109.33 37.0904)" fill="url(#paint6_linear_347_2192)"/>
<path d="M187.744 152.477L190.506 157.923L196.599 158.387L192.268 162.694L193.709 168.626L188.271 165.842L183.068 169.045L184.038 163.018L179.382 159.065L185.42 158.123L187.744 152.477Z" fill="url(#paint7_diamond_347_2192)"/>
<path d="M169.5 153.06L172.261 158.505L178.354 158.969L174.023 163.276L175.464 169.208L170.026 166.425L164.824 169.628L165.794 163.6L161.137 159.647L167.175 158.706L169.5 153.06Z" fill="url(#paint8_diamond_347_2192)"/>
<path d="M169.5 153.06L172.261 158.505L178.354 158.969L174.023 163.276L175.464 169.208L170.026 166.425L164.824 169.628L165.794 163.6L161.137 159.647L167.175 158.706L169.5 153.06Z" fill="url(#paint9_diamond_347_2192)"/>
<path d="M151.397 153.773L154.158 159.218L160.251 159.682L155.92 163.989L157.361 169.922L151.923 167.138L146.721 170.341L147.691 164.313L143.034 160.36L149.072 159.419L151.397 153.773Z" fill="url(#paint10_diamond_347_2192)"/>
<path d="M133.294 154.486L136.056 159.932L142.149 160.395L137.818 164.702L139.259 170.635L133.821 167.851L128.618 171.054L129.588 165.026L124.932 161.073L130.969 160.132L133.294 154.486Z" fill="url(#paint11_diamond_347_2192)"/>
<path d="M187.032 134.392L189.793 139.838L195.886 140.302L191.556 144.609L192.997 150.541L187.558 147.757L182.356 150.96L183.326 144.933L178.67 140.98L184.707 140.038L187.032 134.392Z" fill="url(#paint12_diamond_347_2192)"/>
<path d="M168.787 134.975L171.549 140.42L177.642 140.884L173.311 145.191L174.752 151.123L169.314 148.34L164.111 151.542L165.081 145.515L160.425 141.562L166.463 140.621L168.787 134.975Z" fill="url(#paint13_diamond_347_2192)"/>
<path d="M150.684 135.688L153.446 141.133L159.539 141.597L155.208 145.904L156.649 151.836L151.211 149.053L146.008 152.256L146.978 146.228L142.322 142.275L148.36 141.334L150.684 135.688Z" fill="url(#paint14_diamond_347_2192)"/>
<path d="M132.582 136.401L135.343 141.846L141.436 142.31L137.105 146.617L138.546 152.549L133.108 149.766L127.906 152.969L128.876 146.941L124.219 142.988L130.257 142.047L132.582 136.401Z" fill="url(#paint15_diamond_347_2192)"/>
<path d="M186.319 116.307L189.081 121.753L195.174 122.216L190.843 126.523L192.284 132.456L186.846 129.672L181.644 132.875L182.613 126.848L177.957 122.895L183.995 121.953L186.319 116.307Z" fill="url(#paint16_diamond_347_2192)"/>
<path d="M168.075 116.89L170.836 122.335L176.929 122.799L172.598 127.106L174.04 133.038L168.601 130.255L163.399 133.457L164.369 127.43L159.713 123.477L165.75 122.536L168.075 116.89Z" fill="url(#paint17_diamond_347_2192)"/>
<path d="M149.972 117.603L152.734 123.048L158.827 123.512L154.496 127.819L155.937 133.751L150.499 130.968L145.296 134.17L146.266 128.143L141.61 124.19L147.648 123.249L149.972 117.603Z" fill="url(#paint18_diamond_347_2192)"/>
<path d="M131.869 118.316L134.631 123.761L140.724 124.225L136.393 128.532L137.834 134.464L132.396 131.681L127.193 134.884L128.163 128.856L123.507 124.903L129.545 123.962L131.869 118.316Z" fill="url(#paint19_diamond_347_2192)"/>
<path d="M185.607 98.222L188.369 103.668L194.462 104.131L190.131 108.438L191.572 114.371L186.134 111.587L180.931 114.79L181.901 108.762L177.245 104.809L183.282 103.868L185.607 98.222Z" fill="url(#paint20_diamond_347_2192)"/>
<path d="M167.362 98.8044L170.124 104.25L176.217 104.714L171.886 109.021L173.327 114.953L167.889 112.169L162.687 115.372L163.656 109.345L159 105.392L165.038 104.45L167.362 98.8044Z" fill="url(#paint21_diamond_347_2192)"/>
<path d="M149.26 99.5175L152.021 104.963L158.114 105.427L153.784 109.734L155.225 115.666L149.786 112.882L144.584 116.085L145.554 110.058L140.898 106.105L146.935 105.163L149.26 99.5175Z" fill="url(#paint22_diamond_347_2192)"/>
<path d="M131.157 100.231L133.918 105.676L140.011 106.14L135.681 110.447L137.122 116.379L131.683 113.595L126.481 116.798L127.451 110.771L122.795 106.818L128.832 105.876L131.157 100.231Z" fill="url(#paint23_diamond_347_2192)"/>
<path d="M184.895 80.1369L187.656 85.5825L193.749 86.0461L189.418 90.3531L190.859 96.2855L185.421 93.5018L180.219 96.7047L181.189 90.6773L176.532 86.7243L182.57 85.7828L184.895 80.1369Z" fill="url(#paint24_diamond_347_2192)"/>
<path d="M166.65 80.7193L169.412 86.1648L175.505 86.6285L171.174 90.9355L172.615 96.8679L167.177 94.0842L161.974 97.287L162.944 91.2596L158.288 87.3067L164.325 86.3652L166.65 80.7193Z" fill="url(#paint25_diamond_347_2192)"/>
<path d="M148.548 81.4324L151.309 86.8779L157.402 87.3416L153.071 91.6485L154.512 97.581L149.074 94.7973L143.872 98.0001L144.841 91.9727L140.185 88.0197L146.223 87.0783L148.548 81.4324Z" fill="url(#paint26_diamond_347_2192)"/>
<path d="M130.444 82.1455L133.206 87.591L139.299 88.0546L134.968 92.3616L136.409 98.2941L130.971 95.5104L125.769 98.7132L126.738 92.6858L122.082 88.7328L128.12 87.7914L130.444 82.1455Z" fill="url(#paint27_diamond_347_2192)"/>
<path d="M184.182 62.0518L186.944 67.4973L193.037 67.961L188.706 72.268L190.147 78.2004L184.709 75.4167L179.506 78.6195L180.476 72.5921L175.82 68.6391L181.858 67.6977L184.182 62.0518Z" fill="url(#paint28_diamond_347_2192)"/>
<path d="M165.938 62.6342L168.699 68.0797L174.792 68.5433L170.461 72.8503L171.902 78.7828L166.464 75.9991L161.262 79.2019L162.232 73.1745L157.575 69.2215L163.613 68.2801L165.938 62.6342Z" fill="url(#paint29_diamond_347_2192)"/>
<path d="M147.835 63.3472L150.597 68.7928L156.69 69.2564L152.359 73.5634L153.8 79.4958L148.362 76.7122L143.159 79.915L144.129 73.8876L139.473 69.9346L145.51 68.9931L147.835 63.3472Z" fill="url(#paint30_diamond_347_2192)"/>
<path d="M129.732 64.0603L132.494 69.5059L138.587 69.9695L134.256 74.2765L135.697 80.2089L130.259 77.4253L125.056 80.6281L126.026 74.6007L121.37 70.6477L127.407 69.7062L129.732 64.0603Z" fill="url(#paint31_diamond_347_2192)"/>
<path d="M183.47 43.9666L186.231 49.4121L192.324 49.8758L187.994 54.1828L189.435 60.1152L183.996 57.3315L178.794 60.5343L179.764 54.5069L175.108 50.554L181.145 49.6125L183.47 43.9666Z" fill="url(#paint32_diamond_347_2192)"/>
<path d="M165.226 44.549L167.987 49.9945L174.08 50.4582L169.749 54.7652L171.19 60.6976L165.752 57.9139L160.55 61.1167L161.52 55.0893L156.863 51.1363L162.901 50.1949L165.226 44.549Z" fill="url(#paint33_diamond_347_2192)"/>
<path d="M147.123 45.2621L149.884 50.7076L155.977 51.1713L151.646 55.4783L153.087 61.4107L147.649 58.627L142.447 61.8298L143.417 55.8024L138.76 51.8494L144.798 50.908L147.123 45.2621Z" fill="url(#paint34_diamond_347_2192)"/>
<path d="M129.02 45.9752L131.781 51.4207L137.874 51.8843L133.543 56.1913L134.984 62.1238L129.546 59.3401L124.344 62.5429L125.314 56.5155L120.657 52.5625L126.695 51.6211L129.02 45.9752Z" fill="url(#paint35_diamond_347_2192)"/>
<path fill-rule="evenodd" clip-rule="evenodd" d="M204.614 93.2476L119.507 132.392L112.483 117.15L110.654 70.7126L190.096 34.1735C192.482 34.5304 194.692 35.4519 196.579 36.8023L202.934 50.5936L204.614 93.2476Z" fill="url(#paint36_linear_347_2192)"/>
<path fill-rule="evenodd" clip-rule="evenodd" d="M206.596 143.559L121.608 182.649L114.452 167.119L112.636 121.024L192.517 84.2833C195.8 84.8776 198.727 86.5457 200.902 88.9231L204.719 97.2055C204.769 97.6164 204.803 98.0327 204.819 98.4537L206.596 143.559Z" fill="url(#paint37_linear_347_2192)"/>
<rect x="112.446" y="39.97" width="87" height="140" rx="12" transform="rotate(-2.25573 112.446 39.97)" stroke="#E5E5E5" stroke-width="6"/>
<rect x="159.898" y="40.1794" width="93" height="146" rx="15" transform="rotate(20.2131 159.898 40.1794)" fill="url(#paint38_linear_347_2192)"/>
<path d="M188.261 176.776L188.732 182.863L194.185 185.62L188.537 187.945L187.601 193.978L183.64 189.327L177.608 190.299L180.808 185.099L178.016 179.667L183.955 181.104L188.261 176.776Z" fill="url(#paint39_diamond_347_2192)"/>
<path d="M171.179 170.341L171.65 176.429L177.103 179.186L171.455 181.511L170.519 187.543L166.558 182.893L160.526 183.864L163.726 178.665L160.934 173.232L166.873 174.67L171.179 170.341Z" fill="url(#paint40_diamond_347_2192)"/>
<path d="M171.179 170.341L171.65 176.429L177.103 179.186L171.455 181.511L170.519 187.543L166.558 182.893L160.526 183.864L163.726 178.665L160.934 173.232L166.873 174.67L171.179 170.341Z" fill="url(#paint41_diamond_347_2192)"/>
<path d="M154.178 164.081L154.649 170.169L160.102 172.926L154.454 175.251L153.518 181.284L149.557 176.633L143.525 177.604L146.725 172.405L143.933 166.973L149.872 168.41L154.178 164.081Z" fill="url(#paint42_diamond_347_2192)"/>
<path d="M137.177 157.822L137.648 163.909L143.101 166.666L137.453 168.991L136.517 175.024L132.556 170.373L126.524 171.345L129.724 166.146L126.932 160.713L132.871 162.151L137.177 157.822Z" fill="url(#paint43_diamond_347_2192)"/>
<path d="M194.515 159.791L194.985 165.879L200.439 168.636L194.791 170.961L193.855 176.993L189.893 172.343L183.862 173.314L187.062 168.115L184.27 162.682L190.209 164.12L194.515 159.791Z" fill="url(#paint44_diamond_347_2192)"/>
<path d="M177.433 153.357L177.903 159.444L183.357 162.201L177.709 164.526L176.773 170.559L172.811 165.908L166.78 166.88L169.98 161.68L167.188 156.248L173.127 157.685L177.433 153.357Z" fill="url(#paint45_diamond_347_2192)"/>
<path d="M160.432 147.097L160.902 153.184L166.356 155.942L160.708 158.266L159.772 164.299L155.81 159.648L149.779 160.62L152.979 155.421L150.187 149.988L156.126 151.426L160.432 147.097Z" fill="url(#paint46_diamond_347_2192)"/>
<path d="M143.43 140.837L143.901 146.925L149.354 149.682L143.706 152.007L142.77 158.04L138.809 153.389L132.777 154.36L135.977 149.161L133.185 143.729L139.124 145.166L143.43 140.837Z" fill="url(#paint47_diamond_347_2192)"/>
<path d="M200.768 142.807L201.239 148.894L206.692 151.651L201.044 153.976L200.108 160.009L196.147 155.358L190.115 156.329L193.315 151.13L190.523 145.698L196.462 147.135L200.768 142.807Z" fill="url(#paint48_diamond_347_2192)"/>
<path d="M183.686 136.372L184.157 142.46L189.61 145.217L183.962 147.542L183.026 153.574L179.065 148.924L173.033 149.895L176.233 144.696L173.441 139.263L179.38 140.701L183.686 136.372Z" fill="url(#paint49_diamond_347_2192)"/>
<path d="M166.685 130.112L167.156 136.2L172.609 138.957L166.961 141.282L166.025 147.315L162.064 142.664L156.032 143.635L159.232 138.436L156.44 133.004L162.379 134.441L166.685 130.112Z" fill="url(#paint50_diamond_347_2192)"/>
<path d="M149.684 123.853L150.154 129.94L155.608 132.697L149.959 135.022L149.024 141.055L145.062 136.404L139.031 137.376L142.231 132.177L139.439 126.744L145.378 128.182L149.684 123.853Z" fill="url(#paint51_diamond_347_2192)"/>
<path d="M207.022 125.822L207.492 131.91L212.946 134.667L207.297 136.991L206.362 143.024L202.4 138.374L196.369 139.345L199.569 134.146L196.777 128.713L202.716 130.151L207.022 125.822Z" fill="url(#paint52_diamond_347_2192)"/>
<path d="M189.94 119.388L190.41 125.475L195.864 128.232L190.215 130.557L189.28 136.59L185.318 131.939L179.287 132.911L182.487 127.711L179.694 122.279L185.634 123.716L189.94 119.388Z" fill="url(#paint53_diamond_347_2192)"/>
<path d="M172.939 113.128L173.409 119.215L178.863 121.973L173.214 124.297L172.279 130.33L168.317 125.679L162.286 126.651L165.486 121.452L162.694 116.019L168.633 117.457L172.939 113.128Z" fill="url(#paint54_diamond_347_2192)"/>
<path d="M155.938 106.868L156.408 112.956L161.862 115.713L156.213 118.038L155.278 124.071L151.316 119.42L145.285 120.391L148.485 115.192L145.693 109.76L151.632 111.197L155.938 106.868Z" fill="url(#paint55_diamond_347_2192)"/>
<path d="M213.275 108.837L213.746 114.925L219.199 117.682L213.551 120.007L212.616 126.04L208.654 121.389L202.623 122.36L205.822 117.161L203.03 111.729L208.97 113.166L213.275 108.837Z" fill="url(#paint56_diamond_347_2192)"/>
<path d="M196.193 102.403L196.664 108.491L202.117 111.248L196.469 113.572L195.534 119.605L191.572 114.955L185.541 115.926L188.74 110.727L185.948 105.294L191.888 106.732L196.193 102.403Z" fill="url(#paint57_diamond_347_2192)"/>
<path d="M179.192 96.1434L179.663 102.231L185.116 104.988L179.468 107.313L178.532 113.346L174.571 108.695L168.539 109.666L171.739 104.467L168.947 99.0347L174.886 100.472L179.192 96.1434Z" fill="url(#paint58_diamond_347_2192)"/>
<path d="M162.191 89.8837L162.662 95.9713L168.115 98.7284L162.467 101.053L161.531 107.086L157.57 102.435L151.538 103.407L154.738 98.2076L151.946 92.7751L157.885 94.2126L162.191 89.8837Z" fill="url(#paint59_diamond_347_2192)"/>
<path d="M219.529 91.8529L220 97.9405L225.453 100.698L219.805 103.022L218.869 109.055L214.908 104.405L208.876 105.376L212.076 100.177L209.284 94.7443L215.223 96.1818L219.529 91.8529Z" fill="url(#paint60_diamond_347_2192)"/>
<path d="M202.447 85.4185L202.918 91.506L208.371 94.2631L202.723 96.5879L201.787 102.621L197.826 97.97L191.794 98.9414L194.994 93.7423L192.202 88.3098L198.141 89.7473L202.447 85.4185Z" fill="url(#paint61_diamond_347_2192)"/>
<path d="M185.445 79.1588L185.916 85.2464L191.369 88.0035L185.721 90.3283L184.786 96.3611L180.824 91.7104L174.793 92.6818L177.992 87.4827L175.2 82.0502L181.139 83.4877L185.445 79.1588Z" fill="url(#paint62_diamond_347_2192)"/>
<path d="M168.444 72.8992L168.915 78.9868L174.368 81.7438L168.72 84.0687L167.785 90.1015L163.823 85.4508L157.792 86.4222L160.991 81.223L158.199 75.7906L164.138 77.2281L168.444 72.8992Z" fill="url(#paint63_diamond_347_2192)"/>
<path d="M225.782 74.8684L226.253 80.956L231.706 83.713L226.058 86.0379L225.122 92.0707L221.161 87.42L215.129 88.3914L218.329 83.1923L215.537 77.7598L221.476 79.1973L225.782 74.8684Z" fill="url(#paint64_diamond_347_2192)"/>
<path d="M208.7 68.4339L209.171 74.5215L214.624 77.2786L208.976 79.6034L208.04 85.6362L204.079 80.9855L198.047 81.9569L201.247 76.7578L198.455 71.3253L204.394 72.7628L208.7 68.4339Z" fill="url(#paint65_diamond_347_2192)"/>
<path d="M191.699 62.1743L192.17 68.2619L197.623 71.019L191.975 73.3438L191.039 79.3766L187.078 74.7259L181.046 75.6973L184.246 70.4982L181.454 65.0657L187.393 66.5032L191.699 62.1743Z" fill="url(#paint66_diamond_347_2192)"/>
<path d="M174.698 55.9147L175.169 62.0023L180.622 64.7593L174.974 67.0842L174.038 73.117L170.077 68.4662L164.045 69.4377L167.245 64.2385L164.453 58.8061L170.392 60.2435L174.698 55.9147Z" fill="url(#paint67_diamond_347_2192)"/>
<path fill-rule="evenodd" clip-rule="evenodd" d="M226.487 128.489L132.88 132.136L132.215 115.367L148.273 71.7555L235.648 68.3513C237.716 69.5927 239.406 71.2889 240.634 73.2581L241.236 88.4312L226.487 128.489Z" fill="url(#paint68_linear_347_2192)"/>
<path fill-rule="evenodd" clip-rule="evenodd" d="M209.09 175.739L115.614 179.381L114.937 162.295L130.876 119.005L218.734 115.582C221.541 117.386 223.608 120.046 224.71 123.074L225.071 132.187C224.961 132.586 224.833 132.983 224.687 133.379L209.09 175.739Z" fill="url(#paint69_linear_347_2192)"/>
<rect x="161.677" y="44.0312" width="87" height="140" rx="12" transform="rotate(20.2131 161.677 44.0312)" stroke="#E5E5E5" stroke-width="6"/>
<path d="M174.189 104.756C193.472 106.071 200.538 112.537 196.511 129.888C196.4 130.363 195.741 130.415 195.532 129.97C190.977 120.256 186.813 117.108 177.231 117.068C176.907 117.067 176.663 117.36 176.727 117.674L177.592 121.961C177.68 122.396 177.209 122.725 176.822 122.5L161.989 113.89C161.726 113.737 161.649 113.395 161.822 113.15L171.643 99.2578C171.901 98.8931 172.477 99.0091 172.577 99.4459L173.704 104.351C173.756 104.575 173.957 104.74 174.189 104.756Z" fill="#B0B5E9"/>
<path d="M182.781 143.806C163.498 142.49 156.431 136.024 160.459 118.674C160.569 118.199 161.229 118.146 161.437 118.591C165.993 128.305 170.156 131.454 179.739 131.493C180.063 131.494 180.306 131.202 180.243 130.887L179.378 126.6C179.29 126.166 179.76 125.837 180.148 126.062L194.98 134.672C195.244 134.825 195.321 135.166 195.148 135.412L185.327 149.304C185.069 149.668 184.493 149.552 184.392 149.116L183.266 144.211C183.214 143.986 183.013 143.821 182.781 143.806Z" fill="#F1AEEE"/>
<path d="M22.1447 65.7083L23.0858 69.6444L26.6864 71.4922L22.7503 72.4333L20.9025 76.0339L19.9614 72.0978L16.3608 70.25L20.2969 69.3089L22.1447 65.7083Z" fill="white"/>
<g filter="url(#filter0_f_347_2192)">
<path d="M22.718 60.9427L24.5277 68.5121L31.4519 72.0655L23.8825 73.8753L20.3291 80.7995L18.5193 73.23L11.5951 69.6766L19.1646 67.8669L22.718 60.9427Z" fill="white"/>
</g>
<path d="M86.5706 66.0057L87.0412 67.9738L88.8415 68.8977L86.8734 69.3682L85.9495 71.1685L85.479 69.2005L83.6787 68.2766L85.6468 67.806L86.5706 66.0057Z" fill="white"/>
<g filter="url(#filter1_f_347_2192)">
<path d="M86.8568 63.6229L87.7617 67.4076L91.2238 69.1843L87.439 70.0892L85.6623 73.5513L84.7575 69.7666L81.2954 67.9899L85.0801 67.085L86.8568 63.6229Z" fill="white"/>
</g>
<path d="M67.1693 135.184L67.6398 137.152L69.4401 138.076L67.4721 138.546L66.5482 140.346L66.0776 138.378L64.2773 137.454L66.2454 136.984L67.1693 135.184Z" fill="white"/>
<g filter="url(#filter2_f_347_2192)">
<path d="M67.4554 132.801L68.3603 136.585L71.8224 138.362L68.0377 139.267L66.261 142.729L65.3561 138.944L61.894 137.168L65.6787 136.263L67.4554 132.801Z" fill="white"/>
</g>
<path d="M142.147 148.233L142.618 150.201L144.418 151.125L142.45 151.595L141.526 153.395L141.056 151.427L139.255 150.503L141.223 150.033L142.147 148.233Z" fill="white"/>
<g filter="url(#filter3_f_347_2192)">
<path d="M142.433 145.85L143.338 149.635L146.8 151.411L143.016 152.316L141.239 155.778L140.334 151.993L136.872 150.217L140.657 149.312L142.433 145.85Z" fill="white"/>
</g>
<path d="M217.305 92.813L217.776 94.7811L219.576 95.705L217.608 96.1755L216.684 97.9758L216.213 96.0077L214.413 95.0838L216.381 94.6133L217.305 92.813Z" fill="white"/>
<g filter="url(#filter4_f_347_2192)">
<path d="M217.591 90.4301L218.496 94.2149L221.958 95.9916L218.173 96.8964L216.397 100.359L215.492 96.5738L212.03 94.7971L215.814 93.8923L217.591 90.4301Z" fill="white"/>
</g>
<path d="M164.013 75.3224L164.483 77.2904L166.283 78.2143L164.315 78.6848L163.391 80.4851L162.921 78.5171L161.121 77.5932L163.089 77.1227L164.013 75.3224Z" fill="white"/>
<g filter="url(#filter5_f_347_2192)">
<path d="M164.299 72.9395L165.204 76.7242L168.666 78.5009L164.881 79.4058L163.104 82.8679L162.199 79.0832L158.737 77.3065L162.522 76.4016L164.299 72.9395Z" fill="white"/>
</g>
<path d="M167.365 22.3435L167.835 24.3115L169.635 25.2354L167.667 25.7059L166.743 27.5062L166.273 25.5382L164.473 24.6143L166.441 24.1438L167.365 22.3435Z" fill="white"/>
<g filter="url(#filter6_f_347_2192)">
<path d="M167.651 19.9606L168.556 23.7453L172.018 25.522L168.233 26.4269L166.456 29.889L165.551 26.1043L162.089 24.3276L165.874 23.4227L167.651 19.9606Z" fill="white"/>
</g>
<path d="M219.185 177.645L219.656 179.613L221.456 180.537L219.488 181.007L218.564 182.808L218.094 180.84L216.293 179.916L218.262 179.445L219.185 177.645Z" fill="white"/>
<g filter="url(#filter7_f_347_2192)">
<path d="M219.472 175.262L220.376 179.047L223.839 180.824L220.054 181.728L218.277 185.191L217.372 181.406L213.91 179.629L217.695 178.724L219.472 175.262Z" fill="white"/>
</g>
<path d="M162.318 164.76L162.788 166.728L164.589 167.652L162.62 168.123L161.697 169.923L161.226 167.955L159.426 167.031L161.394 166.56L162.318 164.76Z" fill="white"/>
<g filter="url(#filter8_f_347_2192)">
<path d="M162.604 162.377L163.509 166.162L166.971 167.939L163.186 168.844L161.409 172.306L160.505 168.521L157.042 166.744L160.827 165.839L162.604 162.377Z" fill="white"/>
</g>
<path d="M93.9958 83.8201L94.231 84.8042L95.1312 85.2661L94.1472 85.5014L93.6852 86.4015L93.45 85.4175L92.5498 84.9556L93.5338 84.7203L93.9958 83.8201Z" fill="white"/>
<g filter="url(#filter9_f_347_2192)">
<path d="M94.1388 82.6287L94.5913 84.5211L96.3223 85.4094L94.43 85.8619L93.5416 87.5929L93.0892 85.7006L91.3581 84.8122L93.2505 84.3598L94.1388 82.6287Z" fill="white"/>
</g>
<path d="M183.59 92.5844L183.826 93.5684L184.726 94.0304L183.742 94.2657L183.28 95.1658L183.045 94.1818L182.145 93.7198L183.129 93.4846L183.59 92.5844Z" fill="white"/>
<g filter="url(#filter10_f_347_2192)">
<path d="M183.734 91.393L184.186 93.2853L185.917 94.1737L184.025 94.6261L183.136 96.3572L182.684 94.4648L180.953 93.5765L182.845 93.124L183.734 91.393Z" fill="white"/>
</g>
<path d="M218.228 72.5784L218.463 73.5625L219.364 74.0244L218.38 74.2597L217.918 75.1598L217.682 74.1758L216.782 73.7139L217.766 73.4786L218.228 72.5784Z" fill="white"/>
<g filter="url(#filter11_f_347_2192)">
<path d="M218.371 71.387L218.824 73.2794L220.555 74.1677L218.662 74.6202L217.774 76.3512L217.322 74.4588L215.591 73.5705L217.483 73.1181L218.371 71.387Z" fill="white"/>
</g>
<path d="M233.486 46.2122L233.722 47.1962L234.622 47.6582L233.638 47.8934L233.176 48.7936L232.941 47.8096L232.041 47.3476L233.025 47.1124L233.486 46.2122Z" fill="white"/>
<g filter="url(#filter12_f_347_2192)">
<path d="M233.63 45.0208L234.082 46.9131L235.813 47.8015L233.921 48.2539L233.032 49.985L232.58 48.0926L230.849 47.2043L232.741 46.7518L233.63 45.0208Z" fill="white"/>
</g>
<path d="M238.256 127.967L239.197 131.903L242.797 133.751L238.861 134.692L237.013 138.293L236.072 134.357L232.472 132.509L236.408 131.568L238.256 127.967Z" fill="white"/>
<g filter="url(#filter13_f_347_2192)">
<path d="M238.829 123.201L240.639 130.771L247.563 134.324L239.993 136.134L236.44 143.058L234.63 135.489L227.706 131.935L235.275 130.126L238.829 123.201Z" fill="white"/>
</g>
<defs>
<filter id="filter0_f_347_2192" x="7.59521" y="56.9427" width="27.8569" height="27.8568" filterUnits="userSpaceOnUse" color-interpolation-filters="sRGB">
<feFlood flood-opacity="0" result="BackgroundImageFix"/>
<feBlend mode="normal" in="SourceGraphic" in2="BackgroundImageFix" result="shape"/>
<feGaussianBlur stdDeviation="2" result="effect1_foregroundBlur_347_2192"/>
</filter>
<filter id="filter1_f_347_2192" x="77.2954" y="59.6229" width="17.9282" height="17.9284" filterUnits="userSpaceOnUse" color-interpolation-filters="sRGB">
<feFlood flood-opacity="0" result="BackgroundImageFix"/>
<feBlend mode="normal" in="SourceGraphic" in2="BackgroundImageFix" result="shape"/>
<feGaussianBlur stdDeviation="2" result="effect1_foregroundBlur_347_2192"/>
</filter>
<filter id="filter2_f_347_2192" x="57.894" y="128.801" width="17.9282" height="17.9284" filterUnits="userSpaceOnUse" color-interpolation-filters="sRGB">
<feFlood flood-opacity="0" result="BackgroundImageFix"/>
<feBlend mode="normal" in="SourceGraphic" in2="BackgroundImageFix" result="shape"/>
<feGaussianBlur stdDeviation="2" result="effect1_foregroundBlur_347_2192"/>
</filter>
<filter id="filter3_f_347_2192" x="132.872" y="141.85" width="17.9282" height="17.9284" filterUnits="userSpaceOnUse" color-interpolation-filters="sRGB">
<feFlood flood-opacity="0" result="BackgroundImageFix"/>
<feBlend mode="normal" in="SourceGraphic" in2="BackgroundImageFix" result="shape"/>
<feGaussianBlur stdDeviation="2" result="effect1_foregroundBlur_347_2192"/>
</filter>
<filter id="filter4_f_347_2192" x="208.03" y="86.4301" width="17.9282" height="17.9284" filterUnits="userSpaceOnUse" color-interpolation-filters="sRGB">
<feFlood flood-opacity="0" result="BackgroundImageFix"/>
<feBlend mode="normal" in="SourceGraphic" in2="BackgroundImageFix" result="shape"/>
<feGaussianBlur stdDeviation="2" result="effect1_foregroundBlur_347_2192"/>
</filter>
<filter id="filter5_f_347_2192" x="154.737" y="68.9395" width="17.9282" height="17.9284" filterUnits="userSpaceOnUse" color-interpolation-filters="sRGB">
<feFlood flood-opacity="0" result="BackgroundImageFix"/>
<feBlend mode="normal" in="SourceGraphic" in2="BackgroundImageFix" result="shape"/>
<feGaussianBlur stdDeviation="2" result="effect1_foregroundBlur_347_2192"/>
</filter>
<filter id="filter6_f_347_2192" x="158.089" y="15.9606" width="17.9282" height="17.9284" filterUnits="userSpaceOnUse" color-interpolation-filters="sRGB">
<feFlood flood-opacity="0" result="BackgroundImageFix"/>
<feBlend mode="normal" in="SourceGraphic" in2="BackgroundImageFix" result="shape"/>
<feGaussianBlur stdDeviation="2" result="effect1_foregroundBlur_347_2192"/>
</filter>
<filter id="filter7_f_347_2192" x="209.91" y="171.262" width="17.9282" height="17.9284" filterUnits="userSpaceOnUse" color-interpolation-filters="sRGB">
<feFlood flood-opacity="0" result="BackgroundImageFix"/>
<feBlend mode="normal" in="SourceGraphic" in2="BackgroundImageFix" result="shape"/>
<feGaussianBlur stdDeviation="2" result="effect1_foregroundBlur_347_2192"/>
</filter>
<filter id="filter8_f_347_2192" x="153.042" y="158.377" width="17.9282" height="17.9284" filterUnits="userSpaceOnUse" color-interpolation-filters="sRGB">
<feFlood flood-opacity="0" result="BackgroundImageFix"/>
<feBlend mode="normal" in="SourceGraphic" in2="BackgroundImageFix" result="shape"/>
<feGaussianBlur stdDeviation="2" result="effect1_foregroundBlur_347_2192"/>
</filter>
<filter id="filter9_f_347_2192" x="87.3579" y="78.6287" width="12.9644" height="12.9642" filterUnits="userSpaceOnUse" color-interpolation-filters="sRGB">
<feFlood flood-opacity="0" result="BackgroundImageFix"/>
<feBlend mode="normal" in="SourceGraphic" in2="BackgroundImageFix" result="shape"/>
<feGaussianBlur stdDeviation="2" result="effect1_foregroundBlur_347_2192"/>
</filter>
<filter id="filter10_f_347_2192" x="176.953" y="87.393" width="12.9644" height="12.9642" filterUnits="userSpaceOnUse" color-interpolation-filters="sRGB">
<feFlood flood-opacity="0" result="BackgroundImageFix"/>
<feBlend mode="normal" in="SourceGraphic" in2="BackgroundImageFix" result="shape"/>
<feGaussianBlur stdDeviation="2" result="effect1_foregroundBlur_347_2192"/>
</filter>
<filter id="filter11_f_347_2192" x="211.59" y="67.387" width="12.9644" height="12.9642" filterUnits="userSpaceOnUse" color-interpolation-filters="sRGB">
<feFlood flood-opacity="0" result="BackgroundImageFix"/>
<feBlend mode="normal" in="SourceGraphic" in2="BackgroundImageFix" result="shape"/>
<feGaussianBlur stdDeviation="2" result="effect1_foregroundBlur_347_2192"/>
</filter>
<filter id="filter12_f_347_2192" x="226.849" y="41.0208" width="12.9644" height="12.9642" filterUnits="userSpaceOnUse" color-interpolation-filters="sRGB">
<feFlood flood-opacity="0" result="BackgroundImageFix"/>
<feBlend mode="normal" in="SourceGraphic" in2="BackgroundImageFix" result="shape"/>
<feGaussianBlur stdDeviation="2" result="effect1_foregroundBlur_347_2192"/>
</filter>
<filter id="filter13_f_347_2192" x="223.706" y="119.201" width="27.8569" height="27.8568" filterUnits="userSpaceOnUse" color-interpolation-filters="sRGB">
<feFlood flood-opacity="0" result="BackgroundImageFix"/>
<feBlend mode="normal" in="SourceGraphic" in2="BackgroundImageFix" result="shape"/>
<feGaussianBlur stdDeviation="2" result="effect1_foregroundBlur_347_2192"/>
</filter>
<linearGradient id="paint0_linear_347_2192" x1="71.0972" y1="78.8071" x2="71.0972" y2="224.95" gradientUnits="userSpaceOnUse">
<stop stop-color="#674D80"/>
<stop offset="0.46875" stop-color="#24173C"/>
<stop offset="1" stop-color="#1E1E1E"/>
</linearGradient>
<linearGradient id="paint1_linear_347_2192" x1="63.2498" y1="70.0527" x2="117.27" y2="95.337" gradientUnits="userSpaceOnUse">
<stop stop-color="#0E0F11" stop-opacity="0"/>
<stop offset="0.463542" stop-color="#101114" stop-opacity="0.7"/>
<stop offset="1" stop-color="#16171B" stop-opacity="0"/>
</linearGradient>
<linearGradient id="paint2_linear_347_2192" x1="97.1685" y1="107.056" x2="151.136" y2="132.338" gradientUnits="userSpaceOnUse">
<stop stop-color="#0E0F11" stop-opacity="0"/>
<stop offset="0.46875" stop-color="#101114" stop-opacity="0.7"/>
<stop offset="1" stop-color="#16171B" stop-opacity="0"/>
</linearGradient>
<linearGradient id="paint3_linear_347_2192" x1="109.914" y1="48.3156" x2="109.914" y2="194.316" gradientUnits="userSpaceOnUse">
<stop stop-color="#674D80"/>
<stop offset="0.46875" stop-color="#24173C"/>
<stop offset="1" stop-color="#1E1E1E"/>
</linearGradient>
<linearGradient id="paint4_linear_347_2192" x1="102.588" y1="54.2574" x2="143.601" y2="97.4948" gradientUnits="userSpaceOnUse">
<stop stop-color="#0E0F11" stop-opacity="0"/>
<stop offset="0.463542" stop-color="#101114" stop-opacity="0.7"/>
<stop offset="1" stop-color="#16171B" stop-opacity="0"/>
</linearGradient>
<linearGradient id="paint5_linear_347_2192" x1="120.64" y1="101.043" x2="161.605" y2="144.259" gradientUnits="userSpaceOnUse">
<stop stop-color="#0E0F11" stop-opacity="0"/>
<stop offset="0.46875" stop-color="#101114" stop-opacity="0.7"/>
<stop offset="1" stop-color="#16171B" stop-opacity="0"/>
</linearGradient>
<linearGradient id="paint6_linear_347_2192" x1="155.83" y1="37.0904" x2="155.83" y2="183.09" gradientUnits="userSpaceOnUse">
<stop stop-color="#674D80"/>
<stop offset="0.46875" stop-color="#24173C"/>
<stop offset="1" stop-color="#1E1E1E"/>
</linearGradient>
<radialGradient id="paint7_diamond_347_2192" cx="0" cy="0" r="1" gradientUnits="userSpaceOnUse" gradientTransform="translate(190.283 156.231) rotate(132.344) scale(14.6024 14.1508)">
<stop offset="0.358888" stop-color="#FCFBEC"/>
<stop offset="0.942951" stop-color="#CBC4AC"/>
</radialGradient>
<radialGradient id="paint8_diamond_347_2192" cx="0" cy="0" r="1" gradientUnits="userSpaceOnUse" gradientTransform="translate(172.038 156.814) rotate(132.344) scale(14.6024 14.1508)">
<stop offset="0.358888" stop-color="#FCFBEC"/>
<stop offset="0.942951" stop-color="#CBC4AC"/>
</radialGradient>
<radialGradient id="paint9_diamond_347_2192" cx="0" cy="0" r="1" gradientUnits="userSpaceOnUse" gradientTransform="translate(172.038 156.814) rotate(132.344) scale(14.6024 14.1508)">
<stop offset="0.358888" stop-color="#FCFBEC"/>
<stop offset="0.942951" stop-color="#CBC4AC"/>
</radialGradient>
<radialGradient id="paint10_diamond_347_2192" cx="0" cy="0" r="1" gradientUnits="userSpaceOnUse" gradientTransform="translate(153.935 157.527) rotate(132.344) scale(14.6024 14.1508)">
<stop offset="0.358888" stop-color="#FCFBEC"/>
<stop offset="0.942951" stop-color="#CBC4AC"/>
</radialGradient>
<radialGradient id="paint11_diamond_347_2192" cx="0" cy="0" r="1" gradientUnits="userSpaceOnUse" gradientTransform="translate(135.833 158.24) rotate(132.344) scale(14.6024 14.1508)">
<stop offset="0.358888" stop-color="#FCFBEC"/>
<stop offset="0.942951" stop-color="#CBC4AC"/>
</radialGradient>
<radialGradient id="paint12_diamond_347_2192" cx="0" cy="0" r="1" gradientUnits="userSpaceOnUse" gradientTransform="translate(189.571 138.146) rotate(132.344) scale(14.6024 14.1508)">
<stop offset="0.358888" stop-color="#FCFBEC"/>
<stop offset="0.942951" stop-color="#CBC4AC"/>
</radialGradient>
<radialGradient id="paint13_diamond_347_2192" cx="0" cy="0" r="1" gradientUnits="userSpaceOnUse" gradientTransform="translate(171.326 138.729) rotate(132.344) scale(14.6024 14.1508)">
<stop offset="0.358888" stop-color="#FCFBEC"/>
<stop offset="0.942951" stop-color="#CBC4AC"/>
</radialGradient>
<radialGradient id="paint14_diamond_347_2192" cx="0" cy="0" r="1" gradientUnits="userSpaceOnUse" gradientTransform="translate(153.223 139.442) rotate(132.344) scale(14.6024 14.1508)">
<stop offset="0.358888" stop-color="#FCFBEC"/>
<stop offset="0.942951" stop-color="#CBC4AC"/>
</radialGradient>
<radialGradient id="paint15_diamond_347_2192" cx="0" cy="0" r="1" gradientUnits="userSpaceOnUse" gradientTransform="translate(135.12 140.155) rotate(132.344) scale(14.6024 14.1508)">
<stop offset="0.358888" stop-color="#FCFBEC"/>
<stop offset="0.942951" stop-color="#CBC4AC"/>
</radialGradient>
<radialGradient id="paint16_diamond_347_2192" cx="0" cy="0" r="1" gradientUnits="userSpaceOnUse" gradientTransform="translate(188.858 120.061) rotate(132.344) scale(14.6024 14.1508)">
<stop offset="0.358888" stop-color="#FCFBEC"/>
<stop offset="0.942951" stop-color="#CBC4AC"/>
</radialGradient>
<radialGradient id="paint17_diamond_347_2192" cx="0" cy="0" r="1" gradientUnits="userSpaceOnUse" gradientTransform="translate(170.614 120.643) rotate(132.344) scale(14.6024 14.1508)">
<stop offset="0.358888" stop-color="#FCFBEC"/>
<stop offset="0.942951" stop-color="#CBC4AC"/>
</radialGradient>
<radialGradient id="paint18_diamond_347_2192" cx="0" cy="0" r="1" gradientUnits="userSpaceOnUse" gradientTransform="translate(152.511 121.357) rotate(132.344) scale(14.6024 14.1508)">
<stop offset="0.358888" stop-color="#FCFBEC"/>
<stop offset="0.942951" stop-color="#CBC4AC"/>
</radialGradient>
<radialGradient id="paint19_diamond_347_2192" cx="0" cy="0" r="1" gradientUnits="userSpaceOnUse" gradientTransform="translate(134.408 122.07) rotate(132.344) scale(14.6024 14.1508)">
<stop offset="0.358888" stop-color="#FCFBEC"/>
<stop offset="0.942951" stop-color="#CBC4AC"/>
</radialGradient>
<radialGradient id="paint20_diamond_347_2192" cx="0" cy="0" r="1" gradientUnits="userSpaceOnUse" gradientTransform="translate(188.146 101.976) rotate(132.344) scale(14.6024 14.1508)">
<stop offset="0.358888" stop-color="#FCFBEC"/>
<stop offset="0.942951" stop-color="#CBC4AC"/>
</radialGradient>
<radialGradient id="paint21_diamond_347_2192" cx="0" cy="0" r="1" gradientUnits="userSpaceOnUse" gradientTransform="translate(169.901 102.558) rotate(132.344) scale(14.6024 14.1508)">
<stop offset="0.358888" stop-color="#FCFBEC"/>
<stop offset="0.942951" stop-color="#CBC4AC"/>
</radialGradient>
<radialGradient id="paint22_diamond_347_2192" cx="0" cy="0" r="1" gradientUnits="userSpaceOnUse" gradientTransform="translate(151.799 103.271) rotate(132.344) scale(14.6024 14.1508)">
<stop offset="0.358888" stop-color="#FCFBEC"/>
<stop offset="0.942951" stop-color="#CBC4AC"/>
</radialGradient>
<radialGradient id="paint23_diamond_347_2192" cx="0" cy="0" r="1" gradientUnits="userSpaceOnUse" gradientTransform="translate(133.696 103.984) rotate(132.344) scale(14.6024 14.1508)">
<stop offset="0.358888" stop-color="#FCFBEC"/>
<stop offset="0.942951" stop-color="#CBC4AC"/>
</radialGradient>
<radialGradient id="paint24_diamond_347_2192" cx="0" cy="0" r="1" gradientUnits="userSpaceOnUse" gradientTransform="translate(187.433 83.8908) rotate(132.344) scale(14.6024 14.1508)">
<stop offset="0.358888" stop-color="#FCFBEC"/>
<stop offset="0.942951" stop-color="#CBC4AC"/>
</radialGradient>
<radialGradient id="paint25_diamond_347_2192" cx="0" cy="0" r="1" gradientUnits="userSpaceOnUse" gradientTransform="translate(169.189 84.4732) rotate(132.344) scale(14.6024 14.1508)">
<stop offset="0.358888" stop-color="#FCFBEC"/>
<stop offset="0.942951" stop-color="#CBC4AC"/>
</radialGradient>
<radialGradient id="paint26_diamond_347_2192" cx="0" cy="0" r="1" gradientUnits="userSpaceOnUse" gradientTransform="translate(151.086 85.1862) rotate(132.344) scale(14.6024 14.1508)">
<stop offset="0.358888" stop-color="#FCFBEC"/>
<stop offset="0.942951" stop-color="#CBC4AC"/>
</radialGradient>
<radialGradient id="paint27_diamond_347_2192" cx="0" cy="0" r="1" gradientUnits="userSpaceOnUse" gradientTransform="translate(132.983 85.8993) rotate(132.344) scale(14.6024 14.1508)">
<stop offset="0.358888" stop-color="#FCFBEC"/>
<stop offset="0.942951" stop-color="#CBC4AC"/>
</radialGradient>
<radialGradient id="paint28_diamond_347_2192" cx="0" cy="0" r="1" gradientUnits="userSpaceOnUse" gradientTransform="translate(186.721 65.8057) rotate(132.344) scale(14.6024 14.1508)">
<stop offset="0.358888" stop-color="#FCFBEC"/>
<stop offset="0.942951" stop-color="#CBC4AC"/>
</radialGradient>
<radialGradient id="paint29_diamond_347_2192" cx="0" cy="0" r="1" gradientUnits="userSpaceOnUse" gradientTransform="translate(168.476 66.388) rotate(132.344) scale(14.6024 14.1508)">
<stop offset="0.358888" stop-color="#FCFBEC"/>
<stop offset="0.942951" stop-color="#CBC4AC"/>
</radialGradient>
<radialGradient id="paint30_diamond_347_2192" cx="0" cy="0" r="1" gradientUnits="userSpaceOnUse" gradientTransform="translate(150.374 67.1011) rotate(132.344) scale(14.6024 14.1508)">
<stop offset="0.358888" stop-color="#FCFBEC"/>
<stop offset="0.942951" stop-color="#CBC4AC"/>
</radialGradient>
<radialGradient id="paint31_diamond_347_2192" cx="0" cy="0" r="1" gradientUnits="userSpaceOnUse" gradientTransform="translate(132.271 67.8142) rotate(132.344) scale(14.6024 14.1508)">
<stop offset="0.358888" stop-color="#FCFBEC"/>
<stop offset="0.942951" stop-color="#CBC4AC"/>
</radialGradient>
<radialGradient id="paint32_diamond_347_2192" cx="0" cy="0" r="1" gradientUnits="userSpaceOnUse" gradientTransform="translate(186.009 47.7205) rotate(132.344) scale(14.6024 14.1508)">
<stop offset="0.358888" stop-color="#FCFBEC"/>
<stop offset="0.942951" stop-color="#CBC4AC"/>
</radialGradient>
<radialGradient id="paint33_diamond_347_2192" cx="0" cy="0" r="1" gradientUnits="userSpaceOnUse" gradientTransform="translate(167.764 48.3029) rotate(132.344) scale(14.6024 14.1508)">
<stop offset="0.358888" stop-color="#FCFBEC"/>
<stop offset="0.942951" stop-color="#CBC4AC"/>
</radialGradient>
<radialGradient id="paint34_diamond_347_2192" cx="0" cy="0" r="1" gradientUnits="userSpaceOnUse" gradientTransform="translate(149.661 49.016) rotate(132.344) scale(14.6024 14.1508)">
<stop offset="0.358888" stop-color="#FCFBEC"/>
<stop offset="0.942951" stop-color="#CBC4AC"/>
</radialGradient>
<radialGradient id="paint35_diamond_347_2192" cx="0" cy="0" r="1" gradientUnits="userSpaceOnUse" gradientTransform="translate(131.558 49.729) rotate(132.344) scale(14.6024 14.1508)">
<stop offset="0.358888" stop-color="#FCFBEC"/>
<stop offset="0.942951" stop-color="#CBC4AC"/>
</radialGradient>
<linearGradient id="paint36_linear_347_2192" x1="144.485" y1="55.3665" x2="169.335" y2="109.533" gradientUnits="userSpaceOnUse">
<stop stop-color="#0E0F11" stop-opacity="0"/>
<stop offset="0.463542" stop-color="#101114" stop-opacity="0.7"/>
<stop offset="1" stop-color="#16171B" stop-opacity="0"/>
</linearGradient>
<linearGradient id="paint37_linear_347_2192" x1="146.459" y1="105.475" x2="171.27" y2="159.606" gradientUnits="userSpaceOnUse">
<stop stop-color="#0E0F11" stop-opacity="0"/>
<stop offset="0.46875" stop-color="#101114" stop-opacity="0.7"/>
<stop offset="1" stop-color="#16171B" stop-opacity="0"/>
</linearGradient>
<linearGradient id="paint38_linear_347_2192" x1="206.398" y1="40.1794" x2="206.398" y2="186.179" gradientUnits="userSpaceOnUse">
<stop stop-color="#674D80"/>
<stop offset="0.46875" stop-color="#24173C"/>
<stop offset="1" stop-color="#1E1E1E"/>
</linearGradient>
<radialGradient id="paint39_diamond_347_2192" cx="0" cy="0" r="1" gradientUnits="userSpaceOnUse" gradientTransform="translate(189.173 181.215) rotate(154.812) scale(14.6024 14.1508)">
<stop offset="0.358888" stop-color="#F699F0" stop-opacity="0.29"/>
<stop offset="0.942951" stop-color="#CB48EF" stop-opacity="0.29"/>
</radialGradient>
<radialGradient id="paint40_diamond_347_2192" cx="0" cy="0" r="1" gradientUnits="userSpaceOnUse" gradientTransform="translate(172.091 174.78) rotate(154.812) scale(14.6024 14.1508)">
<stop offset="0.358888" stop-color="#F699F0" stop-opacity="0.29"/>
<stop offset="0.942951" stop-color="#CB48EF" stop-opacity="0.29"/>
</radialGradient>
<radialGradient id="paint41_diamond_347_2192" cx="0" cy="0" r="1" gradientUnits="userSpaceOnUse" gradientTransform="translate(172.091 174.78) rotate(154.812) scale(14.6024 14.1508)">
<stop offset="0.358888" stop-color="#F699F0" stop-opacity="0.29"/>
<stop offset="0.942951" stop-color="#CB48EF" stop-opacity="0.29"/>
</radialGradient>
<radialGradient id="paint42_diamond_347_2192" cx="0" cy="0" r="1" gradientUnits="userSpaceOnUse" gradientTransform="translate(155.09 168.521) rotate(154.812) scale(14.6024 14.1508)">
<stop offset="0.358888" stop-color="#F699F0" stop-opacity="0.29"/>
<stop offset="0.942951" stop-color="#CB48EF" stop-opacity="0.29"/>
</radialGradient>
<radialGradient id="paint43_diamond_347_2192" cx="0" cy="0" r="1" gradientUnits="userSpaceOnUse" gradientTransform="translate(138.088 162.261) rotate(154.812) scale(14.6024 14.1508)">
<stop offset="0.358888" stop-color="#F699F0" stop-opacity="0.29"/>
<stop offset="0.942951" stop-color="#CB48EF" stop-opacity="0.29"/>
</radialGradient>
<radialGradient id="paint44_diamond_347_2192" cx="0" cy="0" r="1" gradientUnits="userSpaceOnUse" gradientTransform="translate(195.426 164.23) rotate(154.812) scale(14.6024 14.1508)">
<stop offset="0.358888" stop-color="#F699F0" stop-opacity="0.29"/>
<stop offset="0.942951" stop-color="#CB48EF" stop-opacity="0.29"/>
</radialGradient>
<radialGradient id="paint45_diamond_347_2192" cx="0" cy="0" r="1" gradientUnits="userSpaceOnUse" gradientTransform="translate(178.344 157.796) rotate(154.812) scale(14.6024 14.1508)">
<stop offset="0.358888" stop-color="#F699F0" stop-opacity="0.29"/>
<stop offset="0.942951" stop-color="#CB48EF" stop-opacity="0.29"/>
</radialGradient>
<radialGradient id="paint46_diamond_347_2192" cx="0" cy="0" r="1" gradientUnits="userSpaceOnUse" gradientTransform="translate(161.343 151.536) rotate(154.812) scale(14.6024 14.1508)">
<stop offset="0.358888" stop-color="#F699F0" stop-opacity="0.29"/>
<stop offset="0.942951" stop-color="#CB48EF" stop-opacity="0.29"/>
</radialGradient>
<radialGradient id="paint47_diamond_347_2192" cx="0" cy="0" r="1" gradientUnits="userSpaceOnUse" gradientTransform="translate(144.342 145.276) rotate(154.812) scale(14.6024 14.1508)">
<stop offset="0.358888" stop-color="#F699F0" stop-opacity="0.29"/>
<stop offset="0.942951" stop-color="#CB48EF" stop-opacity="0.29"/>
</radialGradient>
<radialGradient id="paint48_diamond_347_2192" cx="0" cy="0" r="1" gradientUnits="userSpaceOnUse" gradientTransform="translate(201.68 147.246) rotate(154.812) scale(14.6024 14.1508)">
<stop offset="0.358888" stop-color="#F699F0" stop-opacity="0.29"/>
<stop offset="0.942951" stop-color="#CB48EF" stop-opacity="0.29"/>
</radialGradient>
<radialGradient id="paint49_diamond_347_2192" cx="0" cy="0" r="1" gradientUnits="userSpaceOnUse" gradientTransform="translate(184.597 140.811) rotate(154.812) scale(14.6024 14.1508)">
<stop offset="0.358888" stop-color="#F699F0" stop-opacity="0.29"/>
<stop offset="0.942951" stop-color="#CB48EF" stop-opacity="0.29"/>
</radialGradient>
<radialGradient id="paint50_diamond_347_2192" cx="0" cy="0" r="1" gradientUnits="userSpaceOnUse" gradientTransform="translate(167.597 134.552) rotate(154.812) scale(14.6024 14.1508)">
<stop offset="0.358888" stop-color="#F699F0" stop-opacity="0.29"/>
<stop offset="0.942951" stop-color="#CB48EF" stop-opacity="0.29"/>
</radialGradient>
<radialGradient id="paint51_diamond_347_2192" cx="0" cy="0" r="1" gradientUnits="userSpaceOnUse" gradientTransform="translate(150.595 128.292) rotate(154.812) scale(14.6024 14.1508)">
<stop offset="0.358888" stop-color="#F699F0" stop-opacity="0.29"/>
<stop offset="0.942951" stop-color="#CB48EF" stop-opacity="0.29"/>
</radialGradient>
<radialGradient id="paint52_diamond_347_2192" cx="0" cy="0" r="1" gradientUnits="userSpaceOnUse" gradientTransform="translate(207.933 130.261) rotate(154.812) scale(14.6024 14.1508)">
<stop offset="0.358888" stop-color="#F699F0" stop-opacity="0.29"/>
<stop offset="0.942951" stop-color="#CB48EF" stop-opacity="0.29"/>
</radialGradient>
<radialGradient id="paint53_diamond_347_2192" cx="0" cy="0" r="1" gradientUnits="userSpaceOnUse" gradientTransform="translate(190.851 123.827) rotate(154.812) scale(14.6024 14.1508)">
<stop offset="0.358888" stop-color="#F699F0" stop-opacity="0.29"/>
<stop offset="0.942951" stop-color="#CB48EF" stop-opacity="0.29"/>
</radialGradient>
<radialGradient id="paint54_diamond_347_2192" cx="0" cy="0" r="1" gradientUnits="userSpaceOnUse" gradientTransform="translate(173.85 117.567) rotate(154.812) scale(14.6024 14.1508)">
<stop offset="0.358888" stop-color="#F699F0" stop-opacity="0.29"/>
<stop offset="0.942951" stop-color="#CB48EF" stop-opacity="0.29"/>
</radialGradient>
<radialGradient id="paint55_diamond_347_2192" cx="0" cy="0" r="1" gradientUnits="userSpaceOnUse" gradientTransform="translate(156.849 111.307) rotate(154.812) scale(14.6024 14.1508)">
<stop offset="0.358888" stop-color="#F699F0" stop-opacity="0.29"/>
<stop offset="0.942951" stop-color="#CB48EF" stop-opacity="0.29"/>
</radialGradient>
<radialGradient id="paint56_diamond_347_2192" cx="0" cy="0" r="1" gradientUnits="userSpaceOnUse" gradientTransform="translate(214.187 113.277) rotate(154.812) scale(14.6024 14.1508)">
<stop offset="0.358888" stop-color="#F699F0" stop-opacity="0.29"/>
<stop offset="0.942951" stop-color="#CB48EF" stop-opacity="0.29"/>
</radialGradient>
<radialGradient id="paint57_diamond_347_2192" cx="0" cy="0" r="1" gradientUnits="userSpaceOnUse" gradientTransform="translate(197.105 106.842) rotate(154.812) scale(14.6024 14.1508)">
<stop offset="0.358888" stop-color="#F699F0" stop-opacity="0.29"/>
<stop offset="0.942951" stop-color="#CB48EF" stop-opacity="0.29"/>
</radialGradient>
<radialGradient id="paint58_diamond_347_2192" cx="0" cy="0" r="1" gradientUnits="userSpaceOnUse" gradientTransform="translate(180.103 100.583) rotate(154.812) scale(14.6024 14.1508)">
<stop offset="0.358888" stop-color="#F699F0" stop-opacity="0.29"/>
<stop offset="0.942951" stop-color="#CB48EF" stop-opacity="0.29"/>
</radialGradient>
<radialGradient id="paint59_diamond_347_2192" cx="0" cy="0" r="1" gradientUnits="userSpaceOnUse" gradientTransform="translate(163.102 94.3229) rotate(154.812) scale(14.6024 14.1508)">
<stop offset="0.358888" stop-color="#F699F0" stop-opacity="0.29"/>
<stop offset="0.942951" stop-color="#CB48EF" stop-opacity="0.29"/>
</radialGradient>
<radialGradient id="paint60_diamond_347_2192" cx="0" cy="0" r="1" gradientUnits="userSpaceOnUse" gradientTransform="translate(220.44 96.2921) rotate(154.812) scale(14.6024 14.1508)">
<stop offset="0.358888" stop-color="#F699F0" stop-opacity="0.29"/>
<stop offset="0.942951" stop-color="#CB48EF" stop-opacity="0.29"/>
</radialGradient>
<radialGradient id="paint61_diamond_347_2192" cx="0" cy="0" r="1" gradientUnits="userSpaceOnUse" gradientTransform="translate(203.358 89.8576) rotate(154.812) scale(14.6024 14.1508)">
<stop offset="0.358888" stop-color="#F699F0" stop-opacity="0.29"/>
<stop offset="0.942951" stop-color="#CB48EF" stop-opacity="0.29"/>
</radialGradient>
<radialGradient id="paint62_diamond_347_2192" cx="0" cy="0" r="1" gradientUnits="userSpaceOnUse" gradientTransform="translate(186.357 83.598) rotate(154.812) scale(14.6024 14.1508)">
<stop offset="0.358888" stop-color="#F699F0" stop-opacity="0.29"/>
<stop offset="0.942951" stop-color="#CB48EF" stop-opacity="0.29"/>
</radialGradient>
<radialGradient id="paint63_diamond_347_2192" cx="0" cy="0" r="1" gradientUnits="userSpaceOnUse" gradientTransform="translate(169.356 77.3384) rotate(154.812) scale(14.6024 14.1508)">
<stop offset="0.358888" stop-color="#F699F0" stop-opacity="0.29"/>
<stop offset="0.942951" stop-color="#CB48EF" stop-opacity="0.29"/>
</radialGradient>
<radialGradient id="paint64_diamond_347_2192" cx="0" cy="0" r="1" gradientUnits="userSpaceOnUse" gradientTransform="translate(226.694 79.3076) rotate(154.812) scale(14.6024 14.1508)">
<stop offset="0.358888" stop-color="#F699F0" stop-opacity="0.29"/>
<stop offset="0.942951" stop-color="#CB48EF" stop-opacity="0.29"/>
</radialGradient>
<radialGradient id="paint65_diamond_347_2192" cx="0" cy="0" r="1" gradientUnits="userSpaceOnUse" gradientTransform="translate(209.612 72.8731) rotate(154.812) scale(14.6024 14.1508)">
<stop offset="0.358888" stop-color="#F699F0" stop-opacity="0.29"/>
<stop offset="0.942951" stop-color="#CB48EF" stop-opacity="0.29"/>
</radialGradient>
<radialGradient id="paint66_diamond_347_2192" cx="0" cy="0" r="1" gradientUnits="userSpaceOnUse" gradientTransform="translate(192.611 66.6135) rotate(154.812) scale(14.6024 14.1508)">
<stop offset="0.358888" stop-color="#F699F0" stop-opacity="0.29"/>
<stop offset="0.942951" stop-color="#CB48EF" stop-opacity="0.29"/>
</radialGradient>
<radialGradient id="paint67_diamond_347_2192" cx="0" cy="0" r="1" gradientUnits="userSpaceOnUse" gradientTransform="translate(175.609 60.3539) rotate(154.812) scale(14.6024 14.1508)">
<stop offset="0.358888" stop-color="#F699F0" stop-opacity="0.29"/>
<stop offset="0.942951" stop-color="#CB48EF" stop-opacity="0.29"/>
</radialGradient>
<linearGradient id="paint68_linear_347_2192" x1="185.4" y1="70.5038" x2="187.662" y2="130.056" gradientUnits="userSpaceOnUse">
<stop stop-color="#0E0F11" stop-opacity="0"/>
<stop offset="0.463542" stop-color="#101114" stop-opacity="0.7"/>
<stop offset="1" stop-color="#16171B" stop-opacity="0"/>
</linearGradient>
<linearGradient id="paint69_linear_347_2192" x1="168.074" y1="117.563" x2="170.314" y2="177.067" gradientUnits="userSpaceOnUse">
<stop stop-color="#0E0F11" stop-opacity="0"/>
<stop offset="0.46875" stop-color="#101114" stop-opacity="0.7"/>
<stop offset="1" stop-color="#16171B" stop-opacity="0"/>
</linearGradient>
</defs>
</svg>
