<svg width="93" height="146" viewBox="0 0 93 146" fill="none" xmlns="http://www.w3.org/2000/svg">
<rect width="93" height="146" rx="15" fill="url(#paint0_linear_698_5688)"/>
<path d="M73.8114 118.384L76.3564 123.934L82.4265 124.637L77.9294 128.77L79.1358 134.755L73.8114 131.759L68.487 134.755L69.6934 128.77L65.1963 124.637L71.2663 123.934L73.8114 118.384Z" fill="url(#paint1_diamond_698_5688)"/>
<path d="M55.5584 118.248L58.1035 123.798L64.1735 124.501L59.6765 128.634L60.8829 134.619L55.5584 131.623L50.234 134.619L51.4404 128.634L46.9434 124.501L53.0134 123.798L55.5584 118.248Z" fill="url(#paint2_diamond_698_5688)"/>
<path d="M55.5584 118.248L58.1035 123.798L64.1735 124.501L59.6765 128.634L60.8829 134.619L55.5584 131.623L50.234 134.619L51.4404 128.634L46.9434 124.501L53.0134 123.798L55.5584 118.248Z" fill="url(#paint3_diamond_698_5688)"/>
<path d="M37.4413 118.248L39.9863 123.798L46.0563 124.501L41.5593 128.634L42.7657 134.619L37.4413 131.623L32.1168 134.619L33.3232 128.634L28.8262 124.501L34.8962 123.798L37.4413 118.248Z" fill="url(#paint4_diamond_698_5688)"/>
<path d="M19.3246 118.248L21.8696 123.798L27.9396 124.501L23.4426 128.634L24.649 134.619L19.3246 131.623L14.0001 134.619L15.2065 128.634L10.7095 124.501L16.7795 123.798L19.3246 118.248Z" fill="url(#paint5_diamond_698_5688)"/>
<path d="M73.8114 100.285L76.3564 105.835L82.4265 106.538L77.9294 110.671L79.1358 116.656L73.8114 113.66L68.487 116.656L69.6934 110.671L65.1963 106.538L71.2663 105.835L73.8114 100.285Z" fill="url(#paint6_diamond_698_5688)"/>
<path d="M55.5584 100.149L58.1035 105.699L64.1735 106.402L59.6765 110.535L60.8829 116.52L55.5584 113.524L50.234 116.52L51.4404 110.535L46.9434 106.402L53.0134 105.699L55.5584 100.149Z" fill="url(#paint7_diamond_698_5688)"/>
<path d="M37.4413 100.149L39.9863 105.699L46.0563 106.402L41.5593 110.535L42.7657 116.52L37.4413 113.524L32.1168 116.52L33.3232 110.535L28.8262 106.402L34.8962 105.699L37.4413 100.149Z" fill="url(#paint8_diamond_698_5688)"/>
<path d="M19.3246 100.149L21.8696 105.699L27.9396 106.402L23.4426 110.535L24.649 116.52L19.3246 113.524L14.0001 116.52L15.2065 110.535L10.7095 106.402L16.7795 105.699L19.3246 100.149Z" fill="url(#paint9_diamond_698_5688)"/>
<path d="M73.8114 82.1858L76.3564 87.7358L82.4265 88.4389L77.9294 92.5721L79.1358 98.5566L73.8114 95.5611L68.487 98.5566L69.6934 92.5721L65.1963 88.4389L71.2663 87.7358L73.8114 82.1858Z" fill="url(#paint10_diamond_698_5688)"/>
<path d="M55.5584 82.0496L58.1035 87.5996L64.1735 88.3027L59.6765 92.4359L60.8829 98.4204L55.5584 95.4249L50.234 98.4204L51.4404 92.4359L46.9434 88.3027L53.0134 87.5996L55.5584 82.0496Z" fill="url(#paint11_diamond_698_5688)"/>
<path d="M37.4413 82.0496L39.9863 87.5996L46.0563 88.3027L41.5593 92.4359L42.7657 98.4204L37.4413 95.4249L32.1168 98.4204L33.3232 92.4359L28.8262 88.3027L34.8962 87.5996L37.4413 82.0496Z" fill="url(#paint12_diamond_698_5688)"/>
<path d="M19.3246 82.0496L21.8696 87.5996L27.9396 88.3027L23.4426 92.4359L24.649 98.4204L19.3246 95.4249L14.0001 98.4204L15.2065 92.4359L10.7095 88.3027L16.7795 87.5996L19.3246 82.0496Z" fill="url(#paint13_diamond_698_5688)"/>
<path d="M73.8114 64.0866L76.3564 69.6366L82.4265 70.3397L77.9294 74.4729L79.1358 80.4575L73.8114 77.4619L68.487 80.4575L69.6934 74.4729L65.1963 70.3397L71.2663 69.6366L73.8114 64.0866Z" fill="url(#paint14_diamond_698_5688)"/>
<path d="M55.5584 63.9504L58.1035 69.5005L64.1735 70.2036L59.6765 74.3367L60.8829 80.3213L55.5584 77.3257L50.234 80.3213L51.4404 74.3367L46.9434 70.2036L53.0134 69.5005L55.5584 63.9504Z" fill="url(#paint15_diamond_698_5688)"/>
<path d="M37.4413 63.9504L39.9863 69.5005L46.0563 70.2036L41.5593 74.3367L42.7657 80.3213L37.4413 77.3257L32.1168 80.3213L33.3232 74.3367L28.8262 70.2036L34.8962 69.5005L37.4413 63.9504Z" fill="url(#paint16_diamond_698_5688)"/>
<path d="M19.3246 63.9504L21.8696 69.5005L27.9396 70.2036L23.4426 74.3367L24.649 80.3213L19.3246 77.3257L14.0001 80.3213L15.2065 74.3367L10.7095 70.2036L16.7795 69.5005L19.3246 63.9504Z" fill="url(#paint17_diamond_698_5688)"/>
<path d="M73.8114 45.9874L76.3564 51.5374L82.4265 52.2405L77.9294 56.3737L79.1358 62.3583L73.8114 59.3627L68.487 62.3583L69.6934 56.3737L65.1963 52.2405L71.2663 51.5374L73.8114 45.9874Z" fill="url(#paint18_diamond_698_5688)"/>
<path d="M55.5584 45.8513L58.1035 51.4013L64.1735 52.1044L59.6765 56.2376L60.8829 62.2221L55.5584 59.2265L50.234 62.2221L51.4404 56.2376L46.9434 52.1044L53.0134 51.4013L55.5584 45.8513Z" fill="url(#paint19_diamond_698_5688)"/>
<path d="M37.4413 45.8513L39.9863 51.4013L46.0563 52.1044L41.5593 56.2376L42.7657 62.2221L37.4413 59.2265L32.1168 62.2221L33.3232 56.2376L28.8262 52.1044L34.8962 51.4013L37.4413 45.8513Z" fill="url(#paint20_diamond_698_5688)"/>
<path d="M19.3246 45.8513L21.8696 51.4013L27.9396 52.1044L23.4426 56.2376L24.649 62.2221L19.3246 59.2265L14.0001 62.2221L15.2065 56.2376L10.7095 52.1044L16.7795 51.4013L19.3246 45.8513Z" fill="url(#paint21_diamond_698_5688)"/>
<path d="M73.8114 27.8882L76.3564 33.4383L82.4265 34.1414L77.9294 38.2745L79.1358 44.2591L73.8114 41.2635L68.487 44.2591L69.6934 38.2745L65.1963 34.1414L71.2663 33.4383L73.8114 27.8882Z" fill="url(#paint22_diamond_698_5688)"/>
<path d="M55.5584 27.7521L58.1035 33.3021L64.1735 34.0052L59.6765 38.1384L60.8829 44.1229L55.5584 41.1274L50.234 44.1229L51.4404 38.1384L46.9434 34.0052L53.0134 33.3021L55.5584 27.7521Z" fill="url(#paint23_diamond_698_5688)"/>
<path d="M37.4413 27.7521L39.9863 33.3021L46.0563 34.0052L41.5593 38.1384L42.7657 44.1229L37.4413 41.1274L32.1168 44.1229L33.3232 38.1384L28.8262 34.0052L34.8962 33.3021L37.4413 27.7521Z" fill="url(#paint24_diamond_698_5688)"/>
<path d="M19.3246 27.7521L21.8696 33.3021L27.9396 34.0052L23.4426 38.1384L24.649 44.1229L19.3246 41.1274L14.0001 44.1229L15.2065 38.1384L10.7095 34.0052L16.7795 33.3021L19.3246 27.7521Z" fill="url(#paint25_diamond_698_5688)"/>
<path d="M73.8114 9.78906L76.3564 15.3391L82.4265 16.0422L77.9294 20.1754L79.1358 26.1599L73.8114 23.1644L68.487 26.1599L69.6934 20.1754L65.1963 16.0422L71.2663 15.3391L73.8114 9.78906Z" fill="url(#paint26_diamond_698_5688)"/>
<path d="M55.5584 9.65289L58.1035 15.2029L64.1735 15.906L59.6765 20.0392L60.8829 26.0238L55.5584 23.0282L50.234 26.0238L51.4404 20.0392L46.9434 15.906L53.0134 15.2029L55.5584 9.65289Z" fill="url(#paint27_diamond_698_5688)"/>
<path d="M37.4417 9.65289L39.9868 15.2029L46.0568 15.906L41.5598 20.0392L42.7662 26.0238L37.4417 23.0282L32.1173 26.0238L33.3237 20.0392L28.8267 15.906L34.8967 15.2029L37.4417 9.65289Z" fill="url(#paint28_diamond_698_5688)"/>
<path d="M19.3246 9.65289L21.8696 15.2029L27.9396 15.906L23.4426 20.0392L24.649 26.0238L19.3246 23.0282L14.0001 26.0238L15.2065 20.0392L10.7095 15.906L16.7795 15.2029L19.3246 9.65289Z" fill="url(#paint29_diamond_698_5688)"/>
<path fill-rule="evenodd" clip-rule="evenodd" d="M93 59.8641L6.41801 95.6288L0 80.1219V33.6483L80.8185 0.264404C83.1879 0.714872 85.3599 1.72269 87.1929 3.14629L93 17.177V59.8641Z" fill="url(#paint30_linear_698_5688)"/>
<path fill-rule="evenodd" clip-rule="evenodd" d="M93 110.215L6.5391 145.929L0 130.13V83.9991L81.2651 50.4307C84.5222 51.1537 87.3809 52.9357 89.4611 55.3969L92.9486 63.8231C92.9826 64.2356 93 64.6529 93 65.0743V110.215Z" fill="url(#paint31_linear_698_5688)"/>
<rect x="3" y="3" width="87" height="140" rx="12" stroke="#E5E5E5" stroke-width="6"/>
<path d="M34.7795 61.3546C29.8791 66.4803 26.7878 68.0921 21 69.958C26.3984 73.7391 28.185 76.7469 33.2047 80.6515C38.5689 84.3456 40.8465 84.1838 46 84.3456V74.1868C38.0522 73.4462 33.6039 72.4838 25.6752 70.3468C33.8437 70.9363 38.2578 70.7351 46 69.958V65.1945C45.5742 59.7204 38.5425 57.336 34.7795 61.3546Z" fill="#FE76A8"/>
<path d="M57.2205 61.3546C62.1209 66.4803 65.2122 68.0921 71 69.958C65.6016 73.7391 63.815 76.7469 58.7953 80.6515C53.4311 84.3456 51.3642 84.1838 46 84.3456V74.1868C53.9478 73.4462 58.3961 72.4838 66.3248 70.3468C58.1562 70.9363 53.7422 70.7351 46 69.958V65.1945C46.4258 59.7204 53.4575 57.336 57.2205 61.3546Z" fill="#FE76A8"/>
<g filter="url(#filter0_d_698_5688)">
<rect x="50.8442" y="51.1384" width="10.8738" height="42.5906" rx="5.43691" transform="rotate(27 50.8442 51.1384)" fill="#E4E7CC"/>
<circle cx="42.0568" cy="82.7109" r="0.411634" transform="rotate(27 42.0568 82.7109)" fill="#787465"/>
<circle cx="49.6151" cy="62.6726" r="0.438762" transform="rotate(27 49.6151 62.6726)" fill="#787465"/>
<circle cx="39.7341" cy="81.5274" r="0.411634" transform="rotate(27 39.7341 81.5274)" fill="#787465"/>
<circle cx="40.8142" cy="84.8495" r="0.411634" transform="rotate(27 40.8142 84.8495)" fill="#787465"/>
<circle cx="41.3542" cy="86.5103" r="0.411634" transform="rotate(27 41.3542 86.5103)" fill="#787465"/>
<circle cx="38.2589" cy="82.0072" r="0.548846" transform="rotate(27 38.2589 82.0072)" fill="#787465"/>
<circle cx="38.7379" cy="83.4836" r="0.548846" transform="rotate(27 38.7379 83.4836)" fill="#787465"/>
<circle cx="39.3375" cy="85.3291" r="0.548846" transform="rotate(27 39.3375 85.3291)" fill="#787465"/>
<circle cx="39.8775" cy="86.9902" r="0.548846" transform="rotate(27 39.8775 86.9902)" fill="#787465"/>
<circle cx="51.8724" cy="58.242" r="0.585016" transform="rotate(27 51.8724 58.242)" fill="#787465"/>
<circle cx="52.3846" cy="59.816" r="0.585016" transform="rotate(27 52.3846 59.816)" fill="#787465"/>
<circle cx="53.0867" cy="61.9794" r="0.585016" transform="rotate(27 53.0867 61.9794)" fill="#787465"/>
<circle cx="54.8582" cy="61.4044" r="0.585016" transform="rotate(27 54.8582 61.4044)" fill="#787465"/>
<circle cx="54.2854" cy="59.307" r="0.585016" transform="rotate(27 54.2854 59.307)" fill="#787465"/>
<circle cx="53.6434" cy="57.6668" r="0.585016" transform="rotate(27 53.6434 57.6668)" fill="#787465"/>
<circle cx="53.5989" cy="63.5532" r="0.585016" transform="rotate(27 53.5989 63.5532)" fill="#787465"/>
<circle cx="38.2164" cy="87.5297" r="0.548846" transform="rotate(27 38.2164 87.5297)" fill="#787465"/>
<circle cx="37.6759" cy="85.8686" r="0.548846" transform="rotate(27 37.6759 85.8686)" fill="#787465"/>
<circle cx="37.0763" cy="84.0231" r="0.548846" transform="rotate(27 37.0763 84.0231)" fill="#787465"/>
<circle cx="42.5377" cy="84.1875" r="0.548846" transform="rotate(27 42.5377 84.1875)" fill="#787465"/>
<circle cx="49.0379" cy="61.2292" r="0.585016" transform="rotate(27 49.0379 61.2292)" fill="#787465"/>
<circle cx="40.215" cy="83.0041" r="0.411634" transform="rotate(27 40.215 83.0041)" fill="#787465"/>
<circle cx="50.2323" cy="58.8838" r="0.438762" transform="rotate(27 50.2323 58.8838)" fill="#787465"/>
<circle cx="51.3841" cy="62.4248" r="0.438762" transform="rotate(27 51.3841 62.4248)" fill="#787465"/>
<circle cx="51.9588" cy="64.1948" r="0.438762" transform="rotate(27 51.9588 64.1948)" fill="#787465"/>
<circle cx="50.744" cy="60.4573" r="0.438762" transform="rotate(27 50.744 60.4573)" fill="#787465"/>
<rect x="46.5894" y="64.6854" width="6.15508" height="14.5858" rx="3.07754" transform="rotate(27 46.5894 64.6854)" fill="#E4BE59"/>
</g>
<defs>
<filter id="filter0_d_698_5688" x="29.3828" y="53.0129" width="33.2754" height="47.136" filterUnits="userSpaceOnUse" color-interpolation-filters="sRGB">
<feFlood flood-opacity="0" result="BackgroundImageFix"/>
<feColorMatrix in="SourceAlpha" type="matrix" values="0 0 0 0 0 0 0 0 0 0 0 0 0 0 0 0 0 0 127 0" result="hardAlpha"/>
<feOffset dy="4"/>
<feGaussianBlur stdDeviation="2"/>
<feComposite in2="hardAlpha" operator="out"/>
<feColorMatrix type="matrix" values="0 0 0 0 0 0 0 0 0 0 0 0 0 0 0 0 0 0 0.25 0"/>
<feBlend mode="normal" in2="BackgroundImageFix" result="effect1_dropShadow_698_5688"/>
<feBlend mode="normal" in="SourceGraphic" in2="effect1_dropShadow_698_5688" result="shape"/>
</filter>
<linearGradient id="paint0_linear_698_5688" x1="46.5" y1="0" x2="46.5" y2="146" gradientUnits="userSpaceOnUse">
<stop stop-color="#674D80"/>
<stop offset="0.46875" stop-color="#24173C"/>
<stop offset="1" stop-color="#1E1E1E"/>
</linearGradient>
<radialGradient id="paint1_diamond_698_5688" cx="0" cy="0" r="1" gradientUnits="userSpaceOnUse" gradientTransform="translate(76.2004 122.235) rotate(134.599) scale(14.6024 14.1508)">
<stop offset="0.358888" stop-color="#F699F0" stop-opacity="0.29"/>
<stop offset="0.942951" stop-color="#CB48EF" stop-opacity="0.29"/>
</radialGradient>
<radialGradient id="paint2_diamond_698_5688" cx="0" cy="0" r="1" gradientUnits="userSpaceOnUse" gradientTransform="translate(57.9475 122.099) rotate(134.599) scale(14.6024 14.1508)">
<stop offset="0.358888" stop-color="#F699F0" stop-opacity="0.29"/>
<stop offset="0.942951" stop-color="#CB48EF" stop-opacity="0.29"/>
</radialGradient>
<radialGradient id="paint3_diamond_698_5688" cx="0" cy="0" r="1" gradientUnits="userSpaceOnUse" gradientTransform="translate(57.9475 122.099) rotate(134.599) scale(14.6024 14.1508)">
<stop offset="0.358888" stop-color="#F699F0" stop-opacity="0.29"/>
<stop offset="0.942951" stop-color="#CB48EF" stop-opacity="0.29"/>
</radialGradient>
<radialGradient id="paint4_diamond_698_5688" cx="0" cy="0" r="1" gradientUnits="userSpaceOnUse" gradientTransform="translate(39.8303 122.099) rotate(134.599) scale(14.6024 14.1508)">
<stop offset="0.358888" stop-color="#F699F0" stop-opacity="0.29"/>
<stop offset="0.942951" stop-color="#CB48EF" stop-opacity="0.29"/>
</radialGradient>
<radialGradient id="paint5_diamond_698_5688" cx="0" cy="0" r="1" gradientUnits="userSpaceOnUse" gradientTransform="translate(21.7136 122.099) rotate(134.599) scale(14.6024 14.1508)">
<stop offset="0.358888" stop-color="#F699F0" stop-opacity="0.29"/>
<stop offset="0.942951" stop-color="#CB48EF" stop-opacity="0.29"/>
</radialGradient>
<radialGradient id="paint6_diamond_698_5688" cx="0" cy="0" r="1" gradientUnits="userSpaceOnUse" gradientTransform="translate(76.2004 104.136) rotate(134.599) scale(14.6024 14.1508)">
<stop offset="0.358888" stop-color="#F699F0" stop-opacity="0.29"/>
<stop offset="0.942951" stop-color="#CB48EF" stop-opacity="0.29"/>
</radialGradient>
<radialGradient id="paint7_diamond_698_5688" cx="0" cy="0" r="1" gradientUnits="userSpaceOnUse" gradientTransform="translate(57.9475 104) rotate(134.599) scale(14.6024 14.1508)">
<stop offset="0.358888" stop-color="#F699F0" stop-opacity="0.29"/>
<stop offset="0.942951" stop-color="#CB48EF" stop-opacity="0.29"/>
</radialGradient>
<radialGradient id="paint8_diamond_698_5688" cx="0" cy="0" r="1" gradientUnits="userSpaceOnUse" gradientTransform="translate(39.8303 104) rotate(134.599) scale(14.6024 14.1508)">
<stop offset="0.358888" stop-color="#F699F0" stop-opacity="0.29"/>
<stop offset="0.942951" stop-color="#CB48EF" stop-opacity="0.29"/>
</radialGradient>
<radialGradient id="paint9_diamond_698_5688" cx="0" cy="0" r="1" gradientUnits="userSpaceOnUse" gradientTransform="translate(21.7136 104) rotate(134.599) scale(14.6024 14.1508)">
<stop offset="0.358888" stop-color="#F699F0" stop-opacity="0.29"/>
<stop offset="0.942951" stop-color="#CB48EF" stop-opacity="0.29"/>
</radialGradient>
<radialGradient id="paint10_diamond_698_5688" cx="0" cy="0" r="1" gradientUnits="userSpaceOnUse" gradientTransform="translate(76.2004 86.0367) rotate(134.599) scale(14.6024 14.1508)">
<stop offset="0.358888" stop-color="#F699F0" stop-opacity="0.29"/>
<stop offset="0.942951" stop-color="#CB48EF" stop-opacity="0.29"/>
</radialGradient>
<radialGradient id="paint11_diamond_698_5688" cx="0" cy="0" r="1" gradientUnits="userSpaceOnUse" gradientTransform="translate(57.9475 85.9004) rotate(134.599) scale(14.6024 14.1508)">
<stop offset="0.358888" stop-color="#F699F0" stop-opacity="0.29"/>
<stop offset="0.942951" stop-color="#CB48EF" stop-opacity="0.29"/>
</radialGradient>
<radialGradient id="paint12_diamond_698_5688" cx="0" cy="0" r="1" gradientUnits="userSpaceOnUse" gradientTransform="translate(39.8303 85.9004) rotate(134.599) scale(14.6024 14.1508)">
<stop offset="0.358888" stop-color="#F699F0" stop-opacity="0.29"/>
<stop offset="0.942951" stop-color="#CB48EF" stop-opacity="0.29"/>
</radialGradient>
<radialGradient id="paint13_diamond_698_5688" cx="0" cy="0" r="1" gradientUnits="userSpaceOnUse" gradientTransform="translate(21.7136 85.9004) rotate(134.599) scale(14.6024 14.1508)">
<stop offset="0.358888" stop-color="#F699F0" stop-opacity="0.29"/>
<stop offset="0.942951" stop-color="#CB48EF" stop-opacity="0.29"/>
</radialGradient>
<radialGradient id="paint14_diamond_698_5688" cx="0" cy="0" r="1" gradientUnits="userSpaceOnUse" gradientTransform="translate(76.2004 67.9375) rotate(134.599) scale(14.6024 14.1508)">
<stop offset="0.358888" stop-color="#F699F0" stop-opacity="0.29"/>
<stop offset="0.942951" stop-color="#CB48EF" stop-opacity="0.29"/>
</radialGradient>
<radialGradient id="paint15_diamond_698_5688" cx="0" cy="0" r="1" gradientUnits="userSpaceOnUse" gradientTransform="translate(57.9475 67.8013) rotate(134.599) scale(14.6024 14.1508)">
<stop offset="0.358888" stop-color="#F699F0" stop-opacity="0.29"/>
<stop offset="0.942951" stop-color="#CB48EF" stop-opacity="0.29"/>
</radialGradient>
<radialGradient id="paint16_diamond_698_5688" cx="0" cy="0" r="1" gradientUnits="userSpaceOnUse" gradientTransform="translate(39.8303 67.8013) rotate(134.599) scale(14.6024 14.1508)">
<stop offset="0.358888" stop-color="#F699F0" stop-opacity="0.29"/>
<stop offset="0.942951" stop-color="#CB48EF" stop-opacity="0.29"/>
</radialGradient>
<radialGradient id="paint17_diamond_698_5688" cx="0" cy="0" r="1" gradientUnits="userSpaceOnUse" gradientTransform="translate(21.7136 67.8013) rotate(134.599) scale(14.6024 14.1508)">
<stop offset="0.358888" stop-color="#F699F0" stop-opacity="0.29"/>
<stop offset="0.942951" stop-color="#CB48EF" stop-opacity="0.29"/>
</radialGradient>
<radialGradient id="paint18_diamond_698_5688" cx="0" cy="0" r="1" gradientUnits="userSpaceOnUse" gradientTransform="translate(76.2004 49.8383) rotate(134.599) scale(14.6024 14.1508)">
<stop offset="0.358888" stop-color="#F699F0" stop-opacity="0.29"/>
<stop offset="0.942951" stop-color="#CB48EF" stop-opacity="0.29"/>
</radialGradient>
<radialGradient id="paint19_diamond_698_5688" cx="0" cy="0" r="1" gradientUnits="userSpaceOnUse" gradientTransform="translate(57.9475 49.7021) rotate(134.599) scale(14.6024 14.1508)">
<stop offset="0.358888" stop-color="#F699F0" stop-opacity="0.29"/>
<stop offset="0.942951" stop-color="#CB48EF" stop-opacity="0.29"/>
</radialGradient>
<radialGradient id="paint20_diamond_698_5688" cx="0" cy="0" r="1" gradientUnits="userSpaceOnUse" gradientTransform="translate(39.8303 49.7021) rotate(134.599) scale(14.6024 14.1508)">
<stop offset="0.358888" stop-color="#F699F0" stop-opacity="0.29"/>
<stop offset="0.942951" stop-color="#CB48EF" stop-opacity="0.29"/>
</radialGradient>
<radialGradient id="paint21_diamond_698_5688" cx="0" cy="0" r="1" gradientUnits="userSpaceOnUse" gradientTransform="translate(21.7136 49.7021) rotate(134.599) scale(14.6024 14.1508)">
<stop offset="0.358888" stop-color="#F699F0" stop-opacity="0.29"/>
<stop offset="0.942951" stop-color="#CB48EF" stop-opacity="0.29"/>
</radialGradient>
<radialGradient id="paint22_diamond_698_5688" cx="0" cy="0" r="1" gradientUnits="userSpaceOnUse" gradientTransform="translate(76.2004 31.7391) rotate(134.599) scale(14.6024 14.1508)">
<stop offset="0.358888" stop-color="#F699F0" stop-opacity="0.29"/>
<stop offset="0.942951" stop-color="#CB48EF" stop-opacity="0.29"/>
</radialGradient>
<radialGradient id="paint23_diamond_698_5688" cx="0" cy="0" r="1" gradientUnits="userSpaceOnUse" gradientTransform="translate(57.9475 31.603) rotate(134.599) scale(14.6024 14.1508)">
<stop offset="0.358888" stop-color="#F699F0" stop-opacity="0.29"/>
<stop offset="0.942951" stop-color="#CB48EF" stop-opacity="0.29"/>
</radialGradient>
<radialGradient id="paint24_diamond_698_5688" cx="0" cy="0" r="1" gradientUnits="userSpaceOnUse" gradientTransform="translate(39.8303 31.603) rotate(134.599) scale(14.6024 14.1508)">
<stop offset="0.358888" stop-color="#F699F0" stop-opacity="0.29"/>
<stop offset="0.942951" stop-color="#CB48EF" stop-opacity="0.29"/>
</radialGradient>
<radialGradient id="paint25_diamond_698_5688" cx="0" cy="0" r="1" gradientUnits="userSpaceOnUse" gradientTransform="translate(21.7136 31.603) rotate(134.599) scale(14.6024 14.1508)">
<stop offset="0.358888" stop-color="#F699F0" stop-opacity="0.29"/>
<stop offset="0.942951" stop-color="#CB48EF" stop-opacity="0.29"/>
</radialGradient>
<radialGradient id="paint26_diamond_698_5688" cx="0" cy="0" r="1" gradientUnits="userSpaceOnUse" gradientTransform="translate(76.2004 13.64) rotate(134.599) scale(14.6024 14.1508)">
<stop offset="0.358888" stop-color="#F699F0" stop-opacity="0.29"/>
<stop offset="0.942951" stop-color="#CB48EF" stop-opacity="0.29"/>
</radialGradient>
<radialGradient id="paint27_diamond_698_5688" cx="0" cy="0" r="1" gradientUnits="userSpaceOnUse" gradientTransform="translate(57.9475 13.5038) rotate(134.599) scale(14.6024 14.1508)">
<stop offset="0.358888" stop-color="#F699F0" stop-opacity="0.29"/>
<stop offset="0.942951" stop-color="#CB48EF" stop-opacity="0.29"/>
</radialGradient>
<radialGradient id="paint28_diamond_698_5688" cx="0" cy="0" r="1" gradientUnits="userSpaceOnUse" gradientTransform="translate(39.8308 13.5038) rotate(134.599) scale(14.6024 14.1508)">
<stop offset="0.358888" stop-color="#F699F0" stop-opacity="0.29"/>
<stop offset="0.942951" stop-color="#CB48EF" stop-opacity="0.29"/>
</radialGradient>
<radialGradient id="paint29_diamond_698_5688" cx="0" cy="0" r="1" gradientUnits="userSpaceOnUse" gradientTransform="translate(21.7136 13.5038) rotate(134.599) scale(14.6024 14.1508)">
<stop offset="0.358888" stop-color="#F699F0" stop-opacity="0.29"/>
<stop offset="0.942951" stop-color="#CB48EF" stop-opacity="0.29"/>
</radialGradient>
<linearGradient id="paint30_linear_698_5688" x1="34.4087" y1="19.6457" x2="57.1072" y2="74.7483" gradientUnits="userSpaceOnUse">
<stop stop-color="#0E0F11" stop-opacity="0"/>
<stop offset="0.463542" stop-color="#101114" stop-opacity="0.7"/>
<stop offset="1" stop-color="#16171B" stop-opacity="0"/>
</linearGradient>
<linearGradient id="paint31_linear_698_5688" x1="34.4087" y1="69.7935" x2="57.0701" y2="124.859" gradientUnits="userSpaceOnUse">
<stop stop-color="#0E0F11" stop-opacity="0"/>
<stop offset="0.46875" stop-color="#101114" stop-opacity="0.7"/>
<stop offset="1" stop-color="#16171B" stop-opacity="0"/>
</linearGradient>
</defs>
</svg>
