<svg width="233" height="110" viewBox="0 0 233 110" fill="none" xmlns="http://www.w3.org/2000/svg">
<rect width="69.4315" height="109" rx="15" fill="url(#paint0_linear_351_2193)"/>
<path d="M55.1056 88.3827L57.0057 92.5262L61.5374 93.0511L58.18 96.1369L59.0807 100.605L55.1056 98.3684L51.1305 100.605L52.0312 96.1369L48.6738 93.0511L53.2055 92.5262L55.1056 88.3827Z" fill="#434347"/>
<path d="M41.4786 88.281L43.3787 92.4245L47.9104 92.9494L44.553 96.0352L45.4537 100.503L41.4786 98.2667L37.5036 100.503L38.4042 96.0352L35.0468 92.9494L39.5785 92.4245L41.4786 88.281Z" fill="#434347"/>
<path d="M41.4786 88.281L43.3787 92.4245L47.9104 92.9494L44.553 96.0352L45.4537 100.503L41.4786 98.2667L37.5036 100.503L38.4042 96.0352L35.0468 92.9494L39.5785 92.4245L41.4786 88.281Z" fill="#434347"/>
<path d="M27.9528 88.281L29.8528 92.4245L34.3846 92.9494L31.0272 96.0352L31.9278 100.503L27.9528 98.2667L23.9777 100.503L24.8783 96.0352L21.5209 92.9494L26.0527 92.4245L27.9528 88.281Z" fill="#434347"/>
<path d="M14.4274 88.281L16.3274 92.4245L20.8592 92.9494L17.5018 96.0352L18.4024 100.503L14.4274 98.2667L10.4523 100.503L11.353 96.0352L7.99555 92.9494L12.5273 92.4245L14.4274 88.281Z" fill="#434347"/>
<path d="M55.1056 74.8703L57.0057 79.0138L61.5374 79.5387L58.18 82.6244L59.0807 87.0924L55.1056 84.8559L51.1305 87.0924L52.0312 82.6244L48.6738 79.5387L53.2055 79.0138L55.1056 74.8703Z" fill="#434347"/>
<path d="M41.4786 74.7686L43.3787 78.9121L47.9104 79.437L44.553 82.5228L45.4537 86.9907L41.4786 84.7543L37.5036 86.9907L38.4042 82.5228L35.0468 79.437L39.5785 78.9121L41.4786 74.7686Z" fill="#434347"/>
<path d="M27.9528 74.7686L29.8528 78.9121L34.3846 79.437L31.0272 82.5228L31.9278 86.9907L27.9528 84.7543L23.9777 86.9907L24.8783 82.5228L21.5209 79.437L26.0527 78.9121L27.9528 74.7686Z" fill="#434347"/>
<path d="M14.4274 74.7686L16.3274 78.9121L20.8592 79.437L17.5018 82.5228L18.4024 86.9907L14.4274 84.7543L10.4523 86.9907L11.353 82.5228L7.99555 79.437L12.5273 78.9121L14.4274 74.7686Z" fill="#434347"/>
<path d="M55.1056 61.3579L57.0057 65.5014L61.5374 66.0263L58.18 69.112L59.0807 73.58L55.1056 71.3435L51.1305 73.58L52.0312 69.112L48.6738 66.0263L53.2055 65.5014L55.1056 61.3579Z" fill="#434347"/>
<path d="M41.4786 61.2562L43.3787 65.3997L47.9104 65.9246L44.553 69.0104L45.4537 73.4783L41.4786 71.2419L37.5036 73.4783L38.4042 69.0104L35.0468 65.9246L39.5785 65.3997L41.4786 61.2562Z" fill="#434347"/>
<path d="M27.9528 61.2562L29.8528 65.3997L34.3846 65.9246L31.0272 69.0104L31.9278 73.4783L27.9528 71.2419L23.9777 73.4783L24.8783 69.0104L21.5209 65.9246L26.0527 65.3997L27.9528 61.2562Z" fill="#434347"/>
<path d="M14.4274 61.2562L16.3274 65.3997L20.8592 65.9246L17.5018 69.0104L18.4024 73.4783L14.4274 71.2419L10.4523 73.4783L11.353 69.0104L7.99555 65.9246L12.5273 65.3997L14.4274 61.2562Z" fill="#434347"/>
<path d="M55.1056 47.8455L57.0057 51.989L61.5374 52.5139L58.18 55.5996L59.0807 60.0676L55.1056 57.8311L51.1305 60.0676L52.0312 55.5996L48.6738 52.5139L53.2055 51.989L55.1056 47.8455Z" fill="#434347"/>
<path d="M41.4786 47.7438L43.3787 51.8873L47.9104 52.4122L44.553 55.498L45.4537 59.9659L41.4786 57.7295L37.5036 59.9659L38.4042 55.498L35.0468 52.4122L39.5785 51.8873L41.4786 47.7438Z" fill="#434347"/>
<path d="M27.9528 47.7438L29.8528 51.8873L34.3846 52.4122L31.0272 55.498L31.9278 59.9659L27.9528 57.7295L23.9777 59.9659L24.8783 55.498L21.5209 52.4122L26.0527 51.8873L27.9528 47.7438Z" fill="#434347"/>
<path d="M14.4274 47.7438L16.3274 51.8873L20.8592 52.4122L17.5018 55.498L18.4024 59.9659L14.4274 57.7295L10.4523 59.9659L11.353 55.498L7.99555 52.4122L12.5273 51.8873L14.4274 47.7438Z" fill="#434347"/>
<path d="M55.1056 34.3331L57.0057 38.4766L61.5374 39.0015L58.18 42.0872L59.0807 46.5552L55.1056 44.3187L51.1305 46.5552L52.0312 42.0872L48.6738 39.0015L53.2055 38.4766L55.1056 34.3331Z" fill="#434347"/>
<path d="M41.4786 34.2314L43.3787 38.3749L47.9104 38.8998L44.553 41.9856L45.4537 46.4535L41.4786 44.2171L37.5036 46.4535L38.4042 41.9856L35.0468 38.8998L39.5785 38.3749L41.4786 34.2314Z" fill="#434347"/>
<path d="M27.9528 34.2314L29.8528 38.3749L34.3846 38.8998L31.0272 41.9856L31.9278 46.4535L27.9528 44.2171L23.9777 46.4535L24.8783 41.9856L21.5209 38.8998L26.0527 38.3749L27.9528 34.2314Z" fill="#434347"/>
<path d="M14.4274 34.2314L16.3274 38.3749L20.8592 38.8998L17.5018 41.9856L18.4024 46.4535L14.4274 44.2171L10.4523 46.4535L11.353 41.9856L7.99555 38.8998L12.5273 38.3749L14.4274 34.2314Z" fill="#434347"/>
<path d="M55.1056 20.8207L57.0057 24.9642L61.5374 25.4891L58.18 28.5748L59.0807 33.0428L55.1056 30.8063L51.1305 33.0428L52.0312 28.5748L48.6738 25.4891L53.2055 24.9642L55.1056 20.8207Z" fill="#434347"/>
<path d="M41.4786 20.719L43.3787 24.8625L47.9104 25.3875L44.553 28.4732L45.4537 32.9411L41.4786 30.7047L37.5036 32.9411L38.4042 28.4732L35.0468 25.3875L39.5785 24.8625L41.4786 20.719Z" fill="#434347"/>
<path d="M27.9528 20.719L29.8528 24.8625L34.3846 25.3875L31.0272 28.4732L31.9278 32.9411L27.9528 30.7047L23.9777 32.9411L24.8783 28.4732L21.5209 25.3875L26.0527 24.8625L27.9528 20.719Z" fill="#434347"/>
<path d="M14.4274 20.719L16.3274 24.8625L20.8592 25.3875L17.5018 28.4732L18.4024 32.9411L14.4274 30.7047L10.4523 32.9411L11.353 28.4732L7.99555 25.3875L12.5273 24.8625L14.4274 20.719Z" fill="#434347"/>
<path d="M55.1056 7.3084L57.0057 11.4519L61.5374 11.9768L58.18 15.0626L59.0807 19.5305L55.1056 17.2941L51.1305 19.5305L52.0312 15.0626L48.6738 11.9768L53.2055 11.4519L55.1056 7.3084Z" fill="#434347"/>
<path d="M41.4786 7.20663L43.3787 11.3501L47.9104 11.8751L44.553 14.9608L45.4537 19.4287L41.4786 17.1923L37.5036 19.4287L38.4042 14.9608L35.0468 11.8751L39.5785 11.3501L41.4786 7.20663Z" fill="#434347"/>
<path d="M27.9528 7.20663L29.8528 11.3501L34.3846 11.8751L31.0272 14.9608L31.9278 19.4287L27.9528 17.1923L23.9777 19.4287L24.8783 14.9608L21.5209 11.8751L26.0527 11.3501L27.9528 7.20663Z" fill="#434347"/>
<path d="M14.4274 7.20663L16.3274 11.3501L20.8592 11.875L17.5018 14.9608L18.4024 19.4287L14.4274 17.1923L10.4523 19.4287L11.353 14.9608L7.99555 11.875L12.5273 11.3501L14.4274 7.20663Z" fill="#434347"/>
<path fill-rule="evenodd" clip-rule="evenodd" d="M69.4315 44.693L4.79153 71.3941L0 59.817V25.121L59.0564 0.726364C62.2603 1.76376 64.9922 3.8499 66.8472 6.57995L69.1685 12.1884C69.3411 13.0991 69.4315 14.0389 69.4315 14.9998V44.693Z" fill="url(#paint1_linear_351_2193)"/>
<path fill-rule="evenodd" clip-rule="evenodd" d="M69.4315 82.2836L4.88194 108.947L0 97.1518V62.7116L59.3323 38.203C65.21 40.2339 69.4315 45.8161 69.4315 52.3842V82.2836Z" fill="url(#paint2_linear_351_2193)"/>
<rect x="2" y="2" width="65.4315" height="105" rx="13" stroke="#E5E5E5" stroke-width="4"/>
<path d="M42.1895 40.6217C38.4927 39.585 37.7594 37.4206 34.813 36.6294C31.8667 35.8382 30.2557 45.1695 31.3306 50.893C32.4055 56.6165 37.8962 59.1062 37.8962 59.1062C37.8962 59.1062 42.4106 59.541 45.8434 55.534C49.2761 51.5271 53.2151 42.2507 50.7356 40.9087C48.2561 39.5668 45.8863 41.6584 42.1895 40.6217Z" fill="#B0B5E9"/>
<path d="M42.7505 46.0117C44.2396 48.455 45.4343 48.8449 48.1023 48.0782C48.1023 48.0782 45.9046 50.1758 44.2254 49.0147C42.5462 47.8536 42.7505 46.0117 42.7505 46.0117Z" fill="black"/>
<path d="M34.3996 43.7753C35.8887 46.2186 37.0834 46.6085 39.7514 45.8418C39.7514 45.8418 37.5537 47.9394 35.8746 46.7783C34.1954 45.6172 34.3996 43.7753 34.3996 43.7753Z" fill="black"/>
<path d="M34.1083 52.4777C38.7396 50.7728 40.7355 51.8287 43.1072 55.7961C43.8345 55.7533 42.7676 51.2946 39.5796 50.5045C36.6184 49.7706 33.7434 52.289 34.1083 52.4777Z" fill="black"/>
<path d="M28.268 53.5597C24.5172 54.3983 22.8188 52.8608 19.8464 53.5597C16.874 54.2586 20.0063 63.1344 23.7387 67.6072C27.4712 72.0801 33.505 71.6608 33.505 71.6608C33.505 71.6608 37.6805 69.9136 38.742 64.8117C39.8035 59.7099 38.742 49.7857 35.9112 49.7857C33.0804 49.7857 32.0189 52.721 28.268 53.5597Z" fill="#E4E7CC"/>
<path d="M37.1355 59.3604C34.4935 58.2117 33.2869 58.5662 31.5447 60.6883C31.5447 60.6883 32.0401 57.6132 34.0924 57.6132C36.1448 57.6132 37.1355 59.3604 37.1355 59.3604Z" fill="black"/>
<path d="M28.5016 60.898C25.8596 59.7493 24.653 60.1037 22.9108 62.2258C22.9108 62.2258 23.4061 59.1507 25.4585 59.1507C27.5108 59.1507 28.5016 60.898 28.5016 60.898Z" fill="black"/>
<path d="M35.7135 63.7638C32.8518 67.7139 30.5975 67.9475 26.3719 66.0002C25.7942 66.436 29.2269 69.9042 32.3165 68.7958C35.1864 67.7661 36.1231 63.7174 35.7135 63.7638Z" fill="black"/>
<rect x="41" width="69.4545" height="109.143" rx="15" fill="url(#paint3_linear_351_2193)"/>
<path d="M96.1239 88.4985L98.0247 92.6474L102.558 93.173L99.1994 96.2628L100.1 100.737L96.1239 98.4972L92.1475 100.737L93.0485 96.2628L89.69 93.173L94.2232 92.6474L96.1239 88.4985Z" fill="#B0B5E9"/>
<path d="M82.4921 88.3967L84.3928 92.5456L88.9261 93.0712L85.5675 96.161L86.4685 100.635L82.4921 98.3954L78.5157 100.635L79.4167 96.161L76.0582 93.0712L80.5914 92.5456L82.4921 88.3967Z" fill="#B0B5E9"/>
<path d="M82.4921 88.3967L84.3928 92.5456L88.9261 93.0712L85.5675 96.161L86.4685 100.635L82.4921 98.3954L78.5157 100.635L79.4167 96.161L76.0582 93.0712L80.5914 92.5456L82.4921 88.3967Z" fill="#B0B5E9"/>
<path d="M68.9618 88.3967L70.8625 92.5456L75.3958 93.0712L72.0373 96.161L72.9382 100.635L68.9618 98.3954L64.9854 100.635L65.8864 96.161L62.5279 93.0712L67.0611 92.5456L68.9618 88.3967Z" fill="#B0B5E9"/>
<path d="M55.432 88.3967L57.3328 92.5456L61.866 93.0712L58.5075 96.161L59.4084 100.635L55.432 98.3954L51.4556 100.635L52.3566 96.161L48.9981 93.0712L53.5313 92.5456L55.432 88.3967Z" fill="#B0B5E9"/>
<path d="M96.1239 74.9684L98.0247 79.1173L102.558 79.6429L99.1994 82.7327L100.1 87.2065L96.1239 84.9671L92.1475 87.2065L93.0485 82.7327L89.69 79.6429L94.2232 79.1173L96.1239 74.9684Z" fill="#B0B5E9"/>
<path d="M82.4921 74.8666L84.3928 79.0155L88.9261 79.5411L85.5675 82.6309L86.4685 87.1047L82.4921 84.8653L78.5157 87.1047L79.4167 82.6309L76.0582 79.5411L80.5914 79.0155L82.4921 74.8666Z" fill="#B0B5E9"/>
<path d="M68.9618 74.8666L70.8625 79.0155L75.3958 79.5411L72.0373 82.6309L72.9382 87.1047L68.9618 84.8653L64.9854 87.1047L65.8864 82.6309L62.5279 79.5411L67.0611 79.0155L68.9618 74.8666Z" fill="#B0B5E9"/>
<path d="M55.432 74.8666L57.3328 79.0155L61.866 79.5411L58.5075 82.6309L59.4084 87.1047L55.432 84.8653L51.4556 87.1047L52.3566 82.6309L48.9981 79.5411L53.5313 79.0155L55.432 74.8666Z" fill="#B0B5E9"/>
<path d="M96.1239 61.4383L98.0247 65.5872L102.558 66.1128L99.1994 69.2026L100.1 73.6764L96.1239 71.437L92.1475 73.6764L93.0485 69.2026L89.69 66.1128L94.2232 65.5872L96.1239 61.4383Z" fill="#B0B5E9"/>
<path d="M82.4921 61.3365L84.3928 65.4854L88.9261 66.011L85.5675 69.1008L86.4685 73.5746L82.4921 71.3352L78.5157 73.5746L79.4167 69.1008L76.0582 66.011L80.5914 65.4854L82.4921 61.3365Z" fill="#B0B5E9"/>
<path d="M68.9618 61.3365L70.8625 65.4854L75.3958 66.011L72.0373 69.1008L72.9382 73.5746L68.9618 71.3352L64.9854 73.5746L65.8864 69.1008L62.5279 66.011L67.0611 65.4854L68.9618 61.3365Z" fill="#B0B5E9"/>
<path d="M55.432 61.3365L57.3328 65.4854L61.866 66.011L58.5075 69.1008L59.4084 73.5746L55.432 71.3352L51.4556 73.5746L52.3566 69.1008L48.9981 66.011L53.5313 65.4854L55.432 61.3365Z" fill="#B0B5E9"/>
<path d="M96.1239 47.9082L98.0247 52.0571L102.558 52.5827L99.1994 55.6725L100.1 60.1463L96.1239 57.9069L92.1475 60.1463L93.0485 55.6725L89.69 52.5827L94.2232 52.0571L96.1239 47.9082Z" fill="#B0B5E9"/>
<path d="M82.4921 47.8064L84.3928 51.9553L88.9261 52.4809L85.5675 55.5707L86.4685 60.0445L82.4921 57.8051L78.5157 60.0445L79.4167 55.5707L76.0582 52.4809L80.5914 51.9553L82.4921 47.8064Z" fill="#B0B5E9"/>
<path d="M68.9618 47.8064L70.8625 51.9553L75.3958 52.4809L72.0373 55.5707L72.9382 60.0445L68.9618 57.8051L64.9854 60.0445L65.8864 55.5707L62.5279 52.4809L67.0611 51.9553L68.9618 47.8064Z" fill="#B0B5E9"/>
<path d="M55.432 47.8064L57.3328 51.9553L61.866 52.4809L58.5075 55.5707L59.4084 60.0445L55.432 57.8051L51.4556 60.0445L52.3566 55.5707L48.9981 52.4809L53.5313 51.9553L55.432 47.8064Z" fill="#B0B5E9"/>
<path d="M96.1239 34.3781L98.0247 38.527L102.558 39.0526L99.1994 42.1424L100.1 46.6162L96.1239 44.3768L92.1475 46.6162L93.0485 42.1424L89.69 39.0526L94.2232 38.527L96.1239 34.3781Z" fill="#B0B5E9"/>
<path d="M82.4921 34.2763L84.3928 38.4252L88.9261 38.9508L85.5675 42.0406L86.4685 46.5144L82.4921 44.275L78.5157 46.5144L79.4167 42.0406L76.0582 38.9508L80.5914 38.4252L82.4921 34.2763Z" fill="#B0B5E9"/>
<path d="M68.9618 34.2763L70.8625 38.4252L75.3958 38.9508L72.0373 42.0406L72.9382 46.5144L68.9618 44.275L64.9854 46.5144L65.8864 42.0406L62.5279 38.9508L67.0611 38.4252L68.9618 34.2763Z" fill="#B0B5E9"/>
<path d="M55.432 34.2763L57.3328 38.4252L61.866 38.9508L58.5075 42.0406L59.4084 46.5144L55.432 44.275L51.4556 46.5144L52.3566 42.0406L48.9981 38.9508L53.5313 38.4252L55.432 34.2763Z" fill="#B0B5E9"/>
<path d="M96.1239 20.848L98.0247 24.9969L102.558 25.5225L99.1994 28.6123L100.1 33.0861L96.1239 30.8467L92.1475 33.0861L93.0485 28.6123L89.69 25.5225L94.2232 24.9969L96.1239 20.848Z" fill="#B0B5E9"/>
<path d="M82.4921 20.7462L84.3928 24.8951L88.9261 25.4207L85.5675 28.5105L86.4685 32.9843L82.4921 30.7449L78.5157 32.9843L79.4167 28.5105L76.0582 25.4207L80.5914 24.8951L82.4921 20.7462Z" fill="#B0B5E9"/>
<path d="M68.9618 20.7462L70.8625 24.8951L75.3958 25.4207L72.0373 28.5105L72.9382 32.9843L68.9618 30.7449L64.9854 32.9843L65.8864 28.5105L62.5279 25.4207L67.0611 24.8951L68.9618 20.7462Z" fill="#B0B5E9"/>
<path d="M55.432 20.7462L57.3328 24.8951L61.866 25.4207L58.5075 28.5105L59.4084 32.9843L55.432 30.7449L51.4556 32.9843L52.3566 28.5105L48.9981 25.4207L53.5313 24.8951L55.432 20.7462Z" fill="#B0B5E9"/>
<path d="M96.1239 7.31786L98.0247 11.4668L102.558 11.9924L99.1994 15.0822L100.1 19.556L96.1239 17.3166L92.1475 19.556L93.0485 15.0822L89.69 11.9924L94.2232 11.4668L96.1239 7.31786Z" fill="#B0B5E9"/>
<path d="M82.4921 7.21606L84.3928 11.365L88.9261 11.8906L85.5675 14.9804L86.4685 19.4542L82.4921 17.2148L78.5157 19.4542L79.4167 14.9804L76.0582 11.8906L80.5914 11.365L82.4921 7.21606Z" fill="#B0B5E9"/>
<path d="M68.9618 7.21606L70.8625 11.365L75.3958 11.8906L72.0373 14.9804L72.9382 19.4542L68.9618 17.2148L64.9854 19.4542L65.8864 14.9804L62.5279 11.8906L67.0611 11.365L68.9618 7.21606Z" fill="#B0B5E9"/>
<path d="M55.432 7.21606L57.3328 11.365L61.866 11.8906L58.5075 14.9804L59.4084 19.4542L55.432 17.2148L51.4556 19.4542L52.3566 14.9804L48.9981 11.8906L53.5313 11.365L55.432 7.21606Z" fill="#B0B5E9"/>
<path fill-rule="evenodd" clip-rule="evenodd" d="M110.455 44.7516L45.7931 71.4876L41 59.8954V25.1539L100.079 0.726281C103.276 1.76151 106.004 3.84154 107.859 6.56385L110.197 12.218C110.366 13.1195 110.455 14.0494 110.455 15V44.7516Z" fill="url(#paint4_linear_351_2193)"/>
<path fill-rule="evenodd" clip-rule="evenodd" d="M110.455 82.3915L45.8836 109.09L41 97.2792V62.7938L100.355 38.2519C106.233 40.2827 110.455 45.8649 110.455 52.4332V82.3915Z" fill="url(#paint5_linear_351_2193)"/>
<rect x="43" y="2" width="65.4545" height="105.143" rx="13" stroke="#E5E5E5" stroke-width="4"/>
<path d="M67.1089 65.7671C66.6301 65.5598 66.4095 65.0025 66.6163 64.5223L67.2245 63.1096L68.0914 63.4849L67.1089 65.7671Z" fill="#4C4A40"/>
<path d="M67.5201 63.4089C66.5573 62.8176 66.1468 61.6253 66.5407 60.5641L67.4706 58.0588L69.9629 59.138L67.9978 63.7023L67.5201 63.4089Z" fill="#A19D8D"/>
<path d="M68.2296 58.6453C67.3813 58.278 66.9573 57.3181 67.256 56.4412L72.0852 42.2642L76.4196 44.1411L69.8693 59.3554L68.2296 58.6453Z" fill="#E4BE59"/>
<path d="M71.6676 39.0535C71.8247 37.7032 72.0616 36.6454 73.6315 34.9399C75.2014 33.2345 76.9536 32.8973 78.0618 32.8614C79.1701 32.8256 80.958 33.5998 80.958 33.5998L76.4196 44.1411L72.0852 42.2642C72.0852 42.2642 71.5105 40.4037 71.6676 39.0535Z" fill="#787465"/>
<path d="M67.1089 65.7671C67.5876 65.9744 68.1433 65.7532 68.3501 65.2731L68.9583 63.8603L68.0914 63.4849L67.1089 65.7671Z" fill="#4C4A40"/>
<path d="M68.5383 63.8498C69.6277 64.1471 70.7746 63.6292 71.2746 62.614L72.4552 60.2172L69.9629 59.138L67.9978 63.7023L68.5383 63.8498Z" fill="#A19D8D"/>
<path d="M71.5091 60.0654C72.3574 60.4327 73.3448 60.084 73.7764 59.2647L80.7541 46.018L76.4196 44.1411L69.8693 59.3554L71.5091 60.0654Z" fill="#E4BE59"/>
<path d="M83.3707 44.1211C84.2429 43.0805 84.8482 42.1822 85.0095 39.8668C85.1707 37.5513 84.2139 36.0411 83.4799 35.2076C82.746 34.374 80.958 33.5998 80.958 33.5998L76.4196 44.1411L80.7541 46.018C80.7541 46.018 82.4984 45.1617 83.3707 44.1211Z" fill="#787465"/>
<path d="M73.371 51.0727C72.982 50.9043 72.8028 50.4515 72.9708 50.0614L73.6258 48.5399C73.7938 48.1498 74.2453 47.9701 74.6343 48.1385C75.0233 48.307 75.2025 48.7598 75.0345 49.1499L74.3795 50.6713C74.2115 51.0615 73.76 51.2412 73.371 51.0727Z" fill="#252020"/>
<path d="M72.1589 37.9124C71.74 37.731 71.547 37.2434 71.7279 36.8232L71.7747 36.7146C71.9555 36.2944 72.4418 36.1009 72.8607 36.2823L84.5638 41.3499C84.9827 41.5313 85.1757 42.019 84.9948 42.4391L84.948 42.5478C84.7671 42.9679 84.2809 43.1614 83.8619 42.98L72.1589 37.9124Z" fill="#B0AC9B"/>
<rect x="82" width="69.4315" height="109" rx="15" fill="url(#paint6_linear_351_2193)"/>
<path d="M137.106 88.3826L139.006 92.5261L143.538 93.0511L140.18 96.1368L141.081 100.605L137.106 98.3683L133.131 100.605L134.032 96.1368L130.674 93.0511L135.206 92.5261L137.106 88.3826Z" fill="url(#paint7_diamond_351_2193)"/>
<path d="M123.478 88.281L125.378 92.4245L129.91 92.9494L126.553 96.0351L127.453 100.503L123.478 98.2666L119.503 100.503L120.404 96.0351L117.046 92.9494L121.578 92.4245L123.478 88.281Z" fill="url(#paint8_diamond_351_2193)"/>
<path d="M123.478 88.281L125.378 92.4245L129.91 92.9494L126.553 96.0351L127.453 100.503L123.478 98.2666L119.503 100.503L120.404 96.0351L117.046 92.9494L121.578 92.4245L123.478 88.281Z" fill="url(#paint9_diamond_351_2193)"/>
<path d="M109.953 88.281L111.853 92.4245L116.385 92.9494L113.027 96.0351L113.928 100.503L109.953 98.2666L105.978 100.503L106.878 96.0351L103.521 92.9494L108.053 92.4245L109.953 88.281Z" fill="url(#paint10_diamond_351_2193)"/>
<path d="M96.4274 88.281L98.3274 92.4245L102.859 92.9494L99.5018 96.0351L100.402 100.503L96.4274 98.2666L92.4523 100.503L93.353 96.0351L89.9955 92.9494L94.5273 92.4245L96.4274 88.281Z" fill="url(#paint11_diamond_351_2193)"/>
<path d="M137.106 74.8702L139.006 79.0137L143.538 79.5387L140.18 82.6244L141.081 87.0923L137.106 84.8559L133.131 87.0923L134.032 82.6244L130.674 79.5387L135.206 79.0137L137.106 74.8702Z" fill="url(#paint12_diamond_351_2193)"/>
<path d="M123.478 74.7686L125.378 78.9121L129.91 79.437L126.553 82.5227L127.453 86.9906L123.478 84.7542L119.503 86.9906L120.404 82.5227L117.046 79.437L121.578 78.9121L123.478 74.7686Z" fill="url(#paint13_diamond_351_2193)"/>
<path d="M109.953 74.7686L111.853 78.9121L116.385 79.437L113.027 82.5227L113.928 86.9906L109.953 84.7542L105.978 86.9906L106.878 82.5227L103.521 79.437L108.053 78.9121L109.953 74.7686Z" fill="url(#paint14_diamond_351_2193)"/>
<path d="M96.4274 74.7686L98.3274 78.9121L102.859 79.437L99.5018 82.5227L100.402 86.9906L96.4274 84.7542L92.4523 86.9906L93.353 82.5227L89.9955 79.437L94.5273 78.9121L96.4274 74.7686Z" fill="url(#paint15_diamond_351_2193)"/>
<path d="M137.106 61.3579L139.006 65.5014L143.538 66.0263L140.18 69.112L141.081 73.5799L137.106 71.3435L133.131 73.5799L134.032 69.112L130.674 66.0263L135.206 65.5014L137.106 61.3579Z" fill="url(#paint16_diamond_351_2193)"/>
<path d="M123.478 61.2562L125.378 65.3997L129.91 65.9246L126.553 69.0103L127.453 73.4783L123.478 71.2419L119.503 73.4783L120.404 69.0103L117.046 65.9246L121.578 65.3997L123.478 61.2562Z" fill="url(#paint17_diamond_351_2193)"/>
<path d="M109.953 61.2562L111.853 65.3997L116.385 65.9246L113.027 69.0103L113.928 73.4783L109.953 71.2419L105.978 73.4783L106.878 69.0103L103.521 65.9246L108.053 65.3997L109.953 61.2562Z" fill="url(#paint18_diamond_351_2193)"/>
<path d="M96.4274 61.2562L98.3274 65.3997L102.859 65.9246L99.5018 69.0103L100.402 73.4783L96.4274 71.2419L92.4523 73.4783L93.353 69.0103L89.9955 65.9246L94.5273 65.3997L96.4274 61.2562Z" fill="url(#paint19_diamond_351_2193)"/>
<path d="M137.106 47.8454L139.006 51.9889L143.538 52.5138L140.18 55.5996L141.081 60.0675L137.106 57.8311L133.131 60.0675L134.032 55.5996L130.674 52.5138L135.206 51.9889L137.106 47.8454Z" fill="url(#paint20_diamond_351_2193)"/>
<path d="M123.478 47.7438L125.378 51.8873L129.91 52.4122L126.553 55.4979L127.453 59.9658L123.478 57.7294L119.503 59.9658L120.404 55.4979L117.046 52.4122L121.578 51.8873L123.478 47.7438Z" fill="url(#paint21_diamond_351_2193)"/>
<path d="M109.953 47.7438L111.853 51.8873L116.385 52.4122L113.027 55.4979L113.928 59.9658L109.953 57.7294L105.978 59.9658L106.878 55.4979L103.521 52.4122L108.053 51.8873L109.953 47.7438Z" fill="url(#paint22_diamond_351_2193)"/>
<path d="M96.4274 47.7438L98.3274 51.8873L102.859 52.4122L99.5018 55.4979L100.402 59.9658L96.4274 57.7294L92.4523 59.9658L93.353 55.4979L89.9955 52.4122L94.5273 51.8873L96.4274 47.7438Z" fill="url(#paint23_diamond_351_2193)"/>
<path d="M137.106 34.333L139.006 38.4766L143.538 39.0015L140.18 42.0872L141.081 46.5551L137.106 44.3187L133.131 46.5551L134.032 42.0872L130.674 39.0015L135.206 38.4766L137.106 34.333Z" fill="url(#paint24_diamond_351_2193)"/>
<path d="M123.478 34.2314L125.378 38.3749L129.91 38.8998L126.553 41.9855L127.453 46.4535L123.478 44.2171L119.503 46.4535L120.404 41.9855L117.046 38.8998L121.578 38.3749L123.478 34.2314Z" fill="url(#paint25_diamond_351_2193)"/>
<path d="M109.953 34.2314L111.853 38.3749L116.385 38.8998L113.027 41.9855L113.928 46.4535L109.953 44.2171L105.978 46.4535L106.878 41.9855L103.521 38.8998L108.053 38.3749L109.953 34.2314Z" fill="url(#paint26_diamond_351_2193)"/>
<path d="M96.4274 34.2314L98.3274 38.3749L102.859 38.8998L99.5018 41.9855L100.402 46.4535L96.4274 44.2171L92.4523 46.4535L93.353 41.9855L89.9955 38.8998L94.5273 38.3749L96.4274 34.2314Z" fill="url(#paint27_diamond_351_2193)"/>
<path d="M137.106 20.8207L139.006 24.9642L143.538 25.4891L140.18 28.5748L141.081 33.0427L137.106 30.8063L133.131 33.0427L134.032 28.5748L130.674 25.4891L135.206 24.9642L137.106 20.8207Z" fill="url(#paint28_diamond_351_2193)"/>
<path d="M123.478 20.719L125.378 24.8625L129.91 25.3874L126.553 28.4732L127.453 32.9411L123.478 30.7047L119.503 32.9411L120.404 28.4732L117.046 25.3874L121.578 24.8625L123.478 20.719Z" fill="url(#paint29_diamond_351_2193)"/>
<path d="M109.953 20.719L111.853 24.8625L116.385 25.3874L113.027 28.4732L113.928 32.9411L109.953 30.7047L105.978 32.9411L106.878 28.4732L103.521 25.3874L108.053 24.8625L109.953 20.719Z" fill="url(#paint30_diamond_351_2193)"/>
<path d="M96.4274 20.719L98.3274 24.8625L102.859 25.3874L99.5018 28.4732L100.402 32.9411L96.4274 30.7047L92.4523 32.9411L93.353 28.4732L89.9955 25.3874L94.5273 24.8625L96.4274 20.719Z" fill="url(#paint31_diamond_351_2193)"/>
<path d="M137.106 7.30824L139.006 11.4518L143.538 11.9767L140.18 15.0624L141.081 19.5303L137.106 17.2939L133.131 19.5303L134.032 15.0624L130.674 11.9767L135.206 11.4518L137.106 7.30824Z" fill="url(#paint32_diamond_351_2193)"/>
<path d="M123.478 7.2066L125.378 11.3501L129.91 11.875L126.553 14.9608L127.453 19.4287L123.478 17.1923L119.503 19.4287L120.404 14.9608L117.046 11.875L121.578 11.3501L123.478 7.2066Z" fill="url(#paint33_diamond_351_2193)"/>
<path d="M109.953 7.2066L111.853 11.3501L116.385 11.875L113.028 14.9608L113.928 19.4287L109.953 17.1923L105.978 19.4287L106.879 14.9608L103.521 11.875L108.053 11.3501L109.953 7.2066Z" fill="url(#paint34_diamond_351_2193)"/>
<path d="M96.4274 7.2066L98.3274 11.3501L102.859 11.875L99.5018 14.9608L100.402 19.4287L96.4274 17.1923L92.4523 19.4287L93.353 14.9608L89.9955 11.875L94.5273 11.3501L96.4274 7.2066Z" fill="url(#paint35_diamond_351_2193)"/>
<path fill-rule="evenodd" clip-rule="evenodd" d="M151.432 44.6931L86.7917 71.3941L82 59.8166V25.1211L141.056 0.726494C144.261 1.76399 146.993 3.85051 148.848 6.58107L151.168 12.1875C151.341 13.0985 151.432 14.0387 151.432 15V44.6931Z" fill="url(#paint36_linear_351_2193)"/>
<path fill-rule="evenodd" clip-rule="evenodd" d="M151.432 82.2836L86.8819 108.947L82 97.152V62.7115L141.332 38.203C147.21 40.2339 151.432 45.816 151.432 52.3842V82.2836Z" fill="url(#paint37_linear_351_2193)"/>
<rect x="84" y="2" width="65.4315" height="105" rx="13" stroke="#E5E5E5" stroke-width="4"/>
<path d="M121.337 54.6566C121.25 52.8382 122.227 50.4294 123.706 48.2512C126.379 44.3163 130.693 41.1337 133.349 43.5426C136.491 46.3929 130.906 51.2165 125.759 53.4547C124.148 54.1553 122.581 54.6025 121.337 54.6566Z" fill="#4FD5AA"/>
<path d="M111.152 41.8799C109.971 41.9343 109.514 41.1427 109.332 39.6684H112.305C112.305 39.6684 112.621 37.5112 111.031 37.3436C110.174 37.3435 109.987 37.3151 109.332 37.5704C108.356 38.1744 107.99 38.5766 107.876 39.4983C107.694 42.6737 108.482 43.6377 110.6 48.2874L110.608 48.3053C110.952 49.0189 112.505 52.2416 112.863 55.2619C112.969 56.1534 112.971 57.0272 112.807 57.8136C112.59 58.8503 112.018 59.962 111.084 60.422C111.084 60.422 122.678 60.5921 123.952 60.3086C125.226 60.0251 127.532 57.8136 125.894 53.7876C125.894 53.7876 125.846 53.6697 125.759 53.4547C124.148 54.1553 122.581 54.6025 121.337 54.6566C121.25 52.8382 122.227 50.4294 123.706 48.2512C122.88 46.1163 121.986 43.7448 121.344 41.8799H111.152Z" fill="#E4E7CC"/>
<path d="M109.453 60.3242C110.164 60.419 110.417 60.422 111.084 60.422C112.018 59.962 112.59 58.8503 112.807 57.8136H110.181C111.273 56.6228 110.302 55.3273 109.271 55.2619C108.24 55.1966 107.293 56.3761 107.39 57.8136C107.587 59.4285 108.152 60.026 109.453 60.3242Z" fill="#E4E7CC"/>
<path d="M109.271 55.2619C110.302 55.3273 111.273 56.6228 110.181 57.8136H112.807C112.971 57.0272 112.969 56.1534 112.863 55.2619H109.271Z" fill="#E4E7CC"/>
<path d="M112.305 39.6684C112.305 39.6684 112.004 41.8016 111.152 41.8799H121.344H124.68C127.039 40.6707 126.05 37.8986 123.831 37.5704C121.612 37.2422 111.031 37.3436 111.031 37.3436C112.621 37.5112 112.305 39.6684 112.305 39.6684Z" fill="#E4E7CC"/>
<path d="M109.332 39.6684C109.514 41.1427 109.971 41.9343 111.152 41.8799C112.004 41.8016 112.305 39.6684 112.305 39.6684H109.332Z" fill="#E4E7CC"/>
<path d="M111.152 41.8799C109.971 41.9343 109.514 41.1427 109.332 39.6684H112.305M111.152 41.8799C112.004 41.8016 112.305 39.6684 112.305 39.6684M111.152 41.8799H121.344M112.305 39.6684C112.305 39.6684 112.621 37.5112 111.031 37.3436M111.031 37.3436C110.174 37.3435 109.987 37.3151 109.332 37.5704C108.356 38.1744 107.99 38.5766 107.876 39.4983C107.694 42.6737 108.482 43.6377 110.6 48.2874L110.608 48.3053C110.952 49.0189 112.505 52.2416 112.863 55.2619M111.031 37.3436C111.031 37.3436 121.612 37.2422 123.831 37.5704C126.05 37.8986 127.039 40.6707 124.68 41.8799H121.344M111.084 60.422C110.417 60.422 110.164 60.419 109.453 60.3242C108.152 60.026 107.587 59.4285 107.39 57.8136C107.293 56.3761 108.24 55.1966 109.271 55.2619M111.084 60.422C111.084 60.422 122.678 60.5921 123.952 60.3086C125.226 60.0251 127.532 57.8136 125.894 53.7876C125.894 53.7876 125.846 53.6697 125.759 53.4547M111.084 60.422C112.018 59.962 112.59 58.8503 112.807 57.8136M109.271 55.2619C110.302 55.3273 111.273 56.6228 110.181 57.8136H112.807M109.271 55.2619H112.863M121.344 41.8799C121.986 43.7448 122.88 46.1163 123.706 48.2512M112.807 57.8136C112.971 57.0272 112.969 56.1534 112.863 55.2619M111.516 44.6016H119.827M112.79 47.21H120.919M113.882 49.7617H122.132M114.67 52.3133H120.737M115.459 54.865H119.584M115.216 57.4167H117.704M118.667 57.1515L121.337 54.6566M121.337 54.6566L131.286 45.3572M121.337 54.6566C122.581 54.6025 124.148 54.1553 125.759 53.4547M121.337 54.6566C121.25 52.8382 122.227 50.4294 123.706 48.2512M125.759 53.4547C130.906 51.2165 136.491 46.3929 133.349 43.5426C130.693 41.1337 126.379 44.3163 123.706 48.2512" stroke="black" stroke-linecap="round"/>
<rect x="125" width="69.4315" height="109" rx="15" fill="url(#paint38_linear_351_2193)"/>
<path d="M180.106 88.3827L182.006 92.5262L186.537 93.0511L183.18 96.1369L184.081 100.605L180.106 98.3684L176.131 100.605L177.031 96.1369L173.674 93.0511L178.205 92.5262L180.106 88.3827Z" fill="#B8B8C3"/>
<path d="M166.479 88.281L168.379 92.4245L172.91 92.9494L169.553 96.0352L170.454 100.503L166.479 98.2667L162.504 100.503L163.404 96.0352L160.047 92.9494L164.579 92.4245L166.479 88.281Z" fill="#B8B8C3"/>
<path d="M166.479 88.281L168.379 92.4245L172.91 92.9494L169.553 96.0352L170.454 100.503L166.479 98.2667L162.504 100.503L163.404 96.0352L160.047 92.9494L164.579 92.4245L166.479 88.281Z" fill="#B8B8C3"/>
<path d="M152.953 88.281L154.853 92.4245L159.385 92.9494L156.027 96.0352L156.928 100.503L152.953 98.2667L148.978 100.503L149.878 96.0352L146.521 92.9494L151.053 92.4245L152.953 88.281Z" fill="#B8B8C3"/>
<path d="M139.427 88.281L141.327 92.4245L145.859 92.9494L142.502 96.0352L143.402 100.503L139.427 98.2667L135.452 100.503L136.353 96.0352L132.996 92.9494L137.527 92.4245L139.427 88.281Z" fill="#B8B8C3"/>
<path d="M180.106 74.8703L182.006 79.0138L186.537 79.5387L183.18 82.6244L184.081 87.0924L180.106 84.8559L176.131 87.0924L177.031 82.6244L173.674 79.5387L178.205 79.0138L180.106 74.8703Z" fill="#B8B8C3"/>
<path d="M166.479 74.7686L168.379 78.9121L172.91 79.437L169.553 82.5228L170.454 86.9907L166.479 84.7543L162.504 86.9907L163.404 82.5228L160.047 79.437L164.579 78.9121L166.479 74.7686Z" fill="#B8B8C3"/>
<path d="M152.953 74.7686L154.853 78.9121L159.385 79.437L156.027 82.5228L156.928 86.9907L152.953 84.7543L148.978 86.9907L149.878 82.5228L146.521 79.437L151.053 78.9121L152.953 74.7686Z" fill="#B8B8C3"/>
<path d="M139.427 74.7686L141.327 78.9121L145.859 79.437L142.502 82.5228L143.402 86.9907L139.427 84.7543L135.452 86.9907L136.353 82.5228L132.996 79.437L137.527 78.9121L139.427 74.7686Z" fill="#B8B8C3"/>
<path d="M180.106 61.3579L182.006 65.5014L186.537 66.0263L183.18 69.112L184.081 73.58L180.106 71.3435L176.131 73.58L177.031 69.112L173.674 66.0263L178.205 65.5014L180.106 61.3579Z" fill="#B8B8C3"/>
<path d="M166.479 61.2562L168.379 65.3997L172.91 65.9246L169.553 69.0104L170.454 73.4783L166.479 71.2419L162.504 73.4783L163.404 69.0104L160.047 65.9246L164.579 65.3997L166.479 61.2562Z" fill="#B8B8C3"/>
<path d="M152.953 61.2562L154.853 65.3997L159.385 65.9246L156.027 69.0104L156.928 73.4783L152.953 71.2419L148.978 73.4783L149.878 69.0104L146.521 65.9246L151.053 65.3997L152.953 61.2562Z" fill="#B8B8C3"/>
<path d="M139.427 61.2562L141.327 65.3997L145.859 65.9246L142.502 69.0104L143.402 73.4783L139.427 71.2419L135.452 73.4783L136.353 69.0104L132.996 65.9246L137.527 65.3997L139.427 61.2562Z" fill="#B8B8C3"/>
<path d="M180.106 47.8455L182.006 51.989L186.537 52.5139L183.18 55.5996L184.081 60.0676L180.106 57.8311L176.131 60.0676L177.031 55.5996L173.674 52.5139L178.205 51.989L180.106 47.8455Z" fill="#B8B8C3"/>
<path d="M166.479 47.7438L168.379 51.8873L172.91 52.4122L169.553 55.498L170.454 59.9659L166.479 57.7295L162.504 59.9659L163.404 55.498L160.047 52.4122L164.579 51.8873L166.479 47.7438Z" fill="#B8B8C3"/>
<path d="M152.953 47.7438L154.853 51.8873L159.385 52.4122L156.027 55.498L156.928 59.9659L152.953 57.7295L148.978 59.9659L149.878 55.498L146.521 52.4122L151.053 51.8873L152.953 47.7438Z" fill="#B8B8C3"/>
<path d="M139.427 47.7438L141.327 51.8873L145.859 52.4122L142.502 55.498L143.402 59.9659L139.427 57.7295L135.452 59.9659L136.353 55.498L132.996 52.4122L137.527 51.8873L139.427 47.7438Z" fill="#B8B8C3"/>
<path d="M180.106 34.3331L182.006 38.4766L186.537 39.0015L183.18 42.0872L184.081 46.5552L180.106 44.3187L176.131 46.5552L177.031 42.0872L173.674 39.0015L178.205 38.4766L180.106 34.3331Z" fill="#B8B8C3"/>
<path d="M166.479 34.2314L168.379 38.3749L172.91 38.8998L169.553 41.9856L170.454 46.4535L166.479 44.2171L162.504 46.4535L163.404 41.9856L160.047 38.8998L164.579 38.3749L166.479 34.2314Z" fill="#B8B8C3"/>
<path d="M152.953 34.2314L154.853 38.3749L159.385 38.8998L156.027 41.9856L156.928 46.4535L152.953 44.2171L148.978 46.4535L149.878 41.9856L146.521 38.8998L151.053 38.3749L152.953 34.2314Z" fill="#B8B8C3"/>
<path d="M139.427 34.2314L141.327 38.3749L145.859 38.8998L142.502 41.9856L143.402 46.4535L139.427 44.2171L135.452 46.4535L136.353 41.9856L132.996 38.8998L137.527 38.3749L139.427 34.2314Z" fill="#B8B8C3"/>
<path d="M180.106 20.8207L182.006 24.9642L186.537 25.4891L183.18 28.5748L184.081 33.0428L180.106 30.8063L176.131 33.0428L177.031 28.5748L173.674 25.4891L178.205 24.9642L180.106 20.8207Z" fill="#B8B8C3"/>
<path d="M166.479 20.719L168.379 24.8625L172.91 25.3875L169.553 28.4732L170.454 32.9411L166.479 30.7047L162.504 32.9411L163.404 28.4732L160.047 25.3875L164.579 24.8625L166.479 20.719Z" fill="#B8B8C3"/>
<path d="M152.953 20.719L154.853 24.8625L159.385 25.3875L156.027 28.4732L156.928 32.9411L152.953 30.7047L148.978 32.9411L149.878 28.4732L146.521 25.3875L151.053 24.8625L152.953 20.719Z" fill="#B8B8C3"/>
<path d="M139.427 20.719L141.327 24.8625L145.859 25.3875L142.502 28.4732L143.402 32.9411L139.427 30.7047L135.452 32.9411L136.353 28.4732L132.996 25.3875L137.527 24.8625L139.427 20.719Z" fill="#B8B8C3"/>
<path d="M180.106 7.3084L182.006 11.4519L186.537 11.9768L183.18 15.0626L184.081 19.5305L180.106 17.2941L176.131 19.5305L177.031 15.0626L173.674 11.9768L178.205 11.4519L180.106 7.3084Z" fill="#B8B8C3"/>
<path d="M166.479 7.20663L168.379 11.3501L172.91 11.8751L169.553 14.9608L170.454 19.4287L166.479 17.1923L162.504 19.4287L163.404 14.9608L160.047 11.8751L164.579 11.3501L166.479 7.20663Z" fill="#B8B8C3"/>
<path d="M152.953 7.20663L154.853 11.3501L159.385 11.8751L156.027 14.9608L156.928 19.4287L152.953 17.1923L148.978 19.4287L149.878 14.9608L146.521 11.8751L151.053 11.3501L152.953 7.20663Z" fill="#B8B8C3"/>
<path d="M139.427 7.20663L141.327 11.3501L145.859 11.875L142.502 14.9608L143.402 19.4287L139.427 17.1923L135.452 19.4287L136.353 14.9608L132.996 11.875L137.527 11.3501L139.427 7.20663Z" fill="#B8B8C3"/>
<path fill-rule="evenodd" clip-rule="evenodd" d="M194.432 44.693L129.792 71.3941L125 59.817V25.121L184.056 0.726364C187.26 1.76376 189.992 3.8499 191.847 6.57995L194.168 12.1884C194.341 13.0991 194.432 14.0389 194.432 14.9998V44.693Z" fill="url(#paint39_linear_351_2193)"/>
<path fill-rule="evenodd" clip-rule="evenodd" d="M194.432 82.2836L129.882 108.947L125 97.1518V62.7116L184.332 38.203C190.21 40.2339 194.432 45.8161 194.432 52.3842V82.2836Z" fill="url(#paint40_linear_351_2193)"/>
<rect x="127" y="2" width="65.4315" height="105" rx="13" stroke="#E5E5E5" stroke-width="4"/>
<path d="M142.037 59.6852C142.037 59.0049 142.585 58.4535 143.261 58.4535H151.371C152.047 58.4535 152.595 59.0049 152.595 59.6852V67.8453C152.595 68.5256 152.047 69.0771 151.371 69.0771H143.261C142.585 69.0771 142.037 68.5256 142.037 67.8453V59.6852Z" fill="#DEAC43"/>
<path d="M147.048 66.3057H145.289V61.1171H147.064C147.839 61.1171 148.474 61.3583 148.969 61.8407C149.464 62.318 149.711 62.9133 149.711 63.6267C149.711 64.4581 149.466 65.1125 148.976 65.5898C148.492 66.067 147.849 66.3057 147.048 66.3057ZM147.025 62.0947H146.497V65.3357H147.033C147.507 65.3357 147.872 65.1869 148.127 64.8892C148.387 64.5915 148.517 64.1707 148.517 63.6267C148.517 63.1648 148.387 62.7953 148.127 62.5181C147.867 62.2359 147.5 62.0947 147.025 62.0947Z" fill="white"/>
<path d="M155.01 53.2572C155.296 52.6407 156.024 52.3739 156.637 52.6614L163.987 56.1101C164.6 56.3975 164.865 57.1304 164.579 57.7469L161.152 65.1425C160.866 65.7591 160.138 66.0258 159.525 65.7383L152.175 62.2897C151.562 62.0022 151.297 61.2693 151.582 60.6528L155.01 53.2572Z" fill="#5AC0C9"/>
<path d="M158.195 62.1212L155.289 60.758L157.469 56.0555L160.347 57.4057L159.949 58.2639L158.146 57.418L157.651 58.4855L159.26 59.2403L158.865 60.0914L157.257 59.3367L156.762 60.4041L158.593 61.263L158.195 62.1212Z" fill="white"/>
<path d="M163.919 61.5328C163.919 60.8525 164.467 60.301 165.143 60.301H173.253C173.929 60.301 174.477 60.8525 174.477 61.5328V69.6929C174.477 70.3732 173.929 70.9247 173.253 70.9247H165.143C164.467 70.9247 163.919 70.3732 163.919 69.6929V61.5328Z" fill="#5C6FC4"/>
<path d="M170.675 66.6598H168.969V68.6152H167.783V63.4265H170.927V64.3734H168.969V65.7129H170.675V66.6598Z" fill="white"/>
<path d="M141.425 45.5203C141.425 44.8401 141.973 44.2886 142.649 44.2886H150.759C151.435 44.2886 151.983 44.8401 151.983 45.5203V53.6805C151.983 54.3608 151.435 54.9122 150.759 54.9122H142.649C141.973 54.9122 141.425 54.3608 141.425 53.6805V45.5203Z" fill="#5C6FC4"/>
<path d="M146.084 50.2471L146.031 50.4318H147.27L147.217 50.2471C147.069 49.7441 146.946 49.3156 146.849 48.9615C146.758 48.6074 146.701 48.379 146.681 48.2763L146.65 48.1224C146.61 48.4046 146.421 49.1129 146.084 50.2471ZM145.434 52.4488H144.202L145.924 47.2602H147.408L149.129 52.4488H147.867L147.553 51.3864H145.748L145.434 52.4488Z" fill="white"/>
<path d="M151.994 40.9916C151.819 40.3345 152.207 39.6591 152.86 39.483L160.693 37.371C161.346 37.195 162.018 37.5849 162.193 38.242L164.292 46.1241C164.467 46.7812 164.079 47.4566 163.426 47.6327L155.592 49.7447C154.939 49.9207 154.268 49.5308 154.093 48.8737L151.994 40.9916Z" fill="#4FD5AA"/>
<path d="M159.034 45.6597L156.883 46.2395L155.549 41.2277L157.485 40.7057C158.032 40.5582 158.483 40.5774 158.839 40.7631C159.193 40.9438 159.424 41.2349 159.531 41.6365C159.601 41.8992 159.593 42.1483 159.508 42.3838C159.423 42.6193 159.279 42.8016 159.075 42.9308C159.698 42.9489 160.091 43.2628 160.253 43.8726C160.359 44.2691 160.303 44.6349 160.086 44.9697C159.872 45.2982 159.522 45.5282 159.034 45.6597ZM157.536 41.6721L156.93 41.8355L157.229 42.9583L157.65 42.8447C157.946 42.765 158.153 42.6507 158.272 42.5018C158.396 42.3516 158.434 42.1872 158.386 42.0088C158.293 41.6568 158.009 41.5446 157.536 41.6721ZM158.075 43.6947L157.469 43.8581L157.778 45.0181L158.376 44.8567C158.938 44.7053 159.167 44.4362 159.064 44.0495C158.961 43.6629 158.632 43.5446 158.075 43.6947Z" fill="white"/>
<path d="M164.895 49.7407C164.61 49.1242 164.875 48.3913 165.487 48.1038L172.838 44.6552C173.45 44.3677 174.179 44.6345 174.465 45.251L177.892 52.6466C178.178 53.2631 177.913 53.996 177.3 54.2835L169.95 57.7321C169.337 58.0196 168.609 57.7529 168.323 57.1363L164.895 49.7407Z" fill="#FF94BB"/>
<path d="M174.052 52.5165C173.852 52.8255 173.486 53.1048 172.954 53.3542C172.27 53.6752 171.594 53.7232 170.927 53.4983C170.263 53.2665 169.766 52.7971 169.439 52.09C169.107 51.3737 169.058 50.6859 169.293 50.0265C169.532 49.3649 170.01 48.866 170.727 48.5299C171.254 48.2826 171.699 48.1812 172.063 48.2256L172.542 49.2582C172.096 49.2069 171.66 49.2811 171.235 49.4806C170.86 49.6563 170.607 49.9363 170.476 50.3208C170.343 50.7005 170.378 51.1114 170.583 51.5532C170.783 51.9858 171.07 52.2704 171.443 52.4069C171.814 52.5388 172.2 52.5104 172.602 52.3217C173.037 52.1178 173.357 51.8315 173.563 51.463L174.052 52.5165Z" fill="white"/>
<rect x="163" width="69.4315" height="109" rx="15" fill="url(#paint41_linear_351_2193)"/>
<path d="M218.106 88.3826L220.006 92.5262L224.537 93.0511L221.18 96.1368L222.081 100.605L218.106 98.3683L214.131 100.605L215.031 96.1368L211.674 93.0511L216.205 92.5262L218.106 88.3826Z" fill="url(#paint42_diamond_351_2193)"/>
<path d="M204.479 88.281L206.379 92.4245L210.91 92.9494L207.553 96.0351L208.454 100.503L204.479 98.2666L200.504 100.503L201.404 96.0351L198.047 92.9494L202.579 92.4245L204.479 88.281Z" fill="url(#paint43_diamond_351_2193)"/>
<path d="M204.479 88.281L206.379 92.4245L210.91 92.9494L207.553 96.0351L208.454 100.503L204.479 98.2666L200.504 100.503L201.404 96.0351L198.047 92.9494L202.579 92.4245L204.479 88.281Z" fill="url(#paint44_diamond_351_2193)"/>
<path d="M190.953 88.281L192.853 92.4245L197.385 92.9494L194.027 96.0351L194.928 100.503L190.953 98.2666L186.978 100.503L187.878 96.0351L184.521 92.9494L189.053 92.4245L190.953 88.281Z" fill="url(#paint45_diamond_351_2193)"/>
<path d="M177.427 88.281L179.327 92.4245L183.859 92.9494L180.502 96.0351L181.402 100.503L177.427 98.2666L173.452 100.503L174.353 96.0351L170.996 92.9494L175.527 92.4245L177.427 88.281Z" fill="url(#paint46_diamond_351_2193)"/>
<path d="M218.106 74.8703L220.006 79.0138L224.537 79.5387L221.18 82.6244L222.081 87.0923L218.106 84.8559L214.131 87.0923L215.031 82.6244L211.674 79.5387L216.205 79.0138L218.106 74.8703Z" fill="url(#paint47_diamond_351_2193)"/>
<path d="M204.479 74.7686L206.379 78.9121L210.91 79.437L207.553 82.5228L208.454 86.9907L204.479 84.7543L200.504 86.9907L201.404 82.5228L198.047 79.437L202.579 78.9121L204.479 74.7686Z" fill="url(#paint48_diamond_351_2193)"/>
<path d="M190.953 74.7686L192.853 78.9121L197.385 79.437L194.027 82.5228L194.928 86.9907L190.953 84.7543L186.978 86.9907L187.878 82.5228L184.521 79.437L189.053 78.9121L190.953 74.7686Z" fill="url(#paint49_diamond_351_2193)"/>
<path d="M177.427 74.7686L179.327 78.9121L183.859 79.437L180.502 82.5228L181.402 86.9907L177.427 84.7543L173.452 86.9907L174.353 82.5228L170.996 79.437L175.527 78.9121L177.427 74.7686Z" fill="url(#paint50_diamond_351_2193)"/>
<path d="M218.106 61.3579L220.006 65.5014L224.537 66.0263L221.18 69.112L222.081 73.5799L218.106 71.3435L214.131 73.5799L215.031 69.112L211.674 66.0263L216.205 65.5014L218.106 61.3579Z" fill="url(#paint51_diamond_351_2193)"/>
<path d="M204.479 61.2562L206.379 65.3997L210.91 65.9246L207.553 69.0104L208.454 73.4783L204.479 71.2419L200.504 73.4783L201.404 69.0104L198.047 65.9246L202.579 65.3997L204.479 61.2562Z" fill="url(#paint52_diamond_351_2193)"/>
<path d="M190.953 61.2562L192.853 65.3997L197.385 65.9246L194.027 69.0104L194.928 73.4783L190.953 71.2419L186.978 73.4783L187.878 69.0104L184.521 65.9246L189.053 65.3997L190.953 61.2562Z" fill="url(#paint53_diamond_351_2193)"/>
<path d="M177.427 61.2562L179.327 65.3997L183.859 65.9246L180.502 69.0104L181.402 73.4783L177.427 71.2419L173.452 73.4783L174.353 69.0104L170.996 65.9246L175.527 65.3997L177.427 61.2562Z" fill="url(#paint54_diamond_351_2193)"/>
<path d="M218.106 47.8455L220.006 51.989L224.537 52.5139L221.18 55.5996L222.081 60.0675L218.106 57.8311L214.131 60.0675L215.031 55.5996L211.674 52.5139L216.205 51.989L218.106 47.8455Z" fill="url(#paint55_diamond_351_2193)"/>
<path d="M204.479 47.7438L206.379 51.8873L210.91 52.4122L207.553 55.498L208.454 59.9659L204.479 57.7295L200.504 59.9659L201.404 55.498L198.047 52.4122L202.579 51.8873L204.479 47.7438Z" fill="url(#paint56_diamond_351_2193)"/>
<path d="M190.953 47.7438L192.853 51.8873L197.385 52.4122L194.027 55.498L194.928 59.9659L190.953 57.7295L186.978 59.9659L187.878 55.498L184.521 52.4122L189.053 51.8873L190.953 47.7438Z" fill="url(#paint57_diamond_351_2193)"/>
<path d="M177.427 47.7438L179.327 51.8873L183.859 52.4122L180.502 55.498L181.402 59.9659L177.427 57.7295L173.452 59.9659L174.353 55.498L170.996 52.4122L175.527 51.8873L177.427 47.7438Z" fill="url(#paint58_diamond_351_2193)"/>
<path d="M218.106 34.3331L220.006 38.4766L224.537 39.0015L221.18 42.0872L222.081 46.5551L218.106 44.3187L214.131 46.5551L215.031 42.0872L211.674 39.0015L216.205 38.4766L218.106 34.3331Z" fill="url(#paint59_diamond_351_2193)"/>
<path d="M204.479 34.2314L206.379 38.3749L210.91 38.8998L207.553 41.9856L208.454 46.4535L204.479 44.2171L200.504 46.4535L201.404 41.9856L198.047 38.8998L202.579 38.3749L204.479 34.2314Z" fill="url(#paint60_diamond_351_2193)"/>
<path d="M190.953 34.2314L192.853 38.3749L197.385 38.8998L194.027 41.9856L194.928 46.4535L190.953 44.2171L186.978 46.4535L187.878 41.9856L184.521 38.8998L189.053 38.3749L190.953 34.2314Z" fill="url(#paint61_diamond_351_2193)"/>
<path d="M177.427 34.2314L179.327 38.3749L183.859 38.8998L180.502 41.9856L181.402 46.4535L177.427 44.2171L173.452 46.4535L174.353 41.9856L170.996 38.8998L175.527 38.3749L177.427 34.2314Z" fill="url(#paint62_diamond_351_2193)"/>
<path d="M218.106 20.8207L220.006 24.9642L224.537 25.4891L221.18 28.5748L222.081 33.0427L218.106 30.8063L214.131 33.0427L215.031 28.5748L211.674 25.4891L216.205 24.9642L218.106 20.8207Z" fill="url(#paint63_diamond_351_2193)"/>
<path d="M204.479 20.719L206.379 24.8625L210.91 25.3874L207.553 28.4732L208.454 32.9411L204.479 30.7047L200.504 32.9411L201.404 28.4732L198.047 25.3874L202.579 24.8625L204.479 20.719Z" fill="url(#paint64_diamond_351_2193)"/>
<path d="M190.953 20.719L192.853 24.8625L197.385 25.3874L194.027 28.4732L194.928 32.9411L190.953 30.7047L186.978 32.9411L187.878 28.4732L184.521 25.3874L189.053 24.8625L190.953 20.719Z" fill="url(#paint65_diamond_351_2193)"/>
<path d="M177.427 20.719L179.327 24.8625L183.859 25.3874L180.502 28.4732L181.402 32.9411L177.427 30.7047L173.452 32.9411L174.353 28.4732L170.996 25.3874L175.527 24.8625L177.427 20.719Z" fill="url(#paint66_diamond_351_2193)"/>
<path d="M218.106 7.30827L220.006 11.4518L224.537 11.9767L221.18 15.0624L222.081 19.5304L218.106 17.2939L214.131 19.5304L215.031 15.0624L211.674 11.9767L216.205 11.4518L218.106 7.30827Z" fill="url(#paint67_diamond_351_2193)"/>
<path d="M204.479 7.20661L206.379 11.3501L210.91 11.875L207.553 14.9608L208.454 19.4287L204.479 17.1923L200.504 19.4287L201.404 14.9608L198.047 11.875L202.579 11.3501L204.479 7.20661Z" fill="url(#paint68_diamond_351_2193)"/>
<path d="M190.953 7.20661L192.853 11.3501L197.385 11.875L194.028 14.9608L194.928 19.4287L190.953 17.1923L186.978 19.4287L187.879 14.9608L184.521 11.875L189.053 11.3501L190.953 7.20661Z" fill="url(#paint69_diamond_351_2193)"/>
<path d="M177.427 7.20661L179.327 11.3501L183.859 11.875L180.502 14.9608L181.402 19.4287L177.427 17.1923L173.452 19.4287L174.353 14.9608L170.996 11.875L175.527 11.3501L177.427 7.20661Z" fill="url(#paint70_diamond_351_2193)"/>
<path fill-rule="evenodd" clip-rule="evenodd" d="M232.432 44.693L167.792 71.3941L163 59.817V25.121L222.056 0.726479C225.26 1.76388 227.992 3.85017 229.847 6.58045L232.168 12.1882C232.341 13.099 232.432 14.039 232.432 15V44.693Z" fill="url(#paint71_linear_351_2193)"/>
<path fill-rule="evenodd" clip-rule="evenodd" d="M232.432 82.2836L167.882 108.947L163 97.1519V62.7116L222.332 38.2031C228.21 40.234 232.432 45.8161 232.432 52.3842V82.2836Z" fill="url(#paint72_linear_351_2193)"/>
<rect x="165" y="2" width="65.4315" height="105" rx="13" stroke="#E5E5E5" stroke-width="4"/>
<path d="M189.67 41.5559C203.519 37.5033 210.137 40.2105 211.791 53.4051C211.836 53.7663 211.388 53.9731 211.127 53.7154C205.43 48.0847 201.7 46.953 194.977 49.3972C194.75 49.4799 194.654 49.7477 194.78 49.9518L196.492 52.7319C196.666 53.0138 196.421 53.3656 196.091 53.308L183.479 51.1018C183.255 51.0626 183.113 50.8431 183.171 50.6264L186.468 38.3606C186.554 38.0386 186.988 37.9712 187.171 38.2514L189.226 41.3971C189.32 41.5409 189.503 41.6046 189.67 41.5559Z" fill="#B0B5E9"/>
<path d="M205.762 66.6975C191.913 70.7501 185.294 68.0429 183.641 54.8483C183.596 54.4872 184.044 54.2803 184.305 54.538C190.002 60.1687 193.731 61.3005 200.455 58.8562C200.682 58.7735 200.777 58.5058 200.652 58.3016L198.94 55.5215C198.766 55.2396 199.011 54.8878 199.341 54.9454L211.953 57.1516C212.177 57.1908 212.319 57.4103 212.261 57.627L208.964 69.8928C208.878 70.2148 208.444 70.2822 208.261 70.0021L206.206 66.8563C206.112 66.7125 205.929 66.6488 205.762 66.6975Z" fill="#F1AEEE"/>
<defs>
<linearGradient id="paint0_linear_351_2193" x1="34.7158" y1="0" x2="34.7158" y2="109" gradientUnits="userSpaceOnUse">
<stop stop-color="#674D80"/>
<stop offset="0.46875" stop-color="#24173C"/>
<stop offset="1" stop-color="#1E1E1E"/>
</linearGradient>
<linearGradient id="paint1_linear_351_2193" x1="25.6887" y1="15.0885" x2="42.4199" y2="56.0089" gradientUnits="userSpaceOnUse">
<stop stop-color="#0E0F11" stop-opacity="0"/>
<stop offset="0.463542" stop-color="#101114" stop-opacity="0.7"/>
<stop offset="1" stop-color="#16171B" stop-opacity="0"/>
</linearGradient>
<linearGradient id="paint2_linear_351_2193" x1="25.6887" y1="52.5468" x2="42.3832" y2="93.4298" gradientUnits="userSpaceOnUse">
<stop stop-color="#0E0F11" stop-opacity="0"/>
<stop offset="0.46875" stop-color="#101114" stop-opacity="0.7"/>
<stop offset="1" stop-color="#16171B" stop-opacity="0"/>
</linearGradient>
<linearGradient id="paint3_linear_351_2193" x1="75.7273" y1="0" x2="75.7273" y2="109.143" gradientUnits="userSpaceOnUse">
<stop stop-color="#674D80"/>
<stop offset="0.46875" stop-color="#24173C"/>
<stop offset="1" stop-color="#1E1E1E"/>
</linearGradient>
<linearGradient id="paint4_linear_351_2193" x1="66.6972" y1="15.1074" x2="83.4624" y2="56.0705" gradientUnits="userSpaceOnUse">
<stop stop-color="#0E0F11" stop-opacity="0"/>
<stop offset="0.463542" stop-color="#101114" stop-opacity="0.7"/>
<stop offset="1" stop-color="#16171B" stop-opacity="0"/>
</linearGradient>
<linearGradient id="paint5_linear_351_2193" x1="66.6972" y1="52.6147" x2="83.4257" y2="93.5404" gradientUnits="userSpaceOnUse">
<stop stop-color="#0E0F11" stop-opacity="0"/>
<stop offset="0.46875" stop-color="#101114" stop-opacity="0.7"/>
<stop offset="1" stop-color="#16171B" stop-opacity="0"/>
</linearGradient>
<linearGradient id="paint6_linear_351_2193" x1="116.716" y1="0" x2="116.716" y2="109" gradientUnits="userSpaceOnUse">
<stop stop-color="#674D80"/>
<stop offset="0.46875" stop-color="#24173C"/>
<stop offset="1" stop-color="#1E1E1E"/>
</linearGradient>
<radialGradient id="paint7_diamond_351_2193" cx="0" cy="0" r="1" gradientUnits="userSpaceOnUse" gradientTransform="translate(138.89 91.2576) rotate(134.599) scale(10.9018 10.5647)">
<stop offset="0.358888" stop-color="#FCFBEC"/>
<stop offset="0.942951" stop-color="#CBC4AC"/>
</radialGradient>
<radialGradient id="paint8_diamond_351_2193" cx="0" cy="0" r="1" gradientUnits="userSpaceOnUse" gradientTransform="translate(125.262 91.1559) rotate(134.599) scale(10.9018 10.5647)">
<stop offset="0.358888" stop-color="#FCFBEC"/>
<stop offset="0.942951" stop-color="#CBC4AC"/>
</radialGradient>
<radialGradient id="paint9_diamond_351_2193" cx="0" cy="0" r="1" gradientUnits="userSpaceOnUse" gradientTransform="translate(125.262 91.1559) rotate(134.599) scale(10.9018 10.5647)">
<stop offset="0.358888" stop-color="#FCFBEC"/>
<stop offset="0.942951" stop-color="#CBC4AC"/>
</radialGradient>
<radialGradient id="paint10_diamond_351_2193" cx="0" cy="0" r="1" gradientUnits="userSpaceOnUse" gradientTransform="translate(111.736 91.1559) rotate(134.599) scale(10.9018 10.5647)">
<stop offset="0.358888" stop-color="#FCFBEC"/>
<stop offset="0.942951" stop-color="#CBC4AC"/>
</radialGradient>
<radialGradient id="paint11_diamond_351_2193" cx="0" cy="0" r="1" gradientUnits="userSpaceOnUse" gradientTransform="translate(98.211 91.1559) rotate(134.599) scale(10.9018 10.5647)">
<stop offset="0.358888" stop-color="#FCFBEC"/>
<stop offset="0.942951" stop-color="#CBC4AC"/>
</radialGradient>
<radialGradient id="paint12_diamond_351_2193" cx="0" cy="0" r="1" gradientUnits="userSpaceOnUse" gradientTransform="translate(138.89 77.7452) rotate(134.599) scale(10.9018 10.5647)">
<stop offset="0.358888" stop-color="#FCFBEC"/>
<stop offset="0.942951" stop-color="#CBC4AC"/>
</radialGradient>
<radialGradient id="paint13_diamond_351_2193" cx="0" cy="0" r="1" gradientUnits="userSpaceOnUse" gradientTransform="translate(125.262 77.6435) rotate(134.599) scale(10.9018 10.5647)">
<stop offset="0.358888" stop-color="#FCFBEC"/>
<stop offset="0.942951" stop-color="#CBC4AC"/>
</radialGradient>
<radialGradient id="paint14_diamond_351_2193" cx="0" cy="0" r="1" gradientUnits="userSpaceOnUse" gradientTransform="translate(111.736 77.6435) rotate(134.599) scale(10.9018 10.5647)">
<stop offset="0.358888" stop-color="#FCFBEC"/>
<stop offset="0.942951" stop-color="#CBC4AC"/>
</radialGradient>
<radialGradient id="paint15_diamond_351_2193" cx="0" cy="0" r="1" gradientUnits="userSpaceOnUse" gradientTransform="translate(98.211 77.6435) rotate(134.599) scale(10.9018 10.5647)">
<stop offset="0.358888" stop-color="#FCFBEC"/>
<stop offset="0.942951" stop-color="#CBC4AC"/>
</radialGradient>
<radialGradient id="paint16_diamond_351_2193" cx="0" cy="0" r="1" gradientUnits="userSpaceOnUse" gradientTransform="translate(138.89 64.2328) rotate(134.599) scale(10.9018 10.5647)">
<stop offset="0.358888" stop-color="#FCFBEC"/>
<stop offset="0.942951" stop-color="#CBC4AC"/>
</radialGradient>
<radialGradient id="paint17_diamond_351_2193" cx="0" cy="0" r="1" gradientUnits="userSpaceOnUse" gradientTransform="translate(125.262 64.1312) rotate(134.599) scale(10.9018 10.5647)">
<stop offset="0.358888" stop-color="#FCFBEC"/>
<stop offset="0.942951" stop-color="#CBC4AC"/>
</radialGradient>
<radialGradient id="paint18_diamond_351_2193" cx="0" cy="0" r="1" gradientUnits="userSpaceOnUse" gradientTransform="translate(111.736 64.1312) rotate(134.599) scale(10.9018 10.5647)">
<stop offset="0.358888" stop-color="#FCFBEC"/>
<stop offset="0.942951" stop-color="#CBC4AC"/>
</radialGradient>
<radialGradient id="paint19_diamond_351_2193" cx="0" cy="0" r="1" gradientUnits="userSpaceOnUse" gradientTransform="translate(98.211 64.1312) rotate(134.599) scale(10.9018 10.5647)">
<stop offset="0.358888" stop-color="#FCFBEC"/>
<stop offset="0.942951" stop-color="#CBC4AC"/>
</radialGradient>
<radialGradient id="paint20_diamond_351_2193" cx="0" cy="0" r="1" gradientUnits="userSpaceOnUse" gradientTransform="translate(138.89 50.7204) rotate(134.599) scale(10.9018 10.5647)">
<stop offset="0.358888" stop-color="#FCFBEC"/>
<stop offset="0.942951" stop-color="#CBC4AC"/>
</radialGradient>
<radialGradient id="paint21_diamond_351_2193" cx="0" cy="0" r="1" gradientUnits="userSpaceOnUse" gradientTransform="translate(125.262 50.6187) rotate(134.599) scale(10.9018 10.5647)">
<stop offset="0.358888" stop-color="#FCFBEC"/>
<stop offset="0.942951" stop-color="#CBC4AC"/>
</radialGradient>
<radialGradient id="paint22_diamond_351_2193" cx="0" cy="0" r="1" gradientUnits="userSpaceOnUse" gradientTransform="translate(111.736 50.6187) rotate(134.599) scale(10.9018 10.5647)">
<stop offset="0.358888" stop-color="#FCFBEC"/>
<stop offset="0.942951" stop-color="#CBC4AC"/>
</radialGradient>
<radialGradient id="paint23_diamond_351_2193" cx="0" cy="0" r="1" gradientUnits="userSpaceOnUse" gradientTransform="translate(98.211 50.6187) rotate(134.599) scale(10.9018 10.5647)">
<stop offset="0.358888" stop-color="#FCFBEC"/>
<stop offset="0.942951" stop-color="#CBC4AC"/>
</radialGradient>
<radialGradient id="paint24_diamond_351_2193" cx="0" cy="0" r="1" gradientUnits="userSpaceOnUse" gradientTransform="translate(138.89 37.208) rotate(134.599) scale(10.9018 10.5647)">
<stop offset="0.358888" stop-color="#FCFBEC"/>
<stop offset="0.942951" stop-color="#CBC4AC"/>
</radialGradient>
<radialGradient id="paint25_diamond_351_2193" cx="0" cy="0" r="1" gradientUnits="userSpaceOnUse" gradientTransform="translate(125.262 37.1064) rotate(134.599) scale(10.9018 10.5647)">
<stop offset="0.358888" stop-color="#FCFBEC"/>
<stop offset="0.942951" stop-color="#CBC4AC"/>
</radialGradient>
<radialGradient id="paint26_diamond_351_2193" cx="0" cy="0" r="1" gradientUnits="userSpaceOnUse" gradientTransform="translate(111.736 37.1064) rotate(134.599) scale(10.9018 10.5647)">
<stop offset="0.358888" stop-color="#FCFBEC"/>
<stop offset="0.942951" stop-color="#CBC4AC"/>
</radialGradient>
<radialGradient id="paint27_diamond_351_2193" cx="0" cy="0" r="1" gradientUnits="userSpaceOnUse" gradientTransform="translate(98.211 37.1064) rotate(134.599) scale(10.9018 10.5647)">
<stop offset="0.358888" stop-color="#FCFBEC"/>
<stop offset="0.942951" stop-color="#CBC4AC"/>
</radialGradient>
<radialGradient id="paint28_diamond_351_2193" cx="0" cy="0" r="1" gradientUnits="userSpaceOnUse" gradientTransform="translate(138.89 23.6956) rotate(134.599) scale(10.9018 10.5647)">
<stop offset="0.358888" stop-color="#FCFBEC"/>
<stop offset="0.942951" stop-color="#CBC4AC"/>
</radialGradient>
<radialGradient id="paint29_diamond_351_2193" cx="0" cy="0" r="1" gradientUnits="userSpaceOnUse" gradientTransform="translate(125.262 23.594) rotate(134.599) scale(10.9018 10.5647)">
<stop offset="0.358888" stop-color="#FCFBEC"/>
<stop offset="0.942951" stop-color="#CBC4AC"/>
</radialGradient>
<radialGradient id="paint30_diamond_351_2193" cx="0" cy="0" r="1" gradientUnits="userSpaceOnUse" gradientTransform="translate(111.736 23.594) rotate(134.599) scale(10.9018 10.5647)">
<stop offset="0.358888" stop-color="#FCFBEC"/>
<stop offset="0.942951" stop-color="#CBC4AC"/>
</radialGradient>
<radialGradient id="paint31_diamond_351_2193" cx="0" cy="0" r="1" gradientUnits="userSpaceOnUse" gradientTransform="translate(98.211 23.594) rotate(134.599) scale(10.9018 10.5647)">
<stop offset="0.358888" stop-color="#FCFBEC"/>
<stop offset="0.942951" stop-color="#CBC4AC"/>
</radialGradient>
<radialGradient id="paint32_diamond_351_2193" cx="0" cy="0" r="1" gradientUnits="userSpaceOnUse" gradientTransform="translate(138.89 10.1832) rotate(134.599) scale(10.9018 10.5647)">
<stop offset="0.358888" stop-color="#FCFBEC"/>
<stop offset="0.942951" stop-color="#CBC4AC"/>
</radialGradient>
<radialGradient id="paint33_diamond_351_2193" cx="0" cy="0" r="1" gradientUnits="userSpaceOnUse" gradientTransform="translate(125.262 10.0816) rotate(134.599) scale(10.9018 10.5647)">
<stop offset="0.358888" stop-color="#FCFBEC"/>
<stop offset="0.942951" stop-color="#CBC4AC"/>
</radialGradient>
<radialGradient id="paint34_diamond_351_2193" cx="0" cy="0" r="1" gradientUnits="userSpaceOnUse" gradientTransform="translate(111.737 10.0816) rotate(134.599) scale(10.9018 10.5647)">
<stop offset="0.358888" stop-color="#FCFBEC"/>
<stop offset="0.942951" stop-color="#CBC4AC"/>
</radialGradient>
<radialGradient id="paint35_diamond_351_2193" cx="0" cy="0" r="1" gradientUnits="userSpaceOnUse" gradientTransform="translate(98.211 10.0816) rotate(134.599) scale(10.9018 10.5647)">
<stop offset="0.358888" stop-color="#FCFBEC"/>
<stop offset="0.942951" stop-color="#CBC4AC"/>
</radialGradient>
<linearGradient id="paint36_linear_351_2193" x1="107.689" y1="15.0886" x2="124.42" y2="56.009" gradientUnits="userSpaceOnUse">
<stop stop-color="#0E0F11" stop-opacity="0"/>
<stop offset="0.463542" stop-color="#101114" stop-opacity="0.7"/>
<stop offset="1" stop-color="#16171B" stop-opacity="0"/>
</linearGradient>
<linearGradient id="paint37_linear_351_2193" x1="107.689" y1="52.5468" x2="124.383" y2="93.4298" gradientUnits="userSpaceOnUse">
<stop stop-color="#0E0F11" stop-opacity="0"/>
<stop offset="0.46875" stop-color="#101114" stop-opacity="0.7"/>
<stop offset="1" stop-color="#16171B" stop-opacity="0"/>
</linearGradient>
<linearGradient id="paint38_linear_351_2193" x1="159.716" y1="0" x2="159.716" y2="109" gradientUnits="userSpaceOnUse">
<stop stop-color="#674D80"/>
<stop offset="0.46875" stop-color="#24173C"/>
<stop offset="1" stop-color="#1E1E1E"/>
</linearGradient>
<linearGradient id="paint39_linear_351_2193" x1="150.689" y1="15.0885" x2="167.42" y2="56.0089" gradientUnits="userSpaceOnUse">
<stop stop-color="#0E0F11" stop-opacity="0"/>
<stop offset="0.463542" stop-color="#101114" stop-opacity="0.7"/>
<stop offset="1" stop-color="#16171B" stop-opacity="0"/>
</linearGradient>
<linearGradient id="paint40_linear_351_2193" x1="150.689" y1="52.5468" x2="167.383" y2="93.4298" gradientUnits="userSpaceOnUse">
<stop stop-color="#0E0F11" stop-opacity="0"/>
<stop offset="0.46875" stop-color="#101114" stop-opacity="0.7"/>
<stop offset="1" stop-color="#16171B" stop-opacity="0"/>
</linearGradient>
<linearGradient id="paint41_linear_351_2193" x1="197.716" y1="0" x2="197.716" y2="109" gradientUnits="userSpaceOnUse">
<stop stop-color="#674D80"/>
<stop offset="0.46875" stop-color="#24173C"/>
<stop offset="1" stop-color="#1E1E1E"/>
</linearGradient>
<radialGradient id="paint42_diamond_351_2193" cx="0" cy="0" r="1" gradientUnits="userSpaceOnUse" gradientTransform="translate(219.889 91.2576) rotate(134.599) scale(10.9018 10.5647)">
<stop offset="0.358888" stop-color="#F699F0" stop-opacity="0.29"/>
<stop offset="0.942951" stop-color="#CB48EF" stop-opacity="0.29"/>
</radialGradient>
<radialGradient id="paint43_diamond_351_2193" cx="0" cy="0" r="1" gradientUnits="userSpaceOnUse" gradientTransform="translate(206.262 91.156) rotate(134.599) scale(10.9018 10.5647)">
<stop offset="0.358888" stop-color="#F699F0" stop-opacity="0.29"/>
<stop offset="0.942951" stop-color="#CB48EF" stop-opacity="0.29"/>
</radialGradient>
<radialGradient id="paint44_diamond_351_2193" cx="0" cy="0" r="1" gradientUnits="userSpaceOnUse" gradientTransform="translate(206.262 91.156) rotate(134.599) scale(10.9018 10.5647)">
<stop offset="0.358888" stop-color="#F699F0" stop-opacity="0.29"/>
<stop offset="0.942951" stop-color="#CB48EF" stop-opacity="0.29"/>
</radialGradient>
<radialGradient id="paint45_diamond_351_2193" cx="0" cy="0" r="1" gradientUnits="userSpaceOnUse" gradientTransform="translate(192.736 91.156) rotate(134.599) scale(10.9018 10.5647)">
<stop offset="0.358888" stop-color="#F699F0" stop-opacity="0.29"/>
<stop offset="0.942951" stop-color="#CB48EF" stop-opacity="0.29"/>
</radialGradient>
<radialGradient id="paint46_diamond_351_2193" cx="0" cy="0" r="1" gradientUnits="userSpaceOnUse" gradientTransform="translate(179.211 91.156) rotate(134.599) scale(10.9018 10.5647)">
<stop offset="0.358888" stop-color="#F699F0" stop-opacity="0.29"/>
<stop offset="0.942951" stop-color="#CB48EF" stop-opacity="0.29"/>
</radialGradient>
<radialGradient id="paint47_diamond_351_2193" cx="0" cy="0" r="1" gradientUnits="userSpaceOnUse" gradientTransform="translate(219.889 77.7452) rotate(134.599) scale(10.9018 10.5647)">
<stop offset="0.358888" stop-color="#F699F0" stop-opacity="0.29"/>
<stop offset="0.942951" stop-color="#CB48EF" stop-opacity="0.29"/>
</radialGradient>
<radialGradient id="paint48_diamond_351_2193" cx="0" cy="0" r="1" gradientUnits="userSpaceOnUse" gradientTransform="translate(206.262 77.6436) rotate(134.599) scale(10.9018 10.5647)">
<stop offset="0.358888" stop-color="#F699F0" stop-opacity="0.29"/>
<stop offset="0.942951" stop-color="#CB48EF" stop-opacity="0.29"/>
</radialGradient>
<radialGradient id="paint49_diamond_351_2193" cx="0" cy="0" r="1" gradientUnits="userSpaceOnUse" gradientTransform="translate(192.736 77.6436) rotate(134.599) scale(10.9018 10.5647)">
<stop offset="0.358888" stop-color="#F699F0" stop-opacity="0.29"/>
<stop offset="0.942951" stop-color="#CB48EF" stop-opacity="0.29"/>
</radialGradient>
<radialGradient id="paint50_diamond_351_2193" cx="0" cy="0" r="1" gradientUnits="userSpaceOnUse" gradientTransform="translate(179.211 77.6436) rotate(134.599) scale(10.9018 10.5647)">
<stop offset="0.358888" stop-color="#F699F0" stop-opacity="0.29"/>
<stop offset="0.942951" stop-color="#CB48EF" stop-opacity="0.29"/>
</radialGradient>
<radialGradient id="paint51_diamond_351_2193" cx="0" cy="0" r="1" gradientUnits="userSpaceOnUse" gradientTransform="translate(219.889 64.2328) rotate(134.599) scale(10.9018 10.5647)">
<stop offset="0.358888" stop-color="#F699F0" stop-opacity="0.29"/>
<stop offset="0.942951" stop-color="#CB48EF" stop-opacity="0.29"/>
</radialGradient>
<radialGradient id="paint52_diamond_351_2193" cx="0" cy="0" r="1" gradientUnits="userSpaceOnUse" gradientTransform="translate(206.262 64.1312) rotate(134.599) scale(10.9018 10.5647)">
<stop offset="0.358888" stop-color="#F699F0" stop-opacity="0.29"/>
<stop offset="0.942951" stop-color="#CB48EF" stop-opacity="0.29"/>
</radialGradient>
<radialGradient id="paint53_diamond_351_2193" cx="0" cy="0" r="1" gradientUnits="userSpaceOnUse" gradientTransform="translate(192.736 64.1312) rotate(134.599) scale(10.9018 10.5647)">
<stop offset="0.358888" stop-color="#F699F0" stop-opacity="0.29"/>
<stop offset="0.942951" stop-color="#CB48EF" stop-opacity="0.29"/>
</radialGradient>
<radialGradient id="paint54_diamond_351_2193" cx="0" cy="0" r="1" gradientUnits="userSpaceOnUse" gradientTransform="translate(179.211 64.1312) rotate(134.599) scale(10.9018 10.5647)">
<stop offset="0.358888" stop-color="#F699F0" stop-opacity="0.29"/>
<stop offset="0.942951" stop-color="#CB48EF" stop-opacity="0.29"/>
</radialGradient>
<radialGradient id="paint55_diamond_351_2193" cx="0" cy="0" r="1" gradientUnits="userSpaceOnUse" gradientTransform="translate(219.889 50.7204) rotate(134.599) scale(10.9018 10.5647)">
<stop offset="0.358888" stop-color="#F699F0" stop-opacity="0.29"/>
<stop offset="0.942951" stop-color="#CB48EF" stop-opacity="0.29"/>
</radialGradient>
<radialGradient id="paint56_diamond_351_2193" cx="0" cy="0" r="1" gradientUnits="userSpaceOnUse" gradientTransform="translate(206.262 50.6188) rotate(134.599) scale(10.9018 10.5647)">
<stop offset="0.358888" stop-color="#F699F0" stop-opacity="0.29"/>
<stop offset="0.942951" stop-color="#CB48EF" stop-opacity="0.29"/>
</radialGradient>
<radialGradient id="paint57_diamond_351_2193" cx="0" cy="0" r="1" gradientUnits="userSpaceOnUse" gradientTransform="translate(192.736 50.6188) rotate(134.599) scale(10.9018 10.5647)">
<stop offset="0.358888" stop-color="#F699F0" stop-opacity="0.29"/>
<stop offset="0.942951" stop-color="#CB48EF" stop-opacity="0.29"/>
</radialGradient>
<radialGradient id="paint58_diamond_351_2193" cx="0" cy="0" r="1" gradientUnits="userSpaceOnUse" gradientTransform="translate(179.211 50.6188) rotate(134.599) scale(10.9018 10.5647)">
<stop offset="0.358888" stop-color="#F699F0" stop-opacity="0.29"/>
<stop offset="0.942951" stop-color="#CB48EF" stop-opacity="0.29"/>
</radialGradient>
<radialGradient id="paint59_diamond_351_2193" cx="0" cy="0" r="1" gradientUnits="userSpaceOnUse" gradientTransform="translate(219.889 37.208) rotate(134.599) scale(10.9018 10.5647)">
<stop offset="0.358888" stop-color="#F699F0" stop-opacity="0.29"/>
<stop offset="0.942951" stop-color="#CB48EF" stop-opacity="0.29"/>
</radialGradient>
<radialGradient id="paint60_diamond_351_2193" cx="0" cy="0" r="1" gradientUnits="userSpaceOnUse" gradientTransform="translate(206.262 37.1064) rotate(134.599) scale(10.9018 10.5647)">
<stop offset="0.358888" stop-color="#F699F0" stop-opacity="0.29"/>
<stop offset="0.942951" stop-color="#CB48EF" stop-opacity="0.29"/>
</radialGradient>
<radialGradient id="paint61_diamond_351_2193" cx="0" cy="0" r="1" gradientUnits="userSpaceOnUse" gradientTransform="translate(192.736 37.1064) rotate(134.599) scale(10.9018 10.5647)">
<stop offset="0.358888" stop-color="#F699F0" stop-opacity="0.29"/>
<stop offset="0.942951" stop-color="#CB48EF" stop-opacity="0.29"/>
</radialGradient>
<radialGradient id="paint62_diamond_351_2193" cx="0" cy="0" r="1" gradientUnits="userSpaceOnUse" gradientTransform="translate(179.211 37.1064) rotate(134.599) scale(10.9018 10.5647)">
<stop offset="0.358888" stop-color="#F699F0" stop-opacity="0.29"/>
<stop offset="0.942951" stop-color="#CB48EF" stop-opacity="0.29"/>
</radialGradient>
<radialGradient id="paint63_diamond_351_2193" cx="0" cy="0" r="1" gradientUnits="userSpaceOnUse" gradientTransform="translate(219.889 23.6956) rotate(134.599) scale(10.9018 10.5647)">
<stop offset="0.358888" stop-color="#F699F0" stop-opacity="0.29"/>
<stop offset="0.942951" stop-color="#CB48EF" stop-opacity="0.29"/>
</radialGradient>
<radialGradient id="paint64_diamond_351_2193" cx="0" cy="0" r="1" gradientUnits="userSpaceOnUse" gradientTransform="translate(206.262 23.594) rotate(134.599) scale(10.9018 10.5647)">
<stop offset="0.358888" stop-color="#F699F0" stop-opacity="0.29"/>
<stop offset="0.942951" stop-color="#CB48EF" stop-opacity="0.29"/>
</radialGradient>
<radialGradient id="paint65_diamond_351_2193" cx="0" cy="0" r="1" gradientUnits="userSpaceOnUse" gradientTransform="translate(192.736 23.594) rotate(134.599) scale(10.9018 10.5647)">
<stop offset="0.358888" stop-color="#F699F0" stop-opacity="0.29"/>
<stop offset="0.942951" stop-color="#CB48EF" stop-opacity="0.29"/>
</radialGradient>
<radialGradient id="paint66_diamond_351_2193" cx="0" cy="0" r="1" gradientUnits="userSpaceOnUse" gradientTransform="translate(179.211 23.594) rotate(134.599) scale(10.9018 10.5647)">
<stop offset="0.358888" stop-color="#F699F0" stop-opacity="0.29"/>
<stop offset="0.942951" stop-color="#CB48EF" stop-opacity="0.29"/>
</radialGradient>
<radialGradient id="paint67_diamond_351_2193" cx="0" cy="0" r="1" gradientUnits="userSpaceOnUse" gradientTransform="translate(219.889 10.1833) rotate(134.599) scale(10.9018 10.5647)">
<stop offset="0.358888" stop-color="#F699F0" stop-opacity="0.29"/>
<stop offset="0.942951" stop-color="#CB48EF" stop-opacity="0.29"/>
</radialGradient>
<radialGradient id="paint68_diamond_351_2193" cx="0" cy="0" r="1" gradientUnits="userSpaceOnUse" gradientTransform="translate(206.262 10.0816) rotate(134.599) scale(10.9018 10.5647)">
<stop offset="0.358888" stop-color="#F699F0" stop-opacity="0.29"/>
<stop offset="0.942951" stop-color="#CB48EF" stop-opacity="0.29"/>
</radialGradient>
<radialGradient id="paint69_diamond_351_2193" cx="0" cy="0" r="1" gradientUnits="userSpaceOnUse" gradientTransform="translate(192.737 10.0816) rotate(134.599) scale(10.9018 10.5647)">
<stop offset="0.358888" stop-color="#F699F0" stop-opacity="0.29"/>
<stop offset="0.942951" stop-color="#CB48EF" stop-opacity="0.29"/>
</radialGradient>
<radialGradient id="paint70_diamond_351_2193" cx="0" cy="0" r="1" gradientUnits="userSpaceOnUse" gradientTransform="translate(179.211 10.0816) rotate(134.599) scale(10.9018 10.5647)">
<stop offset="0.358888" stop-color="#F699F0" stop-opacity="0.29"/>
<stop offset="0.942951" stop-color="#CB48EF" stop-opacity="0.29"/>
</radialGradient>
<linearGradient id="paint71_linear_351_2193" x1="188.689" y1="15.0885" x2="205.42" y2="56.009" gradientUnits="userSpaceOnUse">
<stop stop-color="#0E0F11" stop-opacity="0"/>
<stop offset="0.463542" stop-color="#101114" stop-opacity="0.7"/>
<stop offset="1" stop-color="#16171B" stop-opacity="0"/>
</linearGradient>
<linearGradient id="paint72_linear_351_2193" x1="188.689" y1="52.5468" x2="205.383" y2="93.4299" gradientUnits="userSpaceOnUse">
<stop stop-color="#0E0F11" stop-opacity="0"/>
<stop offset="0.46875" stop-color="#101114" stop-opacity="0.7"/>
<stop offset="1" stop-color="#16171B" stop-opacity="0"/>
</linearGradient>
</defs>
</svg>
