<svg width="325" height="147" viewBox="0 0 325 147" fill="none" xmlns="http://www.w3.org/2000/svg">
<rect width="93" height="146" rx="15" fill="url(#paint0_linear_734_1933)"/>
<path d="M73.8114 118.384L76.3564 123.934L82.4265 124.637L77.9294 128.77L79.1358 134.755L73.8114 131.759L68.487 134.755L69.6934 128.77L65.1963 124.637L71.2663 123.934L73.8114 118.384Z" fill="url(#paint1_diamond_734_1933)"/>
<path d="M55.5584 118.248L58.1035 123.798L64.1735 124.501L59.6765 128.634L60.8829 134.619L55.5584 131.623L50.234 134.619L51.4404 128.634L46.9434 124.501L53.0134 123.798L55.5584 118.248Z" fill="url(#paint2_diamond_734_1933)"/>
<path d="M55.5584 118.248L58.1035 123.798L64.1735 124.501L59.6765 128.634L60.8829 134.619L55.5584 131.623L50.234 134.619L51.4404 128.634L46.9434 124.501L53.0134 123.798L55.5584 118.248Z" fill="url(#paint3_diamond_734_1933)"/>
<path d="M37.4413 118.248L39.9863 123.798L46.0563 124.501L41.5593 128.634L42.7657 134.619L37.4413 131.623L32.1168 134.619L33.3232 128.634L28.8262 124.501L34.8962 123.798L37.4413 118.248Z" fill="url(#paint4_diamond_734_1933)"/>
<path d="M19.3246 118.248L21.8696 123.798L27.9396 124.501L23.4426 128.634L24.649 134.619L19.3246 131.623L14.0001 134.619L15.2065 128.634L10.7095 124.501L16.7795 123.798L19.3246 118.248Z" fill="url(#paint5_diamond_734_1933)"/>
<path d="M73.8114 100.285L76.3564 105.835L82.4265 106.538L77.9294 110.671L79.1358 116.656L73.8114 113.66L68.487 116.656L69.6934 110.671L65.1963 106.538L71.2663 105.835L73.8114 100.285Z" fill="url(#paint6_diamond_734_1933)"/>
<path d="M55.5584 100.149L58.1035 105.699L64.1735 106.402L59.6765 110.535L60.8829 116.52L55.5584 113.524L50.234 116.52L51.4404 110.535L46.9434 106.402L53.0134 105.699L55.5584 100.149Z" fill="url(#paint7_diamond_734_1933)"/>
<path d="M37.4413 100.149L39.9863 105.699L46.0563 106.402L41.5593 110.535L42.7657 116.52L37.4413 113.524L32.1168 116.52L33.3232 110.535L28.8262 106.402L34.8962 105.699L37.4413 100.149Z" fill="url(#paint8_diamond_734_1933)"/>
<path d="M19.3246 100.149L21.8696 105.699L27.9396 106.402L23.4426 110.535L24.649 116.52L19.3246 113.524L14.0001 116.52L15.2065 110.535L10.7095 106.402L16.7795 105.699L19.3246 100.149Z" fill="url(#paint9_diamond_734_1933)"/>
<path d="M73.8114 82.1857L76.3564 87.7357L82.4265 88.4388L77.9294 92.572L79.1358 98.5565L73.8114 95.561L68.487 98.5565L69.6934 92.572L65.1963 88.4388L71.2663 87.7357L73.8114 82.1857Z" fill="url(#paint10_diamond_734_1933)"/>
<path d="M55.5584 82.0496L58.1035 87.5996L64.1735 88.3027L59.6765 92.4359L60.8829 98.4204L55.5584 95.4249L50.234 98.4204L51.4404 92.4359L46.9434 88.3027L53.0134 87.5996L55.5584 82.0496Z" fill="url(#paint11_diamond_734_1933)"/>
<path d="M37.4413 82.0496L39.9863 87.5996L46.0563 88.3027L41.5593 92.4359L42.7657 98.4204L37.4413 95.4249L32.1168 98.4204L33.3232 92.4359L28.8262 88.3027L34.8962 87.5996L37.4413 82.0496Z" fill="url(#paint12_diamond_734_1933)"/>
<path d="M19.3246 82.0496L21.8696 87.5996L27.9396 88.3027L23.4426 92.4359L24.649 98.4204L19.3246 95.4249L14.0001 98.4204L15.2065 92.4359L10.7095 88.3027L16.7795 87.5996L19.3246 82.0496Z" fill="url(#paint13_diamond_734_1933)"/>
<path d="M73.8114 64.0865L76.3564 69.6366L82.4265 70.3397L77.9294 74.4729L79.1358 80.4574L73.8114 77.4618L68.487 80.4574L69.6934 74.4729L65.1963 70.3397L71.2663 69.6366L73.8114 64.0865Z" fill="url(#paint14_diamond_734_1933)"/>
<path d="M55.5584 63.9503L58.1035 69.5003L64.1735 70.2034L59.6765 74.3366L60.8829 80.3212L55.5584 77.3256L50.234 80.3212L51.4404 74.3366L46.9434 70.2034L53.0134 69.5003L55.5584 63.9503Z" fill="url(#paint15_diamond_734_1933)"/>
<path d="M37.4413 63.9503L39.9863 69.5003L46.0563 70.2034L41.5593 74.3366L42.7657 80.3212L37.4413 77.3256L32.1168 80.3212L33.3232 74.3366L28.8262 70.2034L34.8962 69.5003L37.4413 63.9503Z" fill="url(#paint16_diamond_734_1933)"/>
<path d="M19.3246 63.9503L21.8696 69.5003L27.9396 70.2034L23.4426 74.3366L24.649 80.3212L19.3246 77.3256L14.0001 80.3212L15.2065 74.3366L10.7095 70.2034L16.7795 69.5003L19.3246 63.9503Z" fill="url(#paint17_diamond_734_1933)"/>
<path d="M73.8114 45.9873L76.3564 51.5373L82.4265 52.2404L77.9294 56.3736L79.1358 62.3582L73.8114 59.3626L68.487 62.3582L69.6934 56.3736L65.1963 52.2404L71.2663 51.5373L73.8114 45.9873Z" fill="url(#paint18_diamond_734_1933)"/>
<path d="M55.5584 45.8512L58.1035 51.4012L64.1735 52.1043L59.6765 56.2375L60.8829 62.2221L55.5584 59.2265L50.234 62.2221L51.4404 56.2375L46.9434 52.1043L53.0134 51.4012L55.5584 45.8512Z" fill="url(#paint19_diamond_734_1933)"/>
<path d="M37.4413 45.8512L39.9863 51.4012L46.0563 52.1043L41.5593 56.2375L42.7657 62.2221L37.4413 59.2265L32.1168 62.2221L33.3232 56.2375L28.8262 52.1043L34.8962 51.4012L37.4413 45.8512Z" fill="url(#paint20_diamond_734_1933)"/>
<path d="M19.3246 45.8512L21.8696 51.4012L27.9396 52.1043L23.4426 56.2375L24.649 62.2221L19.3246 59.2265L14.0001 62.2221L15.2065 56.2375L10.7095 52.1043L16.7795 51.4012L19.3246 45.8512Z" fill="url(#paint21_diamond_734_1933)"/>
<path d="M73.8114 27.8882L76.3564 33.4382L82.4265 34.1413L77.9294 38.2745L79.1358 44.259L73.8114 41.2635L68.487 44.259L69.6934 38.2745L65.1963 34.1413L71.2663 33.4382L73.8114 27.8882Z" fill="url(#paint22_diamond_734_1933)"/>
<path d="M55.5584 27.752L58.1035 33.302L64.1735 34.0051L59.6765 38.1383L60.8829 44.1228L55.5584 41.1272L50.234 44.1228L51.4404 38.1383L46.9434 34.0051L53.0134 33.302L55.5584 27.752Z" fill="url(#paint23_diamond_734_1933)"/>
<path d="M37.4413 27.752L39.9863 33.302L46.0563 34.0051L41.5593 38.1383L42.7657 44.1228L37.4413 41.1272L32.1168 44.1228L33.3232 38.1383L28.8262 34.0051L34.8962 33.302L37.4413 27.752Z" fill="url(#paint24_diamond_734_1933)"/>
<path d="M19.3246 27.752L21.8696 33.302L27.9396 34.0051L23.4426 38.1383L24.649 44.1228L19.3246 41.1272L14.0001 44.1228L15.2065 38.1383L10.7095 34.0051L16.7795 33.302L19.3246 27.752Z" fill="url(#paint25_diamond_734_1933)"/>
<path d="M73.8114 9.78906L76.3564 15.3391L82.4265 16.0422L77.9294 20.1754L79.1358 26.1599L73.8114 23.1644L68.487 26.1599L69.6934 20.1754L65.1963 16.0422L71.2663 15.3391L73.8114 9.78906Z" fill="url(#paint26_diamond_734_1933)"/>
<path d="M55.5584 9.65283L58.1035 15.2029L64.1735 15.9059L59.6765 20.0391L60.8829 26.0237L55.5584 23.0281L50.234 26.0237L51.4404 20.0391L46.9434 15.9059L53.0134 15.2029L55.5584 9.65283Z" fill="url(#paint27_diamond_734_1933)"/>
<path d="M37.4417 9.65283L39.9868 15.2029L46.0568 15.9059L41.5598 20.0391L42.7662 26.0237L37.4417 23.0281L32.1173 26.0237L33.3237 20.0391L28.8267 15.9059L34.8967 15.2029L37.4417 9.65283Z" fill="url(#paint28_diamond_734_1933)"/>
<path d="M19.3246 9.65283L21.8696 15.2029L27.9396 15.9059L23.4426 20.0391L24.649 26.0237L19.3246 23.0281L14.0001 26.0237L15.2065 20.0391L10.7095 15.9059L16.7795 15.2029L19.3246 9.65283Z" fill="url(#paint29_diamond_734_1933)"/>
<path fill-rule="evenodd" clip-rule="evenodd" d="M93 59.8641L6.41801 95.6288L0 80.1219V33.6483L80.8185 0.264404C83.1879 0.714872 85.3599 1.72269 87.1929 3.14629L93 17.177V59.8641Z" fill="url(#paint30_linear_734_1933)"/>
<path fill-rule="evenodd" clip-rule="evenodd" d="M93 110.215L6.5391 145.929L0 130.13V83.9991L81.2651 50.4307C84.5222 51.1537 87.3809 52.9357 89.4611 55.3969L92.9486 63.8231C92.9826 64.2356 93 64.6529 93 65.0743V110.215Z" fill="url(#paint31_linear_734_1933)"/>
<rect x="3" y="3" width="87" height="140" rx="12" stroke="#E5E5E5" stroke-width="6"/>
<path d="M34.7795 61.3546C29.8791 66.4804 26.7878 68.0922 21 69.9581C26.3984 73.7391 28.185 76.747 33.2047 80.6516C38.5689 84.3457 40.8465 84.1838 46 84.3457V74.1869C38.0522 73.4463 33.6039 72.4839 25.6752 70.3469C33.8437 70.9364 38.2578 70.7351 46 69.9581V65.1946C45.5742 59.7205 38.5425 57.3361 34.7795 61.3546Z" fill="#FE76A8"/>
<path d="M57.2205 61.3546C62.1209 66.4804 65.2122 68.0922 71 69.9581C65.6016 73.7391 63.815 76.747 58.7953 80.6516C53.4311 84.3457 51.3642 84.1838 46 84.3457V74.1869C53.9478 73.4463 58.3961 72.4839 66.3248 70.3469C58.1562 70.9364 53.7422 70.7351 46 69.9581V65.1946C46.4258 59.7205 53.4575 57.3361 57.2205 61.3546Z" fill="#FE76A8"/>
<g filter="url(#filter0_d_734_1933)">
<rect x="50.8442" y="51.1384" width="10.8738" height="42.5906" rx="5.43691" transform="rotate(27 50.8442 51.1384)" fill="#E4E7CC"/>
<circle cx="42.0568" cy="82.711" r="0.411634" transform="rotate(27 42.0568 82.711)" fill="#787465"/>
<circle cx="49.6151" cy="62.6728" r="0.438762" transform="rotate(27 49.6151 62.6728)" fill="#787465"/>
<circle cx="39.7341" cy="81.5275" r="0.411634" transform="rotate(27 39.7341 81.5275)" fill="#787465"/>
<circle cx="40.8142" cy="84.8497" r="0.411634" transform="rotate(27 40.8142 84.8497)" fill="#787465"/>
<circle cx="41.3542" cy="86.5104" r="0.411634" transform="rotate(27 41.3542 86.5104)" fill="#787465"/>
<circle cx="38.2589" cy="82.0074" r="0.548846" transform="rotate(27 38.2589 82.0074)" fill="#787465"/>
<circle cx="38.7379" cy="83.4837" r="0.548846" transform="rotate(27 38.7379 83.4837)" fill="#787465"/>
<circle cx="39.3375" cy="85.3293" r="0.548846" transform="rotate(27 39.3375 85.3293)" fill="#787465"/>
<circle cx="39.8775" cy="86.9903" r="0.548846" transform="rotate(27 39.8775 86.9903)" fill="#787465"/>
<circle cx="51.8724" cy="58.242" r="0.585016" transform="rotate(27 51.8724 58.242)" fill="#787465"/>
<circle cx="52.3846" cy="59.816" r="0.585016" transform="rotate(27 52.3846 59.816)" fill="#787465"/>
<circle cx="53.0867" cy="61.9795" r="0.585016" transform="rotate(27 53.0867 61.9795)" fill="#787465"/>
<circle cx="54.8582" cy="61.4045" r="0.585016" transform="rotate(27 54.8582 61.4045)" fill="#787465"/>
<circle cx="54.2854" cy="59.3071" r="0.585016" transform="rotate(27 54.2854 59.3071)" fill="#787465"/>
<circle cx="53.6434" cy="57.667" r="0.585016" transform="rotate(27 53.6434 57.667)" fill="#787465"/>
<circle cx="53.5989" cy="63.5533" r="0.585016" transform="rotate(27 53.5989 63.5533)" fill="#787465"/>
<circle cx="38.2164" cy="87.5298" r="0.548846" transform="rotate(27 38.2164 87.5298)" fill="#787465"/>
<circle cx="37.6759" cy="85.8687" r="0.548846" transform="rotate(27 37.6759 85.8687)" fill="#787465"/>
<circle cx="37.0763" cy="84.0232" r="0.548846" transform="rotate(27 37.0763 84.0232)" fill="#787465"/>
<circle cx="42.5377" cy="84.1877" r="0.548846" transform="rotate(27 42.5377 84.1877)" fill="#787465"/>
<circle cx="49.0379" cy="61.2294" r="0.585016" transform="rotate(27 49.0379 61.2294)" fill="#787465"/>
<circle cx="40.215" cy="83.0042" r="0.411634" transform="rotate(27 40.215 83.0042)" fill="#787465"/>
<circle cx="50.2323" cy="58.8838" r="0.438762" transform="rotate(27 50.2323 58.8838)" fill="#787465"/>
<circle cx="51.3841" cy="62.425" r="0.438762" transform="rotate(27 51.3841 62.425)" fill="#787465"/>
<circle cx="51.9588" cy="64.195" r="0.438762" transform="rotate(27 51.9588 64.195)" fill="#787465"/>
<circle cx="50.744" cy="60.4574" r="0.438762" transform="rotate(27 50.744 60.4574)" fill="#787465"/>
<rect x="46.5894" y="64.6854" width="6.15508" height="14.5858" rx="3.07754" transform="rotate(27 46.5894 64.6854)" fill="#E4BE59"/>
</g>
<rect x="46" width="93" height="146" rx="15" fill="url(#paint32_linear_734_1933)"/>
<path d="M119.811 118.384L122.356 123.934L128.426 124.637L123.929 128.771L125.136 134.755L119.811 131.76L114.487 134.755L115.693 128.771L111.196 124.637L117.266 123.934L119.811 118.384Z" fill="#434347"/>
<path d="M101.558 118.248L104.104 123.798L110.174 124.501L105.676 128.634L106.883 134.619L101.558 131.623L96.234 134.619L97.4404 128.634L92.9434 124.501L99.0134 123.798L101.558 118.248Z" fill="#434347"/>
<path d="M101.558 118.248L104.104 123.798L110.174 124.501L105.676 128.634L106.883 134.619L101.558 131.623L96.234 134.619L97.4404 128.634L92.9434 124.501L99.0134 123.798L101.558 118.248Z" fill="#434347"/>
<path d="M83.4413 118.248L85.9863 123.798L92.0563 124.501L87.5593 128.634L88.7657 134.619L83.4413 131.623L78.1168 134.619L79.3232 128.634L74.8262 124.501L80.8962 123.798L83.4413 118.248Z" fill="#434347"/>
<path d="M65.3246 118.248L67.8696 123.798L73.9396 124.501L69.4426 128.634L70.649 134.619L65.3246 131.623L60.0001 134.619L61.2065 128.634L56.7095 124.501L62.7795 123.798L65.3246 118.248Z" fill="#434347"/>
<path d="M119.811 100.285L122.356 105.835L128.426 106.538L123.929 110.671L125.136 116.656L119.811 113.66L114.487 116.656L115.693 110.671L111.196 106.538L117.266 105.835L119.811 100.285Z" fill="#434347"/>
<path d="M101.558 100.149L104.104 105.699L110.174 106.402L105.676 110.535L106.883 116.52L101.558 113.524L96.234 116.52L97.4404 110.535L92.9434 106.402L99.0134 105.699L101.558 100.149Z" fill="#434347"/>
<path d="M83.4413 100.149L85.9863 105.699L92.0563 106.402L87.5593 110.535L88.7657 116.52L83.4413 113.524L78.1168 116.52L79.3232 110.535L74.8262 106.402L80.8962 105.699L83.4413 100.149Z" fill="#434347"/>
<path d="M65.3246 100.149L67.8696 105.699L73.9396 106.402L69.4426 110.535L70.649 116.52L65.3246 113.524L60.0001 116.52L61.2065 110.535L56.7095 106.402L62.7795 105.699L65.3246 100.149Z" fill="#434347"/>
<path d="M119.811 82.1858L122.356 87.7358L128.426 88.4389L123.929 92.5721L125.136 98.5566L119.811 95.5611L114.487 98.5566L115.693 92.5721L111.196 88.4389L117.266 87.7358L119.811 82.1858Z" fill="#434347"/>
<path d="M101.558 82.0497L104.104 87.5997L110.174 88.3028L105.676 92.436L106.883 98.4205L101.558 95.425L96.234 98.4205L97.4404 92.436L92.9434 88.3028L99.0134 87.5997L101.558 82.0497Z" fill="#434347"/>
<path d="M83.4413 82.0497L85.9863 87.5997L92.0563 88.3028L87.5593 92.436L88.7657 98.4205L83.4413 95.425L78.1168 98.4205L79.3232 92.436L74.8262 88.3028L80.8962 87.5997L83.4413 82.0497Z" fill="#434347"/>
<path d="M65.3246 82.0497L67.8696 87.5997L73.9396 88.3028L69.4426 92.436L70.649 98.4205L65.3246 95.425L60.0001 98.4205L61.2065 92.436L56.7095 88.3028L62.7795 87.5997L65.3246 82.0497Z" fill="#434347"/>
<path d="M119.811 64.0867L122.356 69.6367L128.426 70.3398L123.929 74.473L125.136 80.4575L119.811 77.462L114.487 80.4575L115.693 74.473L111.196 70.3398L117.266 69.6367L119.811 64.0867Z" fill="#434347"/>
<path d="M101.558 63.9504L104.104 69.5005L110.174 70.2036L105.676 74.3367L106.883 80.3213L101.558 77.3257L96.234 80.3213L97.4404 74.3367L92.9434 70.2036L99.0134 69.5005L101.558 63.9504Z" fill="#434347"/>
<path d="M83.4413 63.9504L85.9863 69.5005L92.0563 70.2036L87.5593 74.3367L88.7657 80.3213L83.4413 77.3257L78.1168 80.3213L79.3232 74.3367L74.8262 70.2036L80.8962 69.5005L83.4413 63.9504Z" fill="#434347"/>
<path d="M65.3246 63.9504L67.8696 69.5005L73.9396 70.2036L69.4426 74.3367L70.649 80.3213L65.3246 77.3257L60.0001 80.3213L61.2065 74.3367L56.7095 70.2036L62.7795 69.5005L65.3246 63.9504Z" fill="#434347"/>
<path d="M119.811 45.9874L122.356 51.5374L128.426 52.2405L123.929 56.3737L125.136 62.3583L119.811 59.3627L114.487 62.3583L115.693 56.3737L111.196 52.2405L117.266 51.5374L119.811 45.9874Z" fill="#434347"/>
<path d="M101.558 45.8513L104.104 51.4013L110.174 52.1044L105.676 56.2376L106.883 62.2222L101.558 59.2266L96.234 62.2222L97.4404 56.2376L92.9434 52.1044L99.0134 51.4013L101.558 45.8513Z" fill="#434347"/>
<path d="M83.4413 45.8513L85.9863 51.4013L92.0563 52.1044L87.5593 56.2376L88.7657 62.2222L83.4413 59.2266L78.1168 62.2222L79.3232 56.2376L74.8262 52.1044L80.8962 51.4013L83.4413 45.8513Z" fill="#434347"/>
<path d="M65.3246 45.8513L67.8696 51.4013L73.9396 52.1044L69.4426 56.2376L70.649 62.2222L65.3246 59.2266L60.0001 62.2222L61.2065 56.2376L56.7095 52.1044L62.7795 51.4013L65.3246 45.8513Z" fill="#434347"/>
<path d="M119.811 27.8883L122.356 33.4383L128.426 34.1414L123.929 38.2746L125.136 44.2592L119.811 41.2636L114.487 44.2592L115.693 38.2746L111.196 34.1414L117.266 33.4383L119.811 27.8883Z" fill="#434347"/>
<path d="M101.558 27.7522L104.104 33.3022L110.174 34.0053L105.676 38.1385L106.883 44.1231L101.558 41.1275L96.234 44.1231L97.4404 38.1385L92.9434 34.0053L99.0134 33.3022L101.558 27.7522Z" fill="#434347"/>
<path d="M83.4413 27.7522L85.9863 33.3022L92.0563 34.0053L87.5593 38.1385L88.7657 44.1231L83.4413 41.1275L78.1168 44.1231L79.3232 38.1385L74.8262 34.0053L80.8962 33.3022L83.4413 27.7522Z" fill="#434347"/>
<path d="M65.3246 27.7522L67.8696 33.3022L73.9396 34.0053L69.4426 38.1385L70.649 44.1231L65.3246 41.1275L60.0001 44.1231L61.2065 38.1385L56.7095 34.0053L62.7795 33.3022L65.3246 27.7522Z" fill="#434347"/>
<path d="M119.811 9.78931L122.356 15.3393L128.426 16.0424L123.929 20.1756L125.136 26.1602L119.811 23.1646L114.487 26.1602L115.693 20.1756L111.196 16.0424L117.266 15.3393L119.811 9.78931Z" fill="#434347"/>
<path d="M101.558 9.65295L104.104 15.203L110.174 15.9061L105.676 20.0393L106.883 26.0238L101.558 23.0282L96.234 26.0238L97.4404 20.0393L92.9434 15.9061L99.0134 15.203L101.558 9.65295Z" fill="#434347"/>
<path d="M83.4413 9.65295L85.9863 15.203L92.0563 15.9061L87.5593 20.0393L88.7657 26.0238L83.4413 23.0282L78.1168 26.0238L79.3232 20.0393L74.8262 15.9061L80.8962 15.203L83.4413 9.65295Z" fill="#434347"/>
<path d="M65.3246 9.65295L67.8696 15.203L73.9396 15.9061L69.4426 20.0393L70.649 26.0238L65.3246 23.0282L60.0001 26.0238L61.2065 20.0393L56.7095 15.9061L62.7795 15.203L65.3246 9.65295Z" fill="#434347"/>
<path fill-rule="evenodd" clip-rule="evenodd" d="M139 59.864L52.418 95.6287L46 80.1218V33.6483L126.819 0.26416C129.188 0.714654 131.36 1.72239 133.193 3.14585L139 17.177V59.864Z" fill="url(#paint33_linear_734_1933)"/>
<path fill-rule="evenodd" clip-rule="evenodd" d="M139 110.215L52.5391 145.929L46 130.13V83.9989L127.265 50.4304C130.522 51.1535 133.381 52.9355 135.461 55.3966L138.949 63.8228C138.983 64.2354 139 64.6527 139 65.074V110.215Z" fill="url(#paint34_linear_734_1933)"/>
<rect x="49" y="3" width="87" height="140" rx="12" stroke="#E5E5E5" stroke-width="6"/>
<path d="M102.51 54.4108C97.5588 53.0222 96.5765 50.1231 92.63 49.0633C88.6836 48.0035 86.5258 60.5023 87.9655 68.1686C89.4053 75.835 96.7598 79.1697 96.7598 79.1697C96.7598 79.1697 102.807 79.7521 107.405 74.385C112.003 69.0179 117.279 56.5926 113.958 54.7952C110.636 52.9977 107.462 55.7994 102.51 54.4108Z" fill="#B0B5E9"/>
<path d="M103.262 61.6304C105.256 64.903 106.857 65.4253 110.43 64.3984C110.43 64.3984 107.487 67.208 105.237 65.6527C102.988 64.0975 103.262 61.6304 103.262 61.6304Z" fill="black"/>
<path d="M92.0763 58.6348C94.0709 61.9074 95.6712 62.4298 99.2448 61.4028C99.2448 61.4028 96.3011 64.2124 94.0519 62.6571C91.8028 61.1019 92.0763 58.6348 92.0763 58.6348Z" fill="black"/>
<path d="M91.6862 70.2912C97.8896 68.0076 100.563 69.422 103.74 74.7361C104.714 74.6787 103.285 68.7065 99.0147 67.6482C95.0482 66.6652 91.1974 70.0385 91.6862 70.2912Z" fill="black"/>
<path d="M83.8634 71.7405C78.8393 72.8638 76.5643 70.8043 72.583 71.7405C68.6017 72.6766 72.7972 84.5653 77.7966 90.5565C82.7961 96.5477 90.8781 95.986 90.8781 95.986C90.8781 95.986 96.4709 93.6457 97.8927 86.812C99.3146 79.9783 97.8927 66.6854 94.101 66.6854C90.3093 66.6854 88.8874 70.6171 83.8634 71.7405Z" fill="#E4E7CC"/>
<path d="M95.741 79.5103C92.2021 77.9717 90.586 78.4464 88.2523 81.2889C88.2523 81.2889 88.9159 77.17 91.6649 77.17C94.4139 77.17 95.741 79.5103 95.741 79.5103Z" fill="black"/>
<path d="M84.1762 81.5697C80.6374 80.0311 79.0212 80.5059 76.6876 83.3484C76.6876 83.3484 77.3511 79.2294 80.1001 79.2294C82.8491 79.2294 84.1762 81.5697 84.1762 81.5697Z" fill="black"/>
<path d="M93.8362 85.4084C90.0031 90.6993 86.9836 91.0122 81.3235 88.404C80.5498 88.9877 85.1478 93.6332 89.2862 92.1484C93.1302 90.7693 94.3849 85.3463 93.8362 85.4084Z" fill="black"/>
<rect x="93" width="93" height="146.143" rx="15" fill="url(#paint35_linear_734_1933)"/>
<path d="M166.811 118.5L169.356 124.055L175.426 124.759L170.929 128.896L172.136 134.887L166.811 131.888L161.487 134.887L162.693 128.896L158.196 124.759L164.266 124.055L166.811 118.5Z" fill="#B0B5E9"/>
<path d="M148.558 118.364L151.104 123.919L157.174 124.623L152.676 128.76L153.883 134.751L148.558 131.752L143.234 134.751L144.44 128.76L139.943 124.623L146.013 123.919L148.558 118.364Z" fill="#B0B5E9"/>
<path d="M148.558 118.364L151.104 123.919L157.174 124.623L152.676 128.76L153.883 134.751L148.558 131.752L143.234 134.751L144.44 128.76L139.943 124.623L146.013 123.919L148.558 118.364Z" fill="#B0B5E9"/>
<path d="M130.441 118.364L132.986 123.919L139.056 124.623L134.559 128.76L135.766 134.751L130.441 131.752L125.117 134.751L126.323 128.76L121.826 124.623L127.896 123.919L130.441 118.364Z" fill="#B0B5E9"/>
<path d="M112.325 118.364L114.87 123.919L120.94 124.623L116.443 128.76L117.649 134.751L112.325 131.752L107 134.751L108.207 128.76L103.709 124.623L109.779 123.919L112.325 118.364Z" fill="#B0B5E9"/>
<path d="M166.811 100.383L169.356 105.939L175.426 106.642L170.929 110.78L172.136 116.77L166.811 113.771L161.487 116.77L162.693 110.78L158.196 106.642L164.266 105.939L166.811 100.383Z" fill="#B0B5E9"/>
<path d="M148.558 100.247L151.104 105.802L157.174 106.506L152.676 110.643L153.883 116.634L148.558 113.635L143.234 116.634L144.44 110.643L139.943 106.506L146.013 105.802L148.558 100.247Z" fill="#B0B5E9"/>
<path d="M130.441 100.247L132.986 105.802L139.056 106.506L134.559 110.643L135.766 116.634L130.441 113.635L125.117 116.634L126.323 110.643L121.826 106.506L127.896 105.802L130.441 100.247Z" fill="#B0B5E9"/>
<path d="M112.325 100.247L114.87 105.802L120.94 106.506L116.443 110.643L117.649 116.634L112.325 113.635L107 116.634L108.207 110.643L103.709 106.506L109.779 105.802L112.325 100.247Z" fill="#B0B5E9"/>
<path d="M166.811 82.2662L169.356 87.8217L175.426 88.5255L170.929 92.6627L172.136 98.6531L166.811 95.6546L161.487 98.6531L162.693 92.6627L158.196 88.5255L164.266 87.8217L166.811 82.2662Z" fill="#B0B5E9"/>
<path d="M148.558 82.1299L151.104 87.6853L157.174 88.3891L152.676 92.5263L153.883 98.5168L148.558 95.5183L143.234 98.5168L144.44 92.5263L139.943 88.3891L146.013 87.6853L148.558 82.1299Z" fill="#B0B5E9"/>
<path d="M130.441 82.1299L132.986 87.6853L139.056 88.3891L134.559 92.5263L135.766 98.5168L130.441 95.5183L125.117 98.5168L126.323 92.5263L121.826 88.3891L127.896 87.6853L130.441 82.1299Z" fill="#B0B5E9"/>
<path d="M112.325 82.1299L114.87 87.6853L120.94 88.3891L116.443 92.5263L117.649 98.5168L112.325 95.5183L107 98.5168L108.207 92.5263L103.709 88.3891L109.779 87.6853L112.325 82.1299Z" fill="#B0B5E9"/>
<path d="M166.811 64.1493L169.356 69.7047L175.426 70.4085L170.929 74.5458L172.136 80.5362L166.811 77.5377L161.487 80.5362L162.693 74.5458L158.196 70.4085L164.266 69.7047L166.811 64.1493Z" fill="#B0B5E9"/>
<path d="M148.558 64.0131L151.104 69.5685L157.174 70.2723L152.676 74.4095L153.883 80.3999L148.558 77.4014L143.234 80.3999L144.44 74.4095L139.943 70.2723L146.013 69.5685L148.558 64.0131Z" fill="#B0B5E9"/>
<path d="M130.441 64.0131L132.986 69.5685L139.056 70.2723L134.559 74.4095L135.766 80.3999L130.441 77.4014L125.117 80.3999L126.323 74.4095L121.826 70.2723L127.896 69.5685L130.441 64.0131Z" fill="#B0B5E9"/>
<path d="M112.325 64.0131L114.87 69.5685L120.94 70.2723L116.443 74.4095L117.649 80.3999L112.325 77.4014L107 80.3999L108.207 74.4095L103.709 70.2723L109.779 69.5685L112.325 64.0131Z" fill="#B0B5E9"/>
<path d="M166.811 46.0325L169.356 51.5879L175.426 52.2917L170.929 56.4289L172.136 62.4193L166.811 59.4208L161.487 62.4193L162.693 56.4289L158.196 52.2917L164.266 51.5879L166.811 46.0325Z" fill="#B0B5E9"/>
<path d="M148.558 45.8961L151.104 51.4516L157.174 52.1553L152.676 56.2926L153.883 62.283L148.558 59.2845L143.234 62.283L144.44 56.2926L139.943 52.1553L146.013 51.4516L148.558 45.8961Z" fill="#B0B5E9"/>
<path d="M130.441 45.8961L132.986 51.4516L139.056 52.1553L134.559 56.2926L135.766 62.283L130.441 59.2845L125.117 62.283L126.323 56.2926L121.826 52.1553L127.896 51.4516L130.441 45.8961Z" fill="#B0B5E9"/>
<path d="M112.325 45.8961L114.87 51.4516L120.94 52.1553L116.443 56.2926L117.649 62.283L112.325 59.2845L107 62.283L108.207 56.2926L103.709 52.1553L109.779 51.4516L112.325 45.8961Z" fill="#B0B5E9"/>
<path d="M166.811 27.9155L169.356 33.471L175.426 34.1748L170.929 38.312L172.136 44.3024L166.811 41.3039L161.487 44.3024L162.693 38.312L158.196 34.1748L164.266 33.471L166.811 27.9155Z" fill="#B0B5E9"/>
<path d="M148.558 27.7793L151.104 33.3347L157.174 34.0385L152.676 38.1758L153.883 44.1662L148.558 41.1677L143.234 44.1662L144.44 38.1758L139.943 34.0385L146.013 33.3347L148.558 27.7793Z" fill="#B0B5E9"/>
<path d="M130.441 27.7793L132.986 33.3347L139.056 34.0385L134.559 38.1758L135.766 44.1662L130.441 41.1677L125.117 44.1662L126.323 38.1758L121.826 34.0385L127.896 33.3347L130.441 27.7793Z" fill="#B0B5E9"/>
<path d="M112.325 27.7793L114.87 33.3347L120.94 34.0385L116.443 38.1758L117.649 44.1662L112.325 41.1677L107 44.1662L108.207 38.1758L103.709 34.0385L109.779 33.3347L112.325 27.7793Z" fill="#B0B5E9"/>
<path d="M166.811 9.79871L169.356 15.3542L175.426 16.0579L170.929 20.1952L172.136 26.1856L166.811 23.1871L161.487 26.1856L162.693 20.1952L158.196 16.0579L164.266 15.3542L166.811 9.79871Z" fill="#B0B5E9"/>
<path d="M148.558 9.66235L151.104 15.2178L157.174 15.9216L152.676 20.0588L153.883 26.0492L148.558 23.0507L143.234 26.0492L144.44 20.0588L139.943 15.9216L146.013 15.2178L148.558 9.66235Z" fill="#B0B5E9"/>
<path d="M130.441 9.66235L132.986 15.2178L139.056 15.9216L134.559 20.0588L135.766 26.0492L130.441 23.0507L125.117 26.0492L126.323 20.0588L121.826 15.9216L127.896 15.2178L130.441 9.66235Z" fill="#B0B5E9"/>
<path d="M112.325 9.66235L114.87 15.2178L120.94 15.9216L116.443 20.0588L117.649 26.0492L112.325 23.0507L107 26.0492L108.207 20.0588L103.709 15.9216L109.779 15.2178L112.325 9.66235Z" fill="#B0B5E9"/>
<path fill-rule="evenodd" clip-rule="evenodd" d="M186 59.9227L99.418 95.7224L93 80.2003V33.6813L173.819 0.264526C176.187 0.714886 178.359 1.72214 180.191 3.14491L186 17.1938V59.9227Z" fill="url(#paint36_linear_734_1933)"/>
<path fill-rule="evenodd" clip-rule="evenodd" d="M186 110.323L99.5391 146.072L93 130.257V84.0812L174.266 50.4797C177.52 51.2024 180.377 52.9824 182.457 55.4408L185.95 63.8888C185.983 64.2959 186 64.7076 186 65.1232V110.323Z" fill="url(#paint37_linear_734_1933)"/>
<rect x="96" y="3" width="87" height="140.143" rx="12" stroke="#E5E5E5" stroke-width="6"/>
<path d="M127.96 88.0625C127.319 87.7849 127.023 87.0386 127.3 86.3957L128.115 84.504L129.275 85.0067L127.96 88.0625Z" fill="#4C4A40"/>
<path d="M128.51 84.9049C127.221 84.113 126.672 82.5165 127.199 81.0956L128.444 77.741L131.781 79.1861L129.15 85.2977L128.51 84.9049Z" fill="#A19D8D"/>
<path d="M129.46 78.5264C128.324 78.0345 127.757 76.7493 128.157 75.5751L134.623 56.592L140.427 59.1052L131.656 79.4771L129.46 78.5264Z" fill="#E4BE59"/>
<path d="M134.064 52.2928C134.274 50.4848 134.591 49.0684 136.694 46.7848C138.796 44.5011 141.142 44.0496 142.626 44.0016C144.11 43.9536 146.504 44.9903 146.504 44.9903L140.427 59.1052L134.623 56.592C134.623 56.592 133.854 54.1008 134.064 52.2928Z" fill="#787465"/>
<path d="M127.96 88.0625C128.601 88.3401 129.345 88.0439 129.622 87.401L130.436 85.5093L129.275 85.0067L127.96 88.0625Z" fill="#4C4A40"/>
<path d="M129.874 85.4952C131.333 85.8933 132.868 85.1998 133.538 83.8405L135.119 80.6312L131.781 79.1861L129.15 85.2977L129.874 85.4952Z" fill="#A19D8D"/>
<path d="M133.852 80.4279C134.988 80.9198 136.31 80.4528 136.888 79.3557L146.231 61.6183L140.427 59.1052L131.656 79.4771L133.852 80.4279Z" fill="#E4BE59"/>
<path d="M149.734 59.0784C150.902 57.6851 151.713 56.4822 151.929 53.3818C152.145 50.2814 150.863 48.2592 149.881 47.1431C148.898 46.027 146.504 44.9903 146.504 44.9903L140.427 59.1052L146.231 61.6183C146.231 61.6183 148.566 60.4717 149.734 59.0784Z" fill="#787465"/>
<path d="M136.345 68.3867C135.824 68.1611 135.584 67.5548 135.809 67.0324L136.686 64.9952C136.911 64.4728 137.515 64.2322 138.036 64.4578C138.557 64.6833 138.797 65.2896 138.572 65.812L137.695 67.8492C137.47 68.3716 136.866 68.6122 136.345 68.3867Z" fill="#252020"/>
<path d="M134.722 50.7649C134.161 50.522 133.902 49.8691 134.145 49.3065L134.207 49.161C134.449 48.5984 135.101 48.3393 135.662 48.5822L151.332 55.3678C151.893 55.6107 152.151 56.2636 151.909 56.8262L151.846 56.9717C151.604 57.5342 150.953 57.7934 150.392 57.5505L134.722 50.7649Z" fill="#B0AC9B"/>
<rect x="139" width="93" height="146" rx="15" fill="url(#paint38_linear_734_1933)"/>
<path d="M212.812 118.384L215.357 123.934L221.427 124.637L216.93 128.77L218.136 134.755L212.812 131.759L207.487 134.755L208.694 128.77L204.197 124.637L210.267 123.934L212.812 118.384Z" fill="url(#paint39_diamond_734_1933)"/>
<path d="M194.558 118.248L197.104 123.798L203.174 124.501L198.676 128.634L199.883 134.619L194.558 131.623L189.234 134.619L190.44 128.634L185.943 124.501L192.013 123.798L194.558 118.248Z" fill="url(#paint40_diamond_734_1933)"/>
<path d="M194.558 118.248L197.104 123.798L203.174 124.501L198.676 128.634L199.883 134.619L194.558 131.623L189.234 134.619L190.44 128.634L185.943 124.501L192.013 123.798L194.558 118.248Z" fill="url(#paint41_diamond_734_1933)"/>
<path d="M176.441 118.248L178.986 123.798L185.056 124.501L180.559 128.634L181.766 134.619L176.441 131.623L171.117 134.619L172.323 128.634L167.826 124.501L173.896 123.798L176.441 118.248Z" fill="url(#paint42_diamond_734_1933)"/>
<path d="M158.325 118.248L160.87 123.798L166.94 124.501L162.443 128.634L163.649 134.619L158.325 131.623L153 134.619L154.207 128.634L149.709 124.501L155.779 123.798L158.325 118.248Z" fill="url(#paint43_diamond_734_1933)"/>
<path d="M212.812 100.285L215.357 105.835L221.427 106.538L216.93 110.671L218.136 116.656L212.812 113.66L207.487 116.656L208.694 110.671L204.197 106.538L210.267 105.835L212.812 100.285Z" fill="url(#paint44_diamond_734_1933)"/>
<path d="M194.558 100.149L197.104 105.699L203.174 106.402L198.676 110.535L199.883 116.52L194.558 113.524L189.234 116.52L190.44 110.535L185.943 106.402L192.013 105.699L194.558 100.149Z" fill="url(#paint45_diamond_734_1933)"/>
<path d="M176.441 100.149L178.986 105.699L185.056 106.402L180.559 110.535L181.766 116.52L176.441 113.524L171.117 116.52L172.323 110.535L167.826 106.402L173.896 105.699L176.441 100.149Z" fill="url(#paint46_diamond_734_1933)"/>
<path d="M158.325 100.149L160.87 105.699L166.94 106.402L162.443 110.535L163.649 116.52L158.325 113.524L153 116.52L154.207 110.535L149.709 106.402L155.779 105.699L158.325 100.149Z" fill="url(#paint47_diamond_734_1933)"/>
<path d="M212.812 82.1857L215.357 87.7357L221.427 88.4388L216.93 92.572L218.136 98.5565L212.812 95.561L207.487 98.5565L208.694 92.572L204.197 88.4388L210.267 87.7357L212.812 82.1857Z" fill="url(#paint48_diamond_734_1933)"/>
<path d="M194.558 82.0496L197.104 87.5996L203.174 88.3027L198.676 92.4359L199.883 98.4204L194.558 95.4249L189.234 98.4204L190.44 92.4359L185.943 88.3027L192.013 87.5996L194.558 82.0496Z" fill="url(#paint49_diamond_734_1933)"/>
<path d="M176.441 82.0496L178.986 87.5996L185.056 88.3027L180.559 92.4359L181.766 98.4204L176.441 95.4249L171.117 98.4204L172.323 92.4359L167.826 88.3027L173.896 87.5996L176.441 82.0496Z" fill="url(#paint50_diamond_734_1933)"/>
<path d="M158.325 82.0496L160.87 87.5996L166.94 88.3027L162.443 92.4359L163.649 98.4204L158.325 95.4249L153 98.4204L154.207 92.4359L149.709 88.3027L155.779 87.5996L158.325 82.0496Z" fill="url(#paint51_diamond_734_1933)"/>
<path d="M212.812 64.0865L215.357 69.6366L221.427 70.3397L216.93 74.4729L218.136 80.4574L212.812 77.4618L207.487 80.4574L208.694 74.4729L204.197 70.3397L210.267 69.6366L212.812 64.0865Z" fill="url(#paint52_diamond_734_1933)"/>
<path d="M194.558 63.9503L197.104 69.5003L203.174 70.2034L198.676 74.3366L199.883 80.3212L194.558 77.3256L189.234 80.3212L190.44 74.3366L185.943 70.2034L192.013 69.5003L194.558 63.9503Z" fill="url(#paint53_diamond_734_1933)"/>
<path d="M176.441 63.9503L178.986 69.5003L185.056 70.2034L180.559 74.3366L181.766 80.3212L176.441 77.3256L171.117 80.3212L172.323 74.3366L167.826 70.2034L173.896 69.5003L176.441 63.9503Z" fill="url(#paint54_diamond_734_1933)"/>
<path d="M158.325 63.9503L160.87 69.5003L166.94 70.2034L162.443 74.3366L163.649 80.3212L158.325 77.3256L153 80.3212L154.207 74.3366L149.709 70.2034L155.779 69.5003L158.325 63.9503Z" fill="url(#paint55_diamond_734_1933)"/>
<path d="M212.812 45.9873L215.357 51.5373L221.427 52.2404L216.93 56.3736L218.136 62.3582L212.812 59.3626L207.487 62.3582L208.694 56.3736L204.197 52.2404L210.267 51.5373L212.812 45.9873Z" fill="url(#paint56_diamond_734_1933)"/>
<path d="M194.558 45.8512L197.104 51.4012L203.174 52.1043L198.676 56.2375L199.883 62.2221L194.558 59.2265L189.234 62.2221L190.44 56.2375L185.943 52.1043L192.013 51.4012L194.558 45.8512Z" fill="url(#paint57_diamond_734_1933)"/>
<path d="M176.441 45.8512L178.986 51.4012L185.056 52.1043L180.559 56.2375L181.766 62.2221L176.441 59.2265L171.117 62.2221L172.323 56.2375L167.826 52.1043L173.896 51.4012L176.441 45.8512Z" fill="url(#paint58_diamond_734_1933)"/>
<path d="M158.325 45.8512L160.87 51.4012L166.94 52.1043L162.443 56.2375L163.649 62.2221L158.325 59.2265L153 62.2221L154.207 56.2375L149.709 52.1043L155.779 51.4012L158.325 45.8512Z" fill="url(#paint59_diamond_734_1933)"/>
<path d="M212.812 27.8882L215.357 33.4382L221.427 34.1413L216.93 38.2745L218.136 44.259L212.812 41.2635L207.487 44.259L208.694 38.2745L204.197 34.1413L210.267 33.4382L212.812 27.8882Z" fill="url(#paint60_diamond_734_1933)"/>
<path d="M194.558 27.7521L197.104 33.3021L203.174 34.0052L198.676 38.1384L199.883 44.1229L194.558 41.1274L189.234 44.1229L190.44 38.1384L185.943 34.0052L192.013 33.3021L194.558 27.7521Z" fill="url(#paint61_diamond_734_1933)"/>
<path d="M176.441 27.7521L178.986 33.3021L185.056 34.0052L180.559 38.1384L181.766 44.1229L176.441 41.1274L171.117 44.1229L172.323 38.1384L167.826 34.0052L173.896 33.3021L176.441 27.7521Z" fill="url(#paint62_diamond_734_1933)"/>
<path d="M158.325 27.7521L160.87 33.3021L166.94 34.0052L162.443 38.1384L163.649 44.1229L158.325 41.1274L153 44.1229L154.207 38.1384L149.709 34.0052L155.779 33.3021L158.325 27.7521Z" fill="url(#paint63_diamond_734_1933)"/>
<path d="M212.812 9.78894L215.357 15.339L221.427 16.0421L216.93 20.1752L218.136 26.1598L212.812 23.1642L207.487 26.1598L208.694 20.1752L204.197 16.0421L210.267 15.339L212.812 9.78894Z" fill="url(#paint64_diamond_734_1933)"/>
<path d="M194.558 9.65283L197.104 15.2029L203.174 15.9059L198.676 20.0391L199.883 26.0237L194.558 23.0281L189.234 26.0237L190.44 20.0391L185.943 15.9059L192.013 15.2029L194.558 9.65283Z" fill="url(#paint65_diamond_734_1933)"/>
<path d="M176.442 9.65283L178.987 15.2029L185.057 15.9059L180.56 20.0391L181.766 26.0237L176.442 23.0281L171.117 26.0237L172.324 20.0391L167.827 15.9059L173.897 15.2029L176.442 9.65283Z" fill="url(#paint66_diamond_734_1933)"/>
<path d="M158.325 9.65283L160.87 15.2029L166.94 15.9059L162.443 20.0391L163.649 26.0237L158.325 23.0281L153 26.0237L154.207 20.0391L149.709 15.9059L155.779 15.2029L158.325 9.65283Z" fill="url(#paint67_diamond_734_1933)"/>
<path fill-rule="evenodd" clip-rule="evenodd" d="M232 59.8641L145.418 95.6288L139 80.1219V33.6484L219.818 0.264404C222.188 0.714875 224.36 1.72268 226.193 3.14627L232 17.1771V59.8641Z" fill="url(#paint68_linear_734_1933)"/>
<path fill-rule="evenodd" clip-rule="evenodd" d="M232 110.215L145.539 145.929L139 130.13V83.999L220.265 50.4305C223.522 51.1536 226.381 52.9356 228.461 55.3967L231.949 63.823C231.983 64.2355 232 64.6528 232 65.0742V110.215Z" fill="url(#paint69_linear_734_1933)"/>
<rect x="142" y="3" width="87" height="140" rx="12" stroke="#E5E5E5" stroke-width="6"/>
<path d="M191.69 73.2097C191.574 70.7741 192.882 67.5477 194.864 64.6301C198.444 59.3594 204.223 55.0965 207.779 58.3232C211.988 62.1409 204.507 68.602 197.614 71.5998C195.456 72.5382 193.356 73.1373 191.69 73.2097Z" fill="#4FD5AA"/>
<path d="M178.048 56.096C176.465 56.1688 175.853 55.1086 175.61 53.1338H179.592C179.592 53.1338 180.016 50.2443 177.885 50.0198C176.738 50.0198 176.487 49.9817 175.61 50.3236C174.303 51.1327 173.812 51.6714 173.659 52.906C173.416 57.1593 174.472 58.4505 177.308 64.6785L177.32 64.7026C177.78 65.6583 179.86 69.975 180.34 74.0206C180.482 75.2146 180.484 76.385 180.264 77.4384C179.975 78.827 179.208 80.3161 177.957 80.9322C177.957 80.9322 193.487 81.1601 195.193 80.7803C196.9 80.4005 199.988 77.4384 197.794 72.0458C197.794 72.0458 197.73 71.8879 197.614 71.5998C195.456 72.5382 193.356 73.1373 191.69 73.2097C191.574 70.7741 192.882 67.5477 194.864 64.6301C193.757 61.7704 192.56 58.5939 191.699 56.096H178.048Z" fill="#E4E7CC"/>
<path d="M175.772 80.8012C176.724 80.9282 177.063 80.9322 177.957 80.9322C179.208 80.3161 179.975 78.827 180.264 77.4384H176.748C178.21 75.8434 176.91 74.1082 175.528 74.0206C174.147 73.933 172.878 75.5129 173.009 77.4384C173.273 79.6015 174.029 80.4018 175.772 80.8012Z" fill="#E4E7CC"/>
<path d="M175.528 74.0206C176.91 74.1082 178.21 75.8434 176.748 77.4384H180.264C180.484 76.385 180.482 75.2146 180.34 74.0206H175.528Z" fill="#E4E7CC"/>
<path d="M179.592 53.1338C179.592 53.1338 179.19 55.9912 178.048 56.096H191.699H196.168C199.328 54.4763 198.003 50.7632 195.031 50.3236C192.059 49.884 177.885 50.0198 177.885 50.0198C180.016 50.2443 179.592 53.1338 179.592 53.1338Z" fill="#E4E7CC"/>
<path d="M175.61 53.1338C175.853 55.1086 176.465 56.1688 178.048 56.096C179.19 55.9912 179.592 53.1338 179.592 53.1338H175.61Z" fill="#E4E7CC"/>
<path d="M178.048 56.096C176.465 56.1688 175.853 55.1086 175.61 53.1338H179.592M178.048 56.096C179.19 55.9912 179.592 53.1338 179.592 53.1338M178.048 56.096H191.699M179.592 53.1338C179.592 53.1338 180.016 50.2443 177.885 50.0198M177.885 50.0198C176.738 50.0198 176.487 49.9817 175.61 50.3236C174.303 51.1327 173.812 51.6714 173.659 52.906C173.416 57.1593 174.472 58.4505 177.308 64.6785L177.32 64.7026C177.78 65.6583 179.86 69.975 180.34 74.0206M177.885 50.0198C177.885 50.0198 192.059 49.884 195.031 50.3236C198.003 50.7632 199.328 54.4763 196.168 56.096H191.699M177.957 80.9322C177.063 80.9322 176.724 80.9282 175.772 80.8012C174.029 80.4018 173.273 79.6015 173.009 77.4384C172.878 75.5129 174.147 73.933 175.528 74.0206M177.957 80.9322C177.957 80.9322 193.487 81.1601 195.193 80.7803C196.9 80.4005 199.988 77.4384 197.794 72.0458C197.794 72.0458 197.73 71.8879 197.614 71.5998M177.957 80.9322C179.208 80.3161 179.975 78.827 180.264 77.4384M175.528 74.0206C176.91 74.1082 178.21 75.8434 176.748 77.4384H180.264M175.528 74.0206H180.34M191.699 56.096C192.56 58.5939 193.757 61.7704 194.864 64.6301M180.264 77.4384C180.484 76.385 180.482 75.2146 180.34 74.0206M178.535 59.7416H189.668M180.241 63.2354H191.13M181.704 66.6533H192.756M182.761 70.0711H190.887M183.817 73.4889H189.343M183.492 76.9068H186.824M188.114 76.5516L191.69 73.2097M191.69 73.2097L205.017 60.7536M191.69 73.2097C193.356 73.1373 195.456 72.5382 197.614 71.5998M191.69 73.2097C191.574 70.7741 192.882 67.5477 194.864 64.6301M197.614 71.5998C204.507 68.602 211.988 62.1409 207.779 58.3232C204.223 55.0965 198.444 59.3594 194.864 64.6301" stroke="black" stroke-linecap="round"/>
<rect x="186" width="93" height="146" rx="15" fill="url(#paint70_linear_734_1933)"/>
<path d="M259.811 118.384L262.356 123.934L268.426 124.637L263.929 128.771L265.136 134.755L259.811 131.76L254.487 134.755L255.693 128.771L251.196 124.637L257.266 123.934L259.811 118.384Z" fill="#B8B8C3"/>
<path d="M241.558 118.248L244.104 123.798L250.174 124.501L245.676 128.634L246.883 134.619L241.558 131.623L236.234 134.619L237.44 128.634L232.943 124.501L239.013 123.798L241.558 118.248Z" fill="#B8B8C3"/>
<path d="M241.558 118.248L244.104 123.798L250.174 124.501L245.676 128.634L246.883 134.619L241.558 131.623L236.234 134.619L237.44 128.634L232.943 124.501L239.013 123.798L241.558 118.248Z" fill="#B8B8C3"/>
<path d="M223.441 118.248L225.986 123.798L232.056 124.501L227.559 128.634L228.766 134.619L223.441 131.623L218.117 134.619L219.323 128.634L214.826 124.501L220.896 123.798L223.441 118.248Z" fill="#B8B8C3"/>
<path d="M205.325 118.248L207.87 123.798L213.94 124.501L209.443 128.634L210.649 134.619L205.325 131.623L200 134.619L201.207 128.634L196.709 124.501L202.779 123.798L205.325 118.248Z" fill="#B8B8C3"/>
<path d="M259.811 100.285L262.356 105.835L268.426 106.538L263.929 110.671L265.136 116.656L259.811 113.66L254.487 116.656L255.693 110.671L251.196 106.538L257.266 105.835L259.811 100.285Z" fill="#B8B8C3"/>
<path d="M241.558 100.149L244.104 105.699L250.174 106.402L245.676 110.535L246.883 116.52L241.558 113.524L236.234 116.52L237.44 110.535L232.943 106.402L239.013 105.699L241.558 100.149Z" fill="#B8B8C3"/>
<path d="M223.441 100.149L225.986 105.699L232.056 106.402L227.559 110.535L228.766 116.52L223.441 113.524L218.117 116.52L219.323 110.535L214.826 106.402L220.896 105.699L223.441 100.149Z" fill="#B8B8C3"/>
<path d="M205.325 100.149L207.87 105.699L213.94 106.402L209.443 110.535L210.649 116.52L205.325 113.524L200 116.52L201.207 110.535L196.709 106.402L202.779 105.699L205.325 100.149Z" fill="#B8B8C3"/>
<path d="M259.811 82.1858L262.356 87.7358L268.426 88.4389L263.929 92.5721L265.136 98.5566L259.811 95.5611L254.487 98.5566L255.693 92.5721L251.196 88.4389L257.266 87.7358L259.811 82.1858Z" fill="#B8B8C3"/>
<path d="M241.558 82.0497L244.104 87.5997L250.174 88.3028L245.676 92.436L246.883 98.4205L241.558 95.425L236.234 98.4205L237.44 92.436L232.943 88.3028L239.013 87.5997L241.558 82.0497Z" fill="#B8B8C3"/>
<path d="M223.441 82.0497L225.986 87.5997L232.056 88.3028L227.559 92.436L228.766 98.4205L223.441 95.425L218.117 98.4205L219.323 92.436L214.826 88.3028L220.896 87.5997L223.441 82.0497Z" fill="#B8B8C3"/>
<path d="M205.325 82.0497L207.87 87.5997L213.94 88.3028L209.443 92.436L210.649 98.4205L205.325 95.425L200 98.4205L201.207 92.436L196.709 88.3028L202.779 87.5997L205.325 82.0497Z" fill="#B8B8C3"/>
<path d="M259.811 64.0867L262.356 69.6367L268.426 70.3398L263.929 74.473L265.136 80.4575L259.811 77.462L254.487 80.4575L255.693 74.473L251.196 70.3398L257.266 69.6367L259.811 64.0867Z" fill="#B8B8C3"/>
<path d="M241.558 63.9504L244.104 69.5005L250.174 70.2036L245.676 74.3367L246.883 80.3213L241.558 77.3257L236.234 80.3213L237.44 74.3367L232.943 70.2036L239.013 69.5005L241.558 63.9504Z" fill="#B8B8C3"/>
<path d="M223.441 63.9504L225.986 69.5005L232.056 70.2036L227.559 74.3367L228.766 80.3213L223.441 77.3257L218.117 80.3213L219.323 74.3367L214.826 70.2036L220.896 69.5005L223.441 63.9504Z" fill="#B8B8C3"/>
<path d="M205.325 63.9504L207.87 69.5005L213.94 70.2036L209.443 74.3367L210.649 80.3213L205.325 77.3257L200 80.3213L201.207 74.3367L196.709 70.2036L202.779 69.5005L205.325 63.9504Z" fill="#B8B8C3"/>
<path d="M259.811 45.9874L262.356 51.5374L268.426 52.2405L263.929 56.3737L265.136 62.3583L259.811 59.3627L254.487 62.3583L255.693 56.3737L251.196 52.2405L257.266 51.5374L259.811 45.9874Z" fill="#B8B8C3"/>
<path d="M241.558 45.8513L244.104 51.4013L250.174 52.1044L245.676 56.2376L246.883 62.2222L241.558 59.2266L236.234 62.2222L237.44 56.2376L232.943 52.1044L239.013 51.4013L241.558 45.8513Z" fill="#B8B8C3"/>
<path d="M223.441 45.8513L225.986 51.4013L232.056 52.1044L227.559 56.2376L228.766 62.2222L223.441 59.2266L218.117 62.2222L219.323 56.2376L214.826 52.1044L220.896 51.4013L223.441 45.8513Z" fill="#B8B8C3"/>
<path d="M205.325 45.8513L207.87 51.4013L213.94 52.1044L209.443 56.2376L210.649 62.2222L205.325 59.2266L200 62.2222L201.207 56.2376L196.709 52.1044L202.779 51.4013L205.325 45.8513Z" fill="#B8B8C3"/>
<path d="M259.811 27.8883L262.356 33.4383L268.426 34.1414L263.929 38.2746L265.136 44.2592L259.811 41.2636L254.487 44.2592L255.693 38.2746L251.196 34.1414L257.266 33.4383L259.811 27.8883Z" fill="#B8B8C3"/>
<path d="M241.558 27.7522L244.104 33.3022L250.174 34.0053L245.676 38.1385L246.883 44.1231L241.558 41.1275L236.234 44.1231L237.44 38.1385L232.943 34.0053L239.013 33.3022L241.558 27.7522Z" fill="#B8B8C3"/>
<path d="M223.441 27.7522L225.986 33.3022L232.056 34.0053L227.559 38.1385L228.766 44.1231L223.441 41.1275L218.117 44.1231L219.323 38.1385L214.826 34.0053L220.896 33.3022L223.441 27.7522Z" fill="#B8B8C3"/>
<path d="M205.325 27.7522L207.87 33.3022L213.94 34.0053L209.443 38.1385L210.649 44.1231L205.325 41.1275L200 44.1231L201.207 38.1385L196.709 34.0053L202.779 33.3022L205.325 27.7522Z" fill="#B8B8C3"/>
<path d="M259.811 9.78931L262.356 15.3393L268.426 16.0424L263.929 20.1756L265.136 26.1602L259.811 23.1646L254.487 26.1602L255.693 20.1756L251.196 16.0424L257.266 15.3393L259.811 9.78931Z" fill="#B8B8C3"/>
<path d="M241.558 9.65295L244.104 15.203L250.174 15.9061L245.676 20.0393L246.883 26.0238L241.558 23.0282L236.234 26.0238L237.44 20.0393L232.943 15.9061L239.013 15.203L241.558 9.65295Z" fill="#B8B8C3"/>
<path d="M223.441 9.65295L225.986 15.203L232.056 15.9061L227.559 20.0393L228.766 26.0238L223.441 23.0282L218.117 26.0238L219.323 20.0393L214.826 15.9061L220.896 15.203L223.441 9.65295Z" fill="#B8B8C3"/>
<path d="M205.325 9.65295L207.87 15.203L213.94 15.9061L209.443 20.0393L210.649 26.0238L205.325 23.0282L200 26.0238L201.207 20.0393L196.709 15.9061L202.779 15.203L205.325 9.65295Z" fill="#B8B8C3"/>
<path fill-rule="evenodd" clip-rule="evenodd" d="M279 59.864L192.418 95.6287L186 80.1218V33.6483L266.819 0.26416C269.188 0.714654 271.36 1.72239 273.193 3.14585L279 17.177V59.864Z" fill="url(#paint71_linear_734_1933)"/>
<path fill-rule="evenodd" clip-rule="evenodd" d="M279 110.215L192.539 145.929L186 130.13V83.9989L267.265 50.4304C270.522 51.1535 273.381 52.9355 275.461 55.3966L278.949 63.8228C278.983 64.2354 279 64.6527 279 65.074V110.215Z" fill="url(#paint72_linear_734_1933)"/>
<rect x="189" y="3" width="87" height="140" rx="12" stroke="#E5E5E5" stroke-width="6"/>
<path d="M208.82 79.9453C208.82 79.0341 209.554 78.2955 210.46 78.2955H221.323C222.228 78.2955 222.962 79.0341 222.962 79.9453V90.8754C222.962 91.7866 222.228 92.5253 221.323 92.5253H210.46C209.554 92.5253 208.82 91.7866 208.82 90.8754V79.9453Z" fill="#DEAC43"/>
<path d="M215.532 88.8131H213.175V81.8632H215.553C216.591 81.8632 217.442 82.1863 218.105 82.8325C218.767 83.4718 219.099 84.2692 219.099 85.2247C219.099 86.3384 218.771 87.2149 218.115 87.8542C217.466 88.4935 216.605 88.8131 215.532 88.8131ZM215.502 83.1728H214.795V87.5139H215.512C216.147 87.5139 216.636 87.3145 216.977 86.9158C217.326 86.5171 217.5 85.9534 217.5 85.2247C217.5 84.6061 217.326 84.1111 216.977 83.7399C216.629 83.3618 216.137 83.1728 215.502 83.1728Z" fill="white"/>
<path d="M226.197 71.3353C226.579 70.5095 227.555 70.1522 228.376 70.5373L238.221 75.1566C239.042 75.5417 239.397 76.5233 239.014 77.3491L234.423 87.2552C234.04 88.081 233.065 88.4382 232.244 88.0532L222.399 83.4339C221.578 83.0488 221.223 82.0672 221.606 81.2414L226.197 71.3353Z" fill="#5AC0C9"/>
<path d="M230.463 83.2082L226.571 81.3823L229.49 75.0835L233.345 76.892L232.812 78.0415L230.397 76.9085L229.734 78.3383L231.889 79.3493L231.361 80.4895L229.206 79.4785L228.543 80.9083L230.995 82.0588L230.463 83.2082Z" fill="white"/>
<path d="M238.13 82.42C238.13 81.5089 238.864 80.7702 239.769 80.7702H250.633C251.538 80.7702 252.272 81.5089 252.272 82.42V93.3502C252.272 94.2613 251.538 95 250.633 95H239.769C238.864 95 238.13 94.2613 238.13 93.3502V82.42Z" fill="#5C6FC4"/>
<path d="M247.179 89.2875H244.894V91.9066H243.305V84.9566H247.517V86.225H244.894V88.0191H247.179V89.2875Z" fill="white"/>
<path d="M208 60.9722C208 60.061 208.734 59.3224 209.64 59.3224H220.503C221.408 59.3224 222.143 60.061 222.143 60.9722V71.9024C222.143 72.8135 221.408 73.5522 220.503 73.5522H209.64C208.734 73.5522 208 72.8135 208 71.9024V60.9722Z" fill="#5C6FC4"/>
<path d="M214.241 67.3034L214.169 67.5509H215.83L215.758 67.3034C215.56 66.6298 215.396 66.0558 215.266 65.5814C215.143 65.1071 215.068 64.8012 215.041 64.6637L215 64.4575C214.945 64.8356 214.692 65.7842 214.241 67.3034ZM213.37 70.2525H211.72L214.026 63.3026H216.014L218.32 70.2525H216.629L216.209 68.8295H213.79L213.37 70.2525Z" fill="white"/>
<path d="M222.157 54.9062C221.923 54.026 222.442 53.1214 223.316 52.8856L233.809 50.0566C234.684 49.8208 235.583 50.3431 235.818 51.2232L238.629 61.7809C238.864 62.6611 238.344 63.5657 237.47 63.8016L226.977 66.6305C226.102 66.8663 225.203 66.344 224.969 65.4639L222.157 54.9062Z" fill="#4FD5AA"/>
<path d="M231.586 61.1589L228.706 61.9355L226.918 55.2224L229.512 54.5232C230.244 54.3257 230.849 54.3513 231.325 54.6001C231.8 54.8421 232.109 55.2321 232.252 55.77C232.346 56.1219 232.336 56.4556 232.222 56.771C232.107 57.0864 231.914 57.3306 231.642 57.5036C232.476 57.5279 233.002 57.9484 233.219 58.7651C233.361 59.2963 233.286 59.7861 232.995 60.2346C232.709 60.6747 232.24 60.9828 231.586 61.1589ZM229.58 55.8177L228.769 56.0365L229.169 57.5405L229.733 57.3884C230.129 57.2816 230.407 57.1285 230.566 56.9291C230.732 56.7278 230.783 56.5077 230.719 56.2686C230.594 55.7972 230.214 55.6469 229.58 55.8177ZM230.302 58.5268L229.49 58.7457L229.904 60.2994L230.706 60.0833C231.458 59.8804 231.765 59.5201 231.627 59.0021C231.489 58.4842 231.048 58.3258 230.302 58.5268Z" fill="white"/>
<path d="M239.438 66.6252C239.055 65.7994 239.41 64.8178 240.231 64.4327L250.076 59.8134C250.897 59.4283 251.872 59.7856 252.255 60.6114L256.846 70.5175C257.229 71.3433 256.874 72.3249 256.053 72.71L246.208 77.3293C245.387 77.7143 244.411 77.3571 244.029 76.5313L239.438 66.6252Z" fill="#FF94BB"/>
<path d="M251.702 70.3432C251.434 70.7572 250.944 71.1312 250.232 71.4653C249.315 71.8953 248.411 71.9596 247.517 71.6582C246.627 71.3477 245.962 70.719 245.523 69.772C245.079 68.8125 245.014 67.8912 245.328 67.008C245.648 66.1218 246.289 65.4536 247.248 65.0033C247.954 64.6721 248.551 64.5363 249.038 64.5958L249.679 65.9789C249.082 65.9102 248.499 66.0095 247.929 66.2768C247.427 66.5121 247.089 66.8872 246.913 67.4021C246.734 67.9108 246.782 68.4611 247.056 69.053C247.324 69.6324 247.708 70.0135 248.208 70.1964C248.704 70.373 249.222 70.335 249.761 70.0822C250.343 69.8091 250.772 69.4257 251.048 68.932L251.702 70.3432Z" fill="white"/>
<rect x="232" width="93" height="146" rx="15" fill="url(#paint73_linear_734_1933)"/>
<path d="M305.811 118.384L308.356 123.934L314.426 124.637L309.929 128.77L311.136 134.755L305.811 131.759L300.487 134.755L301.693 128.77L297.196 124.637L303.266 123.934L305.811 118.384Z" fill="url(#paint74_diamond_734_1933)"/>
<path d="M287.558 118.248L290.104 123.798L296.174 124.501L291.676 128.634L292.883 134.619L287.558 131.623L282.234 134.619L283.44 128.634L278.943 124.501L285.013 123.798L287.558 118.248Z" fill="url(#paint75_diamond_734_1933)"/>
<path d="M287.558 118.248L290.104 123.798L296.174 124.501L291.676 128.634L292.883 134.619L287.558 131.623L282.234 134.619L283.44 128.634L278.943 124.501L285.013 123.798L287.558 118.248Z" fill="url(#paint76_diamond_734_1933)"/>
<path d="M269.441 118.248L271.986 123.798L278.056 124.501L273.559 128.634L274.766 134.619L269.441 131.623L264.117 134.619L265.323 128.634L260.826 124.501L266.896 123.798L269.441 118.248Z" fill="url(#paint77_diamond_734_1933)"/>
<path d="M251.325 118.248L253.87 123.798L259.94 124.501L255.443 128.634L256.649 134.619L251.325 131.623L246 134.619L247.207 128.634L242.709 124.501L248.779 123.798L251.325 118.248Z" fill="url(#paint78_diamond_734_1933)"/>
<path d="M305.811 100.285L308.356 105.835L314.426 106.538L309.929 110.671L311.136 116.656L305.811 113.66L300.487 116.656L301.693 110.671L297.196 106.538L303.266 105.835L305.811 100.285Z" fill="url(#paint79_diamond_734_1933)"/>
<path d="M287.558 100.149L290.104 105.699L296.174 106.402L291.676 110.535L292.883 116.52L287.558 113.524L282.234 116.52L283.44 110.535L278.943 106.402L285.013 105.699L287.558 100.149Z" fill="url(#paint80_diamond_734_1933)"/>
<path d="M269.441 100.149L271.986 105.699L278.056 106.402L273.559 110.535L274.766 116.52L269.441 113.524L264.117 116.52L265.323 110.535L260.826 106.402L266.896 105.699L269.441 100.149Z" fill="url(#paint81_diamond_734_1933)"/>
<path d="M251.325 100.149L253.87 105.699L259.94 106.402L255.443 110.535L256.649 116.52L251.325 113.524L246 116.52L247.207 110.535L242.709 106.402L248.779 105.699L251.325 100.149Z" fill="url(#paint82_diamond_734_1933)"/>
<path d="M305.811 82.1857L308.356 87.7357L314.426 88.4388L309.929 92.572L311.136 98.5565L305.811 95.561L300.487 98.5565L301.693 92.572L297.196 88.4388L303.266 87.7357L305.811 82.1857Z" fill="url(#paint83_diamond_734_1933)"/>
<path d="M287.558 82.0496L290.104 87.5996L296.174 88.3027L291.676 92.4359L292.883 98.4204L287.558 95.4249L282.234 98.4204L283.44 92.4359L278.943 88.3027L285.013 87.5996L287.558 82.0496Z" fill="url(#paint84_diamond_734_1933)"/>
<path d="M269.441 82.0496L271.986 87.5996L278.056 88.3027L273.559 92.4359L274.766 98.4204L269.441 95.4249L264.117 98.4204L265.323 92.4359L260.826 88.3027L266.896 87.5996L269.441 82.0496Z" fill="url(#paint85_diamond_734_1933)"/>
<path d="M251.325 82.0496L253.87 87.5996L259.94 88.3027L255.443 92.4359L256.649 98.4204L251.325 95.4249L246 98.4204L247.207 92.4359L242.709 88.3027L248.779 87.5996L251.325 82.0496Z" fill="url(#paint86_diamond_734_1933)"/>
<path d="M305.811 64.0865L308.356 69.6366L314.426 70.3397L309.929 74.4729L311.136 80.4574L305.811 77.4618L300.487 80.4574L301.693 74.4729L297.196 70.3397L303.266 69.6366L305.811 64.0865Z" fill="url(#paint87_diamond_734_1933)"/>
<path d="M287.558 63.9503L290.104 69.5003L296.174 70.2034L291.676 74.3366L292.883 80.3212L287.558 77.3256L282.234 80.3212L283.44 74.3366L278.943 70.2034L285.013 69.5003L287.558 63.9503Z" fill="url(#paint88_diamond_734_1933)"/>
<path d="M269.441 63.9503L271.986 69.5003L278.056 70.2034L273.559 74.3366L274.766 80.3212L269.441 77.3256L264.117 80.3212L265.323 74.3366L260.826 70.2034L266.896 69.5003L269.441 63.9503Z" fill="url(#paint89_diamond_734_1933)"/>
<path d="M251.325 63.9503L253.87 69.5003L259.94 70.2034L255.443 74.3366L256.649 80.3212L251.325 77.3256L246 80.3212L247.207 74.3366L242.709 70.2034L248.779 69.5003L251.325 63.9503Z" fill="url(#paint90_diamond_734_1933)"/>
<path d="M305.811 45.9873L308.356 51.5373L314.426 52.2404L309.929 56.3736L311.136 62.3582L305.811 59.3626L300.487 62.3582L301.693 56.3736L297.196 52.2404L303.266 51.5373L305.811 45.9873Z" fill="url(#paint91_diamond_734_1933)"/>
<path d="M287.558 45.8512L290.104 51.4012L296.174 52.1043L291.676 56.2375L292.883 62.2221L287.558 59.2265L282.234 62.2221L283.44 56.2375L278.943 52.1043L285.013 51.4012L287.558 45.8512Z" fill="url(#paint92_diamond_734_1933)"/>
<path d="M269.441 45.8512L271.986 51.4012L278.056 52.1043L273.559 56.2375L274.766 62.2221L269.441 59.2265L264.117 62.2221L265.323 56.2375L260.826 52.1043L266.896 51.4012L269.441 45.8512Z" fill="url(#paint93_diamond_734_1933)"/>
<path d="M251.325 45.8512L253.87 51.4012L259.94 52.1043L255.443 56.2375L256.649 62.2221L251.325 59.2265L246 62.2221L247.207 56.2375L242.709 52.1043L248.779 51.4012L251.325 45.8512Z" fill="url(#paint94_diamond_734_1933)"/>
<path d="M305.811 27.8882L308.356 33.4382L314.426 34.1413L309.929 38.2745L311.136 44.259L305.811 41.2635L300.487 44.259L301.693 38.2745L297.196 34.1413L303.266 33.4382L305.811 27.8882Z" fill="url(#paint95_diamond_734_1933)"/>
<path d="M287.558 27.752L290.104 33.302L296.174 34.0051L291.676 38.1383L292.883 44.1228L287.558 41.1272L282.234 44.1228L283.44 38.1383L278.943 34.0051L285.013 33.302L287.558 27.752Z" fill="url(#paint96_diamond_734_1933)"/>
<path d="M269.441 27.752L271.986 33.302L278.056 34.0051L273.559 38.1383L274.766 44.1228L269.441 41.1272L264.117 44.1228L265.323 38.1383L260.826 34.0051L266.896 33.302L269.441 27.752Z" fill="url(#paint97_diamond_734_1933)"/>
<path d="M251.325 27.752L253.87 33.302L259.94 34.0051L255.443 38.1383L256.649 44.1228L251.325 41.1272L246 44.1228L247.207 38.1383L242.709 34.0051L248.779 33.302L251.325 27.752Z" fill="url(#paint98_diamond_734_1933)"/>
<path d="M305.811 9.78906L308.356 15.3391L314.426 16.0422L309.929 20.1754L311.136 26.1599L305.811 23.1644L300.487 26.1599L301.693 20.1754L297.196 16.0422L303.266 15.3391L305.811 9.78906Z" fill="url(#paint99_diamond_734_1933)"/>
<path d="M287.558 9.65283L290.104 15.2029L296.174 15.9059L291.676 20.0391L292.883 26.0237L287.558 23.0281L282.234 26.0237L283.44 20.0391L278.943 15.9059L285.013 15.2029L287.558 9.65283Z" fill="url(#paint100_diamond_734_1933)"/>
<path d="M269.442 9.65283L271.987 15.2029L278.057 15.9059L273.56 20.0391L274.766 26.0237L269.442 23.0281L264.117 26.0237L265.324 20.0391L260.827 15.9059L266.897 15.2029L269.442 9.65283Z" fill="url(#paint101_diamond_734_1933)"/>
<path d="M251.325 9.65283L253.87 15.2029L259.94 15.9059L255.443 20.0391L256.649 26.0237L251.325 23.0281L246 26.0237L247.207 20.0391L242.709 15.9059L248.779 15.2029L251.325 9.65283Z" fill="url(#paint102_diamond_734_1933)"/>
<path fill-rule="evenodd" clip-rule="evenodd" d="M325 59.8641L238.418 95.6288L232 80.1219V33.6483L312.818 0.264404C315.188 0.714872 317.36 1.72269 319.193 3.14629L325 17.177V59.8641Z" fill="url(#paint103_linear_734_1933)"/>
<path fill-rule="evenodd" clip-rule="evenodd" d="M325 110.215L238.539 145.929L232 130.13V83.9991L313.265 50.4307C316.522 51.1537 319.381 52.9357 321.461 55.3969L324.949 63.8231C324.983 64.2356 325 64.6529 325 65.0743V110.215Z" fill="url(#paint104_linear_734_1933)"/>
<rect x="235" y="3" width="87" height="140" rx="12" stroke="#E5E5E5" stroke-width="6"/>
<path d="M267.722 55.662C286.272 50.2338 295.138 53.8599 297.353 71.5335C297.413 72.0172 296.813 72.2943 296.464 71.9491C288.832 64.407 283.837 62.8911 274.832 66.1651C274.527 66.2758 274.399 66.6345 274.568 66.908L276.861 70.6318C277.093 71.0093 276.765 71.4806 276.324 71.4034L259.43 68.4483C259.13 68.3958 258.939 68.1018 259.018 67.8115L263.434 51.3821C263.549 50.9508 264.13 50.8605 264.375 51.2358L267.128 55.4493C267.253 55.642 267.5 55.7273 267.722 55.662Z" fill="#B0B5E9"/>
<path d="M289.278 89.338C270.728 94.7662 261.862 91.1401 259.647 73.4665C259.587 72.9828 260.187 72.7057 260.536 73.0509C268.168 80.593 273.163 82.1089 282.168 78.8349C282.473 78.7242 282.601 78.3655 282.432 78.092L280.139 74.3682C279.907 73.9907 280.235 73.5194 280.676 73.5966L297.57 76.5517C297.87 76.6042 298.06 76.8982 297.982 77.1885L293.566 93.6179C293.451 94.0492 292.87 94.1395 292.625 93.7642L289.872 89.5507C289.747 89.358 289.5 89.2727 289.278 89.338Z" fill="#F1AEEE"/>
<defs>
<filter id="filter0_d_734_1933" x="29.3828" y="53.0129" width="33.2754" height="47.1361" filterUnits="userSpaceOnUse" color-interpolation-filters="sRGB">
<feFlood flood-opacity="0" result="BackgroundImageFix"/>
<feColorMatrix in="SourceAlpha" type="matrix" values="0 0 0 0 0 0 0 0 0 0 0 0 0 0 0 0 0 0 127 0" result="hardAlpha"/>
<feOffset dy="4"/>
<feGaussianBlur stdDeviation="2"/>
<feComposite in2="hardAlpha" operator="out"/>
<feColorMatrix type="matrix" values="0 0 0 0 0 0 0 0 0 0 0 0 0 0 0 0 0 0 0.25 0"/>
<feBlend mode="normal" in2="BackgroundImageFix" result="effect1_dropShadow_734_1933"/>
<feBlend mode="normal" in="SourceGraphic" in2="effect1_dropShadow_734_1933" result="shape"/>
</filter>
<linearGradient id="paint0_linear_734_1933" x1="46.5" y1="0" x2="46.5" y2="146" gradientUnits="userSpaceOnUse">
<stop stop-color="#674D80"/>
<stop offset="0.46875" stop-color="#24173C"/>
<stop offset="1" stop-color="#1E1E1E"/>
</linearGradient>
<radialGradient id="paint1_diamond_734_1933" cx="0" cy="0" r="1" gradientUnits="userSpaceOnUse" gradientTransform="translate(76.2004 122.235) rotate(134.599) scale(14.6024 14.1508)">
<stop offset="0.358888" stop-color="#F699F0" stop-opacity="0.29"/>
<stop offset="0.942951" stop-color="#CB48EF" stop-opacity="0.29"/>
</radialGradient>
<radialGradient id="paint2_diamond_734_1933" cx="0" cy="0" r="1" gradientUnits="userSpaceOnUse" gradientTransform="translate(57.9475 122.099) rotate(134.599) scale(14.6024 14.1508)">
<stop offset="0.358888" stop-color="#F699F0" stop-opacity="0.29"/>
<stop offset="0.942951" stop-color="#CB48EF" stop-opacity="0.29"/>
</radialGradient>
<radialGradient id="paint3_diamond_734_1933" cx="0" cy="0" r="1" gradientUnits="userSpaceOnUse" gradientTransform="translate(57.9475 122.099) rotate(134.599) scale(14.6024 14.1508)">
<stop offset="0.358888" stop-color="#F699F0" stop-opacity="0.29"/>
<stop offset="0.942951" stop-color="#CB48EF" stop-opacity="0.29"/>
</radialGradient>
<radialGradient id="paint4_diamond_734_1933" cx="0" cy="0" r="1" gradientUnits="userSpaceOnUse" gradientTransform="translate(39.8303 122.099) rotate(134.599) scale(14.6024 14.1508)">
<stop offset="0.358888" stop-color="#F699F0" stop-opacity="0.29"/>
<stop offset="0.942951" stop-color="#CB48EF" stop-opacity="0.29"/>
</radialGradient>
<radialGradient id="paint5_diamond_734_1933" cx="0" cy="0" r="1" gradientUnits="userSpaceOnUse" gradientTransform="translate(21.7136 122.099) rotate(134.599) scale(14.6024 14.1508)">
<stop offset="0.358888" stop-color="#F699F0" stop-opacity="0.29"/>
<stop offset="0.942951" stop-color="#CB48EF" stop-opacity="0.29"/>
</radialGradient>
<radialGradient id="paint6_diamond_734_1933" cx="0" cy="0" r="1" gradientUnits="userSpaceOnUse" gradientTransform="translate(76.2004 104.136) rotate(134.599) scale(14.6024 14.1508)">
<stop offset="0.358888" stop-color="#F699F0" stop-opacity="0.29"/>
<stop offset="0.942951" stop-color="#CB48EF" stop-opacity="0.29"/>
</radialGradient>
<radialGradient id="paint7_diamond_734_1933" cx="0" cy="0" r="1" gradientUnits="userSpaceOnUse" gradientTransform="translate(57.9475 104) rotate(134.599) scale(14.6024 14.1508)">
<stop offset="0.358888" stop-color="#F699F0" stop-opacity="0.29"/>
<stop offset="0.942951" stop-color="#CB48EF" stop-opacity="0.29"/>
</radialGradient>
<radialGradient id="paint8_diamond_734_1933" cx="0" cy="0" r="1" gradientUnits="userSpaceOnUse" gradientTransform="translate(39.8303 104) rotate(134.599) scale(14.6024 14.1508)">
<stop offset="0.358888" stop-color="#F699F0" stop-opacity="0.29"/>
<stop offset="0.942951" stop-color="#CB48EF" stop-opacity="0.29"/>
</radialGradient>
<radialGradient id="paint9_diamond_734_1933" cx="0" cy="0" r="1" gradientUnits="userSpaceOnUse" gradientTransform="translate(21.7136 104) rotate(134.599) scale(14.6024 14.1508)">
<stop offset="0.358888" stop-color="#F699F0" stop-opacity="0.29"/>
<stop offset="0.942951" stop-color="#CB48EF" stop-opacity="0.29"/>
</radialGradient>
<radialGradient id="paint10_diamond_734_1933" cx="0" cy="0" r="1" gradientUnits="userSpaceOnUse" gradientTransform="translate(76.2004 86.0366) rotate(134.599) scale(14.6024 14.1508)">
<stop offset="0.358888" stop-color="#F699F0" stop-opacity="0.29"/>
<stop offset="0.942951" stop-color="#CB48EF" stop-opacity="0.29"/>
</radialGradient>
<radialGradient id="paint11_diamond_734_1933" cx="0" cy="0" r="1" gradientUnits="userSpaceOnUse" gradientTransform="translate(57.9475 85.9004) rotate(134.599) scale(14.6024 14.1508)">
<stop offset="0.358888" stop-color="#F699F0" stop-opacity="0.29"/>
<stop offset="0.942951" stop-color="#CB48EF" stop-opacity="0.29"/>
</radialGradient>
<radialGradient id="paint12_diamond_734_1933" cx="0" cy="0" r="1" gradientUnits="userSpaceOnUse" gradientTransform="translate(39.8303 85.9004) rotate(134.599) scale(14.6024 14.1508)">
<stop offset="0.358888" stop-color="#F699F0" stop-opacity="0.29"/>
<stop offset="0.942951" stop-color="#CB48EF" stop-opacity="0.29"/>
</radialGradient>
<radialGradient id="paint13_diamond_734_1933" cx="0" cy="0" r="1" gradientUnits="userSpaceOnUse" gradientTransform="translate(21.7136 85.9004) rotate(134.599) scale(14.6024 14.1508)">
<stop offset="0.358888" stop-color="#F699F0" stop-opacity="0.29"/>
<stop offset="0.942951" stop-color="#CB48EF" stop-opacity="0.29"/>
</radialGradient>
<radialGradient id="paint14_diamond_734_1933" cx="0" cy="0" r="1" gradientUnits="userSpaceOnUse" gradientTransform="translate(76.2004 67.9374) rotate(134.599) scale(14.6024 14.1508)">
<stop offset="0.358888" stop-color="#F699F0" stop-opacity="0.29"/>
<stop offset="0.942951" stop-color="#CB48EF" stop-opacity="0.29"/>
</radialGradient>
<radialGradient id="paint15_diamond_734_1933" cx="0" cy="0" r="1" gradientUnits="userSpaceOnUse" gradientTransform="translate(57.9475 67.8012) rotate(134.599) scale(14.6024 14.1508)">
<stop offset="0.358888" stop-color="#F699F0" stop-opacity="0.29"/>
<stop offset="0.942951" stop-color="#CB48EF" stop-opacity="0.29"/>
</radialGradient>
<radialGradient id="paint16_diamond_734_1933" cx="0" cy="0" r="1" gradientUnits="userSpaceOnUse" gradientTransform="translate(39.8303 67.8012) rotate(134.599) scale(14.6024 14.1508)">
<stop offset="0.358888" stop-color="#F699F0" stop-opacity="0.29"/>
<stop offset="0.942951" stop-color="#CB48EF" stop-opacity="0.29"/>
</radialGradient>
<radialGradient id="paint17_diamond_734_1933" cx="0" cy="0" r="1" gradientUnits="userSpaceOnUse" gradientTransform="translate(21.7136 67.8012) rotate(134.599) scale(14.6024 14.1508)">
<stop offset="0.358888" stop-color="#F699F0" stop-opacity="0.29"/>
<stop offset="0.942951" stop-color="#CB48EF" stop-opacity="0.29"/>
</radialGradient>
<radialGradient id="paint18_diamond_734_1933" cx="0" cy="0" r="1" gradientUnits="userSpaceOnUse" gradientTransform="translate(76.2004 49.8382) rotate(134.599) scale(14.6024 14.1508)">
<stop offset="0.358888" stop-color="#F699F0" stop-opacity="0.29"/>
<stop offset="0.942951" stop-color="#CB48EF" stop-opacity="0.29"/>
</radialGradient>
<radialGradient id="paint19_diamond_734_1933" cx="0" cy="0" r="1" gradientUnits="userSpaceOnUse" gradientTransform="translate(57.9475 49.7021) rotate(134.599) scale(14.6024 14.1508)">
<stop offset="0.358888" stop-color="#F699F0" stop-opacity="0.29"/>
<stop offset="0.942951" stop-color="#CB48EF" stop-opacity="0.29"/>
</radialGradient>
<radialGradient id="paint20_diamond_734_1933" cx="0" cy="0" r="1" gradientUnits="userSpaceOnUse" gradientTransform="translate(39.8303 49.7021) rotate(134.599) scale(14.6024 14.1508)">
<stop offset="0.358888" stop-color="#F699F0" stop-opacity="0.29"/>
<stop offset="0.942951" stop-color="#CB48EF" stop-opacity="0.29"/>
</radialGradient>
<radialGradient id="paint21_diamond_734_1933" cx="0" cy="0" r="1" gradientUnits="userSpaceOnUse" gradientTransform="translate(21.7136 49.7021) rotate(134.599) scale(14.6024 14.1508)">
<stop offset="0.358888" stop-color="#F699F0" stop-opacity="0.29"/>
<stop offset="0.942951" stop-color="#CB48EF" stop-opacity="0.29"/>
</radialGradient>
<radialGradient id="paint22_diamond_734_1933" cx="0" cy="0" r="1" gradientUnits="userSpaceOnUse" gradientTransform="translate(76.2004 31.7391) rotate(134.599) scale(14.6024 14.1508)">
<stop offset="0.358888" stop-color="#F699F0" stop-opacity="0.29"/>
<stop offset="0.942951" stop-color="#CB48EF" stop-opacity="0.29"/>
</radialGradient>
<radialGradient id="paint23_diamond_734_1933" cx="0" cy="0" r="1" gradientUnits="userSpaceOnUse" gradientTransform="translate(57.9475 31.6028) rotate(134.599) scale(14.6024 14.1508)">
<stop offset="0.358888" stop-color="#F699F0" stop-opacity="0.29"/>
<stop offset="0.942951" stop-color="#CB48EF" stop-opacity="0.29"/>
</radialGradient>
<radialGradient id="paint24_diamond_734_1933" cx="0" cy="0" r="1" gradientUnits="userSpaceOnUse" gradientTransform="translate(39.8303 31.6028) rotate(134.599) scale(14.6024 14.1508)">
<stop offset="0.358888" stop-color="#F699F0" stop-opacity="0.29"/>
<stop offset="0.942951" stop-color="#CB48EF" stop-opacity="0.29"/>
</radialGradient>
<radialGradient id="paint25_diamond_734_1933" cx="0" cy="0" r="1" gradientUnits="userSpaceOnUse" gradientTransform="translate(21.7136 31.6028) rotate(134.599) scale(14.6024 14.1508)">
<stop offset="0.358888" stop-color="#F699F0" stop-opacity="0.29"/>
<stop offset="0.942951" stop-color="#CB48EF" stop-opacity="0.29"/>
</radialGradient>
<radialGradient id="paint26_diamond_734_1933" cx="0" cy="0" r="1" gradientUnits="userSpaceOnUse" gradientTransform="translate(76.2004 13.64) rotate(134.599) scale(14.6024 14.1508)">
<stop offset="0.358888" stop-color="#F699F0" stop-opacity="0.29"/>
<stop offset="0.942951" stop-color="#CB48EF" stop-opacity="0.29"/>
</radialGradient>
<radialGradient id="paint27_diamond_734_1933" cx="0" cy="0" r="1" gradientUnits="userSpaceOnUse" gradientTransform="translate(57.9475 13.5037) rotate(134.599) scale(14.6024 14.1508)">
<stop offset="0.358888" stop-color="#F699F0" stop-opacity="0.29"/>
<stop offset="0.942951" stop-color="#CB48EF" stop-opacity="0.29"/>
</radialGradient>
<radialGradient id="paint28_diamond_734_1933" cx="0" cy="0" r="1" gradientUnits="userSpaceOnUse" gradientTransform="translate(39.8308 13.5037) rotate(134.599) scale(14.6024 14.1508)">
<stop offset="0.358888" stop-color="#F699F0" stop-opacity="0.29"/>
<stop offset="0.942951" stop-color="#CB48EF" stop-opacity="0.29"/>
</radialGradient>
<radialGradient id="paint29_diamond_734_1933" cx="0" cy="0" r="1" gradientUnits="userSpaceOnUse" gradientTransform="translate(21.7136 13.5037) rotate(134.599) scale(14.6024 14.1508)">
<stop offset="0.358888" stop-color="#F699F0" stop-opacity="0.29"/>
<stop offset="0.942951" stop-color="#CB48EF" stop-opacity="0.29"/>
</radialGradient>
<linearGradient id="paint30_linear_734_1933" x1="34.4087" y1="19.6457" x2="57.1072" y2="74.7483" gradientUnits="userSpaceOnUse">
<stop stop-color="#0E0F11" stop-opacity="0"/>
<stop offset="0.463542" stop-color="#101114" stop-opacity="0.7"/>
<stop offset="1" stop-color="#16171B" stop-opacity="0"/>
</linearGradient>
<linearGradient id="paint31_linear_734_1933" x1="34.4087" y1="69.7935" x2="57.0701" y2="124.859" gradientUnits="userSpaceOnUse">
<stop stop-color="#0E0F11" stop-opacity="0"/>
<stop offset="0.46875" stop-color="#101114" stop-opacity="0.7"/>
<stop offset="1" stop-color="#16171B" stop-opacity="0"/>
</linearGradient>
<linearGradient id="paint32_linear_734_1933" x1="92.5" y1="0" x2="92.5" y2="146" gradientUnits="userSpaceOnUse">
<stop stop-color="#674D80"/>
<stop offset="0.46875" stop-color="#24173C"/>
<stop offset="1" stop-color="#1E1E1E"/>
</linearGradient>
<linearGradient id="paint33_linear_734_1933" x1="80.4087" y1="19.6455" x2="103.107" y2="74.7482" gradientUnits="userSpaceOnUse">
<stop stop-color="#0E0F11" stop-opacity="0"/>
<stop offset="0.463542" stop-color="#101114" stop-opacity="0.7"/>
<stop offset="1" stop-color="#16171B" stop-opacity="0"/>
</linearGradient>
<linearGradient id="paint34_linear_734_1933" x1="80.4087" y1="69.7933" x2="103.07" y2="124.859" gradientUnits="userSpaceOnUse">
<stop stop-color="#0E0F11" stop-opacity="0"/>
<stop offset="0.46875" stop-color="#101114" stop-opacity="0.7"/>
<stop offset="1" stop-color="#16171B" stop-opacity="0"/>
</linearGradient>
<linearGradient id="paint35_linear_734_1933" x1="139.5" y1="0" x2="139.5" y2="146.143" gradientUnits="userSpaceOnUse">
<stop stop-color="#674D80"/>
<stop offset="0.46875" stop-color="#24173C"/>
<stop offset="1" stop-color="#1E1E1E"/>
</linearGradient>
<linearGradient id="paint36_linear_734_1933" x1="127.409" y1="19.6648" x2="150.145" y2="74.8058" gradientUnits="userSpaceOnUse">
<stop stop-color="#0E0F11" stop-opacity="0"/>
<stop offset="0.463542" stop-color="#101114" stop-opacity="0.7"/>
<stop offset="1" stop-color="#16171B" stop-opacity="0"/>
</linearGradient>
<linearGradient id="paint37_linear_734_1933" x1="127.409" y1="69.8616" x2="150.108" y2="124.965" gradientUnits="userSpaceOnUse">
<stop stop-color="#0E0F11" stop-opacity="0"/>
<stop offset="0.46875" stop-color="#101114" stop-opacity="0.7"/>
<stop offset="1" stop-color="#16171B" stop-opacity="0"/>
</linearGradient>
<linearGradient id="paint38_linear_734_1933" x1="185.5" y1="0" x2="185.5" y2="146" gradientUnits="userSpaceOnUse">
<stop stop-color="#674D80"/>
<stop offset="0.46875" stop-color="#24173C"/>
<stop offset="1" stop-color="#1E1E1E"/>
</linearGradient>
<radialGradient id="paint39_diamond_734_1933" cx="0" cy="0" r="1" gradientUnits="userSpaceOnUse" gradientTransform="translate(215.201 122.235) rotate(134.599) scale(14.6024 14.1508)">
<stop offset="0.358888" stop-color="#FCFBEC"/>
<stop offset="0.942951" stop-color="#CBC4AC"/>
</radialGradient>
<radialGradient id="paint40_diamond_734_1933" cx="0" cy="0" r="1" gradientUnits="userSpaceOnUse" gradientTransform="translate(196.947 122.099) rotate(134.599) scale(14.6024 14.1508)">
<stop offset="0.358888" stop-color="#FCFBEC"/>
<stop offset="0.942951" stop-color="#CBC4AC"/>
</radialGradient>
<radialGradient id="paint41_diamond_734_1933" cx="0" cy="0" r="1" gradientUnits="userSpaceOnUse" gradientTransform="translate(196.947 122.099) rotate(134.599) scale(14.6024 14.1508)">
<stop offset="0.358888" stop-color="#FCFBEC"/>
<stop offset="0.942951" stop-color="#CBC4AC"/>
</radialGradient>
<radialGradient id="paint42_diamond_734_1933" cx="0" cy="0" r="1" gradientUnits="userSpaceOnUse" gradientTransform="translate(178.83 122.099) rotate(134.599) scale(14.6024 14.1508)">
<stop offset="0.358888" stop-color="#FCFBEC"/>
<stop offset="0.942951" stop-color="#CBC4AC"/>
</radialGradient>
<radialGradient id="paint43_diamond_734_1933" cx="0" cy="0" r="1" gradientUnits="userSpaceOnUse" gradientTransform="translate(160.714 122.099) rotate(134.599) scale(14.6024 14.1508)">
<stop offset="0.358888" stop-color="#FCFBEC"/>
<stop offset="0.942951" stop-color="#CBC4AC"/>
</radialGradient>
<radialGradient id="paint44_diamond_734_1933" cx="0" cy="0" r="1" gradientUnits="userSpaceOnUse" gradientTransform="translate(215.201 104.136) rotate(134.599) scale(14.6024 14.1508)">
<stop offset="0.358888" stop-color="#FCFBEC"/>
<stop offset="0.942951" stop-color="#CBC4AC"/>
</radialGradient>
<radialGradient id="paint45_diamond_734_1933" cx="0" cy="0" r="1" gradientUnits="userSpaceOnUse" gradientTransform="translate(196.947 104) rotate(134.599) scale(14.6024 14.1508)">
<stop offset="0.358888" stop-color="#FCFBEC"/>
<stop offset="0.942951" stop-color="#CBC4AC"/>
</radialGradient>
<radialGradient id="paint46_diamond_734_1933" cx="0" cy="0" r="1" gradientUnits="userSpaceOnUse" gradientTransform="translate(178.83 104) rotate(134.599) scale(14.6024 14.1508)">
<stop offset="0.358888" stop-color="#FCFBEC"/>
<stop offset="0.942951" stop-color="#CBC4AC"/>
</radialGradient>
<radialGradient id="paint47_diamond_734_1933" cx="0" cy="0" r="1" gradientUnits="userSpaceOnUse" gradientTransform="translate(160.714 104) rotate(134.599) scale(14.6024 14.1508)">
<stop offset="0.358888" stop-color="#FCFBEC"/>
<stop offset="0.942951" stop-color="#CBC4AC"/>
</radialGradient>
<radialGradient id="paint48_diamond_734_1933" cx="0" cy="0" r="1" gradientUnits="userSpaceOnUse" gradientTransform="translate(215.201 86.0366) rotate(134.599) scale(14.6024 14.1508)">
<stop offset="0.358888" stop-color="#FCFBEC"/>
<stop offset="0.942951" stop-color="#CBC4AC"/>
</radialGradient>
<radialGradient id="paint49_diamond_734_1933" cx="0" cy="0" r="1" gradientUnits="userSpaceOnUse" gradientTransform="translate(196.947 85.9004) rotate(134.599) scale(14.6024 14.1508)">
<stop offset="0.358888" stop-color="#FCFBEC"/>
<stop offset="0.942951" stop-color="#CBC4AC"/>
</radialGradient>
<radialGradient id="paint50_diamond_734_1933" cx="0" cy="0" r="1" gradientUnits="userSpaceOnUse" gradientTransform="translate(178.83 85.9004) rotate(134.599) scale(14.6024 14.1508)">
<stop offset="0.358888" stop-color="#FCFBEC"/>
<stop offset="0.942951" stop-color="#CBC4AC"/>
</radialGradient>
<radialGradient id="paint51_diamond_734_1933" cx="0" cy="0" r="1" gradientUnits="userSpaceOnUse" gradientTransform="translate(160.714 85.9004) rotate(134.599) scale(14.6024 14.1508)">
<stop offset="0.358888" stop-color="#FCFBEC"/>
<stop offset="0.942951" stop-color="#CBC4AC"/>
</radialGradient>
<radialGradient id="paint52_diamond_734_1933" cx="0" cy="0" r="1" gradientUnits="userSpaceOnUse" gradientTransform="translate(215.201 67.9374) rotate(134.599) scale(14.6024 14.1508)">
<stop offset="0.358888" stop-color="#FCFBEC"/>
<stop offset="0.942951" stop-color="#CBC4AC"/>
</radialGradient>
<radialGradient id="paint53_diamond_734_1933" cx="0" cy="0" r="1" gradientUnits="userSpaceOnUse" gradientTransform="translate(196.947 67.8012) rotate(134.599) scale(14.6024 14.1508)">
<stop offset="0.358888" stop-color="#FCFBEC"/>
<stop offset="0.942951" stop-color="#CBC4AC"/>
</radialGradient>
<radialGradient id="paint54_diamond_734_1933" cx="0" cy="0" r="1" gradientUnits="userSpaceOnUse" gradientTransform="translate(178.83 67.8012) rotate(134.599) scale(14.6024 14.1508)">
<stop offset="0.358888" stop-color="#FCFBEC"/>
<stop offset="0.942951" stop-color="#CBC4AC"/>
</radialGradient>
<radialGradient id="paint55_diamond_734_1933" cx="0" cy="0" r="1" gradientUnits="userSpaceOnUse" gradientTransform="translate(160.714 67.8012) rotate(134.599) scale(14.6024 14.1508)">
<stop offset="0.358888" stop-color="#FCFBEC"/>
<stop offset="0.942951" stop-color="#CBC4AC"/>
</radialGradient>
<radialGradient id="paint56_diamond_734_1933" cx="0" cy="0" r="1" gradientUnits="userSpaceOnUse" gradientTransform="translate(215.201 49.8382) rotate(134.599) scale(14.6024 14.1508)">
<stop offset="0.358888" stop-color="#FCFBEC"/>
<stop offset="0.942951" stop-color="#CBC4AC"/>
</radialGradient>
<radialGradient id="paint57_diamond_734_1933" cx="0" cy="0" r="1" gradientUnits="userSpaceOnUse" gradientTransform="translate(196.947 49.7021) rotate(134.599) scale(14.6024 14.1508)">
<stop offset="0.358888" stop-color="#FCFBEC"/>
<stop offset="0.942951" stop-color="#CBC4AC"/>
</radialGradient>
<radialGradient id="paint58_diamond_734_1933" cx="0" cy="0" r="1" gradientUnits="userSpaceOnUse" gradientTransform="translate(178.83 49.7021) rotate(134.599) scale(14.6024 14.1508)">
<stop offset="0.358888" stop-color="#FCFBEC"/>
<stop offset="0.942951" stop-color="#CBC4AC"/>
</radialGradient>
<radialGradient id="paint59_diamond_734_1933" cx="0" cy="0" r="1" gradientUnits="userSpaceOnUse" gradientTransform="translate(160.714 49.7021) rotate(134.599) scale(14.6024 14.1508)">
<stop offset="0.358888" stop-color="#FCFBEC"/>
<stop offset="0.942951" stop-color="#CBC4AC"/>
</radialGradient>
<radialGradient id="paint60_diamond_734_1933" cx="0" cy="0" r="1" gradientUnits="userSpaceOnUse" gradientTransform="translate(215.201 31.7391) rotate(134.599) scale(14.6024 14.1508)">
<stop offset="0.358888" stop-color="#FCFBEC"/>
<stop offset="0.942951" stop-color="#CBC4AC"/>
</radialGradient>
<radialGradient id="paint61_diamond_734_1933" cx="0" cy="0" r="1" gradientUnits="userSpaceOnUse" gradientTransform="translate(196.947 31.603) rotate(134.599) scale(14.6024 14.1508)">
<stop offset="0.358888" stop-color="#FCFBEC"/>
<stop offset="0.942951" stop-color="#CBC4AC"/>
</radialGradient>
<radialGradient id="paint62_diamond_734_1933" cx="0" cy="0" r="1" gradientUnits="userSpaceOnUse" gradientTransform="translate(178.83 31.603) rotate(134.599) scale(14.6024 14.1508)">
<stop offset="0.358888" stop-color="#FCFBEC"/>
<stop offset="0.942951" stop-color="#CBC4AC"/>
</radialGradient>
<radialGradient id="paint63_diamond_734_1933" cx="0" cy="0" r="1" gradientUnits="userSpaceOnUse" gradientTransform="translate(160.714 31.603) rotate(134.599) scale(14.6024 14.1508)">
<stop offset="0.358888" stop-color="#FCFBEC"/>
<stop offset="0.942951" stop-color="#CBC4AC"/>
</radialGradient>
<radialGradient id="paint64_diamond_734_1933" cx="0" cy="0" r="1" gradientUnits="userSpaceOnUse" gradientTransform="translate(215.201 13.6398) rotate(134.599) scale(14.6024 14.1508)">
<stop offset="0.358888" stop-color="#FCFBEC"/>
<stop offset="0.942951" stop-color="#CBC4AC"/>
</radialGradient>
<radialGradient id="paint65_diamond_734_1933" cx="0" cy="0" r="1" gradientUnits="userSpaceOnUse" gradientTransform="translate(196.947 13.5037) rotate(134.599) scale(14.6024 14.1508)">
<stop offset="0.358888" stop-color="#FCFBEC"/>
<stop offset="0.942951" stop-color="#CBC4AC"/>
</radialGradient>
<radialGradient id="paint66_diamond_734_1933" cx="0" cy="0" r="1" gradientUnits="userSpaceOnUse" gradientTransform="translate(178.831 13.5037) rotate(134.599) scale(14.6024 14.1508)">
<stop offset="0.358888" stop-color="#FCFBEC"/>
<stop offset="0.942951" stop-color="#CBC4AC"/>
</radialGradient>
<radialGradient id="paint67_diamond_734_1933" cx="0" cy="0" r="1" gradientUnits="userSpaceOnUse" gradientTransform="translate(160.714 13.5037) rotate(134.599) scale(14.6024 14.1508)">
<stop offset="0.358888" stop-color="#FCFBEC"/>
<stop offset="0.942951" stop-color="#CBC4AC"/>
</radialGradient>
<linearGradient id="paint68_linear_734_1933" x1="173.409" y1="19.6457" x2="196.107" y2="74.7483" gradientUnits="userSpaceOnUse">
<stop stop-color="#0E0F11" stop-opacity="0"/>
<stop offset="0.463542" stop-color="#101114" stop-opacity="0.7"/>
<stop offset="1" stop-color="#16171B" stop-opacity="0"/>
</linearGradient>
<linearGradient id="paint69_linear_734_1933" x1="173.409" y1="69.7934" x2="196.07" y2="124.859" gradientUnits="userSpaceOnUse">
<stop stop-color="#0E0F11" stop-opacity="0"/>
<stop offset="0.46875" stop-color="#101114" stop-opacity="0.7"/>
<stop offset="1" stop-color="#16171B" stop-opacity="0"/>
</linearGradient>
<linearGradient id="paint70_linear_734_1933" x1="232.5" y1="0" x2="232.5" y2="146" gradientUnits="userSpaceOnUse">
<stop stop-color="#674D80"/>
<stop offset="0.46875" stop-color="#24173C"/>
<stop offset="1" stop-color="#1E1E1E"/>
</linearGradient>
<linearGradient id="paint71_linear_734_1933" x1="220.409" y1="19.6455" x2="243.107" y2="74.7482" gradientUnits="userSpaceOnUse">
<stop stop-color="#0E0F11" stop-opacity="0"/>
<stop offset="0.463542" stop-color="#101114" stop-opacity="0.7"/>
<stop offset="1" stop-color="#16171B" stop-opacity="0"/>
</linearGradient>
<linearGradient id="paint72_linear_734_1933" x1="220.409" y1="69.7933" x2="243.07" y2="124.859" gradientUnits="userSpaceOnUse">
<stop stop-color="#0E0F11" stop-opacity="0"/>
<stop offset="0.46875" stop-color="#101114" stop-opacity="0.7"/>
<stop offset="1" stop-color="#16171B" stop-opacity="0"/>
</linearGradient>
<linearGradient id="paint73_linear_734_1933" x1="278.5" y1="0" x2="278.5" y2="146" gradientUnits="userSpaceOnUse">
<stop stop-color="#674D80"/>
<stop offset="0.46875" stop-color="#24173C"/>
<stop offset="1" stop-color="#1E1E1E"/>
</linearGradient>
<radialGradient id="paint74_diamond_734_1933" cx="0" cy="0" r="1" gradientUnits="userSpaceOnUse" gradientTransform="translate(308.2 122.235) rotate(134.599) scale(14.6024 14.1508)">
<stop offset="0.358888" stop-color="#F699F0" stop-opacity="0.29"/>
<stop offset="0.942951" stop-color="#CB48EF" stop-opacity="0.29"/>
</radialGradient>
<radialGradient id="paint75_diamond_734_1933" cx="0" cy="0" r="1" gradientUnits="userSpaceOnUse" gradientTransform="translate(289.947 122.099) rotate(134.599) scale(14.6024 14.1508)">
<stop offset="0.358888" stop-color="#F699F0" stop-opacity="0.29"/>
<stop offset="0.942951" stop-color="#CB48EF" stop-opacity="0.29"/>
</radialGradient>
<radialGradient id="paint76_diamond_734_1933" cx="0" cy="0" r="1" gradientUnits="userSpaceOnUse" gradientTransform="translate(289.947 122.099) rotate(134.599) scale(14.6024 14.1508)">
<stop offset="0.358888" stop-color="#F699F0" stop-opacity="0.29"/>
<stop offset="0.942951" stop-color="#CB48EF" stop-opacity="0.29"/>
</radialGradient>
<radialGradient id="paint77_diamond_734_1933" cx="0" cy="0" r="1" gradientUnits="userSpaceOnUse" gradientTransform="translate(271.83 122.099) rotate(134.599) scale(14.6024 14.1508)">
<stop offset="0.358888" stop-color="#F699F0" stop-opacity="0.29"/>
<stop offset="0.942951" stop-color="#CB48EF" stop-opacity="0.29"/>
</radialGradient>
<radialGradient id="paint78_diamond_734_1933" cx="0" cy="0" r="1" gradientUnits="userSpaceOnUse" gradientTransform="translate(253.714 122.099) rotate(134.599) scale(14.6024 14.1508)">
<stop offset="0.358888" stop-color="#F699F0" stop-opacity="0.29"/>
<stop offset="0.942951" stop-color="#CB48EF" stop-opacity="0.29"/>
</radialGradient>
<radialGradient id="paint79_diamond_734_1933" cx="0" cy="0" r="1" gradientUnits="userSpaceOnUse" gradientTransform="translate(308.2 104.136) rotate(134.599) scale(14.6024 14.1508)">
<stop offset="0.358888" stop-color="#F699F0" stop-opacity="0.29"/>
<stop offset="0.942951" stop-color="#CB48EF" stop-opacity="0.29"/>
</radialGradient>
<radialGradient id="paint80_diamond_734_1933" cx="0" cy="0" r="1" gradientUnits="userSpaceOnUse" gradientTransform="translate(289.947 104) rotate(134.599) scale(14.6024 14.1508)">
<stop offset="0.358888" stop-color="#F699F0" stop-opacity="0.29"/>
<stop offset="0.942951" stop-color="#CB48EF" stop-opacity="0.29"/>
</radialGradient>
<radialGradient id="paint81_diamond_734_1933" cx="0" cy="0" r="1" gradientUnits="userSpaceOnUse" gradientTransform="translate(271.83 104) rotate(134.599) scale(14.6024 14.1508)">
<stop offset="0.358888" stop-color="#F699F0" stop-opacity="0.29"/>
<stop offset="0.942951" stop-color="#CB48EF" stop-opacity="0.29"/>
</radialGradient>
<radialGradient id="paint82_diamond_734_1933" cx="0" cy="0" r="1" gradientUnits="userSpaceOnUse" gradientTransform="translate(253.714 104) rotate(134.599) scale(14.6024 14.1508)">
<stop offset="0.358888" stop-color="#F699F0" stop-opacity="0.29"/>
<stop offset="0.942951" stop-color="#CB48EF" stop-opacity="0.29"/>
</radialGradient>
<radialGradient id="paint83_diamond_734_1933" cx="0" cy="0" r="1" gradientUnits="userSpaceOnUse" gradientTransform="translate(308.2 86.0366) rotate(134.599) scale(14.6024 14.1508)">
<stop offset="0.358888" stop-color="#F699F0" stop-opacity="0.29"/>
<stop offset="0.942951" stop-color="#CB48EF" stop-opacity="0.29"/>
</radialGradient>
<radialGradient id="paint84_diamond_734_1933" cx="0" cy="0" r="1" gradientUnits="userSpaceOnUse" gradientTransform="translate(289.947 85.9004) rotate(134.599) scale(14.6024 14.1508)">
<stop offset="0.358888" stop-color="#F699F0" stop-opacity="0.29"/>
<stop offset="0.942951" stop-color="#CB48EF" stop-opacity="0.29"/>
</radialGradient>
<radialGradient id="paint85_diamond_734_1933" cx="0" cy="0" r="1" gradientUnits="userSpaceOnUse" gradientTransform="translate(271.83 85.9004) rotate(134.599) scale(14.6024 14.1508)">
<stop offset="0.358888" stop-color="#F699F0" stop-opacity="0.29"/>
<stop offset="0.942951" stop-color="#CB48EF" stop-opacity="0.29"/>
</radialGradient>
<radialGradient id="paint86_diamond_734_1933" cx="0" cy="0" r="1" gradientUnits="userSpaceOnUse" gradientTransform="translate(253.714 85.9004) rotate(134.599) scale(14.6024 14.1508)">
<stop offset="0.358888" stop-color="#F699F0" stop-opacity="0.29"/>
<stop offset="0.942951" stop-color="#CB48EF" stop-opacity="0.29"/>
</radialGradient>
<radialGradient id="paint87_diamond_734_1933" cx="0" cy="0" r="1" gradientUnits="userSpaceOnUse" gradientTransform="translate(308.2 67.9374) rotate(134.599) scale(14.6024 14.1508)">
<stop offset="0.358888" stop-color="#F699F0" stop-opacity="0.29"/>
<stop offset="0.942951" stop-color="#CB48EF" stop-opacity="0.29"/>
</radialGradient>
<radialGradient id="paint88_diamond_734_1933" cx="0" cy="0" r="1" gradientUnits="userSpaceOnUse" gradientTransform="translate(289.947 67.8012) rotate(134.599) scale(14.6024 14.1508)">
<stop offset="0.358888" stop-color="#F699F0" stop-opacity="0.29"/>
<stop offset="0.942951" stop-color="#CB48EF" stop-opacity="0.29"/>
</radialGradient>
<radialGradient id="paint89_diamond_734_1933" cx="0" cy="0" r="1" gradientUnits="userSpaceOnUse" gradientTransform="translate(271.83 67.8012) rotate(134.599) scale(14.6024 14.1508)">
<stop offset="0.358888" stop-color="#F699F0" stop-opacity="0.29"/>
<stop offset="0.942951" stop-color="#CB48EF" stop-opacity="0.29"/>
</radialGradient>
<radialGradient id="paint90_diamond_734_1933" cx="0" cy="0" r="1" gradientUnits="userSpaceOnUse" gradientTransform="translate(253.714 67.8012) rotate(134.599) scale(14.6024 14.1508)">
<stop offset="0.358888" stop-color="#F699F0" stop-opacity="0.29"/>
<stop offset="0.942951" stop-color="#CB48EF" stop-opacity="0.29"/>
</radialGradient>
<radialGradient id="paint91_diamond_734_1933" cx="0" cy="0" r="1" gradientUnits="userSpaceOnUse" gradientTransform="translate(308.2 49.8382) rotate(134.599) scale(14.6024 14.1508)">
<stop offset="0.358888" stop-color="#F699F0" stop-opacity="0.29"/>
<stop offset="0.942951" stop-color="#CB48EF" stop-opacity="0.29"/>
</radialGradient>
<radialGradient id="paint92_diamond_734_1933" cx="0" cy="0" r="1" gradientUnits="userSpaceOnUse" gradientTransform="translate(289.947 49.7021) rotate(134.599) scale(14.6024 14.1508)">
<stop offset="0.358888" stop-color="#F699F0" stop-opacity="0.29"/>
<stop offset="0.942951" stop-color="#CB48EF" stop-opacity="0.29"/>
</radialGradient>
<radialGradient id="paint93_diamond_734_1933" cx="0" cy="0" r="1" gradientUnits="userSpaceOnUse" gradientTransform="translate(271.83 49.7021) rotate(134.599) scale(14.6024 14.1508)">
<stop offset="0.358888" stop-color="#F699F0" stop-opacity="0.29"/>
<stop offset="0.942951" stop-color="#CB48EF" stop-opacity="0.29"/>
</radialGradient>
<radialGradient id="paint94_diamond_734_1933" cx="0" cy="0" r="1" gradientUnits="userSpaceOnUse" gradientTransform="translate(253.714 49.7021) rotate(134.599) scale(14.6024 14.1508)">
<stop offset="0.358888" stop-color="#F699F0" stop-opacity="0.29"/>
<stop offset="0.942951" stop-color="#CB48EF" stop-opacity="0.29"/>
</radialGradient>
<radialGradient id="paint95_diamond_734_1933" cx="0" cy="0" r="1" gradientUnits="userSpaceOnUse" gradientTransform="translate(308.2 31.7391) rotate(134.599) scale(14.6024 14.1508)">
<stop offset="0.358888" stop-color="#F699F0" stop-opacity="0.29"/>
<stop offset="0.942951" stop-color="#CB48EF" stop-opacity="0.29"/>
</radialGradient>
<radialGradient id="paint96_diamond_734_1933" cx="0" cy="0" r="1" gradientUnits="userSpaceOnUse" gradientTransform="translate(289.947 31.6028) rotate(134.599) scale(14.6024 14.1508)">
<stop offset="0.358888" stop-color="#F699F0" stop-opacity="0.29"/>
<stop offset="0.942951" stop-color="#CB48EF" stop-opacity="0.29"/>
</radialGradient>
<radialGradient id="paint97_diamond_734_1933" cx="0" cy="0" r="1" gradientUnits="userSpaceOnUse" gradientTransform="translate(271.83 31.6028) rotate(134.599) scale(14.6024 14.1508)">
<stop offset="0.358888" stop-color="#F699F0" stop-opacity="0.29"/>
<stop offset="0.942951" stop-color="#CB48EF" stop-opacity="0.29"/>
</radialGradient>
<radialGradient id="paint98_diamond_734_1933" cx="0" cy="0" r="1" gradientUnits="userSpaceOnUse" gradientTransform="translate(253.714 31.6028) rotate(134.599) scale(14.6024 14.1508)">
<stop offset="0.358888" stop-color="#F699F0" stop-opacity="0.29"/>
<stop offset="0.942951" stop-color="#CB48EF" stop-opacity="0.29"/>
</radialGradient>
<radialGradient id="paint99_diamond_734_1933" cx="0" cy="0" r="1" gradientUnits="userSpaceOnUse" gradientTransform="translate(308.2 13.64) rotate(134.599) scale(14.6024 14.1508)">
<stop offset="0.358888" stop-color="#F699F0" stop-opacity="0.29"/>
<stop offset="0.942951" stop-color="#CB48EF" stop-opacity="0.29"/>
</radialGradient>
<radialGradient id="paint100_diamond_734_1933" cx="0" cy="0" r="1" gradientUnits="userSpaceOnUse" gradientTransform="translate(289.947 13.5037) rotate(134.599) scale(14.6024 14.1508)">
<stop offset="0.358888" stop-color="#F699F0" stop-opacity="0.29"/>
<stop offset="0.942951" stop-color="#CB48EF" stop-opacity="0.29"/>
</radialGradient>
<radialGradient id="paint101_diamond_734_1933" cx="0" cy="0" r="1" gradientUnits="userSpaceOnUse" gradientTransform="translate(271.831 13.5037) rotate(134.599) scale(14.6024 14.1508)">
<stop offset="0.358888" stop-color="#F699F0" stop-opacity="0.29"/>
<stop offset="0.942951" stop-color="#CB48EF" stop-opacity="0.29"/>
</radialGradient>
<radialGradient id="paint102_diamond_734_1933" cx="0" cy="0" r="1" gradientUnits="userSpaceOnUse" gradientTransform="translate(253.714 13.5037) rotate(134.599) scale(14.6024 14.1508)">
<stop offset="0.358888" stop-color="#F699F0" stop-opacity="0.29"/>
<stop offset="0.942951" stop-color="#CB48EF" stop-opacity="0.29"/>
</radialGradient>
<linearGradient id="paint103_linear_734_1933" x1="266.409" y1="19.6457" x2="289.107" y2="74.7483" gradientUnits="userSpaceOnUse">
<stop stop-color="#0E0F11" stop-opacity="0"/>
<stop offset="0.463542" stop-color="#101114" stop-opacity="0.7"/>
<stop offset="1" stop-color="#16171B" stop-opacity="0"/>
</linearGradient>
<linearGradient id="paint104_linear_734_1933" x1="266.409" y1="69.7935" x2="289.07" y2="124.859" gradientUnits="userSpaceOnUse">
<stop stop-color="#0E0F11" stop-opacity="0"/>
<stop offset="0.46875" stop-color="#101114" stop-opacity="0.7"/>
<stop offset="1" stop-color="#16171B" stop-opacity="0"/>
</linearGradient>
</defs>
</svg>
