<svg width="93" height="146" viewBox="0 0 93 146" fill="none" xmlns="http://www.w3.org/2000/svg">
<rect width="93" height="146" rx="15" fill="url(#paint0_linear_217_2425)"/>
<path d="M73.8116 118.384L76.3567 123.934L82.4267 124.637L77.9296 128.77L79.136 134.755L73.8116 131.759L68.4872 134.755L69.6936 128.77L65.1965 124.637L71.2665 123.934L73.8116 118.384Z" fill="url(#paint1_diamond_217_2425)"/>
<path d="M55.5584 118.248L58.1035 123.798L64.1735 124.501L59.6765 128.634L60.8829 134.619L55.5584 131.623L50.234 134.619L51.4404 128.634L46.9434 124.501L53.0134 123.798L55.5584 118.248Z" fill="url(#paint2_diamond_217_2425)"/>
<path d="M55.5584 118.248L58.1035 123.798L64.1735 124.501L59.6765 128.634L60.8829 134.619L55.5584 131.623L50.234 134.619L51.4404 128.634L46.9434 124.501L53.0134 123.798L55.5584 118.248Z" fill="url(#paint3_diamond_217_2425)"/>
<path d="M37.4415 118.248L39.9866 123.798L46.0566 124.501L41.5595 128.634L42.7659 134.619L37.4415 131.623L32.1171 134.619L33.3235 128.634L28.8264 124.501L34.8964 123.798L37.4415 118.248Z" fill="url(#paint4_diamond_217_2425)"/>
<path d="M19.3246 118.248L21.8696 123.798L27.9396 124.501L23.4426 128.634L24.649 134.619L19.3246 131.623L14.0001 134.619L15.2065 128.634L10.7095 124.501L16.7795 123.798L19.3246 118.248Z" fill="url(#paint5_diamond_217_2425)"/>
<path d="M73.8116 100.285L76.3567 105.835L82.4267 106.538L77.9296 110.671L79.136 116.656L73.8116 113.66L68.4872 116.656L69.6936 110.671L65.1965 106.538L71.2665 105.835L73.8116 100.285Z" fill="url(#paint6_diamond_217_2425)"/>
<path d="M55.5584 100.149L58.1035 105.699L64.1735 106.402L59.6765 110.535L60.8829 116.52L55.5584 113.524L50.234 116.52L51.4404 110.535L46.9434 106.402L53.0134 105.699L55.5584 100.149Z" fill="url(#paint7_diamond_217_2425)"/>
<path d="M37.4415 100.149L39.9866 105.699L46.0566 106.402L41.5595 110.535L42.7659 116.52L37.4415 113.524L32.1171 116.52L33.3235 110.535L28.8264 106.402L34.8964 105.699L37.4415 100.149Z" fill="url(#paint8_diamond_217_2425)"/>
<path d="M19.3246 100.149L21.8696 105.699L27.9396 106.402L23.4426 110.535L24.649 116.52L19.3246 113.524L14.0001 116.52L15.2065 110.535L10.7095 106.402L16.7795 105.699L19.3246 100.149Z" fill="url(#paint9_diamond_217_2425)"/>
<path d="M73.8116 82.1858L76.3567 87.7358L82.4267 88.4389L77.9296 92.5721L79.136 98.5566L73.8116 95.5611L68.4872 98.5566L69.6936 92.5721L65.1965 88.4389L71.2665 87.7358L73.8116 82.1858Z" fill="url(#paint10_diamond_217_2425)"/>
<path d="M55.5584 82.0496L58.1035 87.5996L64.1735 88.3027L59.6765 92.4359L60.8829 98.4204L55.5584 95.4249L50.234 98.4204L51.4404 92.4359L46.9434 88.3027L53.0134 87.5996L55.5584 82.0496Z" fill="url(#paint11_diamond_217_2425)"/>
<path d="M37.4415 82.0496L39.9866 87.5996L46.0566 88.3027L41.5595 92.4359L42.7659 98.4204L37.4415 95.4249L32.1171 98.4204L33.3235 92.4359L28.8264 88.3027L34.8964 87.5996L37.4415 82.0496Z" fill="url(#paint12_diamond_217_2425)"/>
<path d="M19.3246 82.0496L21.8696 87.5996L27.9396 88.3027L23.4426 92.4359L24.649 98.4204L19.3246 95.4249L14.0001 98.4204L15.2065 92.4359L10.7095 88.3027L16.7795 87.5996L19.3246 82.0496Z" fill="url(#paint13_diamond_217_2425)"/>
<path d="M73.8116 64.0866L76.3567 69.6366L82.4267 70.3397L77.9296 74.4729L79.136 80.4575L73.8116 77.4619L68.4872 80.4575L69.6936 74.4729L65.1965 70.3397L71.2665 69.6366L73.8116 64.0866Z" fill="url(#paint14_diamond_217_2425)"/>
<path d="M55.5584 63.9504L58.1035 69.5005L64.1735 70.2036L59.6765 74.3367L60.8829 80.3213L55.5584 77.3257L50.234 80.3213L51.4404 74.3367L46.9434 70.2036L53.0134 69.5005L55.5584 63.9504Z" fill="url(#paint15_diamond_217_2425)"/>
<path d="M37.4415 63.9504L39.9866 69.5005L46.0566 70.2036L41.5595 74.3367L42.7659 80.3213L37.4415 77.3257L32.1171 80.3213L33.3235 74.3367L28.8264 70.2036L34.8964 69.5005L37.4415 63.9504Z" fill="url(#paint16_diamond_217_2425)"/>
<path d="M19.3246 63.9504L21.8696 69.5005L27.9396 70.2036L23.4426 74.3367L24.649 80.3213L19.3246 77.3257L14.0001 80.3213L15.2065 74.3367L10.7095 70.2036L16.7795 69.5005L19.3246 63.9504Z" fill="url(#paint17_diamond_217_2425)"/>
<path d="M73.8116 45.9874L76.3567 51.5374L82.4267 52.2405L77.9296 56.3737L79.136 62.3583L73.8116 59.3627L68.4872 62.3583L69.6936 56.3737L65.1965 52.2405L71.2665 51.5374L73.8116 45.9874Z" fill="url(#paint18_diamond_217_2425)"/>
<path d="M55.5584 45.8513L58.1035 51.4013L64.1735 52.1044L59.6765 56.2376L60.8829 62.2221L55.5584 59.2265L50.234 62.2221L51.4404 56.2376L46.9434 52.1044L53.0134 51.4013L55.5584 45.8513Z" fill="url(#paint19_diamond_217_2425)"/>
<path d="M37.4415 45.8513L39.9866 51.4013L46.0566 52.1044L41.5595 56.2376L42.7659 62.2221L37.4415 59.2265L32.1171 62.2221L33.3235 56.2376L28.8264 52.1044L34.8964 51.4013L37.4415 45.8513Z" fill="url(#paint20_diamond_217_2425)"/>
<path d="M19.3246 45.8513L21.8696 51.4013L27.9396 52.1044L23.4426 56.2376L24.649 62.2221L19.3246 59.2265L14.0001 62.2221L15.2065 56.2376L10.7095 52.1044L16.7795 51.4013L19.3246 45.8513Z" fill="url(#paint21_diamond_217_2425)"/>
<path d="M73.8116 27.8882L76.3567 33.4383L82.4267 34.1414L77.9296 38.2745L79.136 44.2591L73.8116 41.2635L68.4872 44.2591L69.6936 38.2745L65.1965 34.1414L71.2665 33.4383L73.8116 27.8882Z" fill="url(#paint22_diamond_217_2425)"/>
<path d="M55.5584 27.7521L58.1035 33.3021L64.1735 34.0052L59.6765 38.1384L60.8829 44.1229L55.5584 41.1274L50.234 44.1229L51.4404 38.1384L46.9434 34.0052L53.0134 33.3021L55.5584 27.7521Z" fill="url(#paint23_diamond_217_2425)"/>
<path d="M37.4415 27.7521L39.9866 33.3021L46.0566 34.0052L41.5595 38.1384L42.7659 44.1229L37.4415 41.1274L32.1171 44.1229L33.3235 38.1384L28.8264 34.0052L34.8964 33.3021L37.4415 27.7521Z" fill="url(#paint24_diamond_217_2425)"/>
<path d="M19.3246 27.7521L21.8696 33.3021L27.9396 34.0052L23.4426 38.1384L24.649 44.1229L19.3246 41.1274L14.0001 44.1229L15.2065 38.1384L10.7095 34.0052L16.7795 33.3021L19.3246 27.7521Z" fill="url(#paint25_diamond_217_2425)"/>
<path d="M73.8116 9.78906L76.3567 15.3391L82.4267 16.0422L77.9296 20.1754L79.136 26.1599L73.8116 23.1644L68.4872 26.1599L69.6936 20.1754L65.1965 16.0422L71.2665 15.3391L73.8116 9.78906Z" fill="url(#paint26_diamond_217_2425)"/>
<path d="M55.5584 9.65289L58.1035 15.2029L64.1735 15.906L59.6765 20.0392L60.8829 26.0238L55.5584 23.0282L50.234 26.0238L51.4404 20.0392L46.9434 15.906L53.0134 15.2029L55.5584 9.65289Z" fill="url(#paint27_diamond_217_2425)"/>
<path d="M37.4415 9.65289L39.9866 15.2029L46.0566 15.906L41.5595 20.0392L42.7659 26.0238L37.4415 23.0282L32.1171 26.0238L33.3235 20.0392L28.8264 15.906L34.8964 15.2029L37.4415 9.65289Z" fill="url(#paint28_diamond_217_2425)"/>
<path d="M19.3246 9.65289L21.8696 15.2029L27.9396 15.906L23.4426 20.0392L24.649 26.0238L19.3246 23.0282L14.0001 26.0238L15.2065 20.0392L10.7095 15.906L16.7795 15.2029L19.3246 9.65289Z" fill="url(#paint29_diamond_217_2425)"/>
<path fill-rule="evenodd" clip-rule="evenodd" d="M93 59.8641L6.41801 95.6288L0 80.1219V33.6483L80.8185 0.264404C83.1879 0.714872 85.3599 1.72269 87.1929 3.14629L93 17.177V59.8641Z" fill="url(#paint30_linear_217_2425)"/>
<path fill-rule="evenodd" clip-rule="evenodd" d="M93 110.215L6.5391 145.929L0 130.13V83.9991L81.2651 50.4307C84.5222 51.1537 87.3809 52.9357 89.4611 55.3969L92.9486 63.8231C92.9826 64.2356 93 64.6529 93 65.0743V110.215Z" fill="url(#paint31_linear_217_2425)"/>
<rect x="3" y="3" width="87" height="140" rx="12" stroke="#E5E5E5" stroke-width="6"/>
<path d="M35.7225 55.662C54.2723 50.2338 63.1379 53.8599 65.3528 71.5335C65.4134 72.0172 64.8128 72.2943 64.4635 71.9491C56.832 64.407 51.8371 62.8911 42.8315 66.1651C42.5269 66.2758 42.3993 66.6345 42.5677 66.908L44.8606 70.6318C45.093 71.0093 44.7653 71.4806 44.324 71.4034L27.4301 68.4483C27.13 68.3958 26.9395 68.1018 27.0175 67.8115L31.4335 51.3821C31.5495 50.9508 32.1304 50.8605 32.3755 51.2358L35.1276 55.4493C35.2534 55.642 35.4995 55.7273 35.7225 55.662Z" fill="#B0B5E9"/>
<path d="M57.2775 89.338C38.7277 94.7662 29.8621 91.1401 27.6472 73.4665C27.5866 72.9828 28.1872 72.7057 28.5365 73.0509C36.168 80.593 41.1629 82.1089 50.1685 78.8349C50.4731 78.7242 50.6007 78.3655 50.4323 78.092L48.1394 74.3682C47.9069 73.9907 48.2347 73.5194 48.676 73.5966L65.5699 76.5517C65.87 76.6042 66.0605 76.8982 65.9825 77.1885L61.5665 93.6179C61.4505 94.0492 60.8696 94.1395 60.6245 93.7642L57.8724 89.5507C57.7466 89.358 57.5005 89.2727 57.2775 89.338Z" fill="#F1AEEE"/>
<defs>
<linearGradient id="paint0_linear_217_2425" x1="46.5" y1="0" x2="46.5" y2="146" gradientUnits="userSpaceOnUse">
<stop stop-color="#674D80"/>
<stop offset="0.46875" stop-color="#24173C"/>
<stop offset="1" stop-color="#1E1E1E"/>
</linearGradient>
<radialGradient id="paint1_diamond_217_2425" cx="0" cy="0" r="1" gradientUnits="userSpaceOnUse" gradientTransform="translate(76.2007 122.235) rotate(134.599) scale(14.6024 14.1508)">
<stop offset="0.358888" stop-color="#F699F0" stop-opacity="0.29"/>
<stop offset="0.942951" stop-color="#CB48EF" stop-opacity="0.29"/>
</radialGradient>
<radialGradient id="paint2_diamond_217_2425" cx="0" cy="0" r="1" gradientUnits="userSpaceOnUse" gradientTransform="translate(57.9475 122.099) rotate(134.599) scale(14.6024 14.1508)">
<stop offset="0.358888" stop-color="#F699F0" stop-opacity="0.29"/>
<stop offset="0.942951" stop-color="#CB48EF" stop-opacity="0.29"/>
</radialGradient>
<radialGradient id="paint3_diamond_217_2425" cx="0" cy="0" r="1" gradientUnits="userSpaceOnUse" gradientTransform="translate(57.9475 122.099) rotate(134.599) scale(14.6024 14.1508)">
<stop offset="0.358888" stop-color="#F699F0" stop-opacity="0.29"/>
<stop offset="0.942951" stop-color="#CB48EF" stop-opacity="0.29"/>
</radialGradient>
<radialGradient id="paint4_diamond_217_2425" cx="0" cy="0" r="1" gradientUnits="userSpaceOnUse" gradientTransform="translate(39.8305 122.099) rotate(134.599) scale(14.6024 14.1508)">
<stop offset="0.358888" stop-color="#F699F0" stop-opacity="0.29"/>
<stop offset="0.942951" stop-color="#CB48EF" stop-opacity="0.29"/>
</radialGradient>
<radialGradient id="paint5_diamond_217_2425" cx="0" cy="0" r="1" gradientUnits="userSpaceOnUse" gradientTransform="translate(21.7136 122.099) rotate(134.599) scale(14.6024 14.1508)">
<stop offset="0.358888" stop-color="#F699F0" stop-opacity="0.29"/>
<stop offset="0.942951" stop-color="#CB48EF" stop-opacity="0.29"/>
</radialGradient>
<radialGradient id="paint6_diamond_217_2425" cx="0" cy="0" r="1" gradientUnits="userSpaceOnUse" gradientTransform="translate(76.2007 104.136) rotate(134.599) scale(14.6024 14.1508)">
<stop offset="0.358888" stop-color="#F699F0" stop-opacity="0.29"/>
<stop offset="0.942951" stop-color="#CB48EF" stop-opacity="0.29"/>
</radialGradient>
<radialGradient id="paint7_diamond_217_2425" cx="0" cy="0" r="1" gradientUnits="userSpaceOnUse" gradientTransform="translate(57.9475 104) rotate(134.599) scale(14.6024 14.1508)">
<stop offset="0.358888" stop-color="#F699F0" stop-opacity="0.29"/>
<stop offset="0.942951" stop-color="#CB48EF" stop-opacity="0.29"/>
</radialGradient>
<radialGradient id="paint8_diamond_217_2425" cx="0" cy="0" r="1" gradientUnits="userSpaceOnUse" gradientTransform="translate(39.8305 104) rotate(134.599) scale(14.6024 14.1508)">
<stop offset="0.358888" stop-color="#F699F0" stop-opacity="0.29"/>
<stop offset="0.942951" stop-color="#CB48EF" stop-opacity="0.29"/>
</radialGradient>
<radialGradient id="paint9_diamond_217_2425" cx="0" cy="0" r="1" gradientUnits="userSpaceOnUse" gradientTransform="translate(21.7136 104) rotate(134.599) scale(14.6024 14.1508)">
<stop offset="0.358888" stop-color="#F699F0" stop-opacity="0.29"/>
<stop offset="0.942951" stop-color="#CB48EF" stop-opacity="0.29"/>
</radialGradient>
<radialGradient id="paint10_diamond_217_2425" cx="0" cy="0" r="1" gradientUnits="userSpaceOnUse" gradientTransform="translate(76.2007 86.0367) rotate(134.599) scale(14.6024 14.1508)">
<stop offset="0.358888" stop-color="#F699F0" stop-opacity="0.29"/>
<stop offset="0.942951" stop-color="#CB48EF" stop-opacity="0.29"/>
</radialGradient>
<radialGradient id="paint11_diamond_217_2425" cx="0" cy="0" r="1" gradientUnits="userSpaceOnUse" gradientTransform="translate(57.9475 85.9004) rotate(134.599) scale(14.6024 14.1508)">
<stop offset="0.358888" stop-color="#F699F0" stop-opacity="0.29"/>
<stop offset="0.942951" stop-color="#CB48EF" stop-opacity="0.29"/>
</radialGradient>
<radialGradient id="paint12_diamond_217_2425" cx="0" cy="0" r="1" gradientUnits="userSpaceOnUse" gradientTransform="translate(39.8305 85.9004) rotate(134.599) scale(14.6024 14.1508)">
<stop offset="0.358888" stop-color="#F699F0" stop-opacity="0.29"/>
<stop offset="0.942951" stop-color="#CB48EF" stop-opacity="0.29"/>
</radialGradient>
<radialGradient id="paint13_diamond_217_2425" cx="0" cy="0" r="1" gradientUnits="userSpaceOnUse" gradientTransform="translate(21.7136 85.9004) rotate(134.599) scale(14.6024 14.1508)">
<stop offset="0.358888" stop-color="#F699F0" stop-opacity="0.29"/>
<stop offset="0.942951" stop-color="#CB48EF" stop-opacity="0.29"/>
</radialGradient>
<radialGradient id="paint14_diamond_217_2425" cx="0" cy="0" r="1" gradientUnits="userSpaceOnUse" gradientTransform="translate(76.2007 67.9375) rotate(134.599) scale(14.6024 14.1508)">
<stop offset="0.358888" stop-color="#F699F0" stop-opacity="0.29"/>
<stop offset="0.942951" stop-color="#CB48EF" stop-opacity="0.29"/>
</radialGradient>
<radialGradient id="paint15_diamond_217_2425" cx="0" cy="0" r="1" gradientUnits="userSpaceOnUse" gradientTransform="translate(57.9475 67.8013) rotate(134.599) scale(14.6024 14.1508)">
<stop offset="0.358888" stop-color="#F699F0" stop-opacity="0.29"/>
<stop offset="0.942951" stop-color="#CB48EF" stop-opacity="0.29"/>
</radialGradient>
<radialGradient id="paint16_diamond_217_2425" cx="0" cy="0" r="1" gradientUnits="userSpaceOnUse" gradientTransform="translate(39.8305 67.8013) rotate(134.599) scale(14.6024 14.1508)">
<stop offset="0.358888" stop-color="#F699F0" stop-opacity="0.29"/>
<stop offset="0.942951" stop-color="#CB48EF" stop-opacity="0.29"/>
</radialGradient>
<radialGradient id="paint17_diamond_217_2425" cx="0" cy="0" r="1" gradientUnits="userSpaceOnUse" gradientTransform="translate(21.7136 67.8013) rotate(134.599) scale(14.6024 14.1508)">
<stop offset="0.358888" stop-color="#F699F0" stop-opacity="0.29"/>
<stop offset="0.942951" stop-color="#CB48EF" stop-opacity="0.29"/>
</radialGradient>
<radialGradient id="paint18_diamond_217_2425" cx="0" cy="0" r="1" gradientUnits="userSpaceOnUse" gradientTransform="translate(76.2007 49.8383) rotate(134.599) scale(14.6024 14.1508)">
<stop offset="0.358888" stop-color="#F699F0" stop-opacity="0.29"/>
<stop offset="0.942951" stop-color="#CB48EF" stop-opacity="0.29"/>
</radialGradient>
<radialGradient id="paint19_diamond_217_2425" cx="0" cy="0" r="1" gradientUnits="userSpaceOnUse" gradientTransform="translate(57.9475 49.7021) rotate(134.599) scale(14.6024 14.1508)">
<stop offset="0.358888" stop-color="#F699F0" stop-opacity="0.29"/>
<stop offset="0.942951" stop-color="#CB48EF" stop-opacity="0.29"/>
</radialGradient>
<radialGradient id="paint20_diamond_217_2425" cx="0" cy="0" r="1" gradientUnits="userSpaceOnUse" gradientTransform="translate(39.8305 49.7021) rotate(134.599) scale(14.6024 14.1508)">
<stop offset="0.358888" stop-color="#F699F0" stop-opacity="0.29"/>
<stop offset="0.942951" stop-color="#CB48EF" stop-opacity="0.29"/>
</radialGradient>
<radialGradient id="paint21_diamond_217_2425" cx="0" cy="0" r="1" gradientUnits="userSpaceOnUse" gradientTransform="translate(21.7136 49.7021) rotate(134.599) scale(14.6024 14.1508)">
<stop offset="0.358888" stop-color="#F699F0" stop-opacity="0.29"/>
<stop offset="0.942951" stop-color="#CB48EF" stop-opacity="0.29"/>
</radialGradient>
<radialGradient id="paint22_diamond_217_2425" cx="0" cy="0" r="1" gradientUnits="userSpaceOnUse" gradientTransform="translate(76.2007 31.7391) rotate(134.599) scale(14.6024 14.1508)">
<stop offset="0.358888" stop-color="#F699F0" stop-opacity="0.29"/>
<stop offset="0.942951" stop-color="#CB48EF" stop-opacity="0.29"/>
</radialGradient>
<radialGradient id="paint23_diamond_217_2425" cx="0" cy="0" r="1" gradientUnits="userSpaceOnUse" gradientTransform="translate(57.9475 31.603) rotate(134.599) scale(14.6024 14.1508)">
<stop offset="0.358888" stop-color="#F699F0" stop-opacity="0.29"/>
<stop offset="0.942951" stop-color="#CB48EF" stop-opacity="0.29"/>
</radialGradient>
<radialGradient id="paint24_diamond_217_2425" cx="0" cy="0" r="1" gradientUnits="userSpaceOnUse" gradientTransform="translate(39.8305 31.603) rotate(134.599) scale(14.6024 14.1508)">
<stop offset="0.358888" stop-color="#F699F0" stop-opacity="0.29"/>
<stop offset="0.942951" stop-color="#CB48EF" stop-opacity="0.29"/>
</radialGradient>
<radialGradient id="paint25_diamond_217_2425" cx="0" cy="0" r="1" gradientUnits="userSpaceOnUse" gradientTransform="translate(21.7136 31.603) rotate(134.599) scale(14.6024 14.1508)">
<stop offset="0.358888" stop-color="#F699F0" stop-opacity="0.29"/>
<stop offset="0.942951" stop-color="#CB48EF" stop-opacity="0.29"/>
</radialGradient>
<radialGradient id="paint26_diamond_217_2425" cx="0" cy="0" r="1" gradientUnits="userSpaceOnUse" gradientTransform="translate(76.2007 13.64) rotate(134.599) scale(14.6024 14.1508)">
<stop offset="0.358888" stop-color="#F699F0" stop-opacity="0.29"/>
<stop offset="0.942951" stop-color="#CB48EF" stop-opacity="0.29"/>
</radialGradient>
<radialGradient id="paint27_diamond_217_2425" cx="0" cy="0" r="1" gradientUnits="userSpaceOnUse" gradientTransform="translate(57.9475 13.5038) rotate(134.599) scale(14.6024 14.1508)">
<stop offset="0.358888" stop-color="#F699F0" stop-opacity="0.29"/>
<stop offset="0.942951" stop-color="#CB48EF" stop-opacity="0.29"/>
</radialGradient>
<radialGradient id="paint28_diamond_217_2425" cx="0" cy="0" r="1" gradientUnits="userSpaceOnUse" gradientTransform="translate(39.8305 13.5038) rotate(134.599) scale(14.6024 14.1508)">
<stop offset="0.358888" stop-color="#F699F0" stop-opacity="0.29"/>
<stop offset="0.942951" stop-color="#CB48EF" stop-opacity="0.29"/>
</radialGradient>
<radialGradient id="paint29_diamond_217_2425" cx="0" cy="0" r="1" gradientUnits="userSpaceOnUse" gradientTransform="translate(21.7136 13.5038) rotate(134.599) scale(14.6024 14.1508)">
<stop offset="0.358888" stop-color="#F699F0" stop-opacity="0.29"/>
<stop offset="0.942951" stop-color="#CB48EF" stop-opacity="0.29"/>
</radialGradient>
<linearGradient id="paint30_linear_217_2425" x1="34.4087" y1="19.6457" x2="57.1072" y2="74.7483" gradientUnits="userSpaceOnUse">
<stop stop-color="#0E0F11" stop-opacity="0"/>
<stop offset="0.463542" stop-color="#101114" stop-opacity="0.7"/>
<stop offset="1" stop-color="#16171B" stop-opacity="0"/>
</linearGradient>
<linearGradient id="paint31_linear_217_2425" x1="34.4087" y1="69.7935" x2="57.0701" y2="124.859" gradientUnits="userSpaceOnUse">
<stop stop-color="#0E0F11" stop-opacity="0"/>
<stop offset="0.46875" stop-color="#101114" stop-opacity="0.7"/>
<stop offset="1" stop-color="#16171B" stop-opacity="0"/>
</linearGradient>
</defs>
</svg>
