<svg width="50" height="50" viewBox="0 0 50 50" fill="none" xmlns="http://www.w3.org/2000/svg">
<circle cx="25" cy="25" r="23.5" fill="url(#paint0_linear_688_1391)" stroke="url(#paint1_linear_688_1391)" stroke-width="3"/>
<path d="M17.3701 18.3661C14.0378 21.8516 11.9357 22.9476 8 24.2164C11.6709 26.7875 12.8858 28.8329 16.2992 31.488C19.9469 34 21.4957 33.8899 25 34V27.092C19.5955 26.5884 16.5706 25.9339 11.1791 24.4808C16.7337 24.8816 19.7353 24.7448 25 24.2164V20.9772C24.7104 17.2548 19.9289 15.6335 17.3701 18.3661Z" fill="#FE76A8"/>
<path d="M32.6299 18.3661C35.9622 21.8516 38.0643 22.9476 42 24.2164C38.3291 26.7875 37.1142 28.8329 33.7008 31.488C30.0531 34 28.6476 33.8899 25 34V27.092C30.4045 26.5884 33.4293 25.9339 38.8209 24.4808C33.2663 24.8816 30.2647 24.7448 25 24.2164V20.9772C25.2896 17.2548 30.0711 15.6335 32.6299 18.3661Z" fill="#FE76A8"/>
<g filter="url(#filter0_d_688_1391)">
<rect x="28.2939" y="11.4191" width="7.39419" height="28.9616" rx="3.6971" transform="rotate(27 28.2939 11.4191)" fill="#E4E7CC"/>
<circle cx="22.3186" cy="32.8884" r="0.279911" transform="rotate(27 22.3186 32.8884)" fill="#787465"/>
<circle cx="27.458" cy="19.2624" r="0.298358" transform="rotate(27 27.458 19.2624)" fill="#787465"/>
<circle cx="20.739" cy="32.0836" r="0.279911" transform="rotate(27 20.739 32.0836)" fill="#787465"/>
<circle cx="21.4734" cy="34.3427" r="0.279911" transform="rotate(27 21.4734 34.3427)" fill="#787465"/>
<circle cx="21.8406" cy="35.472" r="0.279911" transform="rotate(27 21.8406 35.472)" fill="#787465"/>
<circle cx="19.7359" cy="32.4099" r="0.373215" transform="rotate(27 19.7359 32.4099)" fill="#787465"/>
<circle cx="20.0615" cy="33.4138" r="0.373215" transform="rotate(27 20.0615 33.4138)" fill="#787465"/>
<circle cx="20.4693" cy="34.6688" r="0.373215" transform="rotate(27 20.4693 34.6688)" fill="#787465"/>
<circle cx="20.8364" cy="35.7983" r="0.373215" transform="rotate(27 20.8364 35.7983)" fill="#787465"/>
<circle cx="28.9932" cy="16.2495" r="0.397811" transform="rotate(27 28.9932 16.2495)" fill="#787465"/>
<circle cx="29.3413" cy="17.3198" r="0.397811" transform="rotate(27 29.3413 17.3198)" fill="#787465"/>
<circle cx="29.8189" cy="18.791" r="0.397811" transform="rotate(27 29.8189 18.791)" fill="#787465"/>
<circle cx="31.0235" cy="18.4" r="0.397811" transform="rotate(27 31.0235 18.4)" fill="#787465"/>
<circle cx="30.6338" cy="16.9738" r="0.397811" transform="rotate(27 30.6338 16.9738)" fill="#787465"/>
<circle cx="30.1973" cy="15.8584" r="0.397811" transform="rotate(27 30.1973 15.8584)" fill="#787465"/>
<circle cx="30.167" cy="19.8612" r="0.397811" transform="rotate(27 30.167 19.8612)" fill="#787465"/>
<circle cx="19.707" cy="36.1652" r="0.373215" transform="rotate(27 19.707 36.1652)" fill="#787465"/>
<circle cx="19.3394" cy="35.0356" r="0.373215" transform="rotate(27 19.3394 35.0356)" fill="#787465"/>
<circle cx="18.9317" cy="33.7807" r="0.373215" transform="rotate(27 18.9317 33.7807)" fill="#787465"/>
<circle cx="22.6455" cy="33.8925" r="0.373215" transform="rotate(27 22.6455 33.8925)" fill="#787465"/>
<circle cx="27.0655" cy="18.2808" r="0.397811" transform="rotate(27 27.0655 18.2808)" fill="#787465"/>
<circle cx="21.0662" cy="33.0878" r="0.279911" transform="rotate(27 21.0662 33.0878)" fill="#787465"/>
<circle cx="27.8779" cy="16.686" r="0.298358" transform="rotate(27 27.8779 16.686)" fill="#787465"/>
<circle cx="28.6611" cy="19.0939" r="0.298358" transform="rotate(27 28.6611 19.0939)" fill="#787465"/>
<circle cx="29.0518" cy="20.2975" r="0.298358" transform="rotate(27 29.0518 20.2975)" fill="#787465"/>
<circle cx="28.2256" cy="17.756" r="0.298358" transform="rotate(27 28.2256 17.756)" fill="#787465"/>
<rect x="25.4009" y="20.631" width="4.18546" height="9.91837" rx="2.09273" transform="rotate(27 25.4009 20.631)" fill="#E4BE59"/>
</g>
<defs>
<filter id="filter0_d_688_1391" x="12.4204" y="12.6938" width="25.187" height="34.6125" filterUnits="userSpaceOnUse" color-interpolation-filters="sRGB">
<feFlood flood-opacity="0" result="BackgroundImageFix"/>
<feColorMatrix in="SourceAlpha" type="matrix" values="0 0 0 0 0 0 0 0 0 0 0 0 0 0 0 0 0 0 127 0" result="hardAlpha"/>
<feOffset dy="4"/>
<feGaussianBlur stdDeviation="2"/>
<feComposite in2="hardAlpha" operator="out"/>
<feColorMatrix type="matrix" values="0 0 0 0 0 0 0 0 0 0 0 0 0 0 0 0 0 0 0.25 0"/>
<feBlend mode="normal" in2="BackgroundImageFix" result="effect1_dropShadow_688_1391"/>
<feBlend mode="normal" in="SourceGraphic" in2="effect1_dropShadow_688_1391" result="shape"/>
</filter>
<linearGradient id="paint0_linear_688_1391" x1="25" y1="0" x2="25" y2="50" gradientUnits="userSpaceOnUse">
<stop stop-color="#0E0F11"/>
<stop offset="0.818393" stop-color="#2A2B2D"/>
<stop offset="1" stop-color="#0E0F11"/>
</linearGradient>
<linearGradient id="paint1_linear_688_1391" x1="25" y1="0" x2="25" y2="50" gradientUnits="userSpaceOnUse">
<stop stop-color="#F699F0"/>
<stop offset="0.5" stop-color="#CB48EF"/>
<stop offset="1" stop-color="#F699F0"/>
</linearGradient>
</defs>
</svg>
