<?xml version="1.0" encoding="UTF-8" standalone="no"?>
<svg
   width="50"
   height="50"
   viewBox="0 0 50 50"
   fill="none"
   version="1.1"
   id="svg55"
   sodipodi:docname="field_pantomime.svg"
   xml:space="preserve"
   inkscape:version="1.2.2 (732a01da63, 2022-12-09)"
   xmlns:inkscape="http://www.inkscape.org/namespaces/inkscape"
   xmlns:sodipodi="http://sodipodi.sourceforge.net/DTD/sodipodi-0.dtd"
   xmlns="http://www.w3.org/2000/svg"
   xmlns:svg="http://www.w3.org/2000/svg"><sodipodi:namedview
     id="namedview57"
     pagecolor="#ffffff"
     bordercolor="#000000"
     borderopacity="0.25"
     inkscape:showpageshadow="2"
     inkscape:pageopacity="0.0"
     inkscape:pagecheckerboard="0"
     inkscape:deskcolor="#d1d1d1"
     showgrid="false"
     inkscape:zoom="8"
     inkscape:cx="25.6875"
     inkscape:cy="27.5625"
     inkscape:window-width="1486"
     inkscape:window-height="1243"
     inkscape:window-x="2862"
     inkscape:window-y="46"
     inkscape:window-maximized="0"
     inkscape:current-layer="svg55" /><defs
     id="defs53"><linearGradient
       id="paint0_linear_217_2608"
       x1="25"
       y1="0"
       x2="25"
       y2="50"
       gradientUnits="userSpaceOnUse"><stop
         stop-color="#0E0F11"
         id="stop25"
         offset="0"
         style="stop-color:#000000;stop-opacity:1;" /><stop
         offset="0.818393"
         stop-color="#2A2B2D"
         id="stop27" /><stop
         offset="1"
         stop-color="#0E0F11"
         id="stop29"
         style="stop-color:#539a7b;stop-opacity:1;" /></linearGradient><linearGradient
       id="paint1_linear_217_2608"
       x1="25"
       y1="0"
       x2="25"
       y2="50"
       gradientUnits="userSpaceOnUse"><stop
         stop-color="#F699F0"
         id="stop32" /><stop
         offset="0.5"
         stop-color="#CB48EF"
         id="stop34" /><stop
         offset="1"
         stop-color="#F699F0"
         id="stop36" /></linearGradient><linearGradient
       id="paint2_linear_217_2608"
       x1="25"
       y1="3"
       x2="25"
       y2="47"
       gradientUnits="userSpaceOnUse"><stop
         stop-color="#0E0F11"
         id="stop39" /><stop
         offset="0.818393"
         stop-color="#2A2B2D"
         id="stop41" /><stop
         offset="1"
         stop-color="#0E0F11"
         id="stop43" /></linearGradient><linearGradient
       id="paint3_linear_217_2608"
       x1="25"
       y1="3"
       x2="25"
       y2="47"
       gradientUnits="userSpaceOnUse"><stop
         stop-color="#F699F0"
         id="stop46" /><stop
         offset="0.5"
         stop-color="#CB48EF"
         id="stop48" /><stop
         offset="1"
         stop-color="#F699F0"
         id="stop50" /></linearGradient><mask
       id="mask0_217_2608"
       maskUnits="userSpaceOnUse"
       x="3"
       y="3"
       width="44"
       height="44"
       style="mask-type:alpha"><circle
         id="Ellipse 30"
         cx="25"
         cy="25"
         r="20.5"
         fill="url(#paint2_linear_217_2608)"
         stroke="url(#paint3_linear_217_2608)"
         stroke-width="3" /></mask><linearGradient
       id="paint0_linear_416_2235"
       x1="32"
       y1="10"
       x2="32"
       y2="60"
       gradientUnits="userSpaceOnUse"><stop
         stop-color="#0E0F11"
         id="stop6352" /><stop
         offset="0.818393"
         stop-color="#2A2B2D"
         id="stop6354" /><stop
         offset="1"
         stop-color="#0E0F11"
         id="stop6356" /></linearGradient><linearGradient
       id="paint1_linear_416_2235"
       x1="32"
       y1="10"
       x2="32"
       y2="60"
       gradientUnits="userSpaceOnUse"><stop
         stop-color="#F699F0"
         id="stop6359" /><stop
         offset="0.5"
         stop-color="#CB48EF"
         id="stop6361" /><stop
         offset="1"
         stop-color="#F699F0"
         id="stop6363" /></linearGradient><filter
       id="mask-powermask-path-effect8258_inverse"
       inkscape:label="filtermask-powermask-path-effect8258"
       style="color-interpolation-filters:sRGB"
       height="100"
       width="100"
       x="-50"
       y="-50"><feColorMatrix
         id="mask-powermask-path-effect8258_primitive1"
         values="1"
         type="saturate"
         result="fbSourceGraphic" /><feColorMatrix
         id="mask-powermask-path-effect8258_primitive2"
         values="-1 0 0 0 1 0 -1 0 0 1 0 0 -1 0 1 0 0 0 1 0 "
         in="fbSourceGraphic" /></filter><filter
       id="mask-powermask-path-effect8284_inverse"
       inkscape:label="filtermask-powermask-path-effect8284"
       style="color-interpolation-filters:sRGB"
       height="100"
       width="100"
       x="-50"
       y="-50"><feColorMatrix
         id="mask-powermask-path-effect8284_primitive1"
         values="1"
         type="saturate"
         result="fbSourceGraphic" /><feColorMatrix
         id="mask-powermask-path-effect8284_primitive2"
         values="-1 0 0 0 1 0 -1 0 0 1 0 0 -1 0 1 0 0 0 1 0 "
         in="fbSourceGraphic" /></filter><filter
       id="mask-powermask-path-effect8384_inverse"
       inkscape:label="filtermask-powermask-path-effect8384"
       style="color-interpolation-filters:sRGB"
       height="100"
       width="100"
       x="-50"
       y="-50"><feColorMatrix
         id="mask-powermask-path-effect8384_primitive1"
         values="1"
         type="saturate"
         result="fbSourceGraphic" /><feColorMatrix
         id="mask-powermask-path-effect8384_primitive2"
         values="-1 0 0 0 1 0 -1 0 0 1 0 0 -1 0 1 0 0 0 1 0 "
         in="fbSourceGraphic" /></filter><clipPath
       clipPathUnits="userSpaceOnUse"
       id="clipPath8390"><g
         style="fill:none"
         id="g8394"
         transform="translate(1.1590706,2.988803)"
         clip-path="none"><circle
           cx="22"
           cy="22"
           r="22"
           fill="#a92727"
           id="circle8392"
           inkscape:label="circle7835"
           style="fill:#ac2424;fill-opacity:0" /></g></clipPath></defs><g
     style="display:inline;fill:none"
     id="g6381"
     transform="matrix(0.92,0,0,0.92,1.5115044,1.7591673)"
     mask="none"><path
       d="M 49,25.5 C 49,38.4787 38.4787,49 25.5,49 12.5213,49 2,38.4787 2,25.5 2,12.5213 12.5213,2 25.5,2 38.4787,2 49,12.5213 49,25.5 Z"
       fill="url(#paint0_linear_416_2235)"
       stroke="url(#paint1_linear_416_2235)"
       stroke-width="3"
       id="path6350"
       style="fill:url(#paint0_linear_416_2235);stroke:url(#paint1_linear_416_2235)" /></g><g
     style="fill:none"
     id="g4896"
     transform="matrix(0.92,0,0,0.92032669,3.6690736,2.217481)"
     mask="none"
     clip-path="url(#clipPath8390)"><path
       d="M 31.5105,5.41076 C 26.5588,4.02216 25.5765,1.12307 21.63,0.0632726 17.6836,-0.996523 15.5258,11.5023 16.9655,19.1686 c 1.4398,7.6664 8.7943,11.0011 8.7943,11.0011 0,0 6.0469,0.5824 10.6449,-4.7847 4.598,-5.3671 9.874,-17.79236 6.5529,-19.58983 -3.3212,-1.79748 -6.4955,1.0042 -11.4471,-0.38441 z"
       fill="#b0b5e9"
       id="path4866" /><path
       d="m 32.2619,12.6304 c 1.9945,3.2726 3.5948,3.7949 7.1685,2.768 0,0 -2.9437,2.8096 -5.1929,1.2543 -2.2492,-1.5552 -1.9756,-4.0223 -1.9756,-4.0223 z"
       fill="#000000"
       id="path4868" /><path
       d="m 21.0763,9.63478 c 1.9946,3.27262 3.5949,3.79502 7.1685,2.76802 0,0 -2.9437,2.8096 -5.1929,1.2543 -2.2491,-1.5552 -1.9756,-4.02232 -1.9756,-4.02232 z"
       fill="#000000"
       id="path4870" /><path
       d="m 20.6862,21.2912 c 6.2034,-2.2836 8.8767,-0.8692 12.0535,4.4449 0.9742,-0.0574 -0.4549,-6.0296 -4.725,-7.0879 -3.9665,-0.983 -7.8173,2.3903 -7.3285,2.643 z"
       fill="#000000"
       id="path4872" /><path
       d="m 12.8634,22.7405 c -5.02405,1.1233 -7.29906,-0.9362 -11.28038,0 -3.98132,0.9361 0.21416,12.8248 5.21361,18.816 4.99947,5.9912 13.08147,5.4295 13.08147,5.4295 0,0 5.5928,-2.3403 7.0146,-9.174 1.4219,-6.8337 0,-20.1266 -3.7917,-20.1266 -3.7917,0 -5.2136,3.9317 -10.2376,5.0551 z"
       fill="#f1efde"
       id="path4874" /><path
       d="m 24.741,30.5103 c -3.5389,-1.5386 -5.155,-1.0639 -7.4887,1.7786 0,0 0.6636,-4.1189 3.4126,-4.1189 2.749,0 4.0761,2.3403 4.0761,2.3403 z"
       fill="#000000"
       id="path4876" /><path
       d="m 13.1762,32.5697 c -3.53882,-1.5386 -5.15498,-1.0638 -7.48862,1.7787 0,0 0.66355,-4.119 3.41255,-4.119 2.74897,0 4.07607,2.3403 4.07607,2.3403 z"
       fill="#000000"
       id="path4878" /><path
       d="m 22.8362,36.4084 c -3.8331,5.2909 -6.8526,5.6038 -12.5127,2.9956 -0.77367,0.5837 3.8243,5.2292 7.9627,3.7444 3.844,-1.3791 5.0987,-6.8021 4.55,-6.74 z"
       fill="#000000"
       id="path4880" /></g></svg>
