<svg width="50" height="50" viewBox="0 0 50 50" fill="none" xmlns="http://www.w3.org/2000/svg">
<circle cx="25" cy="25" r="23.5" fill="url(#paint0_linear_430_2231)" stroke="url(#paint1_linear_430_2231)" stroke-width="3"/>
<path fill-rule="evenodd" clip-rule="evenodd" d="M20.7022 3.41957C18.7994 7.20674 18.0431 14.907 19.0552 20.2516C20.5026 27.8951 27.896 31.2198 27.896 31.2198C27.896 31.2198 33.9749 31.8005 38.5973 26.4495C40.8858 23.8001 43.3415 19.4258 44.8326 15.4665C43.1716 12.0174 40.6373 9.06803 37.5166 6.90525C36.3506 6.98389 35.0854 6.92657 33.6772 6.53492C31.0624 5.80769 29.5486 4.66492 28.1256 3.59068C27.9259 3.43993 27.728 3.29052 27.5291 3.14381C26.6992 3.04881 25.8553 3 24.9999 3C23.5292 3 22.0921 3.14432 20.7022 3.41957ZM34.4326 13.7329C36.4377 16.9958 38.0465 17.5165 41.6391 16.4927C41.6391 16.4927 38.6798 19.2939 36.4187 17.7432C34.1576 16.1926 34.4326 13.7329 34.4326 13.7329ZM30.3939 13.5061C26.8014 14.53 25.1926 14.0092 23.1875 10.7463C23.1875 10.7463 22.9125 13.2061 25.1736 14.7567C27.4347 16.3073 30.3939 13.5061 30.3939 13.5061ZM22.7958 22.3679C29.032 20.0912 31.7195 21.5012 34.9131 26.7995C35.8924 26.7423 34.4558 20.788 30.1631 19.7328C26.1756 18.7527 22.3044 22.116 22.7958 22.3679Z" fill="#B0B5E9"/>
<path fill-rule="evenodd" clip-rule="evenodd" d="M23.7317 46.9641C25.5081 45.7059 28.1238 43.1831 29.0351 38.8393C30.4645 32.026 29.0351 18.7728 25.2233 18.7728C23.2883 18.7728 21.9672 19.783 20.4747 20.9242C19.0271 22.0311 17.4182 23.2613 14.9315 23.8128C12.2785 24.4011 10.388 24.1138 8.61086 23.8437C7.00484 23.5997 5.4914 23.3697 3.5914 23.8128C3.37794 23.8625 3.18785 23.9434 3.02003 24.0527C3.00672 24.3668 3 24.6826 3 25C3 36.7246 12.1716 46.307 23.7317 46.9641ZM26.872 31.5594C23.3145 30.0254 21.6897 30.4988 19.3438 33.3327C19.3438 33.3327 20.0108 29.2261 22.7744 29.2261C25.5379 29.2261 26.872 31.5594 26.872 31.5594ZM7.71777 35.386C10.0638 32.552 11.6885 32.0786 15.2461 33.6127C15.2461 33.6127 13.9119 31.2793 11.1484 31.2793C8.38484 31.2794 7.71777 35.386 7.71777 35.386ZM24.9573 37.4398C21.1038 42.715 18.0683 43.027 12.3783 40.4265C11.6005 41.0085 16.2228 45.6401 20.3831 44.1598C24.2475 42.7848 25.5089 37.378 24.9573 37.4398Z" fill="#F1EFDE"/>
<defs>
<linearGradient id="paint0_linear_430_2231" x1="25" y1="0" x2="25" y2="50" gradientUnits="userSpaceOnUse">
<stop stop-color="#0E0F11"/>
<stop offset="0.818393" stop-color="#2A2B2D"/>
<stop offset="1" stop-color="#0E0F11"/>
</linearGradient>
<linearGradient id="paint1_linear_430_2231" x1="25" y1="0" x2="25" y2="50" gradientUnits="userSpaceOnUse">
<stop stop-color="#F699F0"/>
<stop offset="0.5" stop-color="#CB48EF"/>
<stop offset="1" stop-color="#F699F0"/>
</linearGradient>
</defs>
</svg>
