<svg width="50" height="50" viewBox="0 0 50 50" fill="none" xmlns="http://www.w3.org/2000/svg">
<circle cx="25" cy="25" r="23.5" fill="url(#paint0_linear_688_1391)" stroke="url(#paint1_linear_688_1391)" stroke-width="3"/>
<path d="M18.7165 19.2054C15.9723 22.2808 14.2411 23.2479 11 24.3674C14.0231 26.6361 15.0236 28.4408 17.8346 30.7835C20.8386 33 22.1141 32.9029 25 33V26.9047C20.5492 26.4603 18.0582 25.8829 13.6181 24.6007C18.1925 24.9544 20.6644 24.8336 25 24.3674V21.5093C24.7615 18.2249 20.8238 16.7942 18.7165 19.2054Z" fill="#FE76A8"/>
<path d="M31.2835 19.2054C34.0277 22.2808 35.7589 23.2479 39 24.3674C35.9769 26.6361 34.9764 28.4408 32.1654 30.7835C29.1614 33 28.0039 32.9029 25 33V26.9047C29.4508 26.4603 31.9418 25.8829 36.3819 24.6007C31.8075 24.9544 29.3356 24.8336 25 24.3674V21.5093C25.2385 18.2249 29.1762 16.7942 31.2835 19.2054Z" fill="#FE76A8"/>
<defs>
<linearGradient id="paint0_linear_688_1391" x1="25" y1="0" x2="25" y2="50" gradientUnits="userSpaceOnUse">
<stop stop-color="#0E0F11"/>
<stop offset="0.818393" stop-color="#2A2B2D"/>
<stop offset="1" stop-color="#0E0F11"/>
</linearGradient>
<linearGradient id="paint1_linear_688_1391" x1="25" y1="0" x2="25" y2="50" gradientUnits="userSpaceOnUse">
<stop stop-color="#F699F0"/>
<stop offset="0.5" stop-color="#CB48EF"/>
<stop offset="1" stop-color="#F699F0"/>
</linearGradient>
</defs>
</svg>
