<svg width="50" height="50" viewBox="0 0 50 50" fill="none" xmlns="http://www.w3.org/2000/svg">
<circle cx="25" cy="25" r="23.5" fill="url(#paint0_linear_431_2337)" stroke="url(#paint1_linear_431_2337)" stroke-width="3"/>
<path fill-rule="evenodd" clip-rule="evenodd" d="M3.09229 22.9739C3.36476 23.1129 3.67333 23.1913 4.00023 23.1913H14.0002C15.1048 23.1913 16.0002 22.2959 16.0002 21.1913V11.1913C16.0002 10.0868 15.1048 9.19135 14.0002 9.19135H9.70032C6.02355 12.7505 3.58473 17.5808 3.09229 22.9739Z" fill="#4F66D0"/>
<path d="M8.69 16.3313L8.62 16.5713H10.24L10.17 16.3313C9.97667 15.678 9.81667 15.1213 9.69 14.6613C9.57 14.2013 9.49667 13.9047 9.47 13.7713L9.43 13.5713C9.37667 13.938 9.13 14.858 8.69 16.3313ZM7.84 19.1913H6.23L8.48 12.4513H10.42L12.67 19.1913H11.02L10.61 17.8113H8.25L7.84 19.1913Z" fill="white"/>
<path fill-rule="evenodd" clip-rule="evenodd" d="M16.2905 4.79125C16.2801 4.98525 16.2981 5.18406 16.3475 5.3824L18.7667 15.0854C19.034 16.1571 20.1194 16.8093 21.1912 16.5421L30.8941 14.1229C31.9659 13.8557 32.6181 12.7702 32.3509 11.6985L30.3451 3.65384C28.6339 3.22672 26.8434 2.99998 24.9999 2.99998C21.9061 2.99998 18.9614 3.63861 16.2905 4.79125Z" fill="#05E39C"/>
<path d="M25.6327 11.4281L22.8091 12.1321L21.1785 5.59226L23.7207 4.95843C24.4387 4.77941 25.0281 4.81454 25.4887 5.06384C25.9478 5.30666 26.2426 5.69006 26.3733 6.21401C26.4587 6.55685 26.4432 6.88022 26.3266 7.18413C26.21 7.48803 26.0174 7.72155 25.7489 7.88469C26.5622 7.92239 27.068 8.33907 27.2664 9.13471C27.3954 9.6522 27.3143 10.1259 27.0229 10.5558C26.7365 10.9776 26.2731 11.2684 25.6327 11.4281ZM23.766 6.21479L22.9704 6.41317L23.3357 7.87831L23.8887 7.74042C24.2768 7.64365 24.5502 7.49992 24.7088 7.30922C24.8738 7.11692 24.9273 6.90433 24.8693 6.67146C24.7547 6.21218 24.387 6.05996 23.766 6.21479ZM24.424 8.854L23.6284 9.05237L24.0058 10.566L24.7917 10.3701C25.5292 10.1862 25.835 9.84201 25.7092 9.33745C25.5834 8.8329 25.155 8.67175 24.424 8.854Z" fill="white"/>
<path fill-rule="evenodd" clip-rule="evenodd" d="M41.0072 9.90785L33.8126 13.2627C32.8115 13.7295 32.3784 14.9195 32.8452 15.9206L37.0714 24.9837C37.5382 25.9847 38.7282 26.4179 39.7293 25.951L46.8728 22.62C46.3458 17.7217 44.2112 13.3049 41.0072 9.90785Z" fill="#FE76A8"/>
<path d="M44.8271 18.8293C44.5656 19.2308 44.0874 19.5935 43.3926 19.9176C42.4983 20.3345 41.6153 20.3969 40.7434 20.1047C39.8748 19.8035 39.2264 19.1938 38.7981 18.2754C38.3642 17.3449 38.3006 16.4514 38.6074 15.5949C38.9202 14.7355 39.5448 14.0874 40.4813 13.6507C41.1701 13.3296 41.7523 13.1978 42.228 13.2556L42.8535 14.5969C42.2707 14.5303 41.7014 14.6266 41.1455 14.8858C40.6561 15.114 40.3255 15.4778 40.1538 15.9771C39.9793 16.4704 40.0259 17.0041 40.2935 17.5781C40.5555 18.14 40.9302 18.5096 41.4175 18.687C41.9019 18.8583 42.407 18.8214 42.9326 18.5763C43.5006 18.3114 43.9193 17.9396 44.1889 17.4608L44.8271 18.8293Z" fill="white"/>
<path fill-rule="evenodd" clip-rule="evenodd" d="M9.08677 40.1913H14.9998C16.1044 40.1913 16.9998 39.2959 16.9998 38.1913V28.1913C16.9998 27.0868 16.1044 26.1913 14.9998 26.1913H4.99981C4.15189 26.1913 3.42722 26.719 3.13623 27.4639C3.68369 32.3764 5.84881 36.8005 9.08677 40.1913Z" fill="#FFC344"/>
<path d="M9.95 36.1913H7.65V29.4513H9.97C10.9833 29.4513 11.8133 29.7647 12.46 30.3913C13.1067 31.0113 13.43 31.7847 13.43 32.7113C13.43 33.7913 13.11 34.6413 12.47 35.2613C11.8367 35.8813 10.9967 36.1913 9.95 36.1913ZM9.92 30.7213H9.23V34.9313H9.93C10.55 34.9313 11.0267 34.738 11.36 34.3513C11.7 33.9647 11.87 33.418 11.87 32.7113C11.87 32.1113 11.7 31.6313 11.36 31.2713C11.02 30.9047 10.54 30.7213 9.92 30.7213Z" fill="white"/>
<path fill-rule="evenodd" clip-rule="evenodd" d="M21.6256 20.0207C20.6205 19.5627 19.4343 20.0062 18.9763 21.0113L14.8293 30.1109C14.3713 31.116 14.8148 32.3021 15.8199 32.7602L24.9195 36.9071C25.9246 37.3652 27.1107 36.9217 27.5688 35.9166L31.7157 26.817C32.1738 25.8119 31.7303 24.6257 30.7252 24.1677L21.6256 20.0207Z" fill="#0CACBA"/>
<path d="M23.7031 31.9568L19.8904 30.2193L22.6854 24.0861L26.4617 25.8071L25.9517 26.9264L23.5858 25.8482L22.9513 27.2404L25.0624 28.2025L24.5565 29.3127L22.4454 28.3506L21.8109 29.7428L24.2132 30.8376L23.7031 31.9568Z" fill="white"/>
<path fill-rule="evenodd" clip-rule="evenodd" d="M45 34.1779V32.1913C45 31.0868 44.1046 30.1913 43 30.1913H33C31.8954 30.1913 31 31.0868 31 32.1913V42.1913C31 43.2959 31.8954 44.1913 33 44.1913H35.764C39.8039 41.9206 43.0542 38.4112 45 34.1779Z" fill="#4F66D0"/>
<path d="M39.43 38.6513H37.2V41.1913H35.65V34.4513H39.76V35.6813H37.2V37.4213H39.43V38.6513Z" fill="white"/>
<defs>
<linearGradient id="paint0_linear_431_2337" x1="25" y1="0" x2="25" y2="50" gradientUnits="userSpaceOnUse">
<stop stop-color="#0E0F11"/>
<stop offset="0.818393" stop-color="#2A2B2D"/>
<stop offset="1" stop-color="#0E0F11"/>
</linearGradient>
<linearGradient id="paint1_linear_431_2337" x1="25" y1="0" x2="25" y2="50" gradientUnits="userSpaceOnUse">
<stop stop-color="#F699F0"/>
<stop offset="0.5" stop-color="#CB48EF"/>
<stop offset="1" stop-color="#F699F0"/>
</linearGradient>
</defs>
</svg>
