<svg width="50" height="50" viewBox="0 0 50 50" fill="none" xmlns="http://www.w3.org/2000/svg">
<circle cx="25" cy="25" r="23.5" fill="url(#paint0_linear_233_2560)" stroke="url(#paint1_linear_233_2560)" stroke-width="3"/>
<path d="M16.7678 42.9151C16.2549 42.6888 16.0187 42.0805 16.2401 41.5565L16.8917 40.0146L17.8203 40.4243L16.7678 42.9151Z" fill="#4C4A40"/>
<path d="M17.2084 40.3413C16.177 39.6959 15.7372 38.3946 16.1592 37.2365L17.1553 34.5021L19.8251 35.68L17.7201 40.6615L17.2084 40.3413Z" fill="#A19D8D"/>
<path d="M17.9683 35.1423C17.0596 34.7413 16.6054 33.6938 16.9254 32.7367L22.0985 17.2637L26.7415 19.3121L19.7248 35.9172L17.9683 35.1423Z" fill="#E4BE59"/>
<path d="M21.6512 13.7594C21.8194 12.2857 22.0732 11.1312 23.7549 9.26983C25.4366 7.40847 27.3135 7.04044 28.5007 7.00132C29.6878 6.96219 31.6031 7.80718 31.6031 7.80718L26.7415 19.3121L22.0985 17.2637C22.0985 17.2637 21.4829 15.2331 21.6512 13.7594Z" fill="#787465"/>
<path d="M16.7678 42.9151C17.2807 43.1413 17.8759 42.8999 18.0974 42.3759L18.7489 40.834L17.8203 40.4243L16.7678 42.9151Z" fill="#4C4A40"/>
<path d="M18.299 40.8225C19.466 41.147 20.6945 40.5817 21.2302 39.4737L22.4949 36.8579L19.8251 35.68L17.7201 40.6615L18.299 40.8225Z" fill="#A19D8D"/>
<path d="M21.4814 36.6922C22.3901 37.0931 23.4477 36.7125 23.9101 35.8182L31.3846 21.3606L26.7415 19.3121L19.7248 35.9172L21.4814 36.6922Z" fill="#E4BE59"/>
<path d="M34.1875 19.2903C35.1219 18.1546 35.7703 17.1742 35.943 14.6471C36.1157 12.12 35.0908 10.4717 34.3046 9.56192C33.5184 8.65218 31.6031 7.80718 31.6031 7.80718L26.7415 19.3121L31.3846 21.3606C31.3846 21.3606 33.2532 20.426 34.1875 19.2903Z" fill="#787465"/>
<path d="M23.4759 26.8774C23.0592 26.6936 22.8672 26.1994 23.0471 25.7736L23.7488 24.1131C23.9287 23.6873 24.4124 23.4912 24.8291 23.675C25.2458 23.8589 25.4377 24.3531 25.2578 24.7788L24.5561 26.4393C24.3762 26.8651 23.8926 27.0613 23.4759 26.8774Z" fill="#252020"/>
<path d="M22.1774 12.514C21.7287 12.316 21.522 11.7838 21.7157 11.3253L21.7658 11.2067C21.9596 10.7482 22.4805 10.5369 22.9292 10.7349L35.4656 16.2658C35.9143 16.4638 36.121 16.996 35.9273 17.4545L35.8771 17.5731C35.6834 18.0317 35.1625 18.2429 34.7138 18.0449L22.1774 12.514Z" fill="#B0AC9B"/>
<defs>
<linearGradient id="paint0_linear_233_2560" x1="25" y1="0" x2="25" y2="50" gradientUnits="userSpaceOnUse">
<stop stop-color="#0E0F11"/>
<stop offset="0.818393" stop-color="#2A2B2D"/>
<stop offset="1" stop-color="#0E0F11"/>
</linearGradient>
<linearGradient id="paint1_linear_233_2560" x1="25" y1="0" x2="25" y2="50" gradientUnits="userSpaceOnUse">
<stop stop-color="#F699F0"/>
<stop offset="0.5" stop-color="#CB48EF"/>
<stop offset="1" stop-color="#F699F0"/>
</linearGradient>
</defs>
</svg>
