<svg width="50" height="50" viewBox="0 0 50 50" fill="none" xmlns="http://www.w3.org/2000/svg">
<circle cx="25" cy="25" r="23.5" stroke="url(#paint0_linear_431_2546)" stroke-width="3"/>
<rect x="11" y="11" width="7" height="7" fill="white"/>
<rect x="18" y="4" width="7" height="7" fill="white"/>
<rect x="11" y="18" width="7" height="7" fill="black"/>
<rect x="18" y="11" width="7" height="7" fill="black"/>
<rect x="11" y="25" width="7" height="7" fill="white"/>
<rect x="18" y="18" width="7" height="7" fill="white"/>
<rect x="18" y="32" width="7" height="7" fill="white"/>
<rect x="11" y="32" width="7" height="7" fill="black"/>
<rect x="18" y="25" width="7" height="7" fill="black"/>
<rect x="18" y="39" width="7" height="7" fill="black"/>
<rect x="25" y="4" width="7" height="7" fill="black"/>
<rect x="25" y="11" width="7" height="7" fill="white"/>
<rect x="25" y="18" width="7" height="7" fill="black"/>
<rect x="32" y="11" width="7" height="7" fill="black"/>
<rect x="25" y="25" width="7" height="7" fill="white"/>
<rect x="32" y="18" width="7" height="7" fill="white"/>
<rect x="32" y="32" width="7" height="7" fill="white"/>
<rect x="4" y="25" width="7" height="7" fill="black"/>
<rect x="4" y="18" width="7" height="7" fill="white"/>
<path fill-rule="evenodd" clip-rule="evenodd" d="M41.9713 39H39V41.9713C40.0822 41.0775 41.0775 40.0822 41.9713 39Z" fill="white"/>
<path fill-rule="evenodd" clip-rule="evenodd" d="M47 25H46V31.5771C46.6498 29.5003 47 27.291 47 25Z" fill="black"/>
<path fill-rule="evenodd" clip-rule="evenodd" d="M45.8629 32H39V39H41.9713C43.6673 36.9465 44.9977 34.5799 45.8629 32Z" fill="black"/>
<path fill-rule="evenodd" clip-rule="evenodd" d="M46 18.4229V25H47C47 22.709 46.6498 20.4997 46 18.4229Z" fill="white"/>
<path fill-rule="evenodd" clip-rule="evenodd" d="M46 31.5771V25H39V32H45.8629C45.91 31.8597 45.9557 31.7187 46 31.5771Z" fill="white"/>
<path fill-rule="evenodd" clip-rule="evenodd" d="M45.8629 18H39V25H46V18.4229C45.9557 18.2813 45.91 18.1403 45.8629 18Z" fill="black"/>
<path fill-rule="evenodd" clip-rule="evenodd" d="M41.9713 11H39V18H45.8629C44.9977 15.4201 43.6673 13.0535 41.9713 11Z" fill="white"/>
<path fill-rule="evenodd" clip-rule="evenodd" d="M41.9713 11C41.0775 9.91779 40.0822 8.92249 39 8.02869V11H41.9713Z" fill="black"/>
<path fill-rule="evenodd" clip-rule="evenodd" d="M39 41.9713V39H32V45.8629C34.5799 44.9977 36.9465 43.6673 39 41.9713Z" fill="black"/>
<path fill-rule="evenodd" clip-rule="evenodd" d="M31.5771 46C29.5003 46.6498 27.291 47 25 47V46H31.5771Z" fill="black"/>
<path fill-rule="evenodd" clip-rule="evenodd" d="M32 45.8629V39H25V46H31.5771C31.7187 45.9557 31.8597 45.91 32 45.8629Z" fill="white"/>
<path fill-rule="evenodd" clip-rule="evenodd" d="M39 25H32V32H39V25Z" fill="black"/>
<path fill-rule="evenodd" clip-rule="evenodd" d="M32 32H25V39H32V32Z" fill="black"/>
<path fill-rule="evenodd" clip-rule="evenodd" d="M32 4.13708V11H39V8.02869C36.9465 6.33276 34.5799 5.00235 32 4.13708Z" fill="white"/>
<path fill-rule="evenodd" clip-rule="evenodd" d="M8.02881 11H11.0002V8.02869C9.91791 8.92249 8.92261 9.91779 8.02881 11Z" fill="white"/>
<path fill-rule="evenodd" clip-rule="evenodd" d="M25 3V4H31.5771C29.5003 3.35019 27.291 3 25 3Z" fill="white"/>
<path fill-rule="evenodd" clip-rule="evenodd" d="M25 47V46H18.4229C20.4997 46.6498 22.709 47 25 47Z" fill="white"/>
<path fill-rule="evenodd" clip-rule="evenodd" d="M18 45.8629V39H11V41.9713C13.0535 43.6673 15.4201 44.9977 18 45.8629Z" fill="white"/>
<path fill-rule="evenodd" clip-rule="evenodd" d="M18.4229 4H25V3C22.709 3 20.4997 3.35019 18.4229 4Z" fill="black"/>
<path fill-rule="evenodd" clip-rule="evenodd" d="M11 8.02869V11H18V4.13708C15.4201 5.00235 13.0535 6.33276 11 8.02869Z" fill="black"/>
<path fill-rule="evenodd" clip-rule="evenodd" d="M11.0002 41.9713V39H8.02881C8.92261 40.0822 9.91791 41.0775 11.0002 41.9713Z" fill="black"/>
<path fill-rule="evenodd" clip-rule="evenodd" d="M8.02881 39H11.0002V32H4.13721C5.00247 34.5799 6.33289 36.9465 8.02881 39Z" fill="white"/>
<path fill-rule="evenodd" clip-rule="evenodd" d="M3.82812 31H4V24H3.02231C3.00748 24.3315 3 24.6649 3 25C3 27.08 3.28867 29.0927 3.82812 31Z" fill="white"/>
<path fill-rule="evenodd" clip-rule="evenodd" d="M4.13721 18H11.0002V11H8.02881C6.33289 13.0535 5.00247 15.4201 4.13721 18Z" fill="black"/>
<path fill-rule="evenodd" clip-rule="evenodd" d="M3 25H4V18.4229C3.35019 20.4997 3 22.709 3 25Z" fill="black"/>
<defs>
<linearGradient id="paint0_linear_431_2546" x1="25" y1="0" x2="25" y2="50" gradientUnits="userSpaceOnUse">
<stop stop-color="#F699F0"/>
<stop offset="0.5" stop-color="#CB48EF"/>
<stop offset="1" stop-color="#F699F0"/>
</linearGradient>
</defs>
</svg>
