<svg width="50" height="50" viewBox="0 0 50 50" fill="none" xmlns="http://www.w3.org/2000/svg">
<circle cx="25" cy="25" r="23.5" fill="url(#paint0_linear_233_2566)" stroke="url(#paint1_linear_233_2566)" stroke-width="3"/>
<mask id="mask0_233_2566" style="mask-type:alpha" maskUnits="userSpaceOnUse" x="3" y="3" width="44" height="44">
<circle cx="25" cy="25" r="20.5" fill="url(#paint2_linear_233_2566)" stroke="url(#paint3_linear_233_2566)" stroke-width="3"/>
</mask>
<g mask="url(#mask0_233_2566)">
<path d="M2.81986 29.9453C2.81986 29.0341 3.55398 28.2955 4.45957 28.2955H15.3227C16.2282 28.2955 16.9624 29.0341 16.9624 29.9453V40.8754C16.9624 41.7866 16.2282 42.5253 15.3227 42.5253H4.45957C3.55398 42.5253 2.81986 41.7866 2.81986 40.8754V29.9453Z" fill="#FFC344"/>
<path d="M9.53243 38.8131H7.17534V31.8632H9.55292C10.5914 31.8632 11.442 32.1863 12.1047 32.8325C12.7674 33.4718 13.0988 34.2692 13.0988 35.2247C13.0988 36.3384 12.7709 37.2149 12.115 37.8542C11.4659 38.4935 10.6051 38.8131 9.53243 38.8131ZM9.50168 33.1728H8.79456V37.5139H9.51193C10.1473 37.5139 10.6358 37.3145 10.9774 36.9158C11.3259 36.5171 11.5001 35.9534 11.5001 35.2247C11.5001 34.6061 11.3259 34.1111 10.9774 33.7399C10.629 33.3618 10.1371 33.1728 9.50168 33.1728Z" fill="white"/>
<path d="M20.1966 21.3353C20.5794 20.5095 21.555 20.1522 22.3757 20.5373L32.221 25.1566C33.0417 25.5417 33.3968 26.5233 33.0141 27.3491L28.4232 37.2552C28.0405 38.081 27.0649 38.4382 26.2441 38.0532L16.3988 33.4339C15.5781 33.0488 15.223 32.0672 15.6057 31.2414L20.1966 21.3353Z" fill="#0CACBA"/>
<path d="M24.4627 33.2082L20.571 31.3823L23.4902 25.0835L27.3447 26.892L26.812 28.0415L24.3971 26.9085L23.7344 28.3383L25.8892 29.3493L25.3609 30.4895L23.206 29.4785L22.5434 30.9083L24.9954 32.0588L24.4627 33.2082Z" fill="white"/>
<path d="M32.1297 32.42C32.1297 31.5089 32.8638 30.7702 33.7694 30.7702H44.6325C45.5381 30.7702 46.2722 31.5089 46.2722 32.42V43.3502C46.2722 44.2613 45.5381 45 44.6325 45H33.7694C32.8638 45 32.1297 44.2613 32.1297 43.3502V32.42Z" fill="#4F66D0"/>
<path d="M41.1789 39.2875H38.8935V41.9066H37.305V34.9566H41.5171V36.225H38.8935V38.0191H41.1789V39.2875Z" fill="white"/>
<path d="M2 10.9722C2 10.061 2.73412 9.32238 3.63971 9.32238H14.5028C15.4084 9.32238 16.1425 10.061 16.1425 10.9722V21.9024C16.1425 22.8135 15.4084 23.5522 14.5028 23.5522H3.63971C2.73412 23.5522 2 22.8135 2 21.9024V10.9722Z" fill="#4F66D0"/>
<path d="M8.24115 17.3034L8.16942 17.5509H9.82962L9.75789 17.3034C9.55976 16.6298 9.39578 16.0558 9.26597 15.5814C9.14299 15.1071 9.06784 14.8012 9.04051 14.6637L8.99952 14.4575C8.94486 14.8356 8.69207 15.7842 8.24115 17.3034ZM7.37006 20.2525H5.7201L8.02594 13.3026H10.0141L12.3199 20.2525H10.629L10.2088 18.8295H7.79023L7.37006 20.2525Z" fill="white"/>
<path d="M16.157 4.90618C15.9226 4.02605 16.4417 3.12138 17.3164 2.88555L27.8094 0.0566261C28.6841 -0.179204 29.5832 0.343104 29.8176 1.22323L32.6292 11.7809C32.8636 12.6611 32.3445 13.5657 31.4697 13.8016L20.9768 16.6305C20.102 16.8663 19.2029 16.344 18.9686 15.4639L16.157 4.90618Z" fill="#05E39C"/>
<path d="M25.5864 11.1589L22.7058 11.9355L20.918 5.22242L23.5116 4.5232C24.2441 4.32571 24.8486 4.35133 25.3251 4.60006C25.7998 4.84215 26.1088 5.23211 26.252 5.76996C26.3457 6.12188 26.3356 6.45555 26.2215 6.77098C26.1075 7.0864 25.9143 7.33062 25.6421 7.50364C26.4761 7.52788 27.0019 7.94836 27.2194 8.76509C27.3608 9.29629 27.2862 9.78613 26.9954 10.2346C26.7094 10.6747 26.2397 10.9828 25.5864 11.1589ZM23.5805 5.81768L22.7687 6.03652L23.1693 7.5405L23.7335 7.38837C24.1295 7.28162 24.407 7.12852 24.5661 6.92906C24.7317 6.72782 24.7827 6.50768 24.7191 6.26864C24.5935 5.7972 24.214 5.64688 23.5805 5.81768ZM24.3019 8.52683L23.4902 8.74567L23.904 10.2994L24.7058 10.0833C25.4581 9.88044 25.7653 9.52006 25.6274 9.00214C25.4895 8.48421 25.0476 8.32578 24.3019 8.52683Z" fill="white"/>
<path d="M33.4376 16.6252C33.0549 15.7994 33.4099 14.8178 34.2307 14.4327L44.076 9.8134C44.8967 9.42832 45.8723 9.7856 46.255 10.6114L50.846 20.5175C51.2287 21.3433 50.8736 22.3249 50.0529 22.71L40.2076 27.3293C39.3868 27.7143 38.4112 27.3571 38.0285 26.5313L33.4376 16.6252Z" fill="#FE76A8"/>
<path d="M45.702 20.3432C45.434 20.7572 44.944 21.1312 44.2319 21.4653C43.3155 21.8953 42.4105 21.9596 41.517 21.6582C40.6268 21.3477 39.9623 20.719 39.5234 19.772C39.0787 18.8125 39.0136 17.8912 39.3279 17.008C39.6485 16.1218 40.2886 15.4536 41.2484 15.0033C41.9543 14.6721 42.5509 14.5363 43.0384 14.5958L43.6794 15.9789C43.0822 15.9102 42.4987 16.0095 41.9291 16.2768C41.4275 16.5121 41.0887 16.8872 40.9128 17.4021C40.7339 17.9108 40.7816 18.4611 41.0559 19.053C41.3244 19.6324 41.7084 20.0135 42.2077 20.1964C42.7042 20.373 43.2218 20.335 43.7605 20.0822C44.3426 19.8091 44.7717 19.4257 45.048 18.932L45.702 20.3432Z" fill="white"/>
</g>
<defs>
<linearGradient id="paint0_linear_233_2566" x1="25" y1="0" x2="25" y2="50" gradientUnits="userSpaceOnUse">
<stop stop-color="#0E0F11"/>
<stop offset="0.818393" stop-color="#2A2B2D"/>
<stop offset="1" stop-color="#0E0F11"/>
</linearGradient>
<linearGradient id="paint1_linear_233_2566" x1="25" y1="0" x2="25" y2="50" gradientUnits="userSpaceOnUse">
<stop stop-color="#F699F0"/>
<stop offset="0.5" stop-color="#CB48EF"/>
<stop offset="1" stop-color="#F699F0"/>
</linearGradient>
<linearGradient id="paint2_linear_233_2566" x1="25" y1="3" x2="25" y2="47" gradientUnits="userSpaceOnUse">
<stop stop-color="#0E0F11"/>
<stop offset="0.818393" stop-color="#2A2B2D"/>
<stop offset="1" stop-color="#0E0F11"/>
</linearGradient>
<linearGradient id="paint3_linear_233_2566" x1="25" y1="3" x2="25" y2="47" gradientUnits="userSpaceOnUse">
<stop stop-color="#F699F0"/>
<stop offset="0.5" stop-color="#CB48EF"/>
<stop offset="1" stop-color="#F699F0"/>
</linearGradient>
</defs>
</svg>
