<svg width="379" height="450" viewBox="0 0 379 450" fill="none" xmlns="http://www.w3.org/2000/svg">
<path d="M8 109L65.5 71.8135L91 145.5C69.2105 160.559 56.1271 165.29 32.5 172.5L8 109Z" fill="black"/>
<path d="M91 145.5C110.823 135.309 124.449 132.81 152 132.512L173.423 198C148.732 201.459 136.392 208.523 113 218.5L91 145.5Z" fill="black"/>
<path d="M173.423 198C198.169 190.266 213.427 188.323 242.423 188L263.5 261L195.5 266L173.423 198Z" fill="black"/>
<path d="M304 172.5C322.566 153.272 334.812 152.2 356.5 149.5L376.5 218.5L326.88 243.673L304 172.5Z" fill="black"/>
<path d="M222.5 132.512C251.293 128.83 263.196 121.706 281.5 105.5L304 172.5C284.982 186.601 271.187 188.44 242.423 188L222.5 132.512Z" fill="black"/>
<path d="M62 246.5C79.5498 234.204 89.8027 227.547 113 218.5L135 284.139L88.5 324.5L62 246.5Z" fill="black"/>
<path d="M130 60.5L197 56.6984L222.5 132.512C222.5 132.512 203.135 127.018 187.25 132.512C171.365 138.005 150.924 135.302 152 132.512L130 60.5Z" fill="black"/>
<path d="M259.5 39.5L317.5 5L334.5 71.8135L281.5 105.5L259.5 39.5Z" fill="black"/>
<path d="M65.5 71.8135L130 60.5L152 132.512C124.449 132.81 110.823 135.309 91 145.5L65.5 71.8135Z" fill="#D9D9D9"/>
<path d="M32.5 172.5C56.1271 165.29 69.2105 160.559 91 145.5L113 218.5C89.8027 227.547 79.5498 234.204 62 246.5L32.5 172.5Z" fill="#D9D9D9"/>
<path d="M113 218.5C136.392 208.523 148.732 201.459 173.423 198L195.5 266L135 284.139L113 218.5Z" fill="#D9D9D9"/>
<path d="M242.423 188C271.187 188.44 284.982 186.601 304 172.5L326.88 243.673L263.5 261L242.423 188Z" fill="#D9D9D9"/>
<path d="M152 132.512C150.924 135.302 171.365 138.005 187.25 132.512C203.135 127.018 222.5 132.512 222.5 132.512L242.423 188C213.427 188.323 198.169 190.266 173.423 198L152 132.512Z" fill="#D9D9D9"/>
<path d="M281.5 105.5L334.5 71.8135L356.5 149.5C334.812 152.2 322.566 153.272 304 172.5L281.5 105.5Z" fill="#D9D9D9"/>
<path d="M197 56.6984L259.5 39.5L281.5 105.5C263.196 121.706 251.293 128.83 222.5 132.512L197 56.6984Z" fill="#D9D9D9"/>
<path d="M5 102L10.1288 115.5M135.5 445.5L88.7707 322.5M88.7707 322.5L70.25 273.75L10.1288 115.5M88.7707 322.5C106.014 304 153.5 266.7 205.5 265.5C270.124 264.009 363.413 235.829 373.827 217.322C373.949 217.104 373.964 216.866 373.898 216.626L316.504 5.852C316.292 5.07163 315.291 4.83979 314.748 5.43925C298.96 22.8705 247.529 55.5549 156.5 57.5C116.864 58.3469 86.3054 65.5596 63.5 74.9997C32.4504 87.8524 15.7734 104.834 10.1288 115.5" stroke="black" stroke-width="9" stroke-linecap="round"/>
</svg>
