<svg width="254" height="423" viewBox="0 0 254 423" fill="none" xmlns="http://www.w3.org/2000/svg">
<path d="M68.8508 290.413V131.053C68.8508 130.759 68.8844 130.457 68.9519 130.171C75.6903 101.6 108.871 100.762 112.851 130.61V202.529C113.116 190.333 142.316 166.868 157.047 202.12C157.245 202.592 157.351 203.123 157.351 203.636V210.61C168.191 187.455 188.253 189.056 200.795 209.676C201.162 210.279 201.351 210.982 201.351 211.688V222.61C212.243 203.058 234.058 196.612 245.507 221.836C245.734 222.335 245.851 222.893 245.851 223.442V344.909C245.851 345.373 245.766 345.845 245.607 346.281C228.089 394.364 210.835 407.364 172.215 414.543C171.976 414.587 171.728 414.61 171.485 414.61H113.547C113.086 414.61 112.624 414.529 112.191 414.372C70.0539 399.014 47.8319 368.425 9.59016 299.542C9.43324 299.26 9.30471 298.945 9.22376 298.632C3.09294 274.925 20.9871 261.203 40.8503 275.11L62.2477 293.451C64.8424 295.674 68.8508 293.831 68.8508 290.413Z" fill="black"/>
<path d="M112.851 275.11V202.86M112.851 202.86V130.61C108.871 100.762 75.6903 101.6 68.9519 130.171C68.8844 130.457 68.8508 130.759 68.8508 131.053V290.413C68.8508 293.831 64.8424 295.675 62.2477 293.451L40.8503 275.11C20.9871 261.203 3.09294 274.925 9.22376 298.632C9.30471 298.945 9.43324 299.26 9.59016 299.542C47.8319 368.425 70.0539 399.014 112.191 414.372C112.624 414.529 113.086 414.61 113.547 414.61H171.485C171.728 414.61 171.976 414.587 172.215 414.543C210.835 407.364 228.089 394.364 245.607 346.281C245.766 345.845 245.851 345.373 245.851 344.909V223.442C245.851 222.893 245.734 222.335 245.507 221.836C234.058 196.612 212.243 203.058 201.351 222.61M112.851 202.86C112.582 190.766 142.181 166.546 157.047 202.12C157.245 202.592 157.351 203.123 157.351 203.636V210.61M157.351 275.11V210.61M157.351 210.61C168.191 187.455 188.253 189.056 200.795 209.676C201.162 210.279 201.351 210.982 201.351 211.688V222.61M201.351 275.11V222.61" stroke="#D9D9D9" stroke-width="15"/>
<path d="M174.001 83.2813C126.523 2.28548 54.7627 39.4702 54.7627 39.4702M54.7627 39.4702L76.7814 11.3557M54.7627 39.4702L85.6683 52.0438" stroke="#D9D9D9" stroke-width="15" stroke-linecap="round" stroke-linejoin="round"/>
</svg>
