<svg width="60" height="60" viewBox="0 0 60 60" fill="none" xmlns="http://www.w3.org/2000/svg">
<circle cx="25" cy="35" r="23.5" fill="url(#paint0_linear_352_2194)" stroke="url(#paint1_linear_352_2194)" stroke-width="3"/>
<rect x="44.0005" y="2.209" width="1.64539" height="21.2405" rx="0.822695" transform="rotate(13.6161 44.0005 2.209)" fill="#F8EC7D"/>
<path d="M45.3529 3.61403C46.7987 3.17052 47.7295 3.09262 49.1611 3.45913C50.5392 3.81193 51.281 4.46181 52.2583 5.28667C54.1273 7.3595 55.5351 7.73276 59.0183 6.9241L56.9407 15.5013C53.9982 16.3193 52.1745 16.1168 49.89 13.7935C48.8502 13.003 47.8212 11.2147 43.2753 12.1913L45.3529 3.61403Z" fill="#F50000"/>
<rect x="43.0005" y="25.0008" width="1.64539" height="21.2405" rx="0.822695" transform="rotate(13.6161 43.0005 25.0008)" fill="#F8EC7D"/>
<path d="M44.3529 26.4058C45.7987 25.9623 46.7295 25.8844 48.1611 26.2509C49.5392 26.6037 50.281 27.2536 51.2583 28.0785C53.1273 30.1513 54.5351 30.5246 58.0183 29.7159L55.9407 38.2931C52.9982 39.1111 51.1745 38.9086 48.89 36.5853C47.8502 35.7948 46.8212 34.0065 42.2753 34.9831L44.3529 26.4058Z" fill="#00A2AC"/>
<rect x="21" y="6.00084" width="1.64539" height="21.2405" rx="0.822695" fill="#F8EC7D"/>
<path d="M22.6455 7.04793C23.9462 6.27653 24.8326 5.98168 26.3102 6.00087C27.7326 6.01935 28.6066 6.47632 29.7506 7.04793C32.055 8.62253 33.5112 8.65387 36.7061 7.04793V15.8732C34.0388 17.3609 32.2187 17.5934 29.4514 15.8732C28.2548 15.3497 26.8338 13.8539 22.6455 15.8732V7.04793Z" fill="#01B310"/>
<rect x="0.000488281" y="9.6693" width="1.64539" height="21.2405" rx="0.822695" transform="rotate(-37.9957 0.000488281 9.6693)" fill="#F8EC7D"/>
<path d="M1.94199 9.48153C2.49214 8.07291 3.00913 7.29491 4.18543 6.40037C5.31772 5.53931 6.28778 5.36141 7.5412 5.10762C10.3265 4.9299 11.4934 4.05819 13.0225 0.825799L18.4554 7.78062C17.2693 10.595 15.978 11.8987 12.7383 12.2466C11.473 12.5707 9.43233 12.2667 7.37484 16.4364L1.94199 9.48153Z" fill="url(#paint2_linear_352_2194)"/>
<rect x="0.000488281" y="30.6693" width="1.64539" height="21.2405" rx="0.822695" transform="rotate(-37.9957 0.000488281 30.6693)" fill="#F8EC7D"/>
<path d="M1.94199 30.4815C2.49214 29.0729 3.00913 28.2949 4.18543 27.4004C5.31772 26.5393 6.28778 26.3614 7.5412 26.1076C10.3265 25.9299 11.4934 25.0582 13.0225 21.8258L18.4554 28.7806C17.2693 31.595 15.978 32.8987 12.7383 33.2466C11.473 33.5707 9.43233 33.2667 7.37484 37.4364L1.94199 30.4815Z" fill="#FFD335"/>
<rect x="21" y="29.0008" width="1.64539" height="21.2405" rx="0.822695" fill="#F8EC7D"/>
<path d="M22.6455 30.0479C23.9462 29.2765 24.8326 28.9817 26.3102 29.0009C27.7326 29.0193 28.6066 29.4763 29.7506 30.0479C32.055 31.6225 33.5112 31.6539 36.7061 30.0479V38.8732C34.0388 40.3609 32.2187 40.5934 29.4514 38.8732C28.2548 38.3497 26.8338 36.8539 22.6455 38.8732V30.0479Z" fill="#9400AC"/>
<defs>
<linearGradient id="paint0_linear_352_2194" x1="25" y1="10" x2="25" y2="60" gradientUnits="userSpaceOnUse">
<stop stop-color="#0E0F11"/>
<stop offset="0.818393" stop-color="#2A2B2D"/>
<stop offset="1" stop-color="#0E0F11"/>
</linearGradient>
<linearGradient id="paint1_linear_352_2194" x1="25" y1="10" x2="25" y2="60" gradientUnits="userSpaceOnUse">
<stop stop-color="#F699F0"/>
<stop offset="0.5" stop-color="#CB48EF"/>
<stop offset="1" stop-color="#F699F0"/>
</linearGradient>
<linearGradient id="paint2_linear_352_2194" x1="6.83715" y1="4.32783" x2="13.6566" y2="13.0577" gradientUnits="userSpaceOnUse">
<stop stop-color="white"/>
<stop offset="1" stop-color="white"/>
</linearGradient>
</defs>
</svg>
