<svg width="49" height="45" viewBox="0 0 49 45" fill="none" xmlns="http://www.w3.org/2000/svg">
<path d="M0.819856 29.9453C0.819856 29.0341 1.55398 28.2955 2.45957 28.2955H13.3227C14.2282 28.2955 14.9624 29.0341 14.9624 29.9453V40.8754C14.9624 41.7866 14.2282 42.5253 13.3227 42.5253H2.45957C1.55398 42.5253 0.819856 41.7866 0.819856 40.8754V29.9453Z" fill="#CEC0DB"/>
<path d="M7.53243 38.8131H5.17534V31.8632H7.55292C8.59141 31.8632 9.44201 32.1863 10.1047 32.8325C10.7674 33.4718 11.0988 34.2692 11.0988 35.2247C11.0988 36.3384 10.7709 37.2149 10.115 37.8542C9.46592 38.4935 8.60507 38.8131 7.53243 38.8131ZM7.50168 33.1728H6.79456V37.5139H7.51193C8.14732 37.5139 8.63582 37.3145 8.97742 36.9158C9.32586 36.5171 9.50008 35.9534 9.50008 35.2247C9.50008 34.6061 9.32586 34.1111 8.97742 33.7399C8.62898 33.3618 8.13707 33.1728 7.50168 33.1728Z" fill="white"/>
<path d="M18.1966 21.3353C18.5794 20.5095 19.555 20.1522 20.3757 20.5373L30.221 25.1566C31.0417 25.5417 31.3968 26.5233 31.0141 27.3491L26.4232 37.2552C26.0405 38.081 25.0649 38.4382 24.2441 38.0532L14.3988 33.4339C13.5781 33.0488 13.223 32.0672 13.6057 31.2414L18.1966 21.3353Z" fill="#847692"/>
<path d="M22.4627 33.2082L18.571 31.3823L21.4902 25.0835L25.3447 26.892L24.812 28.0415L22.3971 26.9085L21.7344 28.3383L23.8892 29.3493L23.3609 30.4895L21.206 29.4785L20.5434 30.9083L22.9954 32.0588L22.4627 33.2082Z" fill="white"/>
<path d="M30.1297 32.42C30.1297 31.5089 30.8638 30.7702 31.7694 30.7702H42.6325C43.5381 30.7702 44.2722 31.5089 44.2722 32.42V43.3502C44.2722 44.2613 43.5381 45 42.6325 45H31.7694C30.8638 45 30.1297 44.2613 30.1297 43.3502V32.42Z" fill="#726381"/>
<path d="M39.1789 39.2875H36.8935V41.9066H35.305V34.9566H39.5171V36.225H36.8935V38.0191H39.1789V39.2875Z" fill="white"/>
<path d="M0 10.9722C0 10.061 0.734124 9.32238 1.63971 9.32238H12.5028C13.4084 9.32238 14.1425 10.061 14.1425 10.9722V21.9024C14.1425 22.8135 13.4084 23.5522 12.5028 23.5522H1.63971C0.734124 23.5522 0 22.8135 0 21.9024V10.9722Z" fill="#726381"/>
<path d="M6.24115 17.3034L6.16942 17.5509H7.82962L7.75789 17.3034C7.55976 16.6298 7.39578 16.0558 7.26597 15.5814C7.14299 15.1071 7.06784 14.8012 7.04051 14.6637L6.99952 14.4575C6.94486 14.8356 6.69207 15.7842 6.24115 17.3034ZM5.37006 20.2525H3.7201L6.02594 13.3026H8.01409L10.3199 20.2525H8.62898L8.20881 18.8295H5.79023L5.37006 20.2525Z" fill="white"/>
<path d="M14.157 4.90618C13.9226 4.02605 14.4417 3.12138 15.3164 2.88555L25.8094 0.0566261C26.6841 -0.179204 27.5832 0.343104 27.8176 1.22323L30.6292 11.7809C30.8636 12.6611 30.3445 13.5657 29.4697 13.8016L18.9768 16.6305C18.102 16.8663 17.2029 16.344 16.9686 15.4639L14.157 4.90618Z" fill="#A090AF"/>
<path d="M23.5864 11.1589L20.7058 11.9355L18.918 5.22242L21.5116 4.5232C22.2441 4.32571 22.8486 4.35133 23.3251 4.60006C23.7998 4.84215 24.1088 5.23211 24.252 5.76996C24.3457 6.12188 24.3356 6.45555 24.2215 6.77098C24.1075 7.0864 23.9143 7.33062 23.6421 7.50364C24.4761 7.52788 25.0019 7.94836 25.2194 8.76509C25.3608 9.29629 25.2862 9.78613 24.9954 10.2346C24.7094 10.6747 24.2397 10.9828 23.5864 11.1589ZM21.5805 5.81768L20.7687 6.03652L21.1693 7.5405L21.7335 7.38837C22.1295 7.28162 22.407 7.12852 22.5661 6.92906C22.7317 6.72782 22.7827 6.50768 22.7191 6.26864C22.5935 5.7972 22.214 5.64688 21.5805 5.81768ZM22.3019 8.52683L21.4902 8.74567L21.904 10.2994L22.7058 10.0833C23.4581 9.88044 23.7653 9.52006 23.6274 9.00214C23.4895 8.48421 23.0476 8.32578 22.3019 8.52683Z" fill="white"/>
<path d="M31.4376 16.6252C31.0549 15.7994 31.4099 14.8178 32.2307 14.4327L42.076 9.8134C42.8967 9.42832 43.8723 9.7856 44.255 10.6114L48.846 20.5175C49.2287 21.3433 48.8736 22.3249 48.0529 22.71L38.2076 27.3293C37.3868 27.7143 36.4112 27.3571 36.0285 26.5313L31.4376 16.6252Z" fill="#AB9CBA"/>
<path d="M43.702 20.3432C43.434 20.7572 42.944 21.1312 42.2319 21.4653C41.3155 21.8953 40.4105 21.9596 39.517 21.6582C38.6268 21.3477 37.9623 20.719 37.5234 19.772C37.0787 18.8125 37.0136 17.8912 37.3279 17.008C37.6485 16.1218 38.2886 15.4536 39.2484 15.0033C39.9543 14.6721 40.5509 14.5363 41.0384 14.5958L41.6794 15.9789C41.0822 15.9102 40.4987 16.0095 39.9291 16.2768C39.4275 16.5121 39.0887 16.8872 38.9128 17.4021C38.7339 17.9108 38.7816 18.4611 39.0559 19.053C39.3244 19.6324 39.7084 20.0135 40.2077 20.1964C40.7042 20.373 41.2218 20.335 41.7605 20.0822C42.3426 19.8091 42.7717 19.4257 43.048 18.932L43.702 20.3432Z" fill="white"/>
</svg>
