<svg width="44" height="47" viewBox="0 0 44 47" fill="none" xmlns="http://www.w3.org/2000/svg">
<path d="M31.5105 5.41076C26.5588 4.02216 25.5765 1.12307 21.63 0.0632725C17.6836 -0.996523 15.5258 11.5023 16.9655 19.1686C18.4053 26.835 25.7598 30.1697 25.7598 30.1697C25.7598 30.1697 31.8067 30.7521 36.4047 25.385C41.0027 20.0179 46.2787 7.59264 42.9576 5.79517C39.6364 3.99769 36.4621 6.79937 31.5105 5.41076Z" fill="#BFB2CC"/>
<path d="M32.2619 12.6304C34.2564 15.903 35.8567 16.4253 39.4304 15.3984C39.4304 15.3984 36.4867 18.208 34.2375 16.6527C31.9883 15.0975 32.2619 12.6304 32.2619 12.6304Z" fill="#281C34"/>
<path d="M21.0763 9.63478C23.0709 12.9074 24.6712 13.4298 28.2448 12.4028C28.2448 12.4028 25.3011 15.2124 23.0519 13.6571C20.8028 12.1019 21.0763 9.63478 21.0763 9.63478Z" fill="#281C34"/>
<path d="M20.6862 21.2912C26.8896 19.0076 29.5629 20.422 32.7397 25.7361C33.7139 25.6787 32.2848 19.7065 28.0147 18.6482C24.0482 17.6652 20.1974 21.0385 20.6862 21.2912Z" fill="#281C34"/>
<path d="M12.8634 22.7405C7.83935 23.8638 5.56434 21.8043 1.58302 22.7405C-2.3983 23.6766 1.79718 35.5653 6.79663 41.5565C11.7961 47.5477 19.8781 46.986 19.8781 46.986C19.8781 46.986 25.4709 44.6457 26.8927 37.812C28.3146 30.9783 26.8927 17.6854 23.101 17.6854C19.3093 17.6854 17.8874 21.6171 12.8634 22.7405Z" fill="#F4E7FF"/>
<path d="M24.741 30.5103C21.2021 28.9717 19.586 29.4464 17.2523 32.2889C17.2523 32.2889 17.9159 28.17 20.6649 28.17C23.4139 28.17 24.741 30.5103 24.741 30.5103Z" fill="#281C34"/>
<path d="M13.1762 32.5697C9.63738 31.0311 8.02122 31.5059 5.68758 34.3484C5.68758 34.3484 6.35113 30.2294 9.10013 30.2294C11.8491 30.2294 13.1762 32.5697 13.1762 32.5697Z" fill="#281C34"/>
<path d="M22.8362 36.4084C19.0031 41.6993 15.9836 42.0122 10.3235 39.404C9.54983 39.9877 14.1478 44.6332 18.2862 43.1484C22.1302 41.7693 23.3849 36.3463 22.8362 36.4084Z" fill="#281C34"/>
</svg>
