<svg width="20" height="36" viewBox="0 0 20 36" fill="none" xmlns="http://www.w3.org/2000/svg">
<path d="M0.767804 35.9151C0.254942 35.6888 0.0186992 35.0805 0.24014 34.5565L0.891691 33.0146L1.82031 33.4243L0.767804 35.9151Z" fill="#4C4A40"/>
<path d="M1.20837 33.3413C0.176975 32.6959 -0.262766 31.3946 0.159163 30.2365L1.1553 27.5021L3.82508 28.68L1.72007 33.6615L1.20837 33.3413Z" fill="#A395B1"/>
<path d="M1.96832 28.1423C1.0596 27.7413 0.605435 26.6938 0.925413 25.7367L6.09845 10.2637L10.7415 12.3121L3.72484 28.9172L1.96832 28.1423Z" fill="#C5B7D3"/>
<path d="M5.65117 6.75941C5.81943 5.28573 6.07317 4.1312 7.75488 2.26983C9.43659 0.408468 11.3135 0.0404412 12.5007 0.00131782C13.6878 -0.0378056 15.6031 0.807184 15.6031 0.807184L10.7415 12.3121L6.09845 10.2637C6.09845 10.2637 5.48291 8.23309 5.65117 6.75941Z" fill="#7B6B89"/>
<path d="M0.767804 35.9151C1.28067 36.1413 1.87594 35.8999 2.09738 35.3759L2.74893 33.834L1.82031 33.4243L0.767804 35.9151Z" fill="#4C4A40"/>
<path d="M2.29905 33.8225C3.46605 34.147 4.69454 33.5817 5.23021 32.4737L6.49486 29.8579L3.82508 28.68L1.72007 33.6615L2.29905 33.8225Z" fill="#A395B1"/>
<path d="M5.48137 29.6922C6.39009 30.0931 7.44774 29.7125 7.91008 28.8182L15.3846 14.3606L10.7415 12.3121L3.72484 28.9172L5.48137 29.6922Z" fill="#C5B7D3"/>
<path d="M18.1875 12.2903C19.1219 11.1546 19.7703 10.1742 19.943 7.64708C20.1157 5.11996 19.0908 3.47166 18.3046 2.56192C17.5184 1.65218 15.6031 0.807184 15.6031 0.807184L10.7415 12.3121L15.3846 14.3606C15.3846 14.3606 17.2532 13.426 18.1875 12.2903Z" fill="#7B6B89"/>
<path d="M7.47587 19.8774C7.05917 19.6936 6.86722 19.1994 7.04714 18.7736L7.74881 17.1131C7.92873 16.6873 8.41239 16.4912 8.82909 16.675C9.24579 16.8589 9.43774 17.3531 9.25782 17.7788L8.55615 19.4393C8.37623 19.8651 7.89257 20.0613 7.47587 19.8774Z" fill="#252020"/>
<path d="M6.17742 5.51403C5.72867 5.31605 5.52196 4.78383 5.71572 4.3253L5.76584 4.20669C5.9596 3.74815 6.48046 3.53693 6.92921 3.73492L19.4656 9.2658C19.9143 9.46378 20.121 9.996 19.9273 10.4545L19.8771 10.5731C19.6834 11.0317 19.1625 11.2429 18.7138 11.0449L6.17742 5.51403Z" fill="#A395B1"/>
</svg>
