<svg width="56" height="56" viewBox="0 0 56 56" fill="none" xmlns="http://www.w3.org/2000/svg">
<g filter="url(#filter0_d_793_1477)">
<path d="M50.3425 24C50.3425 36.7156 40.1793 47 27.6712 47C15.1632 47 5 36.7156 5 24C5 11.2844 15.1632 1 27.6712 1C40.1793 1 50.3425 11.2844 50.3425 24Z" fill="url(#paint0_linear_793_1477)" stroke="url(#paint1_linear_793_1477)" stroke-width="2"/>
</g>
<path d="M18.035 24.71L17.93 25.07H20.36L20.255 24.71C19.965 23.73 19.725 22.895 19.535 22.205C19.355 21.515 19.245 21.07 19.205 20.87L19.145 20.57C19.065 21.12 18.695 22.5 18.035 24.71ZM16.76 29H14.345L17.72 18.89H20.63L24.005 29H21.53L20.915 26.93H17.375L16.76 29ZM27.5814 29H24.1314V18.89H27.6114C29.1314 18.89 30.3764 19.36 31.3464 20.3C32.3164 21.23 32.8014 22.39 32.8014 23.78C32.8014 25.4 32.3214 26.675 31.3614 27.605C30.4114 28.535 29.1514 29 27.5814 29ZM27.5364 20.795H26.5014V27.11H27.5514C28.4814 27.11 29.1964 26.82 29.6964 26.24C30.2064 25.66 30.4614 24.84 30.4614 23.78C30.4614 22.88 30.2064 22.16 29.6964 21.62C29.1864 21.07 28.4664 20.795 27.5364 20.795ZM39.4557 26.06C39.4557 26.97 39.1207 27.71 38.4507 28.28C37.7807 28.84 36.8907 29.12 35.7807 29.12C34.5907 29.12 33.6207 28.91 32.8707 28.49V26.165C33.7807 26.825 34.7507 27.155 35.7807 27.155C36.1307 27.155 36.4207 27.065 36.6507 26.885C36.8807 26.695 36.9957 26.45 36.9957 26.15C36.9957 26.05 36.9807 25.955 36.9507 25.865C36.9207 25.775 36.8657 25.69 36.7857 25.61C36.7057 25.53 36.6257 25.465 36.5457 25.415C36.4757 25.355 36.3657 25.29 36.2157 25.22C36.0757 25.14 35.9557 25.075 35.8557 25.025C35.7557 24.975 35.6057 24.905 35.4057 24.815C35.2157 24.725 35.0607 24.655 34.9407 24.605C34.2907 24.305 33.7657 23.935 33.3657 23.495C32.9757 23.055 32.7807 22.47 32.7807 21.74C32.7807 20.87 33.1007 20.17 33.7407 19.64C34.3807 19.1 35.2657 18.83 36.3957 18.83C37.4057 18.83 38.2757 19 39.0057 19.34V21.5C38.1957 21.03 37.3557 20.795 36.4857 20.795C36.0957 20.795 35.7957 20.875 35.5857 21.035C35.3857 21.195 35.2857 21.4 35.2857 21.65C35.2857 21.9 35.4107 22.125 35.6607 22.325C35.9107 22.515 36.2857 22.72 36.7857 22.94C37.0957 23.08 37.3507 23.205 37.5507 23.315C37.7607 23.415 37.9957 23.56 38.2557 23.75C38.5257 23.93 38.7357 24.125 38.8857 24.335C39.0457 24.535 39.1807 24.785 39.2907 25.085C39.4007 25.385 39.4557 25.71 39.4557 26.06Z" fill="#B04CCA"/>
<rect x="14.8789" y="34.9924" width="34" height="4" transform="rotate(-46.6648 14.8789 34.9924)" fill="#EC2323"/>
<defs>
<filter id="filter0_d_793_1477" x="0" y="0" width="55.3425" height="56" filterUnits="userSpaceOnUse" color-interpolation-filters="sRGB">
<feFlood flood-opacity="0" result="BackgroundImageFix"/>
<feColorMatrix in="SourceAlpha" type="matrix" values="0 0 0 0 0 0 0 0 0 0 0 0 0 0 0 0 0 0 127 0" result="hardAlpha"/>
<feOffset dy="4"/>
<feGaussianBlur stdDeviation="2"/>
<feComposite in2="hardAlpha" operator="out"/>
<feColorMatrix type="matrix" values="0 0 0 0 0 0 0 0 0 0 0 0 0 0 0 0 0 0 0.25 0"/>
<feBlend mode="normal" in2="BackgroundImageFix" result="effect1_dropShadow_793_1477"/>
<feBlend mode="normal" in="SourceGraphic" in2="effect1_dropShadow_793_1477" result="shape"/>
</filter>
<linearGradient id="paint0_linear_793_1477" x1="27.6712" y1="0" x2="27.6712" y2="48" gradientUnits="userSpaceOnUse">
<stop stop-color="#0E0F11"/>
<stop offset="0.818393" stop-color="#2A2B2D"/>
<stop offset="1" stop-color="#0E0F11"/>
</linearGradient>
<linearGradient id="paint1_linear_793_1477" x1="27.6712" y1="0" x2="27.6712" y2="48" gradientUnits="userSpaceOnUse">
<stop stop-color="#F699F0"/>
<stop offset="0.5" stop-color="#CB48EF"/>
<stop offset="1" stop-color="#F699F0"/>
</linearGradient>
</defs>
</svg>
