<svg width="40" height="37" viewBox="0 0 40 37" fill="none" xmlns="http://www.w3.org/2000/svg">
<path d="M12.7971 12.8044L15.3241 16.0175L19.3264 15.5119L17.1129 18.9197L18.8524 22.6284L14.9575 21.5215L12.0303 24.3192L11.8366 20.2273L8.28794 18.2476L12.0631 16.8256L12.7971 12.8044Z" fill="white"/>
<path fill-rule="evenodd" clip-rule="evenodd" d="M0.393535 6.72906C0.176192 5.8521 0.699515 4.96781 1.56241 4.75395L18.7489 0.494523C19.6118 0.280667 20.4875 0.818225 20.7049 1.69519L27.8447 30.504C28.0621 31.381 27.5388 32.2653 26.6759 32.4792L9.48934 36.7386C8.62644 36.9524 7.75073 36.4149 7.53339 35.5379L0.393535 6.72906ZM1.50954 6.45248C1.44745 6.20192 1.59697 5.94926 1.84351 5.88816L19.03 1.62873C19.2766 1.56763 19.5268 1.72122 19.5889 1.97178L26.7287 30.7806C26.7908 31.0312 26.6413 31.2838 26.3948 31.3449L9.20824 35.6044C8.9617 35.6655 8.7115 35.5119 8.6494 35.2613L1.50954 6.45248Z" fill="white"/>
<path d="M17.6599 34.9544L31.2487 33.4545C32.1326 33.357 32.7657 32.5504 32.6629 31.6531L29.2841 2.17368C29.1812 1.2763 28.3813 0.627921 27.4974 0.72548L20.8824 1.45561L21.166 2.59961L27.6304 1.88609C27.883 1.85821 28.1115 2.04346 28.1409 2.29986L31.5197 31.7792C31.5491 32.0356 31.3682 32.2661 31.1157 32.2939L26.2099 32.8354L17.6599 34.9544Z" fill="white"/>
<path d="M32.1271 36.1847L23.1673 34.573L27.2269 34.1192L32.3288 35.0369C32.5794 35.082 32.8187 34.913 32.8633 34.6594L37.9954 5.44725C38.04 5.19368 37.8729 4.95158 37.6222 4.90649L29.5962 3.4628L29.4594 2.2541L37.8239 3.75868C38.7012 3.91649 39.286 4.76386 39.1301 5.65134L33.9979 34.8635C33.842 35.751 33.0044 36.3425 32.1271 36.1847Z" fill="white"/>
<path d="M32.3273 17.6648L31.3877 18.2707L31.2814 17.343L32.3273 17.6648Z" fill="white"/>
<path d="M26.1381 15.6761L24.7958 17.246L24.4036 15.6635L26.1381 15.6761Z" fill="white"/>
</svg>
