<svg width="38" height="33" viewBox="0 0 38 33" fill="none" xmlns="http://www.w3.org/2000/svg">
<path d="M19.6899 24.2097C19.5741 21.7741 20.882 18.5477 22.8637 15.6301C26.4437 10.3594 32.2226 6.09647 35.7794 9.32316C39.9878 13.1409 32.507 19.602 25.6138 22.5998C23.4561 23.5382 21.3559 24.1373 19.6899 24.2097Z" fill="#AFA0BD"/>
<path d="M6.04786 7.09595C4.46543 7.16881 3.8534 6.10857 3.61005 4.13383H7.5918C7.5918 4.13383 8.01608 1.24435 5.88533 1.0198C4.73797 1.0198 4.48741 0.981687 3.61005 1.32361C2.30349 2.13273 1.81217 2.67137 1.65937 3.90597C1.41559 8.15928 2.47197 9.45046 5.30799 15.6785L5.31958 15.7026C5.78008 16.6583 7.85993 20.975 8.34006 25.0206C8.48177 26.2146 8.48413 27.385 8.26437 28.4384C7.97468 29.827 7.20806 31.3161 5.95688 31.9322C5.95688 31.9322 21.4869 32.1601 23.1934 31.7803C24.8998 31.4005 27.9877 28.4384 25.7937 23.0458C25.7937 23.0458 25.7297 22.8879 25.6138 22.5998C23.4561 23.5382 21.3559 24.1373 19.6899 24.2097C19.5741 21.7741 20.882 18.5477 22.8637 15.6301C21.7575 12.7704 20.5596 9.5939 19.6992 7.09595H6.04786Z" fill="#EADCF8"/>
<path d="M3.77217 31.8012C4.72403 31.9282 5.06302 31.9322 5.95688 31.9322C7.20806 31.3161 7.97468 29.827 8.26437 28.4384H4.74767C6.20994 26.8434 4.90985 25.1082 3.52839 25.0206C2.14693 24.933 0.87839 26.5129 1.00932 28.4384C1.27299 30.6015 2.0293 31.4018 3.77217 31.8012Z" fill="#EADCF8"/>
<path d="M3.52839 25.0206C4.90985 25.1082 6.20994 26.8434 4.74767 28.4384H8.26437C8.48413 27.385 8.48177 26.2146 8.34006 25.0206H3.52839Z" fill="#EADCF8"/>
<path d="M7.5918 4.13383C7.5918 4.13383 7.18973 6.99115 6.04786 7.09595H19.6992H24.1685C27.3281 5.47632 26.003 1.76319 23.0308 1.32361C20.0586 0.88402 5.88533 1.0198 5.88533 1.0198C8.01608 1.24435 7.5918 4.13383 7.5918 4.13383Z" fill="#EADCF8"/>
<path d="M3.61005 4.13383C3.8534 6.10857 4.46543 7.16881 6.04786 7.09595C7.18973 6.99115 7.5918 4.13383 7.5918 4.13383H3.61005Z" fill="#EADCF8"/>
<path d="M6.04786 7.09595C4.46543 7.16881 3.8534 6.10857 3.61005 4.13383H7.5918M6.04786 7.09595C7.18973 6.99115 7.5918 4.13383 7.5918 4.13383M6.04786 7.09595H19.6992M7.5918 4.13383C7.5918 4.13383 8.01608 1.24435 5.88533 1.0198M5.88533 1.0198C4.73797 1.0198 4.48741 0.981687 3.61005 1.32361C2.30349 2.13273 1.81217 2.67137 1.65937 3.90597C1.41559 8.15928 2.47197 9.45046 5.30799 15.6785L5.31958 15.7026C5.78008 16.6583 7.85993 20.975 8.34006 25.0206M5.88533 1.0198C5.88533 1.0198 20.0586 0.88402 23.0308 1.32361C26.003 1.76319 27.3281 5.47632 24.1685 7.09595H19.6992M5.95688 31.9322C5.06302 31.9322 4.72403 31.9282 3.77217 31.8012C2.0293 31.4018 1.27299 30.6015 1.00932 28.4384C0.87839 26.5129 2.14693 24.933 3.52839 25.0206M5.95688 31.9322C5.95688 31.9322 21.4869 32.1601 23.1934 31.7803C24.8998 31.4005 27.9877 28.4384 25.7937 23.0458C25.7937 23.0458 25.7297 22.8879 25.6138 22.5998M5.95688 31.9322C7.20806 31.3161 7.97468 29.827 8.26437 28.4384M3.52839 25.0206C4.90985 25.1082 6.20994 26.8434 4.74767 28.4384H8.26437M3.52839 25.0206H8.34006M19.6992 7.09595C20.5596 9.5939 21.7575 12.7704 22.8637 15.6301M8.26437 28.4384C8.48413 27.385 8.48177 26.2146 8.34006 25.0206M6.53499 10.7416H17.6677M8.24145 14.2354H19.1303M9.70414 17.6533H20.7555M10.7605 21.0711H18.8866M11.8169 24.4889H17.3426M11.4919 27.9068H14.8235M16.1144 27.5516L19.6899 24.2097M19.6899 24.2097L33.0166 11.7536M19.6899 24.2097C21.3559 24.1373 23.4561 23.5382 25.6138 22.5998M19.6899 24.2097C19.5741 21.7741 20.882 18.5477 22.8637 15.6301M25.6138 22.5998C32.507 19.602 39.9878 13.1409 35.7794 9.32316C32.2226 6.09647 26.4437 10.3594 22.8637 15.6301" stroke="black" stroke-linecap="round"/>
</svg>
