<svg width="263" height="148" viewBox="0 0 263 148" fill="none" xmlns="http://www.w3.org/2000/svg">
<path d="M31.3865 121.689L23.705 123.044L27.4905 144.512L12.3245 147.187L0.620605 80.8106L23.4681 76.7819C30.8214 75.4853 37.1277 76.5058 42.3872 79.8432C47.7122 83.169 50.9363 88.0161 52.0592 94.3846C53.3442 101.672 51.9434 107.741 47.8568 112.591C43.8359 117.429 38.3458 120.462 31.3865 121.689ZM23.8314 89.2076L17.9225 90.2495L21.5865 111.029L26.609 110.143C34.6188 108.731 37.9812 104.381 36.6962 97.0935C35.5385 90.5281 31.2503 87.8995 23.8314 89.2076Z" fill="url(#paint0_linear_292_2298)"/>
<path d="M75.0614 107.083L74.7888 109.568L90.7427 106.755L89.6365 104.513C86.5981 98.4148 84.0557 93.2106 82.0095 88.9004C80.029 84.5787 78.7916 81.7844 78.2975 80.5177L77.5563 78.6175C77.6678 82.3211 76.8361 91.8096 75.0614 107.083ZM71.6569 136.725L55.8014 139.52L66.2557 69.2373L85.361 65.8685L119.223 128.338L102.974 131.203L96.5397 118.324L73.2982 122.422L71.6569 136.725Z" fill="url(#paint1_linear_292_2298)"/>
<path d="M133.171 70.1313L125.686 71.451L128.985 90.1623L136.174 88.8947C142.74 87.7371 145.455 83.9412 144.321 77.5071C143.823 74.684 142.582 72.6351 140.597 71.3604C138.6 70.02 136.125 69.6103 133.171 70.1313ZM135.219 125.517L120.053 128.191L108.349 61.8151L131.295 57.7691C138.714 56.4609 145.003 57.3829 150.162 60.5349C155.387 63.6753 158.555 68.397 159.666 74.6997C161.333 84.1539 158.448 91.3984 151.009 96.4333L172.347 118.97L154.226 122.166L135.785 101.656L131.156 102.472L135.219 125.517Z" fill="url(#paint2_linear_292_2298)"/>
<path d="M207.335 56.9526L191.184 59.8004L200.734 113.965L185.47 116.656L175.919 62.492L159.67 65.3572L157.517 53.1456L205.181 44.741L207.335 56.9526Z" fill="url(#paint3_linear_292_2298)"/>
<path d="M251.053 105.092L235.887 107.767L231.598 83.4418L201.532 45.3844L219.259 42.2588L224.998 51.1979C227.979 55.8172 230.471 59.7779 232.475 63.0801C234.479 66.3823 235.77 68.5239 236.35 69.5049L237.12 70.9938C237.255 67.9236 238.894 60.3236 242.035 48.1938L244.667 37.7786L262.295 34.6703L246.746 80.6692L251.053 105.092Z" fill="url(#paint4_linear_292_2298)"/>
<path d="M76.1392 19.7534L68.0638 21.1773L72.8391 48.2596L65.2068 49.6053L60.4315 22.5231L52.3068 23.9557L51.2302 17.8499L75.0626 13.6476L76.1392 19.7534Z" fill="#B0B5E9"/>
<path d="M88.8395 45.4382L81.6504 46.7059L77.2485 21.741L84.4375 20.4734L88.8395 45.4382ZM82.0002 10.3935C82.9655 11.0694 83.5495 11.9819 83.7521 13.1308C83.9547 14.2798 83.718 15.3369 83.0421 16.3023C82.3661 17.2677 81.4536 17.8517 80.3047 18.0543C79.1557 18.2569 78.0986 18.0202 77.1332 17.3442C76.1678 16.6683 75.5838 15.7558 75.3813 14.6069C75.1787 13.4579 75.4154 12.4008 76.0913 11.4354C76.7673 10.47 77.6797 9.88601 78.8287 9.68342C79.9776 9.48083 81.0348 9.71751 82.0002 10.3935Z" fill="#B0B5E9"/>
<path d="M127.708 38.5846L120.519 39.8523L117.906 25.0309C117.657 23.6194 117.181 22.5524 116.478 21.8302C115.776 21.1079 114.899 20.8394 113.848 21.0246C112.732 21.2214 111.812 21.8575 111.088 22.933C110.391 23.9698 110.248 25.6535 110.659 27.9843L112.985 41.1807L105.796 42.4483L103.183 27.627C102.934 26.2154 102.458 25.1485 101.755 24.4262C101.053 23.7039 100.176 23.4354 99.1256 23.6206C98.0095 23.8174 97.0893 24.4536 96.365 25.529C95.6678 26.5658 95.5247 28.2496 95.9356 30.5803L98.2625 43.7767L91.0734 45.0444L86.6714 20.0795L93.8605 18.8118L94.5465 22.7018C95.439 19.7013 97.543 17.9087 100.859 17.3241C104.371 16.7047 106.98 17.8694 108.684 20.8182C108.982 19.2426 109.715 17.9287 110.883 16.8765C112.046 15.7915 113.513 15.0927 115.286 14.7801C117.748 14.346 119.824 14.7923 121.513 16.1191C123.229 17.4073 124.354 19.5614 124.886 22.5815L127.708 38.5846Z" fill="#B0B5E9"/>
<path d="M148.796 33.3939C147.286 34.811 144.775 35.8293 141.262 36.4486C137.159 37.1721 133.75 36.5547 131.035 34.5964C128.347 32.5994 126.674 29.7298 126.014 25.9875C125.313 22.0154 125.866 18.7194 127.672 16.0993C129.505 13.4407 132.046 11.8248 135.296 11.2518C138.644 10.6614 141.461 11.1802 143.745 12.8084C146.023 14.4036 147.504 17.1381 148.187 21.0116C148.32 21.7667 148.417 23.0865 148.479 24.9711L133.805 27.5584C134.54 28.8504 135.582 29.7667 136.93 30.3076C138.278 30.8484 139.805 30.9684 141.512 30.6674C144.04 30.2217 146.115 29.1281 147.737 27.3866L148.796 33.3939ZM136.555 16.6654C135.406 16.868 134.464 17.4742 133.728 18.4839C132.986 19.4609 132.613 20.7961 132.607 22.4895L141.273 20.9614L141.169 20.3706C140.424 17.4895 138.886 16.2544 136.555 16.6654Z" fill="#B0B5E9"/>
<path d="M174.617 29.755C173.495 30.4944 171.9 31.0464 169.831 31.411C164.152 32.4124 160.812 30.0736 159.811 24.3945L157.796 12.9707L154.202 13.6046L153.273 8.33584L156.867 7.70202L155.826 1.79317L163.015 0.525543L164.057 6.43439L169.867 5.40987L170.796 10.6786L164.986 11.7031L167.009 23.1761C167.165 24.0624 167.53 24.692 168.103 25.0647C168.709 25.4317 169.423 25.5428 170.244 25.3981C171.557 25.1666 172.664 24.6328 173.566 23.7969L174.617 29.755Z" fill="#B0B5E9"/>
<path d="M196.211 13.5084C196.876 17.2835 196.343 20.593 194.61 23.4371C192.905 26.2425 190.132 27.9839 186.291 28.6611C182.385 29.3499 179.159 28.7171 176.614 26.7626C174.064 24.7753 172.465 21.9433 171.816 18.2667C171.139 14.4259 171.699 11.0778 173.498 8.22214C175.29 5.33369 178.041 3.56243 181.75 2.90836C185.624 2.22534 188.839 2.8939 191.395 4.91402C193.951 6.93415 195.556 9.79894 196.211 13.5084ZM179.51 11.2237C178.96 12.7085 178.872 14.5178 179.249 16.6515C179.625 18.7853 180.328 20.4721 181.359 21.7119C182.417 22.9131 183.751 23.3719 185.359 23.0882C186.935 22.8104 187.985 21.9484 188.508 20.5022C189.059 19.0173 189.146 17.2081 188.769 15.0743C187.907 10.1831 185.884 8.01822 182.699 8.57968C181.124 8.85752 180.061 9.73885 179.51 11.2237Z" fill="#B0B5E9"/>
<defs>
<linearGradient id="paint0_linear_292_2298" x1="151.201" y1="-31.6488" x2="185.734" y2="118.581" gradientUnits="userSpaceOnUse">
<stop stop-color="#F7B1EF"/>
<stop offset="0.376935" stop-color="#ED40F2"/>
<stop offset="1" stop-color="#8554AF"/>
</linearGradient>
<linearGradient id="paint1_linear_292_2298" x1="151.201" y1="-31.6488" x2="185.734" y2="118.581" gradientUnits="userSpaceOnUse">
<stop stop-color="#F7B1EF"/>
<stop offset="0.376935" stop-color="#ED40F2"/>
<stop offset="1" stop-color="#8554AF"/>
</linearGradient>
<linearGradient id="paint2_linear_292_2298" x1="151.201" y1="-31.6488" x2="185.734" y2="118.581" gradientUnits="userSpaceOnUse">
<stop stop-color="#F7B1EF"/>
<stop offset="0.376935" stop-color="#ED40F2"/>
<stop offset="1" stop-color="#8554AF"/>
</linearGradient>
<linearGradient id="paint3_linear_292_2298" x1="151.201" y1="-31.6488" x2="185.734" y2="118.581" gradientUnits="userSpaceOnUse">
<stop stop-color="#F7B1EF"/>
<stop offset="0.376935" stop-color="#ED40F2"/>
<stop offset="1" stop-color="#8554AF"/>
</linearGradient>
<linearGradient id="paint4_linear_292_2298" x1="151.201" y1="-31.6488" x2="185.734" y2="118.581" gradientUnits="userSpaceOnUse">
<stop stop-color="#F7B1EF"/>
<stop offset="0.376935" stop-color="#ED40F2"/>
<stop offset="1" stop-color="#8554AF"/>
</linearGradient>
</defs>
</svg>
