<svg width="297" height="154" viewBox="0 0 297 154" fill="none" xmlns="http://www.w3.org/2000/svg">
<g filter="url(#filter0_f_292_2292)">
<path d="M13.596 76.2142L15.5418 79.7628L19.5022 80.5956L15.9536 82.5414L15.1207 86.5018L13.175 82.9532L9.21458 82.1203L12.7632 80.1746L13.596 76.2142Z" fill="white"/>
<path d="M12.8922 71.466L16.634 78.2903L24.2502 79.8919L17.426 83.6338L15.8243 91.2499L12.0825 84.4257L4.46631 82.824L11.2906 79.0822L12.8922 71.466Z" fill="white"/>
<path d="M79.2984 49.107L80.2712 50.8813L82.2514 51.2978L80.4771 52.2706L80.0607 54.2509L79.0878 52.4765L77.1076 52.0601L78.8819 51.0872L79.2984 49.107Z" fill="white"/>
<path d="M78.9461 46.733L80.817 50.1452L84.6251 50.946L81.213 52.8169L80.4122 56.625L78.5413 53.2128L74.7332 52.412L78.1453 50.5411L78.9461 46.733Z" fill="white"/>
<path d="M129.298 117.107L130.271 118.881L132.251 119.298L130.477 120.271L130.061 122.251L129.088 120.477L127.108 120.06L128.882 119.087L129.298 117.107Z" fill="white"/>
<path d="M128.946 114.733L130.817 118.145L134.625 118.946L131.213 120.817L130.412 124.625L128.541 121.213L124.733 120.412L128.145 118.541L128.946 114.733Z" fill="white"/>
<path d="M179.298 36.107L180.271 37.8813L182.251 38.2978L180.477 39.2706L180.061 41.2509L179.088 39.4765L177.108 39.0601L178.882 38.0872L179.298 36.107Z" fill="white"/>
<path d="M178.946 33.733L180.817 37.1452L184.625 37.946L181.213 39.8169L180.412 43.625L178.541 40.2128L174.733 39.412L178.145 37.5411L178.946 33.733Z" fill="white"/>
<path d="M127.298 7.10705L128.271 8.88136L130.251 9.29778L128.477 10.2707L128.061 12.2509L127.088 10.4766L125.108 10.0601L126.882 9.08726L127.298 7.10705Z" fill="white"/>
<path d="M126.946 4.73303L128.817 8.14516L132.625 8.94598L129.213 10.8169L128.412 14.625L126.541 11.2129L122.733 10.412L126.145 8.54113L126.946 4.73303Z" fill="white"/>
<path d="M60.2985 142.107L61.2713 143.881L63.2516 144.298L61.4772 145.271L61.0608 147.251L60.0879 145.477L58.1077 145.06L59.882 144.087L60.2985 142.107Z" fill="white"/>
<path d="M59.9462 139.733L61.8171 143.145L65.6252 143.946L62.2131 145.817L61.4123 149.625L59.5414 146.213L55.7333 145.412L59.1454 143.541L59.9462 139.733Z" fill="white"/>
<path d="M52.6494 102.553L53.1358 103.441L54.1259 103.649L53.2388 104.135L53.0305 105.125L52.5441 104.238L51.554 104.03L52.4412 103.544L52.6494 102.553Z" fill="white"/>
<path d="M52.4732 101.366L53.4087 103.073L55.3127 103.473L53.6067 104.408L53.2063 106.312L52.2708 104.606L50.3668 104.206L52.0728 103.271L52.4732 101.366Z" fill="white"/>
<path d="M231.649 89.5535L232.136 90.4407L233.126 90.6489L232.239 91.1353L232.031 92.1254L231.544 91.2383L230.554 91.03L231.441 90.5436L231.649 89.5535Z" fill="white"/>
<path d="M231.473 88.3665L232.409 90.0726L234.313 90.473L232.607 91.4084L232.206 93.3125L231.271 91.6064L229.367 91.206L231.073 90.2705L231.473 88.3665Z" fill="white"/>
<path d="M224.348 30.0534L224.835 30.9406L225.825 31.1488L224.938 31.6352L224.73 32.6253L224.243 31.7382L223.253 31.5299L224.14 31.0435L224.348 30.0534Z" fill="white"/>
<path d="M224.172 28.8664L225.108 30.5725L227.012 30.9729L225.306 31.9083L224.905 33.8124L223.97 32.1063L222.066 31.7059L223.772 30.7704L224.172 28.8664Z" fill="white"/>
<path d="M125.649 58.5535L126.136 59.4407L127.126 59.6489L126.239 60.1353L126.03 61.1254L125.544 60.2383L124.554 60.0301L125.441 59.5436L125.649 58.5535Z" fill="white"/>
<path d="M125.473 57.3665L126.409 59.0726L128.313 59.473L126.607 60.4084L126.206 62.3125L125.271 60.6064L123.367 60.206L125.073 59.2706L125.473 57.3665Z" fill="white"/>
<path d="M254.649 47.5535L255.136 48.4407L256.126 48.6489L255.239 49.1353L255.031 50.1254L254.544 49.2383L253.554 49.03L254.441 48.5436L254.649 47.5535Z" fill="white"/>
<path d="M254.473 46.3665L255.409 48.0726L257.313 48.473L255.607 49.4084L255.206 51.3125L254.271 49.6064L252.367 49.206L254.073 48.2705L254.473 46.3665Z" fill="white"/>
<path d="M281.596 81.2141L283.542 84.7628L287.502 85.5956L283.954 87.5414L283.121 91.5018L281.175 87.9532L277.215 87.1203L280.763 85.1746L281.596 81.2141Z" fill="white"/>
<path d="M280.892 76.466L284.634 83.2903L292.25 84.8919L285.426 88.6337L283.824 96.2499L280.082 89.4257L272.466 87.824L279.291 84.0822L280.892 76.466Z" fill="white"/>
</g>
<defs>
<filter id="filter0_f_292_2292" x="0.466309" y="0.733032" width="295.784" height="152.892" filterUnits="userSpaceOnUse" color-interpolation-filters="sRGB">
<feFlood flood-opacity="0" result="BackgroundImageFix"/>
<feBlend mode="normal" in="SourceGraphic" in2="BackgroundImageFix" result="shape"/>
<feGaussianBlur stdDeviation="2" result="effect1_foregroundBlur_292_2292"/>
</filter>
</defs>
</svg>
