<svg width="93" height="146" viewBox="0 0 93 146" fill="none" xmlns="http://www.w3.org/2000/svg">
<rect width="93" height="146" rx="15" fill="url(#paint0_linear_374_2242)"/>
<path d="M73.8114 118.384L76.3564 123.934L82.4265 124.637L77.9294 128.77L79.1358 134.755L73.8114 131.759L68.487 134.755L69.6934 128.77L65.1963 124.637L71.2663 123.934L73.8114 118.384Z" fill="#434347"/>
<path d="M55.5584 118.248L58.1035 123.798L64.1735 124.501L59.6765 128.634L60.8829 134.619L55.5584 131.623L50.234 134.619L51.4404 128.634L46.9434 124.501L53.0134 123.798L55.5584 118.248Z" fill="#434347"/>
<path d="M55.5584 118.248L58.1035 123.798L64.1735 124.501L59.6765 128.634L60.8829 134.619L55.5584 131.623L50.234 134.619L51.4404 128.634L46.9434 124.501L53.0134 123.798L55.5584 118.248Z" fill="#434347"/>
<path d="M37.4413 118.248L39.9863 123.798L46.0563 124.501L41.5593 128.634L42.7657 134.619L37.4413 131.623L32.1168 134.619L33.3232 128.634L28.8262 124.501L34.8962 123.798L37.4413 118.248Z" fill="#434347"/>
<path d="M19.3246 118.248L21.8696 123.798L27.9396 124.501L23.4426 128.634L24.649 134.619L19.3246 131.623L14.0001 134.619L15.2065 128.634L10.7095 124.501L16.7795 123.798L19.3246 118.248Z" fill="#434347"/>
<path d="M73.8114 100.285L76.3564 105.835L82.4265 106.538L77.9294 110.671L79.1358 116.656L73.8114 113.66L68.487 116.656L69.6934 110.671L65.1963 106.538L71.2663 105.835L73.8114 100.285Z" fill="#434347"/>
<path d="M55.5584 100.149L58.1035 105.699L64.1735 106.402L59.6765 110.535L60.8829 116.52L55.5584 113.524L50.234 116.52L51.4404 110.535L46.9434 106.402L53.0134 105.699L55.5584 100.149Z" fill="#434347"/>
<path d="M37.4413 100.149L39.9863 105.699L46.0563 106.402L41.5593 110.535L42.7657 116.52L37.4413 113.524L32.1168 116.52L33.3232 110.535L28.8262 106.402L34.8962 105.699L37.4413 100.149Z" fill="#434347"/>
<path d="M19.3246 100.149L21.8696 105.699L27.9396 106.402L23.4426 110.535L24.649 116.52L19.3246 113.524L14.0001 116.52L15.2065 110.535L10.7095 106.402L16.7795 105.699L19.3246 100.149Z" fill="#434347"/>
<path d="M73.8114 82.1858L76.3564 87.7358L82.4265 88.4389L77.9294 92.5721L79.1358 98.5566L73.8114 95.5611L68.487 98.5566L69.6934 92.5721L65.1963 88.4389L71.2663 87.7358L73.8114 82.1858Z" fill="#434347"/>
<path d="M55.5584 82.0496L58.1035 87.5996L64.1735 88.3027L59.6765 92.4359L60.8829 98.4205L55.5584 95.4249L50.234 98.4205L51.4404 92.4359L46.9434 88.3027L53.0134 87.5996L55.5584 82.0496Z" fill="#434347"/>
<path d="M37.4413 82.0496L39.9863 87.5996L46.0563 88.3027L41.5593 92.4359L42.7657 98.4205L37.4413 95.4249L32.1168 98.4205L33.3232 92.4359L28.8262 88.3027L34.8962 87.5996L37.4413 82.0496Z" fill="#434347"/>
<path d="M19.3246 82.0496L21.8696 87.5996L27.9396 88.3027L23.4426 92.4359L24.649 98.4205L19.3246 95.4249L14.0001 98.4205L15.2065 92.4359L10.7095 88.3027L16.7795 87.5996L19.3246 82.0496Z" fill="#434347"/>
<path d="M73.8114 64.0866L76.3564 69.6366L82.4265 70.3397L77.9294 74.4729L79.1358 80.4575L73.8114 77.4619L68.487 80.4575L69.6934 74.4729L65.1963 70.3397L71.2663 69.6366L73.8114 64.0866Z" fill="#434347"/>
<path d="M55.5584 63.9504L58.1035 69.5005L64.1735 70.2036L59.6765 74.3367L60.8829 80.3213L55.5584 77.3257L50.234 80.3213L51.4404 74.3367L46.9434 70.2036L53.0134 69.5005L55.5584 63.9504Z" fill="#434347"/>
<path d="M37.4413 63.9504L39.9863 69.5005L46.0563 70.2036L41.5593 74.3367L42.7657 80.3213L37.4413 77.3257L32.1168 80.3213L33.3232 74.3367L28.8262 70.2036L34.8962 69.5005L37.4413 63.9504Z" fill="#434347"/>
<path d="M19.3246 63.9504L21.8696 69.5005L27.9396 70.2036L23.4426 74.3367L24.649 80.3213L19.3246 77.3257L14.0001 80.3213L15.2065 74.3367L10.7095 70.2036L16.7795 69.5005L19.3246 63.9504Z" fill="#434347"/>
<path d="M73.8114 45.9874L76.3564 51.5374L82.4265 52.2405L77.9294 56.3737L79.1358 62.3583L73.8114 59.3627L68.487 62.3583L69.6934 56.3737L65.1963 52.2405L71.2663 51.5374L73.8114 45.9874Z" fill="#434347"/>
<path d="M55.5584 45.8513L58.1035 51.4013L64.1735 52.1044L59.6765 56.2376L60.8829 62.2221L55.5584 59.2265L50.234 62.2221L51.4404 56.2376L46.9434 52.1044L53.0134 51.4013L55.5584 45.8513Z" fill="#434347"/>
<path d="M37.4413 45.8513L39.9863 51.4013L46.0563 52.1044L41.5593 56.2376L42.7657 62.2221L37.4413 59.2265L32.1168 62.2221L33.3232 56.2376L28.8262 52.1044L34.8962 51.4013L37.4413 45.8513Z" fill="#434347"/>
<path d="M19.3246 45.8513L21.8696 51.4013L27.9396 52.1044L23.4426 56.2376L24.649 62.2221L19.3246 59.2265L14.0001 62.2221L15.2065 56.2376L10.7095 52.1044L16.7795 51.4013L19.3246 45.8513Z" fill="#434347"/>
<path d="M73.8114 27.8882L76.3564 33.4383L82.4265 34.1414L77.9294 38.2745L79.1358 44.2591L73.8114 41.2635L68.487 44.2591L69.6934 38.2745L65.1963 34.1414L71.2663 33.4383L73.8114 27.8882Z" fill="#434347"/>
<path d="M55.5584 27.7521L58.1035 33.3021L64.1735 34.0052L59.6765 38.1384L60.8829 44.1229L55.5584 41.1274L50.234 44.1229L51.4404 38.1384L46.9434 34.0052L53.0134 33.3021L55.5584 27.7521Z" fill="#434347"/>
<path d="M37.4413 27.7521L39.9863 33.3021L46.0563 34.0052L41.5593 38.1384L42.7657 44.1229L37.4413 41.1274L32.1168 44.1229L33.3232 38.1384L28.8262 34.0052L34.8962 33.3021L37.4413 27.7521Z" fill="#434347"/>
<path d="M19.3246 27.7521L21.8696 33.3021L27.9396 34.0052L23.4426 38.1384L24.649 44.1229L19.3246 41.1274L14.0001 44.1229L15.2065 38.1384L10.7095 34.0052L16.7795 33.3021L19.3246 27.7521Z" fill="#434347"/>
<path d="M73.8114 9.78918L76.3564 15.3392L82.4265 16.0423L77.9294 20.1755L79.1358 26.16L73.8114 23.1645L68.487 26.16L69.6934 20.1755L65.1963 16.0423L71.2663 15.3392L73.8114 9.78918Z" fill="#434347"/>
<path d="M55.5584 9.65289L58.1035 15.2029L64.1735 15.906L59.6765 20.0392L60.8829 26.0238L55.5584 23.0282L50.234 26.0238L51.4404 20.0392L46.9434 15.906L53.0134 15.2029L55.5584 9.65289Z" fill="#434347"/>
<path d="M37.4413 9.65289L39.9863 15.2029L46.0563 15.906L41.5593 20.0392L42.7657 26.0238L37.4413 23.0282L32.1168 26.0238L33.3232 20.0392L28.8262 15.906L34.8962 15.2029L37.4413 9.65289Z" fill="#434347"/>
<path d="M19.3246 9.65289L21.8696 15.2029L27.9396 15.906L23.4426 20.0392L24.649 26.0238L19.3246 23.0282L14.0001 26.0238L15.2065 20.0392L10.7095 15.906L16.7795 15.2029L19.3246 9.65289Z" fill="#434347"/>
<path fill-rule="evenodd" clip-rule="evenodd" d="M93 59.8641L6.41801 95.6288L0 80.1219V33.6483L80.8189 0.264221C83.1881 0.714715 85.3599 1.72245 87.1928 3.14591L93 17.177V59.8641Z" fill="url(#paint1_linear_374_2242)"/>
<path fill-rule="evenodd" clip-rule="evenodd" d="M93 110.215L6.53911 145.929L0 130.13V83.9989L81.2651 50.4304C84.5222 51.1535 87.3809 52.9355 89.4611 55.3966L92.9486 63.8228C92.9826 64.2354 93 64.6527 93 65.074V110.215Z" fill="url(#paint2_linear_374_2242)"/>
<rect x="3" y="3" width="87" height="140" rx="12" stroke="#E5E5E5" stroke-width="6"/>
<path d="M56.5105 54.4108C51.5588 53.0222 50.5765 50.1231 46.63 49.0633C42.6836 48.0035 40.5258 60.5023 41.9655 68.1686C43.4053 75.835 50.7598 79.1697 50.7598 79.1697C50.7598 79.1697 56.8067 79.7521 61.4047 74.385C66.0027 69.0179 71.2787 56.5926 67.9576 54.7952C64.6364 52.9977 61.4621 55.7994 56.5105 54.4108Z" fill="#B0B5E9"/>
<path d="M57.2619 61.6304C59.2564 64.903 60.8567 65.4253 64.4304 64.3984C64.4304 64.3984 61.4867 67.208 59.2375 65.6527C56.9883 64.0975 57.2619 61.6304 57.2619 61.6304Z" fill="black"/>
<path d="M46.0763 58.6348C48.0709 61.9074 49.6712 62.4298 53.2448 61.4028C53.2448 61.4028 50.3011 64.2124 48.0519 62.6571C45.8028 61.1019 46.0763 58.6348 46.0763 58.6348Z" fill="black"/>
<path d="M45.6862 70.2912C51.8896 68.0076 54.5629 69.422 57.7397 74.7361C58.7139 74.6787 57.2848 68.7065 53.0147 67.6482C49.0482 66.6652 45.1974 70.0385 45.6862 70.2912Z" fill="black"/>
<path d="M37.8634 71.7405C32.8393 72.8638 30.5643 70.8043 26.583 71.7405C22.6017 72.6766 26.7972 84.5653 31.7966 90.5565C36.7961 96.5477 44.8781 95.986 44.8781 95.986C44.8781 95.986 50.4709 93.6457 51.8927 86.812C53.3146 79.9783 51.8927 66.6854 48.101 66.6854C44.3093 66.6854 42.8874 70.6171 37.8634 71.7405Z" fill="#E4E7CC"/>
<path d="M49.741 79.5103C46.2021 77.9717 44.586 78.4464 42.2523 81.2889C42.2523 81.2889 42.9159 77.17 45.6649 77.17C48.4139 77.17 49.741 79.5103 49.741 79.5103Z" fill="black"/>
<path d="M38.1762 81.5697C34.6374 80.0311 33.0212 80.5059 30.6876 83.3484C30.6876 83.3484 31.3511 79.2294 34.1001 79.2294C36.8491 79.2294 38.1762 81.5697 38.1762 81.5697Z" fill="black"/>
<path d="M47.8362 85.4084C44.0031 90.6993 40.9836 91.0122 35.3235 88.404C34.5498 88.9877 39.1478 93.6332 43.2862 92.1484C47.1302 90.7693 48.3849 85.3463 47.8362 85.4084Z" fill="black"/>
<defs>
<linearGradient id="paint0_linear_374_2242" x1="46.5" y1="0" x2="46.5" y2="146" gradientUnits="userSpaceOnUse">
<stop stop-color="#674D80"/>
<stop offset="0.46875" stop-color="#24173C"/>
<stop offset="1" stop-color="#1E1E1E"/>
</linearGradient>
<linearGradient id="paint1_linear_374_2242" x1="34.4087" y1="19.6456" x2="57.1073" y2="74.7482" gradientUnits="userSpaceOnUse">
<stop stop-color="#0E0F11" stop-opacity="0"/>
<stop offset="0.463542" stop-color="#101114" stop-opacity="0.7"/>
<stop offset="1" stop-color="#16171B" stop-opacity="0"/>
</linearGradient>
<linearGradient id="paint2_linear_374_2242" x1="34.4087" y1="69.7933" x2="57.0702" y2="124.859" gradientUnits="userSpaceOnUse">
<stop stop-color="#0E0F11" stop-opacity="0"/>
<stop offset="0.46875" stop-color="#101114" stop-opacity="0.7"/>
<stop offset="1" stop-color="#16171B" stop-opacity="0"/>
</linearGradient>
</defs>
</svg>
