<svg width="101" height="154" viewBox="0 0 101 154" fill="none" xmlns="http://www.w3.org/2000/svg">
<g filter="url(#filter0_d_374_2362)">
<rect x="4" width="93" height="146" rx="15" fill="url(#paint0_linear_374_2362)"/>
<path d="M77.8114 118.384L80.3564 123.934L86.4265 124.637L81.9294 128.77L83.1358 134.755L77.8114 131.759L72.487 134.755L73.6934 128.77L69.1963 124.637L75.2663 123.934L77.8114 118.384Z" fill="url(#paint1_diamond_374_2362)"/>
<path d="M59.5584 118.248L62.1035 123.798L68.1735 124.501L63.6765 128.634L64.8829 134.619L59.5584 131.623L54.234 134.619L55.4404 128.634L50.9434 124.501L57.0134 123.798L59.5584 118.248Z" fill="url(#paint2_diamond_374_2362)"/>
<path d="M59.5584 118.248L62.1035 123.798L68.1735 124.501L63.6765 128.634L64.8829 134.619L59.5584 131.623L54.234 134.619L55.4404 128.634L50.9434 124.501L57.0134 123.798L59.5584 118.248Z" fill="url(#paint3_diamond_374_2362)"/>
<path d="M41.4413 118.248L43.9863 123.798L50.0563 124.501L45.5593 128.634L46.7657 134.619L41.4413 131.623L36.1168 134.619L37.3232 128.634L32.8262 124.501L38.8962 123.798L41.4413 118.248Z" fill="url(#paint4_diamond_374_2362)"/>
<path d="M23.3246 118.248L25.8696 123.798L31.9396 124.501L27.4426 128.634L28.649 134.619L23.3246 131.623L18.0001 134.619L19.2065 128.634L14.7095 124.501L20.7795 123.798L23.3246 118.248Z" fill="url(#paint5_diamond_374_2362)"/>
<path d="M77.8114 100.285L80.3564 105.835L86.4265 106.538L81.9294 110.671L83.1358 116.656L77.8114 113.66L72.487 116.656L73.6934 110.671L69.1963 106.538L75.2663 105.835L77.8114 100.285Z" fill="url(#paint6_diamond_374_2362)"/>
<path d="M59.5584 100.149L62.1035 105.699L68.1735 106.402L63.6765 110.535L64.8829 116.52L59.5584 113.524L54.234 116.52L55.4404 110.535L50.9434 106.402L57.0134 105.699L59.5584 100.149Z" fill="url(#paint7_diamond_374_2362)"/>
<path d="M41.4413 100.149L43.9863 105.699L50.0563 106.402L45.5593 110.535L46.7657 116.52L41.4413 113.524L36.1168 116.52L37.3232 110.535L32.8262 106.402L38.8962 105.699L41.4413 100.149Z" fill="url(#paint8_diamond_374_2362)"/>
<path d="M23.3246 100.149L25.8696 105.699L31.9396 106.402L27.4426 110.535L28.649 116.52L23.3246 113.524L18.0001 116.52L19.2065 110.535L14.7095 106.402L20.7795 105.699L23.3246 100.149Z" fill="url(#paint9_diamond_374_2362)"/>
<path d="M77.8114 82.1858L80.3564 87.7358L86.4265 88.4389L81.9294 92.5721L83.1358 98.5566L77.8114 95.5611L72.487 98.5566L73.6934 92.5721L69.1963 88.4389L75.2663 87.7358L77.8114 82.1858Z" fill="url(#paint10_diamond_374_2362)"/>
<path d="M59.5584 82.0496L62.1035 87.5996L68.1735 88.3027L63.6765 92.4359L64.8829 98.4204L59.5584 95.4249L54.234 98.4204L55.4404 92.4359L50.9434 88.3027L57.0134 87.5996L59.5584 82.0496Z" fill="url(#paint11_diamond_374_2362)"/>
<path d="M41.4413 82.0496L43.9863 87.5996L50.0563 88.3027L45.5593 92.4359L46.7657 98.4204L41.4413 95.4249L36.1168 98.4204L37.3232 92.4359L32.8262 88.3027L38.8962 87.5996L41.4413 82.0496Z" fill="url(#paint12_diamond_374_2362)"/>
<path d="M23.3246 82.0496L25.8696 87.5996L31.9396 88.3027L27.4426 92.4359L28.649 98.4204L23.3246 95.4249L18.0001 98.4204L19.2065 92.4359L14.7095 88.3027L20.7795 87.5996L23.3246 82.0496Z" fill="url(#paint13_diamond_374_2362)"/>
<path d="M77.8114 64.0866L80.3564 69.6366L86.4265 70.3397L81.9294 74.4729L83.1358 80.4575L77.8114 77.4619L72.487 80.4575L73.6934 74.4729L69.1963 70.3397L75.2663 69.6366L77.8114 64.0866Z" fill="url(#paint14_diamond_374_2362)"/>
<path d="M59.5584 63.9504L62.1035 69.5005L68.1735 70.2036L63.6765 74.3367L64.8829 80.3213L59.5584 77.3257L54.234 80.3213L55.4404 74.3367L50.9434 70.2036L57.0134 69.5005L59.5584 63.9504Z" fill="url(#paint15_diamond_374_2362)"/>
<path d="M41.4413 63.9504L43.9863 69.5005L50.0563 70.2036L45.5593 74.3367L46.7657 80.3213L41.4413 77.3257L36.1168 80.3213L37.3232 74.3367L32.8262 70.2036L38.8962 69.5005L41.4413 63.9504Z" fill="url(#paint16_diamond_374_2362)"/>
<path d="M23.3246 63.9504L25.8696 69.5005L31.9396 70.2036L27.4426 74.3367L28.649 80.3213L23.3246 77.3257L18.0001 80.3213L19.2065 74.3367L14.7095 70.2036L20.7795 69.5005L23.3246 63.9504Z" fill="url(#paint17_diamond_374_2362)"/>
<path d="M77.8114 45.9874L80.3564 51.5374L86.4265 52.2405L81.9294 56.3737L83.1358 62.3583L77.8114 59.3627L72.487 62.3583L73.6934 56.3737L69.1963 52.2405L75.2663 51.5374L77.8114 45.9874Z" fill="url(#paint18_diamond_374_2362)"/>
<path d="M59.5584 45.8513L62.1035 51.4013L68.1735 52.1044L63.6765 56.2376L64.8829 62.2221L59.5584 59.2265L54.234 62.2221L55.4404 56.2376L50.9434 52.1044L57.0134 51.4013L59.5584 45.8513Z" fill="url(#paint19_diamond_374_2362)"/>
<path d="M41.4413 45.8513L43.9863 51.4013L50.0563 52.1044L45.5593 56.2376L46.7657 62.2221L41.4413 59.2265L36.1168 62.2221L37.3232 56.2376L32.8262 52.1044L38.8962 51.4013L41.4413 45.8513Z" fill="url(#paint20_diamond_374_2362)"/>
<path d="M23.3246 45.8513L25.8696 51.4013L31.9396 52.1044L27.4426 56.2376L28.649 62.2221L23.3246 59.2265L18.0001 62.2221L19.2065 56.2376L14.7095 52.1044L20.7795 51.4013L23.3246 45.8513Z" fill="url(#paint21_diamond_374_2362)"/>
<path d="M77.8114 27.8882L80.3564 33.4383L86.4265 34.1414L81.9294 38.2745L83.1358 44.2591L77.8114 41.2635L72.487 44.2591L73.6934 38.2745L69.1963 34.1414L75.2663 33.4383L77.8114 27.8882Z" fill="url(#paint22_diamond_374_2362)"/>
<path d="M59.5584 27.7521L62.1035 33.3021L68.1735 34.0052L63.6765 38.1384L64.8829 44.1229L59.5584 41.1274L54.234 44.1229L55.4404 38.1384L50.9434 34.0052L57.0134 33.3021L59.5584 27.7521Z" fill="url(#paint23_diamond_374_2362)"/>
<path d="M41.4413 27.7521L43.9863 33.3021L50.0563 34.0052L45.5593 38.1384L46.7657 44.1229L41.4413 41.1274L36.1168 44.1229L37.3232 38.1384L32.8262 34.0052L38.8962 33.3021L41.4413 27.7521Z" fill="url(#paint24_diamond_374_2362)"/>
<path d="M23.3246 27.7521L25.8696 33.3021L31.9396 34.0052L27.4426 38.1384L28.649 44.1229L23.3246 41.1274L18.0001 44.1229L19.2065 38.1384L14.7095 34.0052L20.7795 33.3021L23.3246 27.7521Z" fill="url(#paint25_diamond_374_2362)"/>
<path d="M77.8114 9.78906L80.3564 15.3391L86.4265 16.0422L81.9294 20.1754L83.1358 26.1599L77.8114 23.1644L72.487 26.1599L73.6934 20.1754L69.1963 16.0422L75.2663 15.3391L77.8114 9.78906Z" fill="url(#paint26_diamond_374_2362)"/>
<path d="M59.5584 9.65289L62.1035 15.2029L68.1735 15.906L63.6765 20.0392L64.8829 26.0238L59.5584 23.0282L54.234 26.0238L55.4404 20.0392L50.9434 15.906L57.0134 15.2029L59.5584 9.65289Z" fill="url(#paint27_diamond_374_2362)"/>
<path d="M41.4417 9.65289L43.9868 15.2029L50.0568 15.906L45.5598 20.0392L46.7662 26.0238L41.4417 23.0282L36.1173 26.0238L37.3237 20.0392L32.8267 15.906L38.8967 15.2029L41.4417 9.65289Z" fill="url(#paint28_diamond_374_2362)"/>
<path d="M23.3246 9.65289L25.8696 15.2029L31.9396 15.906L27.4426 20.0392L28.649 26.0238L23.3246 23.0282L18.0001 26.0238L19.2065 20.0392L14.7095 15.906L20.7795 15.2029L23.3246 9.65289Z" fill="url(#paint29_diamond_374_2362)"/>
<path fill-rule="evenodd" clip-rule="evenodd" d="M97 59.8641L10.418 95.6288L4 80.1219V33.6483L84.8185 0.264404C87.1879 0.714872 89.3599 1.72269 91.1929 3.14629L97 17.177V59.8641Z" fill="url(#paint30_linear_374_2362)"/>
<path fill-rule="evenodd" clip-rule="evenodd" d="M97 110.215L10.5391 145.929L4 130.13V83.9991L85.2651 50.4307C88.5222 51.1537 91.3809 52.9357 93.4611 55.3969L96.9486 63.8231C96.9826 64.2356 97 64.6529 97 65.0743V110.215Z" fill="url(#paint31_linear_374_2362)"/>
<rect x="7" y="3" width="87" height="140" rx="12" stroke="#E5E5E5" stroke-width="6"/>
<path d="M39.7225 55.662C58.2723 50.2338 67.1379 53.8599 69.3528 71.5335C69.4134 72.0172 68.8128 72.2943 68.4635 71.9491C60.832 64.407 55.8371 62.8911 46.8315 66.1651C46.5269 66.2758 46.3993 66.6345 46.5677 66.908L48.8606 70.6318C49.093 71.0093 48.7653 71.4806 48.324 71.4034L31.4301 68.4483C31.13 68.3958 30.9395 68.1018 31.0175 67.8115L35.4335 51.3821C35.5495 50.9508 36.1304 50.8605 36.3755 51.2358L39.1276 55.4493C39.2534 55.642 39.4995 55.7273 39.7225 55.662Z" fill="#B0B5E9"/>
<path d="M61.2775 89.338C42.7277 94.7662 33.8621 91.1401 31.6472 73.4665C31.5866 72.9828 32.1872 72.7057 32.5365 73.0509C40.168 80.593 45.1629 82.1089 54.1685 78.8349C54.4731 78.7242 54.6007 78.3655 54.4323 78.092L52.1394 74.3682C51.907 73.9907 52.2347 73.5194 52.676 73.5966L69.5699 76.5517C69.87 76.6042 70.0605 76.8982 69.9825 77.1885L65.5665 93.6179C65.4505 94.0492 64.8696 94.1395 64.6245 93.7642L61.8724 89.5507C61.7466 89.358 61.5005 89.2727 61.2775 89.338Z" fill="#F1AEEE"/>
</g>
<defs>
<filter id="filter0_d_374_2362" x="0" y="0" width="101" height="154" filterUnits="userSpaceOnUse" color-interpolation-filters="sRGB">
<feFlood flood-opacity="0" result="BackgroundImageFix"/>
<feColorMatrix in="SourceAlpha" type="matrix" values="0 0 0 0 0 0 0 0 0 0 0 0 0 0 0 0 0 0 127 0" result="hardAlpha"/>
<feOffset dy="4"/>
<feGaussianBlur stdDeviation="2"/>
<feComposite in2="hardAlpha" operator="out"/>
<feColorMatrix type="matrix" values="0 0 0 0 0 0 0 0 0 0 0 0 0 0 0 0 0 0 0.25 0"/>
<feBlend mode="normal" in2="BackgroundImageFix" result="effect1_dropShadow_374_2362"/>
<feBlend mode="normal" in="SourceGraphic" in2="effect1_dropShadow_374_2362" result="shape"/>
</filter>
<linearGradient id="paint0_linear_374_2362" x1="50.5" y1="0" x2="50.5" y2="146" gradientUnits="userSpaceOnUse">
<stop stop-color="#674D80"/>
<stop offset="0.46875" stop-color="#24173C"/>
<stop offset="1" stop-color="#1E1E1E"/>
</linearGradient>
<radialGradient id="paint1_diamond_374_2362" cx="0" cy="0" r="1" gradientUnits="userSpaceOnUse" gradientTransform="translate(80.2004 122.235) rotate(134.599) scale(14.6024 14.1508)">
<stop offset="0.358888" stop-color="#F699F0" stop-opacity="0.29"/>
<stop offset="0.942951" stop-color="#CB48EF" stop-opacity="0.29"/>
</radialGradient>
<radialGradient id="paint2_diamond_374_2362" cx="0" cy="0" r="1" gradientUnits="userSpaceOnUse" gradientTransform="translate(61.9475 122.099) rotate(134.599) scale(14.6024 14.1508)">
<stop offset="0.358888" stop-color="#F699F0" stop-opacity="0.29"/>
<stop offset="0.942951" stop-color="#CB48EF" stop-opacity="0.29"/>
</radialGradient>
<radialGradient id="paint3_diamond_374_2362" cx="0" cy="0" r="1" gradientUnits="userSpaceOnUse" gradientTransform="translate(61.9475 122.099) rotate(134.599) scale(14.6024 14.1508)">
<stop offset="0.358888" stop-color="#F699F0" stop-opacity="0.29"/>
<stop offset="0.942951" stop-color="#CB48EF" stop-opacity="0.29"/>
</radialGradient>
<radialGradient id="paint4_diamond_374_2362" cx="0" cy="0" r="1" gradientUnits="userSpaceOnUse" gradientTransform="translate(43.8303 122.099) rotate(134.599) scale(14.6024 14.1508)">
<stop offset="0.358888" stop-color="#F699F0" stop-opacity="0.29"/>
<stop offset="0.942951" stop-color="#CB48EF" stop-opacity="0.29"/>
</radialGradient>
<radialGradient id="paint5_diamond_374_2362" cx="0" cy="0" r="1" gradientUnits="userSpaceOnUse" gradientTransform="translate(25.7136 122.099) rotate(134.599) scale(14.6024 14.1508)">
<stop offset="0.358888" stop-color="#F699F0" stop-opacity="0.29"/>
<stop offset="0.942951" stop-color="#CB48EF" stop-opacity="0.29"/>
</radialGradient>
<radialGradient id="paint6_diamond_374_2362" cx="0" cy="0" r="1" gradientUnits="userSpaceOnUse" gradientTransform="translate(80.2004 104.136) rotate(134.599) scale(14.6024 14.1508)">
<stop offset="0.358888" stop-color="#F699F0" stop-opacity="0.29"/>
<stop offset="0.942951" stop-color="#CB48EF" stop-opacity="0.29"/>
</radialGradient>
<radialGradient id="paint7_diamond_374_2362" cx="0" cy="0" r="1" gradientUnits="userSpaceOnUse" gradientTransform="translate(61.9475 104) rotate(134.599) scale(14.6024 14.1508)">
<stop offset="0.358888" stop-color="#F699F0" stop-opacity="0.29"/>
<stop offset="0.942951" stop-color="#CB48EF" stop-opacity="0.29"/>
</radialGradient>
<radialGradient id="paint8_diamond_374_2362" cx="0" cy="0" r="1" gradientUnits="userSpaceOnUse" gradientTransform="translate(43.8303 104) rotate(134.599) scale(14.6024 14.1508)">
<stop offset="0.358888" stop-color="#F699F0" stop-opacity="0.29"/>
<stop offset="0.942951" stop-color="#CB48EF" stop-opacity="0.29"/>
</radialGradient>
<radialGradient id="paint9_diamond_374_2362" cx="0" cy="0" r="1" gradientUnits="userSpaceOnUse" gradientTransform="translate(25.7136 104) rotate(134.599) scale(14.6024 14.1508)">
<stop offset="0.358888" stop-color="#F699F0" stop-opacity="0.29"/>
<stop offset="0.942951" stop-color="#CB48EF" stop-opacity="0.29"/>
</radialGradient>
<radialGradient id="paint10_diamond_374_2362" cx="0" cy="0" r="1" gradientUnits="userSpaceOnUse" gradientTransform="translate(80.2004 86.0367) rotate(134.599) scale(14.6024 14.1508)">
<stop offset="0.358888" stop-color="#F699F0" stop-opacity="0.29"/>
<stop offset="0.942951" stop-color="#CB48EF" stop-opacity="0.29"/>
</radialGradient>
<radialGradient id="paint11_diamond_374_2362" cx="0" cy="0" r="1" gradientUnits="userSpaceOnUse" gradientTransform="translate(61.9475 85.9004) rotate(134.599) scale(14.6024 14.1508)">
<stop offset="0.358888" stop-color="#F699F0" stop-opacity="0.29"/>
<stop offset="0.942951" stop-color="#CB48EF" stop-opacity="0.29"/>
</radialGradient>
<radialGradient id="paint12_diamond_374_2362" cx="0" cy="0" r="1" gradientUnits="userSpaceOnUse" gradientTransform="translate(43.8303 85.9004) rotate(134.599) scale(14.6024 14.1508)">
<stop offset="0.358888" stop-color="#F699F0" stop-opacity="0.29"/>
<stop offset="0.942951" stop-color="#CB48EF" stop-opacity="0.29"/>
</radialGradient>
<radialGradient id="paint13_diamond_374_2362" cx="0" cy="0" r="1" gradientUnits="userSpaceOnUse" gradientTransform="translate(25.7136 85.9004) rotate(134.599) scale(14.6024 14.1508)">
<stop offset="0.358888" stop-color="#F699F0" stop-opacity="0.29"/>
<stop offset="0.942951" stop-color="#CB48EF" stop-opacity="0.29"/>
</radialGradient>
<radialGradient id="paint14_diamond_374_2362" cx="0" cy="0" r="1" gradientUnits="userSpaceOnUse" gradientTransform="translate(80.2004 67.9375) rotate(134.599) scale(14.6024 14.1508)">
<stop offset="0.358888" stop-color="#F699F0" stop-opacity="0.29"/>
<stop offset="0.942951" stop-color="#CB48EF" stop-opacity="0.29"/>
</radialGradient>
<radialGradient id="paint15_diamond_374_2362" cx="0" cy="0" r="1" gradientUnits="userSpaceOnUse" gradientTransform="translate(61.9475 67.8013) rotate(134.599) scale(14.6024 14.1508)">
<stop offset="0.358888" stop-color="#F699F0" stop-opacity="0.29"/>
<stop offset="0.942951" stop-color="#CB48EF" stop-opacity="0.29"/>
</radialGradient>
<radialGradient id="paint16_diamond_374_2362" cx="0" cy="0" r="1" gradientUnits="userSpaceOnUse" gradientTransform="translate(43.8303 67.8013) rotate(134.599) scale(14.6024 14.1508)">
<stop offset="0.358888" stop-color="#F699F0" stop-opacity="0.29"/>
<stop offset="0.942951" stop-color="#CB48EF" stop-opacity="0.29"/>
</radialGradient>
<radialGradient id="paint17_diamond_374_2362" cx="0" cy="0" r="1" gradientUnits="userSpaceOnUse" gradientTransform="translate(25.7136 67.8013) rotate(134.599) scale(14.6024 14.1508)">
<stop offset="0.358888" stop-color="#F699F0" stop-opacity="0.29"/>
<stop offset="0.942951" stop-color="#CB48EF" stop-opacity="0.29"/>
</radialGradient>
<radialGradient id="paint18_diamond_374_2362" cx="0" cy="0" r="1" gradientUnits="userSpaceOnUse" gradientTransform="translate(80.2004 49.8383) rotate(134.599) scale(14.6024 14.1508)">
<stop offset="0.358888" stop-color="#F699F0" stop-opacity="0.29"/>
<stop offset="0.942951" stop-color="#CB48EF" stop-opacity="0.29"/>
</radialGradient>
<radialGradient id="paint19_diamond_374_2362" cx="0" cy="0" r="1" gradientUnits="userSpaceOnUse" gradientTransform="translate(61.9475 49.7021) rotate(134.599) scale(14.6024 14.1508)">
<stop offset="0.358888" stop-color="#F699F0" stop-opacity="0.29"/>
<stop offset="0.942951" stop-color="#CB48EF" stop-opacity="0.29"/>
</radialGradient>
<radialGradient id="paint20_diamond_374_2362" cx="0" cy="0" r="1" gradientUnits="userSpaceOnUse" gradientTransform="translate(43.8303 49.7021) rotate(134.599) scale(14.6024 14.1508)">
<stop offset="0.358888" stop-color="#F699F0" stop-opacity="0.29"/>
<stop offset="0.942951" stop-color="#CB48EF" stop-opacity="0.29"/>
</radialGradient>
<radialGradient id="paint21_diamond_374_2362" cx="0" cy="0" r="1" gradientUnits="userSpaceOnUse" gradientTransform="translate(25.7136 49.7021) rotate(134.599) scale(14.6024 14.1508)">
<stop offset="0.358888" stop-color="#F699F0" stop-opacity="0.29"/>
<stop offset="0.942951" stop-color="#CB48EF" stop-opacity="0.29"/>
</radialGradient>
<radialGradient id="paint22_diamond_374_2362" cx="0" cy="0" r="1" gradientUnits="userSpaceOnUse" gradientTransform="translate(80.2004 31.7391) rotate(134.599) scale(14.6024 14.1508)">
<stop offset="0.358888" stop-color="#F699F0" stop-opacity="0.29"/>
<stop offset="0.942951" stop-color="#CB48EF" stop-opacity="0.29"/>
</radialGradient>
<radialGradient id="paint23_diamond_374_2362" cx="0" cy="0" r="1" gradientUnits="userSpaceOnUse" gradientTransform="translate(61.9475 31.603) rotate(134.599) scale(14.6024 14.1508)">
<stop offset="0.358888" stop-color="#F699F0" stop-opacity="0.29"/>
<stop offset="0.942951" stop-color="#CB48EF" stop-opacity="0.29"/>
</radialGradient>
<radialGradient id="paint24_diamond_374_2362" cx="0" cy="0" r="1" gradientUnits="userSpaceOnUse" gradientTransform="translate(43.8303 31.603) rotate(134.599) scale(14.6024 14.1508)">
<stop offset="0.358888" stop-color="#F699F0" stop-opacity="0.29"/>
<stop offset="0.942951" stop-color="#CB48EF" stop-opacity="0.29"/>
</radialGradient>
<radialGradient id="paint25_diamond_374_2362" cx="0" cy="0" r="1" gradientUnits="userSpaceOnUse" gradientTransform="translate(25.7136 31.603) rotate(134.599) scale(14.6024 14.1508)">
<stop offset="0.358888" stop-color="#F699F0" stop-opacity="0.29"/>
<stop offset="0.942951" stop-color="#CB48EF" stop-opacity="0.29"/>
</radialGradient>
<radialGradient id="paint26_diamond_374_2362" cx="0" cy="0" r="1" gradientUnits="userSpaceOnUse" gradientTransform="translate(80.2004 13.64) rotate(134.599) scale(14.6024 14.1508)">
<stop offset="0.358888" stop-color="#F699F0" stop-opacity="0.29"/>
<stop offset="0.942951" stop-color="#CB48EF" stop-opacity="0.29"/>
</radialGradient>
<radialGradient id="paint27_diamond_374_2362" cx="0" cy="0" r="1" gradientUnits="userSpaceOnUse" gradientTransform="translate(61.9475 13.5038) rotate(134.599) scale(14.6024 14.1508)">
<stop offset="0.358888" stop-color="#F699F0" stop-opacity="0.29"/>
<stop offset="0.942951" stop-color="#CB48EF" stop-opacity="0.29"/>
</radialGradient>
<radialGradient id="paint28_diamond_374_2362" cx="0" cy="0" r="1" gradientUnits="userSpaceOnUse" gradientTransform="translate(43.8308 13.5038) rotate(134.599) scale(14.6024 14.1508)">
<stop offset="0.358888" stop-color="#F699F0" stop-opacity="0.29"/>
<stop offset="0.942951" stop-color="#CB48EF" stop-opacity="0.29"/>
</radialGradient>
<radialGradient id="paint29_diamond_374_2362" cx="0" cy="0" r="1" gradientUnits="userSpaceOnUse" gradientTransform="translate(25.7136 13.5038) rotate(134.599) scale(14.6024 14.1508)">
<stop offset="0.358888" stop-color="#F699F0" stop-opacity="0.29"/>
<stop offset="0.942951" stop-color="#CB48EF" stop-opacity="0.29"/>
</radialGradient>
<linearGradient id="paint30_linear_374_2362" x1="38.4087" y1="19.6457" x2="61.1072" y2="74.7483" gradientUnits="userSpaceOnUse">
<stop stop-color="#0E0F11" stop-opacity="0"/>
<stop offset="0.463542" stop-color="#101114" stop-opacity="0.7"/>
<stop offset="1" stop-color="#16171B" stop-opacity="0"/>
</linearGradient>
<linearGradient id="paint31_linear_374_2362" x1="38.4087" y1="69.7935" x2="61.0701" y2="124.859" gradientUnits="userSpaceOnUse">
<stop stop-color="#0E0F11" stop-opacity="0"/>
<stop offset="0.46875" stop-color="#101114" stop-opacity="0.7"/>
<stop offset="1" stop-color="#16171B" stop-opacity="0"/>
</linearGradient>
</defs>
</svg>
