<svg width="93" height="147" viewBox="0 0 93 147" fill="none" xmlns="http://www.w3.org/2000/svg">
<rect width="93" height="146.143" rx="15" fill="url(#paint0_linear_374_2322)"/>
<path d="M73.8114 118.5L76.3564 124.055L82.4265 124.759L77.9294 128.896L79.1358 134.887L73.8114 131.888L68.487 134.887L69.6934 128.896L65.1963 124.759L71.2663 124.055L73.8114 118.5Z" fill="#B0B5E9"/>
<path d="M55.5584 118.364L58.1035 123.919L64.1735 124.623L59.6765 128.76L60.8829 134.751L55.5584 131.752L50.234 134.751L51.4404 128.76L46.9434 124.623L53.0134 123.919L55.5584 118.364Z" fill="#B0B5E9"/>
<path d="M55.5584 118.364L58.1035 123.919L64.1735 124.623L59.6765 128.76L60.8829 134.751L55.5584 131.752L50.234 134.751L51.4404 128.76L46.9434 124.623L53.0134 123.919L55.5584 118.364Z" fill="#B0B5E9"/>
<path d="M37.4413 118.364L39.9863 123.919L46.0563 124.623L41.5593 128.76L42.7657 134.751L37.4413 131.752L32.1168 134.751L33.3232 128.76L28.8262 124.623L34.8962 123.919L37.4413 118.364Z" fill="#B0B5E9"/>
<path d="M19.3246 118.364L21.8696 123.919L27.9396 124.623L23.4426 128.76L24.649 134.751L19.3246 131.752L14.0001 134.751L15.2065 128.76L10.7095 124.623L16.7795 123.919L19.3246 118.364Z" fill="#B0B5E9"/>
<path d="M73.8114 100.383L76.3564 105.939L82.4265 106.642L77.9294 110.78L79.1358 116.77L73.8114 113.771L68.487 116.77L69.6934 110.78L65.1963 106.642L71.2663 105.939L73.8114 100.383Z" fill="#B0B5E9"/>
<path d="M55.5584 100.247L58.1035 105.802L64.1735 106.506L59.6765 110.643L60.8829 116.634L55.5584 113.635L50.234 116.634L51.4404 110.643L46.9434 106.506L53.0134 105.802L55.5584 100.247Z" fill="#B0B5E9"/>
<path d="M37.4413 100.247L39.9863 105.802L46.0563 106.506L41.5593 110.643L42.7657 116.634L37.4413 113.635L32.1168 116.634L33.3232 110.643L28.8262 106.506L34.8962 105.802L37.4413 100.247Z" fill="#B0B5E9"/>
<path d="M19.3246 100.247L21.8696 105.802L27.9396 106.506L23.4426 110.643L24.649 116.634L19.3246 113.635L14.0001 116.634L15.2065 110.643L10.7095 106.506L16.7795 105.802L19.3246 100.247Z" fill="#B0B5E9"/>
<path d="M73.8114 82.2662L76.3564 87.8216L82.4265 88.5254L77.9294 92.6626L79.1358 98.6531L73.8114 95.6546L68.487 98.6531L69.6934 92.6626L65.1963 88.5254L71.2663 87.8216L73.8114 82.2662Z" fill="#B0B5E9"/>
<path d="M55.5584 82.1299L58.1035 87.6853L64.1735 88.3891L59.6765 92.5263L60.8829 98.5168L55.5584 95.5183L50.234 98.5168L51.4404 92.5263L46.9434 88.3891L53.0134 87.6853L55.5584 82.1299Z" fill="#B0B5E9"/>
<path d="M37.4413 82.1299L39.9863 87.6853L46.0563 88.3891L41.5593 92.5263L42.7657 98.5168L37.4413 95.5183L32.1168 98.5168L33.3232 92.5263L28.8262 88.3891L34.8962 87.6853L37.4413 82.1299Z" fill="#B0B5E9"/>
<path d="M19.3246 82.1299L21.8696 87.6853L27.9396 88.3891L23.4426 92.5263L24.649 98.5168L19.3246 95.5183L14.0001 98.5168L15.2065 92.5263L10.7095 88.3891L16.7795 87.6853L19.3246 82.1299Z" fill="#B0B5E9"/>
<path d="M73.8114 64.1493L76.3564 69.7047L82.4265 70.4085L77.9294 74.5458L79.1358 80.5362L73.8114 77.5377L68.487 80.5362L69.6934 74.5458L65.1963 70.4085L71.2663 69.7047L73.8114 64.1493Z" fill="#B0B5E9"/>
<path d="M55.5584 64.013L58.1035 69.5685L64.1735 70.2722L59.6765 74.4095L60.8829 80.3999L55.5584 77.4014L50.234 80.3999L51.4404 74.4095L46.9434 70.2722L53.0134 69.5685L55.5584 64.013Z" fill="#B0B5E9"/>
<path d="M37.4413 64.013L39.9863 69.5685L46.0563 70.2722L41.5593 74.4095L42.7657 80.3999L37.4413 77.4014L32.1168 80.3999L33.3232 74.4095L28.8262 70.2722L34.8962 69.5685L37.4413 64.013Z" fill="#B0B5E9"/>
<path d="M19.3246 64.013L21.8696 69.5685L27.9396 70.2722L23.4426 74.4095L24.649 80.3999L19.3246 77.4014L14.0001 80.3999L15.2065 74.4095L10.7095 70.2722L16.7795 69.5685L19.3246 64.013Z" fill="#B0B5E9"/>
<path d="M73.8114 46.0324L76.3564 51.5879L82.4265 52.2916L77.9294 56.4289L79.1358 62.4193L73.8114 59.4208L68.487 62.4193L69.6934 56.4289L65.1963 52.2916L71.2663 51.5879L73.8114 46.0324Z" fill="#B0B5E9"/>
<path d="M55.5584 45.8961L58.1035 51.4516L64.1735 52.1553L59.6765 56.2926L60.8829 62.283L55.5584 59.2845L50.234 62.283L51.4404 56.2926L46.9434 52.1553L53.0134 51.4516L55.5584 45.8961Z" fill="#B0B5E9"/>
<path d="M37.4413 45.8961L39.9863 51.4516L46.0563 52.1553L41.5593 56.2926L42.7657 62.283L37.4413 59.2845L32.1168 62.283L33.3232 56.2926L28.8262 52.1553L34.8962 51.4516L37.4413 45.8961Z" fill="#B0B5E9"/>
<path d="M19.3246 45.8961L21.8696 51.4516L27.9396 52.1553L23.4426 56.2926L24.649 62.283L19.3246 59.2845L14.0001 62.283L15.2065 56.2926L10.7095 52.1553L16.7795 51.4516L19.3246 45.8961Z" fill="#B0B5E9"/>
<path d="M73.8114 27.9155L76.3564 33.471L82.4265 34.1748L77.9294 38.312L79.1358 44.3024L73.8114 41.3039L68.487 44.3024L69.6934 38.312L65.1963 34.1748L71.2663 33.471L73.8114 27.9155Z" fill="#B0B5E9"/>
<path d="M55.5584 27.7792L58.1035 33.3347L64.1735 34.0385L59.6765 38.1757L60.8829 44.1661L55.5584 41.1676L50.234 44.1661L51.4404 38.1757L46.9434 34.0385L53.0134 33.3347L55.5584 27.7792Z" fill="#B0B5E9"/>
<path d="M37.4413 27.7792L39.9863 33.3347L46.0563 34.0385L41.5593 38.1757L42.7657 44.1661L37.4413 41.1676L32.1168 44.1661L33.3232 38.1757L28.8262 34.0385L34.8962 33.3347L37.4413 27.7792Z" fill="#B0B5E9"/>
<path d="M19.3246 27.7792L21.8696 33.3347L27.9396 34.0385L23.4426 38.1757L24.649 44.1661L19.3246 41.1676L14.0001 44.1661L15.2065 38.1757L10.7095 34.0385L16.7795 33.3347L19.3246 27.7792Z" fill="#B0B5E9"/>
<path d="M73.8114 9.79865L76.3564 15.3541L82.4265 16.0579L77.9294 20.1951L79.1358 26.1855L73.8114 23.187L68.487 26.1855L69.6934 20.1951L65.1963 16.0579L71.2663 15.3541L73.8114 9.79865Z" fill="#B0B5E9"/>
<path d="M55.5584 9.66235L58.1035 15.2178L64.1735 15.9216L59.6765 20.0588L60.8829 26.0492L55.5584 23.0507L50.234 26.0492L51.4404 20.0588L46.9434 15.9216L53.0134 15.2178L55.5584 9.66235Z" fill="#B0B5E9"/>
<path d="M37.4413 9.66235L39.9863 15.2178L46.0563 15.9216L41.5593 20.0588L42.7657 26.0492L37.4413 23.0507L32.1168 26.0492L33.3232 20.0588L28.8262 15.9216L34.8962 15.2178L37.4413 9.66235Z" fill="#B0B5E9"/>
<path d="M19.3246 9.66235L21.8696 15.2178L27.9396 15.9216L23.4426 20.0588L24.649 26.0492L19.3246 23.0507L14.0001 26.0492L15.2065 20.0588L10.7095 15.9216L16.7795 15.2178L19.3246 9.66235Z" fill="#B0B5E9"/>
<path fill-rule="evenodd" clip-rule="evenodd" d="M93 59.9226L6.41804 95.7223L0 80.2002V33.6813L80.8189 0.264465C83.1874 0.714825 85.3586 1.72208 87.1911 3.14484L93 17.1938V59.9226Z" fill="url(#paint1_linear_374_2322)"/>
<path fill-rule="evenodd" clip-rule="evenodd" d="M93 110.323L6.53909 146.072L0 130.257V84.0812L81.2656 50.4797C84.5203 51.2024 87.3771 52.9824 89.4569 55.4408L92.9499 63.8888C92.9831 64.2959 93 64.7076 93 65.1232V110.323Z" fill="url(#paint2_linear_374_2322)"/>
<rect x="3" y="3" width="87" height="140.143" rx="12" stroke="#E5E5E5" stroke-width="6"/>
<path d="M34.9598 88.0625C34.3187 87.7849 34.0234 87.0386 34.3002 86.3957L35.1146 84.504L36.2754 85.0067L34.9598 88.0625Z" fill="#4C4A40"/>
<path d="M35.5105 84.9049C34.2212 84.113 33.6715 82.5165 34.199 81.0956L35.4441 77.741L38.7814 79.1861L36.1501 85.2977L35.5105 84.9049Z" fill="#A19D8D"/>
<path d="M36.4604 78.5264C35.3245 78.0345 34.7568 76.7493 35.1568 75.5751L41.6231 56.592L47.4269 59.1052L38.6561 79.4771L36.4604 78.5264Z" fill="#E4BE59"/>
<path d="M41.064 52.2928C41.2743 50.4848 41.5915 49.0684 43.6936 46.7848C45.7957 44.5011 48.1419 44.0496 49.6259 44.0016C51.1098 43.9536 53.5039 44.9903 53.5039 44.9903L47.4269 59.1052L41.6231 56.592C41.6231 56.592 40.8536 54.1008 41.064 52.2928Z" fill="#787465"/>
<path d="M34.9598 88.0625C35.6008 88.3401 36.3449 88.0439 36.6217 87.401L37.4362 85.5093L36.2754 85.0067L34.9598 88.0625Z" fill="#4C4A40"/>
<path d="M36.8738 85.4952C38.3326 85.8933 39.8682 85.1998 40.5378 83.8405L42.1186 80.6312L38.7814 79.1861L36.1501 85.2977L36.8738 85.4952Z" fill="#A19D8D"/>
<path d="M40.8517 80.4279C41.9876 80.9198 43.3097 80.4528 43.8876 79.3557L53.2308 61.6183L47.4269 59.1052L38.6561 79.4771L40.8517 80.4279Z" fill="#E4BE59"/>
<path d="M56.7344 59.0784C57.9024 57.6851 58.7129 56.4822 58.9288 53.3818C59.1446 50.2814 57.8635 48.2592 56.8807 47.1431C55.898 46.027 53.5039 44.9903 53.5039 44.9903L47.4269 59.1052L53.2308 61.6183C53.2308 61.6183 55.5665 60.4717 56.7344 59.0784Z" fill="#787465"/>
<path d="M43.3448 68.3867C42.824 68.1611 42.584 67.5548 42.8089 67.0324L43.686 64.9952C43.9109 64.4728 44.5155 64.2322 45.0364 64.4578C45.5572 64.6833 45.7972 65.2896 45.5723 65.812L44.6952 67.8492C44.4703 68.3716 43.8657 68.6122 43.3448 68.3867Z" fill="#252020"/>
<path d="M41.7218 50.7649C41.1608 50.522 40.9024 49.8691 41.1446 49.3065L41.2073 49.161C41.4495 48.5984 42.1006 48.3393 42.6615 48.5822L58.332 55.3678C58.8929 55.6107 59.1513 56.2636 58.9091 56.8262L58.8464 56.9717C58.6042 57.5342 57.9532 57.7934 57.3922 57.5505L41.7218 50.7649Z" fill="#B0AC9B"/>
<defs>
<linearGradient id="paint0_linear_374_2322" x1="46.5" y1="0" x2="46.5" y2="146.143" gradientUnits="userSpaceOnUse">
<stop stop-color="#674D80"/>
<stop offset="0.46875" stop-color="#24173C"/>
<stop offset="1" stop-color="#1E1E1E"/>
</linearGradient>
<linearGradient id="paint1_linear_374_2322" x1="34.4087" y1="19.6648" x2="57.1452" y2="74.8057" gradientUnits="userSpaceOnUse">
<stop stop-color="#0E0F11" stop-opacity="0"/>
<stop offset="0.463542" stop-color="#101114" stop-opacity="0.7"/>
<stop offset="1" stop-color="#16171B" stop-opacity="0"/>
</linearGradient>
<linearGradient id="paint2_linear_374_2322" x1="34.4087" y1="69.8616" x2="57.1081" y2="124.965" gradientUnits="userSpaceOnUse">
<stop stop-color="#0E0F11" stop-opacity="0"/>
<stop offset="0.46875" stop-color="#101114" stop-opacity="0.7"/>
<stop offset="1" stop-color="#16171B" stop-opacity="0"/>
</linearGradient>
</defs>
</svg>
