<svg width="93" height="146" viewBox="0 0 93 146" fill="none" xmlns="http://www.w3.org/2000/svg">
<rect width="93" height="146" rx="15" fill="url(#paint0_linear_374_2202)"/>
<path d="M73.8114 118.384L76.3564 123.934L82.4265 124.637L77.9294 128.77L79.1358 134.755L73.8114 131.759L68.487 134.755L69.6934 128.77L65.1963 124.637L71.2663 123.934L73.8114 118.384Z" fill="#B8B8C3"/>
<path d="M55.5584 118.248L58.1035 123.798L64.1735 124.501L59.6765 128.634L60.8829 134.619L55.5584 131.623L50.234 134.619L51.4404 128.634L46.9434 124.501L53.0134 123.798L55.5584 118.248Z" fill="#B8B8C3"/>
<path d="M55.5584 118.248L58.1035 123.798L64.1735 124.501L59.6765 128.634L60.8829 134.619L55.5584 131.623L50.234 134.619L51.4404 128.634L46.9434 124.501L53.0134 123.798L55.5584 118.248Z" fill="#B8B8C3"/>
<path d="M37.4413 118.248L39.9863 123.798L46.0563 124.501L41.5593 128.634L42.7657 134.619L37.4413 131.623L32.1168 134.619L33.3232 128.634L28.8262 124.501L34.8962 123.798L37.4413 118.248Z" fill="#B8B8C3"/>
<path d="M19.3246 118.248L21.8696 123.798L27.9396 124.501L23.4426 128.634L24.649 134.619L19.3246 131.623L14.0001 134.619L15.2065 128.634L10.7095 124.501L16.7795 123.798L19.3246 118.248Z" fill="#B8B8C3"/>
<path d="M73.8114 100.285L76.3564 105.835L82.4265 106.538L77.9294 110.671L79.1358 116.656L73.8114 113.66L68.487 116.656L69.6934 110.671L65.1963 106.538L71.2663 105.835L73.8114 100.285Z" fill="#B8B8C3"/>
<path d="M55.5584 100.149L58.1035 105.699L64.1735 106.402L59.6765 110.535L60.8829 116.52L55.5584 113.524L50.234 116.52L51.4404 110.535L46.9434 106.402L53.0134 105.699L55.5584 100.149Z" fill="#B8B8C3"/>
<path d="M37.4413 100.149L39.9863 105.699L46.0563 106.402L41.5593 110.535L42.7657 116.52L37.4413 113.524L32.1168 116.52L33.3232 110.535L28.8262 106.402L34.8962 105.699L37.4413 100.149Z" fill="#B8B8C3"/>
<path d="M19.3246 100.149L21.8696 105.699L27.9396 106.402L23.4426 110.535L24.649 116.52L19.3246 113.524L14.0001 116.52L15.2065 110.535L10.7095 106.402L16.7795 105.699L19.3246 100.149Z" fill="#B8B8C3"/>
<path d="M73.8114 82.1858L76.3564 87.7358L82.4265 88.4389L77.9294 92.5721L79.1358 98.5566L73.8114 95.5611L68.487 98.5566L69.6934 92.5721L65.1963 88.4389L71.2663 87.7358L73.8114 82.1858Z" fill="#B8B8C3"/>
<path d="M55.5584 82.0496L58.1035 87.5996L64.1735 88.3027L59.6765 92.4359L60.8829 98.4205L55.5584 95.4249L50.234 98.4205L51.4404 92.4359L46.9434 88.3027L53.0134 87.5996L55.5584 82.0496Z" fill="#B8B8C3"/>
<path d="M37.4413 82.0496L39.9863 87.5996L46.0563 88.3027L41.5593 92.4359L42.7657 98.4205L37.4413 95.4249L32.1168 98.4205L33.3232 92.4359L28.8262 88.3027L34.8962 87.5996L37.4413 82.0496Z" fill="#B8B8C3"/>
<path d="M19.3246 82.0496L21.8696 87.5996L27.9396 88.3027L23.4426 92.4359L24.649 98.4205L19.3246 95.4249L14.0001 98.4205L15.2065 92.4359L10.7095 88.3027L16.7795 87.5996L19.3246 82.0496Z" fill="#B8B8C3"/>
<path d="M73.8114 64.0866L76.3564 69.6366L82.4265 70.3397L77.9294 74.4729L79.1358 80.4575L73.8114 77.4619L68.487 80.4575L69.6934 74.4729L65.1963 70.3397L71.2663 69.6366L73.8114 64.0866Z" fill="#B8B8C3"/>
<path d="M55.5584 63.9504L58.1035 69.5005L64.1735 70.2036L59.6765 74.3367L60.8829 80.3213L55.5584 77.3257L50.234 80.3213L51.4404 74.3367L46.9434 70.2036L53.0134 69.5005L55.5584 63.9504Z" fill="#B8B8C3"/>
<path d="M37.4413 63.9504L39.9863 69.5005L46.0563 70.2036L41.5593 74.3367L42.7657 80.3213L37.4413 77.3257L32.1168 80.3213L33.3232 74.3367L28.8262 70.2036L34.8962 69.5005L37.4413 63.9504Z" fill="#B8B8C3"/>
<path d="M19.3246 63.9504L21.8696 69.5005L27.9396 70.2036L23.4426 74.3367L24.649 80.3213L19.3246 77.3257L14.0001 80.3213L15.2065 74.3367L10.7095 70.2036L16.7795 69.5005L19.3246 63.9504Z" fill="#B8B8C3"/>
<path d="M73.8114 45.9874L76.3564 51.5374L82.4265 52.2405L77.9294 56.3737L79.1358 62.3583L73.8114 59.3627L68.487 62.3583L69.6934 56.3737L65.1963 52.2405L71.2663 51.5374L73.8114 45.9874Z" fill="#B8B8C3"/>
<path d="M55.5584 45.8513L58.1035 51.4013L64.1735 52.1044L59.6765 56.2376L60.8829 62.2221L55.5584 59.2265L50.234 62.2221L51.4404 56.2376L46.9434 52.1044L53.0134 51.4013L55.5584 45.8513Z" fill="#B8B8C3"/>
<path d="M37.4413 45.8513L39.9863 51.4013L46.0563 52.1044L41.5593 56.2376L42.7657 62.2221L37.4413 59.2265L32.1168 62.2221L33.3232 56.2376L28.8262 52.1044L34.8962 51.4013L37.4413 45.8513Z" fill="#B8B8C3"/>
<path d="M19.3246 45.8513L21.8696 51.4013L27.9396 52.1044L23.4426 56.2376L24.649 62.2221L19.3246 59.2265L14.0001 62.2221L15.2065 56.2376L10.7095 52.1044L16.7795 51.4013L19.3246 45.8513Z" fill="#B8B8C3"/>
<path d="M73.8114 27.8882L76.3564 33.4383L82.4265 34.1414L77.9294 38.2745L79.1358 44.2591L73.8114 41.2635L68.487 44.2591L69.6934 38.2745L65.1963 34.1414L71.2663 33.4383L73.8114 27.8882Z" fill="#B8B8C3"/>
<path d="M55.5584 27.7521L58.1035 33.3021L64.1735 34.0052L59.6765 38.1384L60.8829 44.1229L55.5584 41.1274L50.234 44.1229L51.4404 38.1384L46.9434 34.0052L53.0134 33.3021L55.5584 27.7521Z" fill="#B8B8C3"/>
<path d="M37.4413 27.7521L39.9863 33.3021L46.0563 34.0052L41.5593 38.1384L42.7657 44.1229L37.4413 41.1274L32.1168 44.1229L33.3232 38.1384L28.8262 34.0052L34.8962 33.3021L37.4413 27.7521Z" fill="#B8B8C3"/>
<path d="M19.3246 27.7521L21.8696 33.3021L27.9396 34.0052L23.4426 38.1384L24.649 44.1229L19.3246 41.1274L14.0001 44.1229L15.2065 38.1384L10.7095 34.0052L16.7795 33.3021L19.3246 27.7521Z" fill="#B8B8C3"/>
<path d="M73.8114 9.78918L76.3564 15.3392L82.4265 16.0423L77.9294 20.1755L79.1358 26.16L73.8114 23.1645L68.487 26.16L69.6934 20.1755L65.1963 16.0423L71.2663 15.3392L73.8114 9.78918Z" fill="#B8B8C3"/>
<path d="M55.5584 9.65289L58.1035 15.2029L64.1735 15.906L59.6765 20.0392L60.8829 26.0238L55.5584 23.0282L50.234 26.0238L51.4404 20.0392L46.9434 15.906L53.0134 15.2029L55.5584 9.65289Z" fill="#B8B8C3"/>
<path d="M37.4413 9.65289L39.9863 15.2029L46.0563 15.906L41.5593 20.0392L42.7657 26.0238L37.4413 23.0282L32.1168 26.0238L33.3232 20.0392L28.8262 15.906L34.8962 15.2029L37.4413 9.65289Z" fill="#B8B8C3"/>
<path d="M19.3246 9.65289L21.8696 15.2029L27.9396 15.906L23.4426 20.0392L24.649 26.0238L19.3246 23.0282L14.0001 26.0238L15.2065 20.0392L10.7095 15.906L16.7795 15.2029L19.3246 9.65289Z" fill="#B8B8C3"/>
<path fill-rule="evenodd" clip-rule="evenodd" d="M93 59.8641L6.41801 95.6288L0 80.1219V33.6483L80.8189 0.264221C83.1881 0.714715 85.3599 1.72245 87.1928 3.14591L93 17.177V59.8641Z" fill="url(#paint1_linear_374_2202)"/>
<path fill-rule="evenodd" clip-rule="evenodd" d="M93 110.215L6.53911 145.929L0 130.13V83.9989L81.2651 50.4304C84.5222 51.1535 87.3809 52.9355 89.4611 55.3966L92.9486 63.8228C92.9826 64.2354 93 64.6527 93 65.074V110.215Z" fill="url(#paint2_linear_374_2202)"/>
<rect x="3" y="3" width="87" height="140" rx="12" stroke="#E5E5E5" stroke-width="6"/>
<path d="M22.8199 79.9453C22.8199 79.0341 23.554 78.2955 24.4596 78.2955H35.3227C36.2282 78.2955 36.9624 79.0341 36.9624 79.9453V90.8754C36.9624 91.7866 36.2282 92.5253 35.3227 92.5253H24.4596C23.554 92.5253 22.8199 91.7866 22.8199 90.8754V79.9453Z" fill="#DEAC43"/>
<path d="M29.5324 88.8131H27.1753V81.8632H29.5529C30.5914 81.8632 31.442 82.1863 32.1047 82.8325C32.7674 83.4718 33.0988 84.2692 33.0988 85.2247C33.0988 86.3384 32.7709 87.2149 32.115 87.8542C31.4659 88.4935 30.6051 88.8131 29.5324 88.8131ZM29.5017 83.1728H28.7946V87.5139H29.5119C30.1473 87.5139 30.6358 87.3145 30.9774 86.9158C31.3259 86.5171 31.5001 85.9534 31.5001 85.2247C31.5001 84.6061 31.3259 84.1111 30.9774 83.7399C30.629 83.3618 30.1371 83.1728 29.5017 83.1728Z" fill="white"/>
<path d="M40.1966 71.3353C40.5794 70.5095 41.555 70.1522 42.3757 70.5373L52.221 75.1566C53.0417 75.5417 53.3968 76.5233 53.0141 77.3491L48.4232 87.2552C48.0405 88.081 47.0649 88.4382 46.2441 88.0532L36.3988 83.4339C35.5781 83.0488 35.223 82.0672 35.6057 81.2414L40.1966 71.3353Z" fill="#5AC0C9"/>
<path d="M44.4627 83.2082L40.571 81.3823L43.4902 75.0835L47.3447 76.892L46.812 78.0415L44.3971 76.9085L43.7344 78.3383L45.8892 79.3493L45.3609 80.4895L43.206 79.4785L42.5434 80.9083L44.9954 82.0588L44.4627 83.2082Z" fill="white"/>
<path d="M52.1297 82.42C52.1297 81.5089 52.8638 80.7702 53.7694 80.7702H64.6325C65.5381 80.7702 66.2722 81.5089 66.2722 82.42V93.3502C66.2722 94.2613 65.5381 95 64.6325 95H53.7694C52.8638 95 52.1297 94.2613 52.1297 93.3502V82.42Z" fill="#5C6FC4"/>
<path d="M61.1789 89.2875H58.8935V91.9066H57.305V84.9566H61.5171V86.225H58.8935V88.0191H61.1789V89.2875Z" fill="white"/>
<path d="M22 60.9722C22 60.061 22.7341 59.3224 23.6397 59.3224H34.5028C35.4084 59.3224 36.1425 60.061 36.1425 60.9722V71.9024C36.1425 72.8135 35.4084 73.5522 34.5028 73.5522H23.6397C22.7341 73.5522 22 72.8135 22 71.9024V60.9722Z" fill="#5C6FC4"/>
<path d="M28.2412 67.3034L28.1694 67.5509H29.8296L29.7579 67.3034C29.5598 66.6298 29.3958 66.0558 29.266 65.5814C29.143 65.1071 29.0678 64.8012 29.0405 64.6637L28.9995 64.4575C28.9449 64.8356 28.6921 65.7842 28.2412 67.3034ZM27.3701 70.2525H25.7201L28.0259 63.3026H30.0141L32.3199 70.2525H30.629L30.2088 68.8295H27.7902L27.3701 70.2525Z" fill="white"/>
<path d="M36.157 54.9062C35.9226 54.026 36.4417 53.1214 37.3164 52.8856L47.8094 50.0566C48.6841 49.8208 49.5832 50.3431 49.8176 51.2232L52.6292 61.7809C52.8636 62.6611 52.3445 63.5657 51.4697 63.8016L40.9768 66.6305C40.102 66.8663 39.2029 66.344 38.9686 65.4639L36.157 54.9062Z" fill="#4FD5AA"/>
<path d="M45.5864 61.1589L42.7058 61.9355L40.918 55.2224L43.5116 54.5232C44.2441 54.3257 44.8486 54.3513 45.3251 54.6001C45.7998 54.8421 46.1088 55.2321 46.252 55.77C46.3457 56.1219 46.3356 56.4556 46.2215 56.771C46.1075 57.0864 45.9143 57.3306 45.6421 57.5036C46.4761 57.5279 47.0019 57.9484 47.2194 58.7651C47.3608 59.2963 47.2862 59.7861 46.9954 60.2346C46.7094 60.6747 46.2397 60.9828 45.5864 61.1589ZM43.5805 55.8177L42.7687 56.0365L43.1693 57.5405L43.7335 57.3884C44.1295 57.2816 44.407 57.1285 44.5661 56.9291C44.7317 56.7278 44.7827 56.5077 44.7191 56.2686C44.5935 55.7972 44.214 55.6469 43.5805 55.8177ZM44.3019 58.5268L43.4902 58.7457L43.904 60.2994L44.7058 60.0833C45.4581 59.8804 45.7653 59.5201 45.6274 59.0021C45.4895 58.4842 45.0476 58.3258 44.3019 58.5268Z" fill="white"/>
<path d="M53.4376 66.6252C53.0549 65.7994 53.4099 64.8178 54.2307 64.4327L64.076 59.8134C64.8967 59.4283 65.8723 59.7856 66.255 60.6114L70.846 70.5175C71.2287 71.3433 70.8736 72.3249 70.0529 72.71L60.2076 77.3293C59.3868 77.7143 58.4112 77.3571 58.0285 76.5313L53.4376 66.6252Z" fill="#FF94BB"/>
<path d="M65.702 70.3432C65.434 70.7572 64.944 71.1312 64.2319 71.4653C63.3155 71.8953 62.4105 71.9596 61.517 71.6582C60.6268 71.3477 59.9623 70.719 59.5234 69.772C59.0787 68.8125 59.0136 67.8912 59.3279 67.008C59.6485 66.1218 60.2886 65.4536 61.2484 65.0033C61.9543 64.6721 62.5509 64.5363 63.0384 64.5958L63.6794 65.9789C63.0822 65.9102 62.4987 66.0095 61.9291 66.2768C61.4275 66.5121 61.0887 66.8872 60.9128 67.4021C60.7339 67.9108 60.7816 68.4611 61.0559 69.053C61.3244 69.6324 61.7084 70.0135 62.2077 70.1964C62.7042 70.373 63.2218 70.335 63.7605 70.0822C64.3426 69.8091 64.7717 69.4257 65.048 68.932L65.702 70.3432Z" fill="white"/>
<defs>
<linearGradient id="paint0_linear_374_2202" x1="46.5" y1="0" x2="46.5" y2="146" gradientUnits="userSpaceOnUse">
<stop stop-color="#674D80"/>
<stop offset="0.46875" stop-color="#24173C"/>
<stop offset="1" stop-color="#1E1E1E"/>
</linearGradient>
<linearGradient id="paint1_linear_374_2202" x1="34.4087" y1="19.6456" x2="57.1073" y2="74.7482" gradientUnits="userSpaceOnUse">
<stop stop-color="#0E0F11" stop-opacity="0"/>
<stop offset="0.463542" stop-color="#101114" stop-opacity="0.7"/>
<stop offset="1" stop-color="#16171B" stop-opacity="0"/>
</linearGradient>
<linearGradient id="paint2_linear_374_2202" x1="34.4087" y1="69.7933" x2="57.0702" y2="124.859" gradientUnits="userSpaceOnUse">
<stop stop-color="#0E0F11" stop-opacity="0"/>
<stop offset="0.46875" stop-color="#101114" stop-opacity="0.7"/>
<stop offset="1" stop-color="#16171B" stop-opacity="0"/>
</linearGradient>
</defs>
</svg>
