<svg width="93" height="146" viewBox="0 0 93 146" fill="none" xmlns="http://www.w3.org/2000/svg">
<rect width="93" height="146" rx="15" fill="url(#paint0_linear_374_2282)"/>
<path d="M73.8119 118.384L76.3569 123.934L82.427 124.637L77.9299 128.77L79.1363 134.755L73.8119 131.759L68.4874 134.755L69.6938 128.77L65.1968 124.637L71.2668 123.934L73.8119 118.384Z" fill="url(#paint1_diamond_374_2282)"/>
<path d="M55.5584 118.248L58.1035 123.798L64.1735 124.501L59.6765 128.634L60.8829 134.619L55.5584 131.623L50.234 134.619L51.4404 128.634L46.9434 124.501L53.0134 123.798L55.5584 118.248Z" fill="url(#paint2_diamond_374_2282)"/>
<path d="M55.5584 118.248L58.1035 123.798L64.1735 124.501L59.6765 128.634L60.8829 134.619L55.5584 131.623L50.234 134.619L51.4404 128.634L46.9434 124.501L53.0134 123.798L55.5584 118.248Z" fill="url(#paint3_diamond_374_2282)"/>
<path d="M37.4413 118.248L39.9863 123.798L46.0563 124.501L41.5593 128.634L42.7657 134.619L37.4413 131.623L32.1168 134.619L33.3232 128.634L28.8262 124.501L34.8962 123.798L37.4413 118.248Z" fill="url(#paint4_diamond_374_2282)"/>
<path d="M19.3246 118.248L21.8696 123.798L27.9396 124.501L23.4426 128.634L24.649 134.619L19.3246 131.623L14.0001 134.619L15.2065 128.634L10.7095 124.501L16.7795 123.798L19.3246 118.248Z" fill="url(#paint5_diamond_374_2282)"/>
<path d="M73.8119 100.285L76.3569 105.835L82.427 106.538L77.9299 110.671L79.1363 116.656L73.8119 113.66L68.4874 116.656L69.6938 110.671L65.1968 106.538L71.2668 105.835L73.8119 100.285Z" fill="url(#paint6_diamond_374_2282)"/>
<path d="M55.5584 100.149L58.1035 105.699L64.1735 106.402L59.6765 110.535L60.8829 116.52L55.5584 113.524L50.234 116.52L51.4404 110.535L46.9434 106.402L53.0134 105.699L55.5584 100.149Z" fill="url(#paint7_diamond_374_2282)"/>
<path d="M37.4413 100.149L39.9863 105.699L46.0563 106.402L41.5593 110.535L42.7657 116.52L37.4413 113.524L32.1168 116.52L33.3232 110.535L28.8262 106.402L34.8962 105.699L37.4413 100.149Z" fill="url(#paint8_diamond_374_2282)"/>
<path d="M19.3246 100.149L21.8696 105.699L27.9396 106.402L23.4426 110.535L24.649 116.52L19.3246 113.524L14.0001 116.52L15.2065 110.535L10.7095 106.402L16.7795 105.699L19.3246 100.149Z" fill="url(#paint9_diamond_374_2282)"/>
<path d="M73.8119 82.1858L76.3569 87.7358L82.427 88.4389L77.9299 92.5721L79.1363 98.5566L73.8119 95.5611L68.4874 98.5566L69.6938 92.5721L65.1968 88.4389L71.2668 87.7358L73.8119 82.1858Z" fill="url(#paint10_diamond_374_2282)"/>
<path d="M55.5584 82.0496L58.1035 87.5996L64.1735 88.3027L59.6765 92.4359L60.8829 98.4205L55.5584 95.4249L50.234 98.4205L51.4404 92.4359L46.9434 88.3027L53.0134 87.5996L55.5584 82.0496Z" fill="url(#paint11_diamond_374_2282)"/>
<path d="M37.4413 82.0496L39.9863 87.5996L46.0563 88.3027L41.5593 92.4359L42.7657 98.4205L37.4413 95.4249L32.1168 98.4205L33.3232 92.4359L28.8262 88.3027L34.8962 87.5996L37.4413 82.0496Z" fill="url(#paint12_diamond_374_2282)"/>
<path d="M19.3246 82.0496L21.8696 87.5996L27.9396 88.3027L23.4426 92.4359L24.649 98.4205L19.3246 95.4249L14.0001 98.4205L15.2065 92.4359L10.7095 88.3027L16.7795 87.5996L19.3246 82.0496Z" fill="url(#paint13_diamond_374_2282)"/>
<path d="M73.8119 64.0865L76.3569 69.6366L82.427 70.3397L77.9299 74.4729L79.1363 80.4574L73.8119 77.4618L68.4874 80.4574L69.6938 74.4729L65.1968 70.3397L71.2668 69.6366L73.8119 64.0865Z" fill="url(#paint14_diamond_374_2282)"/>
<path d="M55.5584 63.9504L58.1035 69.5004L64.1735 70.2035L59.6765 74.3367L60.8829 80.3212L55.5584 77.3257L50.234 80.3212L51.4404 74.3367L46.9434 70.2035L53.0134 69.5004L55.5584 63.9504Z" fill="url(#paint15_diamond_374_2282)"/>
<path d="M37.4413 63.9504L39.9863 69.5004L46.0563 70.2035L41.5593 74.3367L42.7657 80.3212L37.4413 77.3257L32.1168 80.3212L33.3232 74.3367L28.8262 70.2035L34.8962 69.5004L37.4413 63.9504Z" fill="url(#paint16_diamond_374_2282)"/>
<path d="M19.3246 63.9504L21.8696 69.5004L27.9396 70.2035L23.4426 74.3367L24.649 80.3212L19.3246 77.3257L14.0001 80.3212L15.2065 74.3367L10.7095 70.2035L16.7795 69.5004L19.3246 63.9504Z" fill="url(#paint17_diamond_374_2282)"/>
<path d="M73.8119 45.9874L76.3569 51.5374L82.427 52.2405L77.9299 56.3737L79.1363 62.3583L73.8119 59.3627L68.4874 62.3583L69.6938 56.3737L65.1968 52.2405L71.2668 51.5374L73.8119 45.9874Z" fill="url(#paint18_diamond_374_2282)"/>
<path d="M55.5584 45.8513L58.1035 51.4013L64.1735 52.1044L59.6765 56.2376L60.8829 62.2221L55.5584 59.2265L50.234 62.2221L51.4404 56.2376L46.9434 52.1044L53.0134 51.4013L55.5584 45.8513Z" fill="url(#paint19_diamond_374_2282)"/>
<path d="M37.4413 45.8513L39.9863 51.4013L46.0563 52.1044L41.5593 56.2376L42.7657 62.2221L37.4413 59.2265L32.1168 62.2221L33.3232 56.2376L28.8262 52.1044L34.8962 51.4013L37.4413 45.8513Z" fill="url(#paint20_diamond_374_2282)"/>
<path d="M19.3246 45.8513L21.8696 51.4013L27.9396 52.1044L23.4426 56.2376L24.649 62.2221L19.3246 59.2265L14.0001 62.2221L15.2065 56.2376L10.7095 52.1044L16.7795 51.4013L19.3246 45.8513Z" fill="url(#paint21_diamond_374_2282)"/>
<path d="M73.8119 27.8882L76.3569 33.4383L82.427 34.1414L77.9299 38.2745L79.1363 44.2591L73.8119 41.2635L68.4874 44.2591L69.6938 38.2745L65.1968 34.1414L71.2668 33.4383L73.8119 27.8882Z" fill="url(#paint22_diamond_374_2282)"/>
<path d="M55.5584 27.7521L58.1035 33.3021L64.1735 34.0052L59.6765 38.1384L60.8829 44.1229L55.5584 41.1274L50.234 44.1229L51.4404 38.1384L46.9434 34.0052L53.0134 33.3021L55.5584 27.7521Z" fill="url(#paint23_diamond_374_2282)"/>
<path d="M37.4413 27.7521L39.9863 33.3021L46.0563 34.0052L41.5593 38.1384L42.7657 44.1229L37.4413 41.1274L32.1168 44.1229L33.3232 38.1384L28.8262 34.0052L34.8962 33.3021L37.4413 27.7521Z" fill="url(#paint24_diamond_374_2282)"/>
<path d="M19.3246 27.7521L21.8696 33.3021L27.9396 34.0052L23.4426 38.1384L24.649 44.1229L19.3246 41.1274L14.0001 44.1229L15.2065 38.1384L10.7095 34.0052L16.7795 33.3021L19.3246 27.7521Z" fill="url(#paint25_diamond_374_2282)"/>
<path d="M73.8119 9.78906L76.3569 15.3391L82.427 16.0422L77.9299 20.1754L79.1363 26.1599L73.8119 23.1644L68.4874 26.1599L69.6938 20.1754L65.1968 16.0422L71.2668 15.3391L73.8119 9.78906Z" fill="url(#paint26_diamond_374_2282)"/>
<path d="M55.5584 9.65289L58.1035 15.2029L64.1735 15.906L59.6765 20.0392L60.8829 26.0238L55.5584 23.0282L50.234 26.0238L51.4404 20.0392L46.9434 15.906L53.0134 15.2029L55.5584 9.65289Z" fill="url(#paint27_diamond_374_2282)"/>
<path d="M37.4417 9.65289L39.9868 15.2029L46.0568 15.906L41.5598 20.0392L42.7662 26.0238L37.4417 23.0282L32.1173 26.0238L33.3237 20.0392L28.8267 15.906L34.8967 15.2029L37.4417 9.65289Z" fill="url(#paint28_diamond_374_2282)"/>
<path d="M19.3246 9.65289L21.8696 15.2029L27.9396 15.906L23.4426 20.0392L24.649 26.0238L19.3246 23.0282L14.0001 26.0238L15.2065 20.0392L10.7095 15.906L16.7795 15.2029L19.3246 9.65289Z" fill="url(#paint29_diamond_374_2282)"/>
<path fill-rule="evenodd" clip-rule="evenodd" d="M93 59.864L6.41801 95.6287L0 80.1218V33.6483L80.8185 0.264343C83.1879 0.714814 85.3599 1.72262 87.1929 3.14621L93 17.177V59.864Z" fill="url(#paint30_linear_374_2282)"/>
<path fill-rule="evenodd" clip-rule="evenodd" d="M93 110.215L6.53911 145.929L0 130.13V83.999L81.2651 50.4306C84.5222 51.1536 87.3809 52.9356 89.4611 55.3968L92.9486 63.823C92.9826 64.2356 93 64.6529 93 65.0742V110.215Z" fill="url(#paint31_linear_374_2282)"/>
<rect x="3" y="3" width="87" height="140" rx="12" stroke="#E5E5E5" stroke-width="6"/>
<path d="M52.6899 73.2097C52.5741 70.7741 53.882 67.5477 55.8637 64.6301C59.4437 59.3594 65.2226 55.0965 68.7794 58.3232C72.9878 62.1409 65.507 68.602 58.6138 71.5998C56.4561 72.5382 54.3559 73.1373 52.6899 73.2097Z" fill="#4FD5AA"/>
<path d="M39.0479 56.096C37.4654 56.1688 36.8534 55.1086 36.61 53.1338H40.5918C40.5918 53.1338 41.0161 50.2443 38.8853 50.0198C37.738 50.0198 37.4874 49.9817 36.61 50.3236C35.3035 51.1327 34.8122 51.6714 34.6594 52.906C34.4156 57.1593 35.472 58.4505 38.308 64.6785L38.3196 64.7026C38.7801 65.6583 40.8599 69.975 41.3401 74.0206C41.4818 75.2146 41.4841 76.385 41.2644 77.4384C40.9747 78.827 40.2081 80.3161 38.9569 80.9322C38.9569 80.9322 54.4869 81.1601 56.1934 80.7803C57.8998 80.4005 60.9877 77.4384 58.7937 72.0458C58.7937 72.0458 58.7297 71.8879 58.6138 71.5998C56.4561 72.5382 54.3559 73.1373 52.6899 73.2097C52.5741 70.7741 53.882 67.5477 55.8637 64.6301C54.7575 61.7704 53.5596 58.5939 52.6992 56.096H39.0479Z" fill="#E4E7CC"/>
<path d="M36.7722 80.8012C37.724 80.9282 38.063 80.9322 38.9569 80.9322C40.2081 80.3161 40.9747 78.827 41.2644 77.4384H37.7477C39.2099 75.8434 37.9098 74.1082 36.5284 74.0206C35.1469 73.933 33.8784 75.5129 34.0093 77.4384C34.273 79.6015 35.0293 80.4018 36.7722 80.8012Z" fill="#E4E7CC"/>
<path d="M36.5284 74.0206C37.9098 74.1082 39.2099 75.8434 37.7477 77.4384H41.2644C41.4841 76.385 41.4818 75.2146 41.3401 74.0206H36.5284Z" fill="#E4E7CC"/>
<path d="M40.5918 53.1338C40.5918 53.1338 40.1897 55.9912 39.0479 56.096H52.6992H57.1685C60.3281 54.4763 59.003 50.7632 56.0308 50.3236C53.0586 49.884 38.8853 50.0198 38.8853 50.0198C41.0161 50.2443 40.5918 53.1338 40.5918 53.1338Z" fill="#E4E7CC"/>
<path d="M36.61 53.1338C36.8534 55.1086 37.4654 56.1688 39.0479 56.096C40.1897 55.9912 40.5918 53.1338 40.5918 53.1338H36.61Z" fill="#E4E7CC"/>
<path d="M39.0479 56.096C37.4654 56.1688 36.8534 55.1086 36.61 53.1338H40.5918M39.0479 56.096C40.1897 55.9912 40.5918 53.1338 40.5918 53.1338M39.0479 56.096H52.6992M40.5918 53.1338C40.5918 53.1338 41.0161 50.2443 38.8853 50.0198M38.8853 50.0198C37.738 50.0198 37.4874 49.9817 36.61 50.3236C35.3035 51.1327 34.8122 51.6714 34.6594 52.906C34.4156 57.1593 35.472 58.4505 38.308 64.6785L38.3196 64.7026C38.7801 65.6583 40.8599 69.975 41.3401 74.0206M38.8853 50.0198C38.8853 50.0198 53.0586 49.884 56.0308 50.3236C59.003 50.7632 60.3281 54.4763 57.1685 56.096H52.6992M38.9569 80.9322C38.063 80.9322 37.724 80.9282 36.7722 80.8012C35.0293 80.4018 34.273 79.6015 34.0093 77.4384C33.8784 75.5129 35.1469 73.933 36.5284 74.0206M38.9569 80.9322C38.9569 80.9322 54.4869 81.1601 56.1934 80.7803C57.8998 80.4005 60.9877 77.4384 58.7937 72.0458C58.7937 72.0458 58.7297 71.8879 58.6138 71.5998M38.9569 80.9322C40.2081 80.3161 40.9747 78.827 41.2644 77.4384M36.5284 74.0206C37.9098 74.1082 39.2099 75.8434 37.7477 77.4384H41.2644M36.5284 74.0206H41.3401M52.6992 56.096C53.5596 58.5939 54.7575 61.7704 55.8637 64.6301M41.2644 77.4384C41.4841 76.385 41.4818 75.2146 41.3401 74.0206M39.535 59.7416H50.6677M41.2415 63.2354H52.1303M42.7041 66.6533H53.7555M43.7605 70.0711H51.8866M44.8169 73.4889H50.3426M44.4919 76.9068H47.8235M49.1144 76.5516L52.6899 73.2097M52.6899 73.2097L66.0166 60.7536M52.6899 73.2097C54.3559 73.1373 56.4561 72.5382 58.6138 71.5998M52.6899 73.2097C52.5741 70.7741 53.882 67.5477 55.8637 64.6301M58.6138 71.5998C65.507 68.602 72.9878 62.1409 68.7794 58.3232C65.2226 55.0965 59.4437 59.3594 55.8637 64.6301" stroke="black" stroke-linecap="round"/>
<defs>
<linearGradient id="paint0_linear_374_2282" x1="46.5" y1="0" x2="46.5" y2="146" gradientUnits="userSpaceOnUse">
<stop stop-color="#674D80"/>
<stop offset="0.46875" stop-color="#24173C"/>
<stop offset="1" stop-color="#1E1E1E"/>
</linearGradient>
<radialGradient id="paint1_diamond_374_2282" cx="0" cy="0" r="1" gradientUnits="userSpaceOnUse" gradientTransform="translate(76.2009 122.235) rotate(134.599) scale(14.6024 14.1508)">
<stop offset="0.358888" stop-color="#FCFBEC"/>
<stop offset="0.942951" stop-color="#CBC4AC"/>
</radialGradient>
<radialGradient id="paint2_diamond_374_2282" cx="0" cy="0" r="1" gradientUnits="userSpaceOnUse" gradientTransform="translate(57.9475 122.099) rotate(134.599) scale(14.6024 14.1508)">
<stop offset="0.358888" stop-color="#FCFBEC"/>
<stop offset="0.942951" stop-color="#CBC4AC"/>
</radialGradient>
<radialGradient id="paint3_diamond_374_2282" cx="0" cy="0" r="1" gradientUnits="userSpaceOnUse" gradientTransform="translate(57.9475 122.099) rotate(134.599) scale(14.6024 14.1508)">
<stop offset="0.358888" stop-color="#FCFBEC"/>
<stop offset="0.942951" stop-color="#CBC4AC"/>
</radialGradient>
<radialGradient id="paint4_diamond_374_2282" cx="0" cy="0" r="1" gradientUnits="userSpaceOnUse" gradientTransform="translate(39.8303 122.099) rotate(134.599) scale(14.6024 14.1508)">
<stop offset="0.358888" stop-color="#FCFBEC"/>
<stop offset="0.942951" stop-color="#CBC4AC"/>
</radialGradient>
<radialGradient id="paint5_diamond_374_2282" cx="0" cy="0" r="1" gradientUnits="userSpaceOnUse" gradientTransform="translate(21.7136 122.099) rotate(134.599) scale(14.6024 14.1508)">
<stop offset="0.358888" stop-color="#FCFBEC"/>
<stop offset="0.942951" stop-color="#CBC4AC"/>
</radialGradient>
<radialGradient id="paint6_diamond_374_2282" cx="0" cy="0" r="1" gradientUnits="userSpaceOnUse" gradientTransform="translate(76.2009 104.136) rotate(134.599) scale(14.6024 14.1508)">
<stop offset="0.358888" stop-color="#FCFBEC"/>
<stop offset="0.942951" stop-color="#CBC4AC"/>
</radialGradient>
<radialGradient id="paint7_diamond_374_2282" cx="0" cy="0" r="1" gradientUnits="userSpaceOnUse" gradientTransform="translate(57.9475 104) rotate(134.599) scale(14.6024 14.1508)">
<stop offset="0.358888" stop-color="#FCFBEC"/>
<stop offset="0.942951" stop-color="#CBC4AC"/>
</radialGradient>
<radialGradient id="paint8_diamond_374_2282" cx="0" cy="0" r="1" gradientUnits="userSpaceOnUse" gradientTransform="translate(39.8303 104) rotate(134.599) scale(14.6024 14.1508)">
<stop offset="0.358888" stop-color="#FCFBEC"/>
<stop offset="0.942951" stop-color="#CBC4AC"/>
</radialGradient>
<radialGradient id="paint9_diamond_374_2282" cx="0" cy="0" r="1" gradientUnits="userSpaceOnUse" gradientTransform="translate(21.7136 104) rotate(134.599) scale(14.6024 14.1508)">
<stop offset="0.358888" stop-color="#FCFBEC"/>
<stop offset="0.942951" stop-color="#CBC4AC"/>
</radialGradient>
<radialGradient id="paint10_diamond_374_2282" cx="0" cy="0" r="1" gradientUnits="userSpaceOnUse" gradientTransform="translate(76.2009 86.0367) rotate(134.599) scale(14.6024 14.1508)">
<stop offset="0.358888" stop-color="#FCFBEC"/>
<stop offset="0.942951" stop-color="#CBC4AC"/>
</radialGradient>
<radialGradient id="paint11_diamond_374_2282" cx="0" cy="0" r="1" gradientUnits="userSpaceOnUse" gradientTransform="translate(57.9475 85.9005) rotate(134.599) scale(14.6024 14.1508)">
<stop offset="0.358888" stop-color="#FCFBEC"/>
<stop offset="0.942951" stop-color="#CBC4AC"/>
</radialGradient>
<radialGradient id="paint12_diamond_374_2282" cx="0" cy="0" r="1" gradientUnits="userSpaceOnUse" gradientTransform="translate(39.8303 85.9005) rotate(134.599) scale(14.6024 14.1508)">
<stop offset="0.358888" stop-color="#FCFBEC"/>
<stop offset="0.942951" stop-color="#CBC4AC"/>
</radialGradient>
<radialGradient id="paint13_diamond_374_2282" cx="0" cy="0" r="1" gradientUnits="userSpaceOnUse" gradientTransform="translate(21.7136 85.9005) rotate(134.599) scale(14.6024 14.1508)">
<stop offset="0.358888" stop-color="#FCFBEC"/>
<stop offset="0.942951" stop-color="#CBC4AC"/>
</radialGradient>
<radialGradient id="paint14_diamond_374_2282" cx="0" cy="0" r="1" gradientUnits="userSpaceOnUse" gradientTransform="translate(76.2009 67.9374) rotate(134.599) scale(14.6024 14.1508)">
<stop offset="0.358888" stop-color="#FCFBEC"/>
<stop offset="0.942951" stop-color="#CBC4AC"/>
</radialGradient>
<radialGradient id="paint15_diamond_374_2282" cx="0" cy="0" r="1" gradientUnits="userSpaceOnUse" gradientTransform="translate(57.9475 67.8013) rotate(134.599) scale(14.6024 14.1508)">
<stop offset="0.358888" stop-color="#FCFBEC"/>
<stop offset="0.942951" stop-color="#CBC4AC"/>
</radialGradient>
<radialGradient id="paint16_diamond_374_2282" cx="0" cy="0" r="1" gradientUnits="userSpaceOnUse" gradientTransform="translate(39.8303 67.8013) rotate(134.599) scale(14.6024 14.1508)">
<stop offset="0.358888" stop-color="#FCFBEC"/>
<stop offset="0.942951" stop-color="#CBC4AC"/>
</radialGradient>
<radialGradient id="paint17_diamond_374_2282" cx="0" cy="0" r="1" gradientUnits="userSpaceOnUse" gradientTransform="translate(21.7136 67.8013) rotate(134.599) scale(14.6024 14.1508)">
<stop offset="0.358888" stop-color="#FCFBEC"/>
<stop offset="0.942951" stop-color="#CBC4AC"/>
</radialGradient>
<radialGradient id="paint18_diamond_374_2282" cx="0" cy="0" r="1" gradientUnits="userSpaceOnUse" gradientTransform="translate(76.2009 49.8383) rotate(134.599) scale(14.6024 14.1508)">
<stop offset="0.358888" stop-color="#FCFBEC"/>
<stop offset="0.942951" stop-color="#CBC4AC"/>
</radialGradient>
<radialGradient id="paint19_diamond_374_2282" cx="0" cy="0" r="1" gradientUnits="userSpaceOnUse" gradientTransform="translate(57.9475 49.7021) rotate(134.599) scale(14.6024 14.1508)">
<stop offset="0.358888" stop-color="#FCFBEC"/>
<stop offset="0.942951" stop-color="#CBC4AC"/>
</radialGradient>
<radialGradient id="paint20_diamond_374_2282" cx="0" cy="0" r="1" gradientUnits="userSpaceOnUse" gradientTransform="translate(39.8303 49.7021) rotate(134.599) scale(14.6024 14.1508)">
<stop offset="0.358888" stop-color="#FCFBEC"/>
<stop offset="0.942951" stop-color="#CBC4AC"/>
</radialGradient>
<radialGradient id="paint21_diamond_374_2282" cx="0" cy="0" r="1" gradientUnits="userSpaceOnUse" gradientTransform="translate(21.7136 49.7021) rotate(134.599) scale(14.6024 14.1508)">
<stop offset="0.358888" stop-color="#FCFBEC"/>
<stop offset="0.942951" stop-color="#CBC4AC"/>
</radialGradient>
<radialGradient id="paint22_diamond_374_2282" cx="0" cy="0" r="1" gradientUnits="userSpaceOnUse" gradientTransform="translate(76.2009 31.7391) rotate(134.599) scale(14.6024 14.1508)">
<stop offset="0.358888" stop-color="#FCFBEC"/>
<stop offset="0.942951" stop-color="#CBC4AC"/>
</radialGradient>
<radialGradient id="paint23_diamond_374_2282" cx="0" cy="0" r="1" gradientUnits="userSpaceOnUse" gradientTransform="translate(57.9475 31.603) rotate(134.599) scale(14.6024 14.1508)">
<stop offset="0.358888" stop-color="#FCFBEC"/>
<stop offset="0.942951" stop-color="#CBC4AC"/>
</radialGradient>
<radialGradient id="paint24_diamond_374_2282" cx="0" cy="0" r="1" gradientUnits="userSpaceOnUse" gradientTransform="translate(39.8303 31.603) rotate(134.599) scale(14.6024 14.1508)">
<stop offset="0.358888" stop-color="#FCFBEC"/>
<stop offset="0.942951" stop-color="#CBC4AC"/>
</radialGradient>
<radialGradient id="paint25_diamond_374_2282" cx="0" cy="0" r="1" gradientUnits="userSpaceOnUse" gradientTransform="translate(21.7136 31.603) rotate(134.599) scale(14.6024 14.1508)">
<stop offset="0.358888" stop-color="#FCFBEC"/>
<stop offset="0.942951" stop-color="#CBC4AC"/>
</radialGradient>
<radialGradient id="paint26_diamond_374_2282" cx="0" cy="0" r="1" gradientUnits="userSpaceOnUse" gradientTransform="translate(76.2009 13.64) rotate(134.599) scale(14.6024 14.1508)">
<stop offset="0.358888" stop-color="#FCFBEC"/>
<stop offset="0.942951" stop-color="#CBC4AC"/>
</radialGradient>
<radialGradient id="paint27_diamond_374_2282" cx="0" cy="0" r="1" gradientUnits="userSpaceOnUse" gradientTransform="translate(57.9475 13.5038) rotate(134.599) scale(14.6024 14.1508)">
<stop offset="0.358888" stop-color="#FCFBEC"/>
<stop offset="0.942951" stop-color="#CBC4AC"/>
</radialGradient>
<radialGradient id="paint28_diamond_374_2282" cx="0" cy="0" r="1" gradientUnits="userSpaceOnUse" gradientTransform="translate(39.8308 13.5038) rotate(134.599) scale(14.6024 14.1508)">
<stop offset="0.358888" stop-color="#FCFBEC"/>
<stop offset="0.942951" stop-color="#CBC4AC"/>
</radialGradient>
<radialGradient id="paint29_diamond_374_2282" cx="0" cy="0" r="1" gradientUnits="userSpaceOnUse" gradientTransform="translate(21.7136 13.5038) rotate(134.599) scale(14.6024 14.1508)">
<stop offset="0.358888" stop-color="#FCFBEC"/>
<stop offset="0.942951" stop-color="#CBC4AC"/>
</radialGradient>
<linearGradient id="paint30_linear_374_2282" x1="34.4087" y1="19.6456" x2="57.1072" y2="74.7483" gradientUnits="userSpaceOnUse">
<stop stop-color="#0E0F11" stop-opacity="0"/>
<stop offset="0.463542" stop-color="#101114" stop-opacity="0.7"/>
<stop offset="1" stop-color="#16171B" stop-opacity="0"/>
</linearGradient>
<linearGradient id="paint31_linear_374_2282" x1="34.4087" y1="69.7935" x2="57.0701" y2="124.859" gradientUnits="userSpaceOnUse">
<stop stop-color="#0E0F11" stop-opacity="0"/>
<stop offset="0.46875" stop-color="#101114" stop-opacity="0.7"/>
<stop offset="1" stop-color="#16171B" stop-opacity="0"/>
</linearGradient>
</defs>
</svg>
